<?xml version="1.0" encoding="utf-8"?>
<!-- Generator: Adobe Illustrator 24.0.1, SVG Export Plug-In . SVG Version: 6.00 Build 0)  -->
<svg version="1.1" id="Layer_1" xmlns="http://www.w3.org/2000/svg" xmlns:xlink="http://www.w3.org/1999/xlink" x="0px" y="0px"
	 viewBox="0 0 234.3 340" style="enable-background:new 0 0 234.3 340;" xml:space="preserve">
<style type="text/css">
	.st0{fill:none;stroke:#211915;stroke-miterlimit:10;}
	.st1{fill:#FF0001;}
	.st2{fill:#FF0101;}
	.st3{fill:#FF0201;}
	.st4{fill:#FF0301;}
	.st5{fill:#FF0401;}
	.st6{fill:#FF0501;}
	.st7{fill:#FF0300;}
	.st8{fill:#FF0000;}
	.st9{fill:#FF0400;}
	.st10{fill:#FF0100;}
	.st11{fill:#FF0500;}
	.st12{fill:#FF0200;}
	.st13{fill:#FF0002;}
	.st14{fill:#FF0102;}
	.st15{fill:#FF0202;}
	.st16{fill:#FF0302;}
	.st17{fill:#FF0402;}
	.st18{fill:#FF0502;}
	.st19{fill:#5FA199;}
	.st20{fill:#FF0003;}
	.st21{fill:#FF0103;}
	.st22{fill:#FF0203;}
	.st23{fill:#FF0303;}
	.st24{fill:#FF0404;}
	.st25{fill:#FF0504;}
	.st26{fill:#FF0004;}
	.st27{fill:#FF0104;}
	.st28{fill:#FF0204;}
	.st29{fill:#FF0304;}
	.st30{fill:none;stroke:#9A999E;stroke-miterlimit:10;}
	.st31{fill:#FF0005;}
	.st32{fill:#FF0105;}
	.st33{fill:#FF0205;}
	.st34{fill:#FF0305;}
	.st35{fill:#FF0405;}
	.st36{fill:#FF0505;}
	.st37{fill:#FF0006;}
	.st38{fill:#FF0106;}
	.st39{fill:#FF0007;}
	.st40{fill:#FF0107;}
</style>
<title>mapa teste - Coworking</title>
<g id="Plant">
	<polyline class="st0" points="0.6,28.5 128.6,29.5 128.6,0.5 233.6,0.5 233.6,29.5 233.6,224.5 103.6,224.5 103.6,339.5 0.6,339.5 
		0.6,28.5 	"/>
</g>
<g id="Tables">
	<polygon class="st1" points="32.8,73.8 20.9,73.8 21.2,51.1 33.2,51.1 	"/>
	<polygon class="st2" points="48.3,73.8 36.4,73.8 36.8,51.1 48.8,51.1 	"/>
	<polygon class="st3" points="32.8,100.5 20.9,100.5 21.2,77.8 33.2,77.8 	"/>
	<polygon class="st4" points="48.3,100.5 36.4,100.5 36.8,77.8 48.8,77.8 	"/>
	<polygon class="st5" points="32.8,127.2 20.9,127.2 21.2,104.5 33.2,104.5 	"/>
	<polygon class="st6" points="48.3,127.2 36.4,127.2 36.8,104.5 48.8,104.5 	"/>
	<polyline class="st7" points="141.8,42.9 141.8,30.9 164.5,31.3 164.5,43.3 	"/>
	<polygon class="st8" points="164.5,15.8 164.5,27.8 141.8,27.4 141.8,15.4 	"/>
	<polyline class="st9" points="168.5,42.9 168.5,30.9 191.2,31.3 191.2,43.3 	"/>
	<polygon class="st10" points="191.2,15.8 191.2,27.8 168.5,27.4 168.5,15.4 	"/>
	<polyline class="st11" points="195.2,42.9 195.2,30.9 217.9,31.3 217.9,43.3 	"/>
	<polygon class="st12" points="217.9,15.8 217.9,27.8 195.2,27.4 195.2,15.4 	"/>
	<polygon class="st13" points="98.1,73.8 86.1,73.8 86.5,51.1 98.5,51.1 	"/>
	<polygon class="st14" points="113.6,73.8 101.7,73.8 102.1,51.1 114,51.1 	"/>
	<polygon class="st15" points="98.1,100.5 86.1,100.5 86.5,77.8 98.5,77.8 	"/>
	<polygon class="st16" points="113.6,100.5 101.7,100.5 102.1,77.8 114,77.8 	"/>
	<polygon class="st17" points="98.1,127.2 86.1,127.2 86.5,104.5 98.5,104.5 	"/>
	<polygon class="st18" points="113.6,127.2 101.7,127.2 102.1,104.5 114,104.5 	"/>
	<polygon class="st19" points="175.3,104.4 163.3,104.4 163.7,81.7 175.7,81.7 	"/>
	<polygon class="st19" points="190.8,104.4 178.9,104.4 179.3,81.7 191.2,81.7 	"/>
	<polygon class="st19" points="175.3,131.1 163.3,131.1 163.7,108.3 175.7,108.3 	"/>
	<polygon class="st19" points="190.8,131.1 178.9,131.1 179.3,108.3 191.2,108.3 	"/>
	<polygon class="st19" points="175.3,157.8 163.3,157.8 163.7,135 175.7,135 	"/>
	<polygon class="st19" points="190.8,157.8 178.9,157.8 179.3,135 191.2,135 	"/>
	<polygon class="st20" points="31.2,270.5 19.3,270.5 19.7,247.8 31.6,247.8 	"/>
	<polygon class="st21" points="46.8,270.5 34.8,270.5 35.2,247.8 47.2,247.8 	"/>
	<polygon class="st22" points="31.2,297.2 19.3,297.2 19.7,274.5 31.6,274.5 	"/>
	<polygon class="st23" points="46.8,297.2 34.8,297.2 35.2,274.5 47.2,274.5 	"/>
	<polygon class="st24" points="31.2,323.9 19.3,323.9 19.7,301.2 31.6,301.2 	"/>
	<polygon class="st25" points="46.8,323.9 34.8,323.9 35.2,301.2 47.2,301.2 	"/>
	<polygon class="st26" points="75.2,270.5 63.2,270.5 63.6,247.8 75.6,247.8 	"/>
	<polygon class="st27" points="90.7,270.5 78.8,270.5 79.2,247.8 91.1,247.8 	"/>
	<polygon class="st28" points="75.2,297.2 63.2,297.2 63.6,274.5 75.6,274.5 	"/>
	<polygon class="st29" points="90.7,297.2 78.8,297.2 79.2,274.5 91.1,274.5 	"/>
	<polygon class="st24" points="75.2,323.9 63.2,323.9 63.6,301.2 75.6,301.2 	"/>
	<polygon class="st25" points="90.7,323.9 78.8,323.9 79.2,301.2 91.1,301.2 	"/>
	<path class="st30" d="M0.5,153.6h18.8c-0.8,4.3-2.9,8.2-6,11.2C7.9,169.8,0.5,170,0.5,170"/>
	<path class="st30" d="M170.8,225.2l-0.2-18.8c4.3,0.7,8.3,2.7,11.3,5.9c5,5.4,5.2,12.8,5.3,12.8"/>
	<path class="st30" d="M171.5,225.1l-0.2-18.8c-4.3,0.8-8.2,2.9-11.2,6.1c-4.9,5.5-4.9,12.9-5,12.9"/>
	<polygon class="st31" points="141.7,273.5 129.8,273.5 130.2,250.8 142.1,250.8 	"/>
	<polygon class="st32" points="157.3,273.5 145.3,273.5 145.7,250.8 157.7,250.8 	"/>
	<polygon class="st33" points="141.7,300.2 129.8,300.2 130.2,277.5 142.1,277.5 	"/>
	<polygon class="st34" points="157.3,300.2 145.3,300.2 145.7,277.5 157.7,277.5 	"/>
	<polygon class="st35" points="141.7,326.9 129.8,326.9 130.2,304.1 142.1,304.1 	"/>
	<polygon class="st36" points="157.3,326.9 145.3,326.9 145.7,304.1 157.7,304.1 	"/>
	<polygon class="st37" points="218.3,273.1 206.4,273.1 206.8,250.4 218.7,250.4 	"/>
	<polygon class="st38" points="233.9,273.1 221.9,273.1 222.3,250.4 234.3,250.4 	"/>
	<polygon class="st39" points="218.3,335.3 206.4,335.3 206.8,312.6 218.7,312.6 	"/>
	<polygon class="st40" points="233.9,335.3 221.9,335.3 222.3,312.6 234.3,312.6 	"/>
</g>
</svg>
