<svg xmlns="http://www.w3.org/2000/svg" viewBox="0 0 841.89 595.28"><defs><style>.cls-1,.cls-12,.cls-14,.cls-15,.cls-4{fill:#d8d9dd;}.cls-1,.cls-14,.cls-9{stroke:#211915;}.cls-1,.cls-11,.cls-14,.cls-15,.cls-16,.cls-2,.cls-9{stroke-miterlimit:10;}.cls-10,.cls-11,.cls-2{fill:#edeef0;}.cls-15,.cls-2{stroke:#c2c3c9;}.cls-3{fill:#211915;}.cls-16,.cls-5{fill:none;}.cls-6{fill:#c2c3c9;}.cls-7{fill:#9a999e;}.cls-8,.cls-9{fill:#aeadb3;}.cls-14,.cls-9{stroke-width:0.3px;}.cls-11,.cls-16{stroke:#aeadb3;}.cls-11{stroke-width:0.5px;}.cls-12{opacity:0.75;}.cls-13{fill:#5b5b5f;}.cls-16{stroke-width:3px;}</style></defs><title>User Flow - Cowork Space Manager [Recovered]</title><g id="_2_Core_Flux" data-name="2ยบ Core Flux"><rect id="Case" class="cls-1" x="257.7" y="135.29" width="181.65" height="315.55" rx="22"/><rect id="Background" class="cls-2" x="270.5" y="145.79" width="156.04" height="288.91" rx="14.39"/><path class="cls-3" d="M287.52,176H284.2v-1.2h8.09V176H289v9.72h-1.43Z"/><path class="cls-3" d="M299.4,181.77a3.83,3.83,0,0,1-3.9,4.16,3.72,3.72,0,0,1-3.76-4,3.83,3.83,0,0,1,3.89-4.17A3.71,3.71,0,0,1,299.4,181.77Zm-6.22.08c0,1.72,1,3,2.38,3s2.38-1.28,2.38-3c0-1.33-.66-3-2.35-3S293.18,180.36,293.18,181.85Z"/><path class="cls-3" d="M308,174.25v9.48c0,.69,0,1.49.06,2h-1.28l-.06-1.36h0a2.88,2.88,0,0,1-2.67,1.54c-1.9,0-3.35-1.6-3.35-4,0-2.6,1.6-4.21,3.51-4.21a2.64,2.64,0,0,1,2.37,1.2h0v-4.68Zm-1.43,6.85a3.05,3.05,0,0,0-.06-.6,2.09,2.09,0,0,0-2.06-1.65c-1.48,0-2.35,1.3-2.35,3s.78,2.9,2.32,2.9a2.15,2.15,0,0,0,2.09-1.7,3,3,0,0,0,.06-.62Z"/><path class="cls-3" d="M314.69,185.75l-.12-1h0a2.92,2.92,0,0,1-2.4,1.17,2.24,2.24,0,0,1-2.4-2.25c0-1.9,1.68-2.93,4.71-2.92v-.16a1.61,1.61,0,0,0-1.78-1.81,3.86,3.86,0,0,0-2,.58l-.32-.94a4.83,4.83,0,0,1,2.57-.7c2.4,0,3,1.64,3,3.21v2.93a11.8,11.8,0,0,0,.13,1.88Zm-.21-4c-1.56,0-3.33.24-3.33,1.77a1.27,1.27,0,0,0,1.35,1.36,2,2,0,0,0,1.9-1.31,1.85,1.85,0,0,0,.08-.46Z"/><path class="cls-3" d="M318.55,177.91l1.71,4.63c.18.52.38,1.14.51,1.61h0c.14-.47.31-1.07.5-1.64l1.56-4.6h1.5l-2.14,5.59c-1,2.69-1.71,4.07-2.69,4.91a3.71,3.71,0,0,1-1.75.92l-.35-1.2a3.82,3.82,0,0,0,1.24-.69,4.29,4.29,0,0,0,1.2-1.59,1,1,0,0,0,.12-.34,1.47,1.47,0,0,0-.1-.37l-2.9-7.23Z"/><path class="cls-3" d="M421.16,292.92l-2.23,6.58h.87l.69-2.07h2.33l.71,2.07h.91l-2.25-6.58Zm-.5,3.85.65-1.91c.13-.4.23-.8.33-1.19h0c.1.38.2.77.34,1.2l.65,1.9Z"/><path id="Image" class="cls-4" d="M422.32,206.45h3a0,0,0,0,1,0,0v83.8a0,0,0,0,1,0,0h-3a4.61,4.61,0,0,1-4.61-4.61V211.06a4.61,4.61,0,0,1,4.61-4.61Z"/><path class="cls-5" d="M439.35,304a.75.75,0,0,0-.72.59.63.63,0,0,0,0,.19v.45a1.23,1.23,0,0,0,0,.2.72.72,0,0,0,.71.55c.5,0,.79-.41.79-1S439.85,304,439.35,304Z"/><path d="M421.88,305a6.82,6.82,0,0,0-.2.85h0c-.06-.26-.13-.54-.23-.85l-.4-1.31h-.4L420.2,305c-.09.28-.17.56-.23.82h0c-.05-.27-.12-.54-.19-.83l-.35-1.33h-.48l.78,2.62h.44l.42-1.25c.09-.28.17-.55.24-.86h0a7.74,7.74,0,0,0,.23.86l.4,1.25h.43l.84-2.62h-.47Z"/><path d="M423.44,302.62a.29.29,0,0,0-.3.3.3.3,0,1,0,.3-.3Z"/><rect x="423.2" y="303.65" width="0.47" height="2.61"/><path d="M425,302.9l-.47.13v.62h-.4V304h.4v1.43a.94.94,0,0,0,.19.68.65.65,0,0,0,.51.2,1.39,1.39,0,0,0,.42-.06l0-.36a.94.94,0,0,1-.28,0c-.26,0-.35-.18-.35-.51V304h.68v-.36H425Z"/><path id="Hour_-_Background" data-name="Hour - Background" class="cls-6" d="M419,201.62h6.26a0,0,0,0,1,0,0v13.06a0,0,0,0,1,0,0H419a4.84,4.84,0,0,1-4.84-4.84v-3.39a4.84,4.84,0,0,1,4.84-4.84Z"/><path class="cls-3" d="M418.58,205.6h0l-1.1.59-.17-.65,1.39-.74h.73v6.35h-.83Z"/><path class="cls-3" d="M425.86,204.8v.56l-2.77,5.79h-.89l2.76-5.62v0h-3.11v-.71Z"/><path class="cls-3" d="M292.34,299v-2.8l-2.09-3.8h1l.93,1.82c.25.5.45.9.66,1.36h0c.18-.43.41-.86.66-1.36l.95-1.82h1l-2.21,3.79V299Z"/><path class="cls-3" d="M299.67,296.54a2.32,2.32,0,0,1-2.36,2.51,2.25,2.25,0,0,1-2.27-2.43,2.32,2.32,0,0,1,2.35-2.52A2.24,2.24,0,0,1,299.67,296.54Zm-3.76,0c0,1,.6,1.82,1.44,1.82s1.44-.78,1.44-1.84c0-.8-.4-1.82-1.42-1.82S295.91,295.69,295.91,296.59Z"/><path class="cls-3" d="M304.83,294.21c0,.34,0,.73,0,1.3v2.75a2.75,2.75,0,0,1-.67,2.16,2.53,2.53,0,0,1-1.73.57,3.1,3.1,0,0,1-1.57-.39l.21-.66a2.67,2.67,0,0,0,1.39.37c.88,0,1.53-.46,1.53-1.65v-.53h0a1.7,1.7,0,0,1-1.51.8,2.12,2.12,0,0,1-2-2.31,2.27,2.27,0,0,1,2.13-2.52,1.58,1.58,0,0,1,1.48.83h0l0-.72Zm-.89,1.87a1.19,1.19,0,0,0-.05-.39,1.24,1.24,0,0,0-1.2-.91c-.82,0-1.41.69-1.41,1.79,0,.93.47,1.7,1.4,1.7a1.26,1.26,0,0,0,1.19-.88,1.47,1.47,0,0,0,.07-.46Z"/><path class="cls-3" d="M308.84,299l-.07-.6h0a1.79,1.79,0,0,1-1.45.7,1.35,1.35,0,0,1-1.45-1.36c0-1.14,1-1.77,2.85-1.76v-.1a1,1,0,0,0-1.08-1.09,2.39,2.39,0,0,0-1.23.35l-.2-.57a3,3,0,0,1,1.56-.42c1.45,0,1.8,1,1.8,1.94v1.77a6.65,6.65,0,0,0,.08,1.14Zm-.13-2.42c-.94,0-2,.15-2,1.07a.77.77,0,0,0,.81.82,1.18,1.18,0,0,0,1.15-.8.81.81,0,0,0,0-.27Z"/><path class="cls-3" d="M317.63,298.73a4.13,4.13,0,0,1-1.74.31,3.08,3.08,0,0,1-3.25-3.33,3.28,3.28,0,0,1,3.44-3.46,3.47,3.47,0,0,1,1.56.29l-.2.69a3.18,3.18,0,0,0-1.33-.27,2.45,2.45,0,0,0-2.57,2.72,2.39,2.39,0,0,0,2.53,2.65,3.51,3.51,0,0,0,1.39-.27Z"/><path class="cls-3" d="M318.67,292h.86V299h-.86Z"/><path class="cls-3" d="M323.59,299l-.06-.6h0a1.79,1.79,0,0,1-1.45.7,1.35,1.35,0,0,1-1.45-1.36c0-1.14,1-1.77,2.85-1.76v-.1a1,1,0,0,0-1.08-1.09,2.39,2.39,0,0,0-1.23.35l-.2-.57a3,3,0,0,1,1.56-.42c1.45,0,1.8,1,1.8,1.94v1.77a6.65,6.65,0,0,0,.08,1.14Zm-.12-2.42c-.94,0-2,.15-2,1.07a.76.76,0,0,0,.81.82,1.18,1.18,0,0,0,1.15-.8.81.81,0,0,0,.05-.27Z"/><path class="cls-3" d="M325.57,298.07a2.29,2.29,0,0,0,1.13.34c.63,0,.92-.32.92-.71s-.24-.63-.88-.87c-.85-.3-1.25-.77-1.25-1.34a1.46,1.46,0,0,1,1.63-1.39,2.36,2.36,0,0,1,1.17.3l-.22.62a1.91,1.91,0,0,0-1-.27c-.51,0-.79.29-.79.64s.28.57.9.81c.82.31,1.24.72,1.24,1.42s-.64,1.42-1.77,1.42a2.64,2.64,0,0,1-1.33-.32Z"/><path class="cls-3" d="M329.44,298.07a2.29,2.29,0,0,0,1.13.34c.63,0,.92-.32.92-.71s-.24-.63-.88-.87c-.85-.3-1.25-.77-1.25-1.34A1.46,1.46,0,0,1,331,294.1a2.36,2.36,0,0,1,1.17.3l-.22.62a1.91,1.91,0,0,0-1-.27c-.51,0-.79.29-.79.64s.28.57.9.81c.82.31,1.24.72,1.24,1.42s-.64,1.42-1.77,1.42a2.7,2.7,0,0,1-1.33-.32Z"/><rect id="Image-2" data-name="Image" class="cls-4" x="290.13" y="206.45" width="112.96" height="83.8" rx="4.61"/><path class="cls-3" d="M291.82,303.65l.35,1.33c.07.29.14.56.19.83h0c.06-.26.15-.54.23-.82l.43-1.34h.4l.4,1.31c.1.31.18.59.24.85h0a6.82,6.82,0,0,1,.2-.85l.37-1.31h.47l-.84,2.62h-.43l-.4-1.25a7.74,7.74,0,0,1-.23-.86h0c-.07.31-.15.58-.24.86l-.42,1.25h-.44l-.78-2.62Z"/><path class="cls-3" d="M296.14,302.92a.28.28,0,0,1-.3.29.28.28,0,0,1-.29-.29.29.29,0,0,1,.3-.3A.28.28,0,0,1,296.14,302.92Zm-.53,3.35v-2.62h.47v2.62Z"/><path class="cls-3" d="M297.45,302.9v.75h.68V304h-.68v1.41c0,.33.09.51.35.51a.94.94,0,0,0,.28,0l0,.36a1.39,1.39,0,0,1-.42.06.65.65,0,0,1-.51-.2.94.94,0,0,1-.19-.68V304h-.4v-.36h.4V303Z"/><path class="cls-3" d="M298.66,302.43h.48v1.63h0a.83.83,0,0,1,.34-.33,1,1,0,0,1,.49-.14c.35,0,.91.22.91,1.12v1.56h-.48v-1.51c0-.42-.15-.77-.6-.77a.68.68,0,0,0-.64.47.56.56,0,0,0,0,.23v1.58h-.48Z"/><path class="cls-3" d="M302.81,304.51c0-.34,0-.61,0-.86h.43l0,.45h0a1,1,0,0,1,.93-.51,1.19,1.19,0,0,1,1.11,1.33,1.24,1.24,0,0,1-1.19,1.41.93.93,0,0,1-.8-.41h0v1.42h-.47Zm.47.69a1.23,1.23,0,0,0,0,.2.72.72,0,0,0,.71.55c.5,0,.79-.41.79-1s-.27-1-.77-1a.75.75,0,0,0-.72.59.63.63,0,0,0,0,.19Z"/><path class="cls-3" d="M305.88,304.47c0-.31,0-.57,0-.82h.41l0,.52h0a.79.79,0,0,1,.73-.58l.13,0v.45l-.16,0a.67.67,0,0,0-.64.61,1.5,1.5,0,0,0,0,.22v1.4h-.47Z"/><path class="cls-3" d="M310,304.94a1.28,1.28,0,0,1-1.3,1.39A1.25,1.25,0,0,1,307.4,305a1.29,1.29,0,0,1,1.3-1.39A1.24,1.24,0,0,1,310,304.94Zm-2.08,0c0,.58.33,1,.8,1s.79-.43.79-1c0-.44-.22-1-.78-1S307.88,304.47,307.88,305Z"/><path class="cls-3" d="M310.61,306.27V304h-.37v-.36h.37v-.12a1.23,1.23,0,0,1,.3-.91.9.9,0,0,1,.64-.25,1,1,0,0,1,.4.08l-.06.37a.63.63,0,0,0-.31-.06c-.4,0-.5.35-.5.75v.14h.63V304h-.63v2.26Z"/><path class="cls-3" d="M315.84,306.15a2.45,2.45,0,0,1-1,.17,1.7,1.7,0,0,1-1.8-1.84,1.81,1.81,0,0,1,1.9-1.91,1.92,1.92,0,0,1,.87.16l-.12.38A1.77,1.77,0,0,0,315,303a1.36,1.36,0,0,0-1.42,1.5,1.33,1.33,0,0,0,1.4,1.47,2,2,0,0,0,.77-.15Z"/><path class="cls-3" d="M316.41,302.43h.48v3.84h-.48Z"/><path class="cls-3" d="M319.14,306.27l0-.33h0a1,1,0,0,1-.8.39.75.75,0,0,1-.8-.75c0-.64.57-1,1.58-1v-.05a.54.54,0,0,0-.6-.61,1.32,1.32,0,0,0-.68.2l-.11-.31a1.55,1.55,0,0,1,.86-.24c.8,0,1,.55,1,1.07v1a4,4,0,0,0,0,.63Zm-.07-1.34c-.52,0-1.11.08-1.11.59a.41.41,0,0,0,.45.45.65.65,0,0,0,.63-.43.44.44,0,0,0,0-.15Z"/><path class="cls-3" d="M320.29,304.47c0-.31,0-.57,0-.82h.42v.52h0a.77.77,0,0,1,.72-.58l.13,0v.45l-.16,0a.66.66,0,0,0-.63.61.78.78,0,0,0,0,.22v1.4h-.47Z"/><path class="cls-3" d="M323.48,306.27l0-.33h0a1,1,0,0,1-.8.39.75.75,0,0,1-.8-.75c0-.64.56-1,1.57-1v-.05a.54.54,0,0,0-.59-.61,1.27,1.27,0,0,0-.68.2l-.11-.31a1.53,1.53,0,0,1,.86-.24c.8,0,1,.55,1,1.07v1a4,4,0,0,0,0,.63Zm-.07-1.34c-.52,0-1.11.08-1.11.59a.42.42,0,0,0,.45.45.64.64,0,0,0,.63-.43.44.44,0,0,0,0-.15Z"/><rect id="OK_Button" data-name="OK Button" class="cls-6" x="359.63" y="279.01" width="46.5" height="14.96" rx="4.61"/><path class="cls-3" d="M365.07,283.67h.71v4.87h2.33v.59h-3Z"/><path class="cls-3" d="M369.16,287.3a1.25,1.25,0,0,0,1.34,1.36,2.67,2.67,0,0,0,1.09-.2l.12.51a3.23,3.23,0,0,1-1.3.24,1.82,1.82,0,0,1-1.93-2,1.9,1.9,0,0,1,1.84-2.11,1.66,1.66,0,0,1,1.62,1.84,2.36,2.36,0,0,1,0,.34Zm2.09-.51a1,1,0,0,0-1-1.16,1.19,1.19,0,0,0-1.1,1.16Z"/><path class="cls-3" d="M373.68,284.08v1.13h1v.54h-1v2.11c0,.49.14.77.53.77a1.83,1.83,0,0,0,.42-.05l0,.53a1.69,1.69,0,0,1-.63.1,1,1,0,0,1-.77-.3,1.46,1.46,0,0,1-.28-1v-2.14h-.61v-.54H373v-.94Z"/><path class="cls-3" d="M377.23,283.51l-1,1.16h-.51l.71-1.16Z"/><path class="cls-3" d="M377.84,288.4a1.83,1.83,0,0,0,.94.28c.51,0,.76-.26.76-.58s-.21-.53-.73-.72c-.71-.25-1-.64-1-1.11a1.21,1.21,0,0,1,1.35-1.15,2,2,0,0,1,1,.24l-.18.52a1.49,1.49,0,0,0-.8-.23c-.42,0-.66.25-.66.54s.24.47.75.66c.68.26,1,.6,1,1.18s-.54,1.18-1.47,1.18a2.23,2.23,0,0,1-1.1-.27Z"/><path class="cls-3" d="M383.73,289.13v-2.32L382,283.67h.8l.77,1.5c.21.42.38.75.55,1.13h0c.16-.36.34-.71.55-1.13l.79-1.5h.8l-1.83,3.13v2.33Z"/><path class="cls-3" d="M389.8,287.13a1.92,1.92,0,0,1-1.95,2.09,1.87,1.87,0,0,1-1.88-2,1.92,1.92,0,0,1,1.95-2.08A1.85,1.85,0,0,1,389.8,287.13Zm-3.11,0c0,.86.5,1.51,1.19,1.51s1.2-.64,1.2-1.52c0-.66-.34-1.51-1.18-1.51S386.69,286.43,386.69,287.17Z"/><path class="cls-3" d="M394.08,285.21c0,.28,0,.6,0,1.07v2.28a2.26,2.26,0,0,1-.56,1.79,2.05,2.05,0,0,1-1.42.47,2.57,2.57,0,0,1-1.31-.32l.18-.55a2.13,2.13,0,0,0,1.15.31c.73,0,1.26-.38,1.26-1.37v-.43h0a1.41,1.41,0,0,1-1.25.65,1.75,1.75,0,0,1-1.67-1.91,1.88,1.88,0,0,1,1.77-2.08,1.29,1.29,0,0,1,1.22.68h0l0-.59Zm-.73,1.54a1.08,1.08,0,0,0,0-.32,1,1,0,0,0-1-.75c-.68,0-1.17.57-1.17,1.48s.39,1.41,1.16,1.41a1,1,0,0,0,1-.73,1.26,1.26,0,0,0,.06-.38Z"/><path class="cls-3" d="M397.41,289.13l-.06-.5h0a1.46,1.46,0,0,1-1.2.59,1.12,1.12,0,0,1-1.2-1.13c0-.95.84-1.47,2.36-1.46v-.08a.81.81,0,0,0-.9-.91,2,2,0,0,0-1,.3l-.16-.47a2.36,2.36,0,0,1,1.29-.35c1.2,0,1.49.82,1.49,1.6v1.47a6.65,6.65,0,0,0,.06.94Zm-.11-2c-.78,0-1.66.12-1.66.88a.63.63,0,0,0,.67.68,1,1,0,0,0,.95-.66.57.57,0,0,0,0-.22Z"/><path class="cls-3" d="M399,288.71a.48.48,0,0,1,.48-.5.47.47,0,0,1,.48.5.48.48,0,0,1-.48.51A.48.48,0,0,1,399,288.71Zm.21-1.15-.12-3.89h.78l-.11,3.89Z"/><rect id="Hour_-_Background-2" data-name="Hour - Background" class="cls-6" x="286.62" y="201.62" width="26.7" height="13.06" rx="4.61"/><path class="cls-3" d="M290.21,205.6h0l-1.11.59-.16-.65,1.39-.74H291v6.35h-.83Z"/><path class="cls-3" d="M293.28,209.54a1.82,1.82,0,0,1,1.26-1.7v0a1.58,1.58,0,0,1-1-1.43,1.78,1.78,0,0,1,2-1.69,1.64,1.64,0,0,1,1.85,1.56,1.62,1.62,0,0,1-1,1.49v0a1.76,1.76,0,0,1,1.28,1.64,2,2,0,0,1-2.16,1.85C294.08,211.26,293.28,210.47,293.28,209.54Zm3.42,0c0-.77-.54-1.14-1.4-1.39a1.39,1.39,0,0,0-1.14,1.31,1.17,1.17,0,0,0,1.27,1.21A1.14,1.14,0,0,0,296.7,209.5Zm-2.37-3.18c0,.64.48,1,1.22,1.18a1.26,1.26,0,0,0,1-1.16,1,1,0,0,0-1.07-1A1,1,0,0,0,294.33,206.32Z"/><path class="cls-3" d="M298.44,207.2a.58.58,0,1,1,.58.61A.57.57,0,0,1,298.44,207.2Zm0,3.45a.58.58,0,1,1,1.16,0,.58.58,0,1,1-1.16,0Z"/><path class="cls-3" d="M304.62,207.91c0,2.16-.8,3.35-2.21,3.35-1.24,0-2.08-1.16-2.1-3.27s.91-3.3,2.21-3.3S304.62,205.88,304.62,207.91Zm-3.45.09c0,1.66.5,2.6,1.29,2.6s1.3-1,1.3-2.65-.4-2.6-1.29-2.6S301.17,206.27,301.17,208Z"/><path class="cls-3" d="M309.63,207.91c0,2.16-.8,3.35-2.21,3.35-1.24,0-2.08-1.16-2.1-3.27s.92-3.3,2.21-3.3S309.63,205.88,309.63,207.91Zm-3.45.09c0,1.66.51,2.6,1.29,2.6s1.3-1,1.3-2.65-.4-2.6-1.29-2.6S306.18,206.27,306.18,208Z"/><path id="Image-3" data-name="Image" class="cls-4" d="M270.93,205h2.51a4.61,4.61,0,0,1,4.61,4.61v74.58a4.61,4.61,0,0,1-4.61,4.61h-2.51a0,0,0,0,1,0,0V205A0,0,0,0,1,270.93,205Z"/><path class="cls-6" d="M270,410.8H426a0,0,0,0,1,0,0v11.05a15.58,15.58,0,0,1-15.58,15.58H285.59A15.58,15.58,0,0,1,270,421.85V410.8A0,0,0,0,1,270,410.8Z"/><circle class="cls-7" cx="294.18" cy="424.11" r="10.16"/><circle class="cls-7" cx="400.31" cy="424.11" r="10.16"/><path class="cls-3" d="M283.06,425.41l-.38,1.14h-.48l1.23-3.64H284l1.24,3.64h-.5l-.39-1.14Zm1.19-.37L283.9,424c-.08-.24-.14-.45-.19-.66h0c-.06.21-.12.43-.19.66l-.35,1.05Z"/><path class="cls-3" d="M285.83,423.94l.51,1.47a4.68,4.68,0,0,1,.21.67h0c.06-.22.14-.44.22-.67l.51-1.47h.5l-1,2.61h-.45l-1-2.61Z"/><path class="cls-3" d="M289.67,426.55l0-.33h0a1,1,0,0,1-.8.39.74.74,0,0,1-.8-.75c0-.63.56-1,1.57-1v-.06a.54.54,0,0,0-.59-.6,1.26,1.26,0,0,0-.68.19l-.11-.31a1.61,1.61,0,0,1,.86-.23c.8,0,1,.54,1,1.07v1a4,4,0,0,0,0,.63Zm-.07-1.33c-.52,0-1.11.08-1.11.59a.42.42,0,0,0,.45.45.65.65,0,0,0,.63-.44.4.4,0,0,0,0-.15Z"/><path class="cls-3" d="M291.36,423.2a.29.29,0,0,1-.31.29.28.28,0,0,1-.28-.29.3.3,0,1,1,.59,0Zm-.53,3.35v-2.61h.47v2.61Z"/><path class="cls-3" d="M292.09,422.72h.48v3.83h-.48Z"/><path class="cls-3" d="M294.81,426.55l0-.33h0a1,1,0,0,1-.8.39.74.74,0,0,1-.8-.75c0-.63.56-1,1.57-1v-.06a.54.54,0,0,0-.59-.6,1.29,1.29,0,0,0-.68.19l-.11-.31a1.64,1.64,0,0,1,.86-.23c.8,0,1,.54,1,1.07v1a3,3,0,0,0,.05.63Zm-.07-1.33c-.51,0-1.1.08-1.1.59a.42.42,0,0,0,.45.45.66.66,0,0,0,.63-.44.77.77,0,0,0,0-.15Z"/><path class="cls-3" d="M296,426.55c0-.18,0-.44,0-.67v-3.16h.47v1.64h0a1,1,0,0,1,.89-.48,1.18,1.18,0,0,1,1.11,1.33,1.24,1.24,0,0,1-1.18,1.4.93.93,0,0,1-.87-.49h0l0,.43Zm.49-1.05a1.1,1.1,0,0,0,0,.18.74.74,0,0,0,.72.55c.49,0,.79-.4.79-1s-.27-1-.78-1a.77.77,0,0,0-.72.59,1,1,0,0,0,0,.19Z"/><path class="cls-3" d="M299.58,423.2a.29.29,0,0,1-.31.29.28.28,0,0,1-.28-.29.3.3,0,1,1,.59,0Zm-.53,3.35v-2.61h.47v2.61Z"/><path class="cls-3" d="M300.31,422.72h.48v3.83h-.48Z"/><path class="cls-3" d="M302.11,423.2a.29.29,0,1,1-.58,0,.29.29,0,0,1,.29-.3A.28.28,0,0,1,302.11,423.2Zm-.53,3.35v-2.61h.48v2.61Z"/><path class="cls-3" d="M303.42,423.19v.75h.68v.36h-.68v1.41c0,.32.09.51.36.51a.85.85,0,0,0,.27,0l0,.36a1.19,1.19,0,0,1-.43.06.68.68,0,0,1-.51-.19,1,1,0,0,1-.18-.69V424.3h-.41v-.36H303v-.63Z"/><path class="cls-3" d="M304.86,423.94l.57,1.54c.06.17.13.38.17.54h0c.05-.16.1-.36.17-.55l.51-1.53h.51l-.72,1.86a4,4,0,0,1-.89,1.64,1.29,1.29,0,0,1-.59.3l-.11-.4a1.15,1.15,0,0,0,.41-.23,1.38,1.38,0,0,0,.4-.53.37.37,0,0,0,0-.11.41.41,0,0,0,0-.12l-1-2.41Z"/><path class="cls-3" d="M393.44,423a6.32,6.32,0,0,1,.9-.07,1.48,1.48,0,0,1,1,.31,1,1,0,0,1,.32.76,1.05,1.05,0,0,1-.28.77,1.51,1.51,0,0,1-1.12.4,1.38,1.38,0,0,1-.37,0v1.46h-.47Zm.47,1.76a1.38,1.38,0,0,0,.38,0c.57,0,.92-.28.92-.78s-.34-.71-.86-.71a2.15,2.15,0,0,0-.44,0Z"/><path class="cls-3" d="M396.42,425.33a.84.84,0,0,0,.9.91,1.6,1.6,0,0,0,.72-.14l.08.34a2,2,0,0,1-.86.16,1.21,1.21,0,0,1-1.29-1.31,1.27,1.27,0,0,1,1.23-1.41,1.11,1.11,0,0,1,1.08,1.23,1.09,1.09,0,0,1,0,.22Zm1.4-.34a.68.68,0,0,0-.66-.77.79.79,0,0,0-.73.77Z"/><path class="cls-3" d="M398.87,424.75c0-.31,0-.57,0-.81h.42l0,.51h0a.78.78,0,0,1,.72-.57h.14v.45H400a.66.66,0,0,0-.64.61,1.38,1.38,0,0,0,0,.22v1.39h-.47Z"/><path class="cls-3" d="M400.84,426.55V424.3h-.36v-.36h.36v-.14a1,1,0,0,1,1.14-1.14,1.3,1.3,0,0,1,.67.17l-.14.36A1,1,0,0,0,402,423c-.5,0-.65.35-.65.77v.13h1.52v2.61h-.47V424.3h-1.05v2.25Z"/><path class="cls-3" d="M403.62,422.72h.48v3.83h-.48Z"/><circle class="cls-7" cx="348.52" cy="415.65" r="15.46"/><path class="cls-3" d="M344.25,418.81a3.52,3.52,0,0,1-1.45.26,2.55,2.55,0,0,1-2.69-2.77,2.71,2.71,0,0,1,2.85-2.86,2.84,2.84,0,0,1,1.29.24l-.17.57A2.52,2.52,0,0,0,343,414a2,2,0,0,0-2.13,2.25,2,2,0,0,0,2.1,2.2,2.77,2.77,0,0,0,1.15-.23Z"/><path class="cls-3" d="M347.22,419l-.06-.5h0a1.46,1.46,0,0,1-1.2.59,1.12,1.12,0,0,1-1.2-1.13c0-.95.84-1.47,2.36-1.46v-.08a.81.81,0,0,0-.89-.91,2,2,0,0,0-1,.29l-.16-.47a2.41,2.41,0,0,1,1.28-.34c1.2,0,1.49.81,1.49,1.6v1.47a5.37,5.37,0,0,0,.07.94Zm-.1-2c-.78,0-1.67.12-1.67.88a.63.63,0,0,0,.68.68,1,1,0,0,0,.95-.66.85.85,0,0,0,0-.22Z"/><path class="cls-3" d="M349,416.29c0-.46,0-.86,0-1.23h.63l0,.77h0a1.18,1.18,0,0,1,1.09-.85.62.62,0,0,1,.2,0v.67l-.24,0a1,1,0,0,0-1,.91,3.07,3.07,0,0,0,0,.34V419H349Z"/><path class="cls-3" d="M354.91,413.23V418c0,.35,0,.75,0,1h-.64l0-.68h0a1.44,1.44,0,0,1-1.33.77,1.8,1.8,0,0,1-1.68-2A1.87,1.87,0,0,1,353,415a1.3,1.3,0,0,1,1.18.6h0v-2.35Zm-.71,3.43a1.53,1.53,0,0,0,0-.3,1.06,1.06,0,0,0-1-.82c-.74,0-1.18.64-1.18,1.51s.39,1.45,1.16,1.45a1.08,1.08,0,0,0,1.05-.85,1.48,1.48,0,0,0,0-.31Z"/><path class="cls-8" d="M308.19,320a4.83,4.83,0,0,1-4.92,4.73,5,5,0,0,1-3.17-1.11,4.62,4.62,0,0,1-1.76-3.62,4.93,4.93,0,0,1,9.85,0Z"/><path class="cls-9" d="M300.1,323.62v-2.28h2.36v-.74s-2.72-1.36,0-3.48,4.65,2.29,2.32,3.25l-.06,1h1.87v2.15"/><path class="cls-8" d="M296.7,320.09a4.83,4.83,0,0,1-4.92,4.74,5,5,0,0,1-3.17-1.11,4.64,4.64,0,0,1-1.76-3.63,4.93,4.93,0,0,1,9.85,0Z"/><path class="cls-9" d="M288.53,323.72v-2.29h2.36v-.73s-2.72-1.37,0-3.48,4.65,2.28,2.32,3.25l-.06,1H295v2.15"/><path class="cls-8" d="M319.86,320.1a4.84,4.84,0,0,1-4.93,4.74,5,5,0,0,1-3.17-1.11A4.66,4.66,0,0,1,310,320.1a4.93,4.93,0,0,1,9.85,0Z"/><path class="cls-9" d="M311.76,323.73v-2.28h2.36v-.74s-2.71-1.37,0-3.48,4.65,2.28,2.33,3.25l-.07,1h1.88v2.14"/><path class="cls-3" d="M323.63,319v1.27h1.22v.32h-1.22v1.28h-.35v-1.28h-1.22v-.32h1.22V319Z"/><path class="cls-3" d="M327.4,318.73h-1.34l-.13.9.28,0a1.51,1.51,0,0,1,.76.19,1,1,0,0,1,.5.9,1.21,1.21,0,0,1-1.31,1.2,1.81,1.81,0,0,1-.87-.21l.12-.37a1.5,1.5,0,0,0,.75.2.77.77,0,0,0,.83-.76c0-.46-.31-.78-1-.78a2.87,2.87,0,0,0-.48,0l.22-1.69h1.68Z"/><path class="cls-3" d="M329.37,320c0-.3,0-.57,0-.81h.42v.51h0a.77.77,0,0,1,.72-.57h.13v.45h-.16a.66.66,0,0,0-.63.61.73.73,0,0,0,0,.22v1.39h-.47Z"/><path class="cls-3" d="M331.35,320.62a.84.84,0,0,0,.9.91,1.63,1.63,0,0,0,.72-.14l.08.34a2,2,0,0,1-.87.17,1.21,1.21,0,0,1-1.28-1.32,1.27,1.27,0,0,1,1.22-1.41,1.1,1.1,0,0,1,1.08,1.23c0,.1,0,.17,0,.22Zm1.4-.34a.68.68,0,0,0-.66-.77.78.78,0,0,0-.73.77Z"/><path class="cls-3" d="M335.24,321.84l0-.33h0a1,1,0,0,1-.8.39.74.74,0,0,1-.8-.75c0-.63.56-1,1.57-1v-.06a.54.54,0,0,0-.59-.6,1.26,1.26,0,0,0-.68.19l-.11-.31a1.61,1.61,0,0,1,.86-.23c.8,0,1,.54,1,1.07v1a4,4,0,0,0,0,.63Zm-.07-1.33c-.52,0-1.11.08-1.11.59a.42.42,0,0,0,.45.45.65.65,0,0,0,.63-.44.4.4,0,0,0,0-.15Z"/><path class="cls-3" d="M338.26,321.74a1.64,1.64,0,0,1-.75.16,1.24,1.24,0,0,1-1.3-1.34,1.33,1.33,0,0,1,1.4-1.39,1.51,1.51,0,0,1,.66.14l-.11.37a1,1,0,0,0-.55-.13,1,1,0,0,0,0,2,1.34,1.34,0,0,0,.58-.13Z"/><path class="cls-3" d="M339.46,318.48v.75h.68v.36h-.68V321c0,.32.09.51.36.51a.85.85,0,0,0,.27,0l0,.36a1.06,1.06,0,0,1-.42.07.65.65,0,0,1-.51-.2A1,1,0,0,1,339,321v-1.43h-.41v-.36H339v-.63Z"/><path class="cls-3" d="M340.91,320.62a.84.84,0,0,0,.89.91,1.65,1.65,0,0,0,.73-.14l.08.34a2,2,0,0,1-.87.17,1.22,1.22,0,0,1-1.29-1.32,1.27,1.27,0,0,1,1.23-1.41,1.11,1.11,0,0,1,1.08,1.23c0,.1,0,.17,0,.22Zm1.39-.34a.67.67,0,0,0-.66-.77.79.79,0,0,0-.73.77Z"/><path class="cls-3" d="M345.61,318v3.16c0,.23,0,.49,0,.67h-.43l0-.45h0a1,1,0,0,1-.89.51,1.19,1.19,0,0,1-1.12-1.33,1.25,1.25,0,0,1,1.17-1.4.88.88,0,0,1,.79.4h0V318Zm-.48,2.28a.68.68,0,0,0,0-.2.7.7,0,0,0-.68-.55c-.5,0-.79.43-.79,1s.26,1,.77,1a.71.71,0,0,0,.7-.57.65.65,0,0,0,0-.2Z"/><path class="cls-3" d="M301,339.53c0-.38,0-.84,0-1.18h0c-.09.32-.2.66-.34,1l-.48,1.33h-.27l-.44-1.3a11,11,0,0,1-.32-1.06h0c0,.34,0,.8-.05,1.21l-.08,1.17h-.33l.19-2.74h.45l.47,1.33c.11.33.2.63.27.92h0c.07-.28.17-.58.29-.92l.49-1.33h.45l.17,2.74H301Z"/><path class="cls-3" d="M303,340.73l0-.25h0a.74.74,0,0,1-.6.29.56.56,0,0,1-.6-.56c0-.48.42-.74,1.18-.73v0a.41.41,0,0,0-.45-.46,1,1,0,0,0-.51.15l-.08-.24a1.27,1.27,0,0,1,.64-.17.7.7,0,0,1,.75.8v.74a3.38,3.38,0,0,0,0,.47Zm-.06-1c-.38,0-.83.06-.83.44a.32.32,0,0,0,.34.34.49.49,0,0,0,.48-.33.45.45,0,0,0,0-.11Z"/><path class="cls-3" d="M303.87,339.38c0-.23,0-.43,0-.62h.31v.39h0a.59.59,0,0,1,.54-.43h.1v.34h-.12a.5.5,0,0,0-.48.45.91.91,0,0,0,0,.17v1.05h-.36Z"/><path class="cls-3" d="M305.61,338.21a.21.21,0,0,1-.23.22.22.22,0,0,1,0-.44A.21.21,0,0,1,305.61,338.21Zm-.4,2.52v-2h.36v2Z"/><path class="cls-3" d="M307.25,340.73l0-.25h0a.74.74,0,0,1-.6.29.56.56,0,0,1-.6-.56c0-.48.42-.74,1.18-.73v0a.41.41,0,0,0-.45-.46,1,1,0,0,0-.51.15l-.08-.24a1.28,1.28,0,0,1,.65-.17c.6,0,.74.41.74.8v.74a2.29,2.29,0,0,0,0,.47Zm-.05-1c-.39,0-.83.06-.83.44a.31.31,0,0,0,.33.34.49.49,0,0,0,.48-.33.52.52,0,0,0,0-.11Z"/><path class="cls-3" d="M311.29,339.53c0-.38,0-.84,0-1.18h0c-.09.32-.21.66-.35,1l-.48,1.33h-.27l-.44-1.3c-.13-.39-.24-.74-.32-1.06h0c0,.34,0,.8-.06,1.21l-.07,1.17h-.34l.19-2.74h.45l.47,1.33a8.51,8.51,0,0,1,.28.92h0c.07-.28.17-.58.29-.92l.48-1.33h.46l.17,2.74h-.35Z"/><path class="cls-3" d="M314,339.73a1,1,0,0,1-1,1,.94.94,0,0,1-.95-1,1,1,0,0,1,1-1A.93.93,0,0,1,314,339.73Zm-1.55,0c0,.43.24.75.59.75s.6-.32.6-.76-.17-.75-.59-.75S312.48,339.38,312.48,339.75Z"/><path class="cls-3" d="M314.48,339.3a4.52,4.52,0,0,0,0-.54h.32l0,.33h0a.71.71,0,0,1,.65-.37c.27,0,.69.16.69.84v1.17h-.35V339.6c0-.32-.12-.58-.46-.58a.51.51,0,0,0-.48.36.88.88,0,0,0,0,.17v1.18h-.36Z"/><path class="cls-3" d="M317.14,338.2v.56h.52V339h-.52v1.06c0,.24.07.38.27.38a1,1,0,0,0,.21,0v.27a.76.76,0,0,1-.31,0,.5.5,0,0,1-.39-.15.74.74,0,0,1-.14-.51V339h-.3v-.28h.3v-.47Z"/><path class="cls-3" d="M318.23,339.81a.63.63,0,0,0,.67.68,1.28,1.28,0,0,0,.55-.1l.06.26a1.75,1.75,0,0,1-.66.12.91.91,0,0,1-1-1,1,1,0,0,1,.92-1.06.83.83,0,0,1,.81.92c0,.08,0,.13,0,.17Zm1-.25a.51.51,0,0,0-.5-.58.59.59,0,0,0-.55.58Z"/><path class="cls-3" d="M320.46,338.21a.22.22,0,0,1-.23.22.22.22,0,1,1,.23-.22Zm-.4,2.52v-2h.36v2Z"/><path class="cls-3" d="M321,339.38c0-.23,0-.43,0-.62h.32v.39h0a.6.6,0,0,1,.55-.43h.1v.34h-.12a.5.5,0,0,0-.48.45.88.88,0,0,0,0,.17v1.05H321Z"/><path class="cls-3" d="M324.07,339.73a1,1,0,0,1-1,1,.93.93,0,0,1-.94-1,1,1,0,0,1,1-1A.93.93,0,0,1,324.07,339.73Zm-1.56,0c0,.43.25.75.6.75s.6-.32.6-.76-.17-.75-.59-.75S322.51,339.38,322.51,339.75Z"/><path class="cls-3" d="M302.46,345.56a1.7,1.7,0,0,1-1.69,1.91,1.66,1.66,0,0,1-1.63-1.84,1.73,1.73,0,0,1,1.69-1.92A1.66,1.66,0,0,1,302.46,345.56Zm-2.82.06c0,.77.42,1.47,1.16,1.47s1.17-.68,1.17-1.51-.38-1.48-1.16-1.48S299.64,344.82,299.64,345.62Z"/><path class="cls-3" d="M303.06,345.51c0-.27,0-.49,0-.71h.41l0,.42h0a.9.9,0,0,1,.82-.48.77.77,0,0,1,.74.53h0a1.29,1.29,0,0,1,.29-.35,1,1,0,0,1,.58-.18c.35,0,.86.23.86,1.14v1.54h-.46v-1.49c0-.5-.19-.8-.57-.8a.61.61,0,0,0-.56.43.86.86,0,0,0,0,.24v1.62h-.47v-1.57c0-.42-.18-.72-.54-.72a.65.65,0,0,0-.59.48.59.59,0,0,0,0,.23v1.58h-.46Z"/><path class="cls-3" d="M309.82,344.8c0,.19,0,.4,0,.72V347a1.48,1.48,0,0,1-.37,1.19,1.36,1.36,0,0,1-.95.31,1.7,1.7,0,0,1-.87-.21l.12-.36a1.54,1.54,0,0,0,.77.2c.48,0,.84-.25.84-.91V347h0a.94.94,0,0,1-.83.43,1.17,1.17,0,0,1-1.12-1.27,1.26,1.26,0,0,1,1.18-1.39.87.87,0,0,1,.82.46h0l0-.4Zm-.49,1a.66.66,0,0,0,0-.21.69.69,0,0,0-.67-.51c-.45,0-.77.39-.77,1s.26.94.77.94a.7.7,0,0,0,.66-.48,1.17,1.17,0,0,0,0-.26Z"/><path class="cls-3" d="M310.2,348.08a9,9,0,0,0,.32-1.29l.53-.06a7.31,7.31,0,0,1-.51,1.32Z"/><path class="cls-3" d="M312.7,346.93a1.27,1.27,0,0,0,.63.19c.34,0,.51-.17.51-.39s-.14-.35-.49-.48-.69-.43-.69-.74a.81.81,0,0,1,.9-.77,1.33,1.33,0,0,1,.64.16l-.12.35a1,1,0,0,0-.53-.15c-.28,0-.44.16-.44.35s.16.32.5.45.68.4.68.79-.35.78-1,.78a1.5,1.5,0,0,1-.74-.18Z"/><path class="cls-3" d="M317.27,346.09a1.27,1.27,0,0,1-1.3,1.38,1.23,1.23,0,0,1-1.25-1.34,1.27,1.27,0,0,1,1.29-1.39A1.24,1.24,0,0,1,317.27,346.09Zm-2.07,0c0,.58.33,1,.79,1s.8-.43.8-1-.23-1-.79-1S315.2,345.62,315.2,346.11Z"/><path class="cls-3" d="M319.28,346.19a.84.84,0,0,0,.9.91,1.81,1.81,0,0,0,.72-.13l.08.34a2.18,2.18,0,0,1-.87.16,1.21,1.21,0,0,1-1.28-1.32,1.27,1.27,0,0,1,1.22-1.41,1.1,1.1,0,0,1,1.08,1.23c0,.1,0,.18,0,.22Zm1.4-.34a.68.68,0,0,0-.66-.77.79.79,0,0,0-.73.77Z"/><path class="cls-3" d="M321.93,344.8l.37.56.27.43h0c.09-.16.18-.29.26-.43l.37-.56h.51l-.89,1.26.92,1.36h-.54l-.38-.59c-.11-.16-.19-.3-.29-.46h0c-.08.16-.17.3-.27.46l-.38.59h-.52l.93-1.34-.89-1.28Z"/><path class="cls-3" d="M324.74,344.07a.3.3,0,1,1-.29-.3A.29.29,0,0,1,324.74,344.07Zm-.53,3.35V344.8h.47v2.62Z"/><path class="cls-3" d="M326.05,344.05v.75h.68v.36h-.68v1.41c0,.33.09.51.35.51a1.47,1.47,0,0,0,.28,0l0,.35a1.1,1.1,0,0,1-.42.07.65.65,0,0,1-.51-.2.94.94,0,0,1-.19-.68v-1.43h-.4v-.36h.4v-.63Z"/><path class="cls-3" d="M327.49,346.19a.84.84,0,0,0,.9.91,1.77,1.77,0,0,0,.72-.13l.09.34a2.26,2.26,0,0,1-.87.16,1.22,1.22,0,0,1-1.29-1.32,1.27,1.27,0,0,1,1.23-1.41,1.11,1.11,0,0,1,1.08,1.23,1,1,0,0,1,0,.22Zm1.4-.34a.68.68,0,0,0-.66-.77.79.79,0,0,0-.73.77Z"/><path class="cls-3" d="M332.19,343.58v3.16c0,.23,0,.5,0,.68h-.43l0-.46h0a1,1,0,0,1-.89.51,1.18,1.18,0,0,1-1.12-1.32,1.25,1.25,0,0,1,1.17-1.41.88.88,0,0,1,.79.4h0v-1.56Zm-.47,2.29a1.23,1.23,0,0,0,0-.2.7.7,0,0,0-.69-.56c-.49,0-.78.44-.78,1s.26,1,.77,1a.72.72,0,0,0,.7-.57,1.23,1.23,0,0,0,0-.2Z"/><path class="cls-3" d="M332.89,347.14a.33.33,0,0,1,.32-.34.32.32,0,0,1,.32.34.32.32,0,1,1-.64,0Zm.14-.77-.08-2.6h.52l-.08,2.6Z"/><path class="cls-8" d="M295.84,343.88a6.51,6.51,0,0,1-6.62,6.37,6.69,6.69,0,0,1-4.26-1.5,6.24,6.24,0,0,1-2.37-4.87,6.63,6.63,0,0,1,13.25,0Z"/><path class="cls-9" d="M285,348.75v-3.07h3.17v-1s-3.65-1.84,0-4.68,6.26,3.07,3.13,4.37l-.09,1.3h2.52v2.89"/><circle class="cls-4" cx="406.13" cy="343.88" r="5.73"/><path class="cls-10" d="M406.13,343c.59-1.65,1.63-2.63,2.45-2.5a1.3,1.3,0,0,1,.83.3,1.65,1.65,0,0,1,.61.88c.76,1.5-.82,4.2-3.89,6.74-3.08-2.54-4.66-5.24-3.9-6.74a1.65,1.65,0,0,1,.61-.88,1.32,1.32,0,0,1,.83-.3C404.49,340.37,405.53,341.35,406.13,343Z"/><circle class="cls-4" cx="403.09" cy="321.84" r="7.2"/><circle class="cls-4" cx="385.82" cy="321.84" r="7.2"/><line class="cls-11" x1="284.02" y1="311.37" x2="414.21" y2="311.37"/><circle class="cls-7" cx="403.09" cy="321.84" r="5.02"/><ellipse class="cls-4" cx="401.38" cy="320.78" rx="0.66" ry="1.69"/><ellipse class="cls-4" cx="404.65" cy="320.78" rx="0.66" ry="1.69"/><path class="cls-4" d="M404.44,325.19c-.42,0-.86,0-1.31,0s-.95,0-1.39,0a1.19,1.19,0,0,1-.86-.35,1.23,1.23,0,0,1-.36-.86h5.13A1.21,1.21,0,0,1,404.44,325.19Z"/><rect id="Case-2" data-name="Case" class="cls-1" x="29.28" y="135.29" width="181.65" height="315.55" rx="22"/><rect id="Screen" class="cls-2" x="41.59" y="148.52" width="156.04" height="288.91" rx="14.39"/><circle id="Logo_-_Temlate" data-name="Logo - Temlate" class="cls-2" cx="119.61" cy="243.04" r="21.45"/><path class="cls-3" d="M109.2,239.63h1v6.67h3.2v.81H109.2Z"/><path class="cls-3" d="M119.12,244.38a2.63,2.63,0,0,1-2.68,2.86,2.56,2.56,0,0,1-2.57-2.77,2.62,2.62,0,0,1,2.66-2.85A2.54,2.54,0,0,1,119.12,244.38Zm-4.27.06c0,1.17.68,2.06,1.64,2.06s1.63-.87,1.63-2.08c0-.92-.46-2.07-1.61-2.07S114.85,243.42,114.85,244.44Z"/><path class="cls-3" d="M125,241.74c0,.39,0,.82,0,1.47v3.13a3,3,0,0,1-.77,2.45,2.83,2.83,0,0,1-2,.65,3.44,3.44,0,0,1-1.79-.45l.24-.74a3.1,3.1,0,0,0,1.58.42c1,0,1.74-.52,1.74-1.88v-.6h0a1.92,1.92,0,0,1-1.71.9,2.4,2.4,0,0,1-2.29-2.62,2.58,2.58,0,0,1,2.43-2.85,1.76,1.76,0,0,1,1.67.93h0l0-.81Zm-1,2.12a1.48,1.48,0,0,0,0-.44,1.42,1.42,0,0,0-1.37-1c-.93,0-1.6.79-1.6,2,0,1.05.54,1.93,1.59,1.93a1.44,1.44,0,0,0,1.36-1,1.91,1.91,0,0,0,.07-.52Z"/><path class="cls-3" d="M131.43,244.38a2.63,2.63,0,0,1-2.68,2.86,2.56,2.56,0,0,1-2.58-2.77,2.62,2.62,0,0,1,2.67-2.85A2.55,2.55,0,0,1,131.43,244.38Zm-4.27.06c0,1.17.68,2.06,1.63,2.06s1.64-.87,1.64-2.08c0-.92-.46-2.07-1.61-2.07S127.16,243.42,127.16,244.44Z"/><rect id="Button_-_Username" data-name="Button - Username" class="cls-12" x="74.57" y="289.93" width="90.08" height="16.12" rx="5.97"/><rect id="Button_-_Password" data-name="Button - Password" class="cls-12" x="75.06" y="314.94" width="90.08" height="16.12" rx="5.97"/><rect id="Button_-_LogIn" data-name="Button - LogIn" class="cls-12" x="96.95" y="354.39" width="46.31" height="13.69" rx="5.07"/><path class="cls-3" d="M103.3,296.15v3.32c0,1.26.56,1.79,1.31,1.79s1.36-.55,1.36-1.79v-3.32h.74v3.27c0,1.73-.91,2.43-2.13,2.43s-2-.65-2-2.4v-3.3Z"/><path class="cls-3" d="M107.79,301a2,2,0,0,0,1,.29c.53,0,.78-.26.78-.6s-.21-.54-.75-.74c-.72-.26-1.07-.66-1.07-1.14a1.25,1.25,0,0,1,1.4-1.18,2,2,0,0,1,1,.25l-.19.53a1.54,1.54,0,0,0-.82-.23c-.44,0-.68.25-.68.55s.24.48.77.68c.7.27,1.06.62,1.06,1.22s-.55,1.2-1.51,1.2a2.25,2.25,0,0,1-1.13-.27Z"/><path class="cls-3" d="M111.6,299.88a1.29,1.29,0,0,0,1.38,1.4,2.61,2.61,0,0,0,1.12-.21l.12.52a3.21,3.21,0,0,1-1.34.25,1.87,1.87,0,0,1-2-2,2,2,0,0,1,1.89-2.17,1.71,1.71,0,0,1,1.67,1.9,2.36,2.36,0,0,1,0,.34Zm2.15-.53a1,1,0,0,0-1-1.19,1.21,1.21,0,0,0-1.12,1.19Z"/><path class="cls-3" d="M115.36,299c0-.48,0-.89,0-1.26H116l0,.79h0a1.21,1.21,0,0,1,1.12-.88l.2,0v.69l-.24,0a1,1,0,0,0-1,.94,3.31,3.31,0,0,0,0,.34v2.15h-.73Z"/><path class="cls-3" d="M118.12,298.82c0-.42,0-.76,0-1.09h.65l0,.67h0a1.46,1.46,0,0,1,1.33-.76c.56,0,1.42.33,1.42,1.71v2.41h-.73v-2.32c0-.65-.24-1.19-.93-1.19a1,1,0,0,0-1,.75,1.11,1.11,0,0,0-.05.34v2.42h-.73Z"/><path class="cls-3" d="M125,301.76l-.06-.51h0a1.51,1.51,0,0,1-1.24.6,1.15,1.15,0,0,1-1.23-1.15c0-1,.87-1.51,2.42-1.5v-.09a.83.83,0,0,0-.91-.93,2,2,0,0,0-1,.3l-.17-.48a2.47,2.47,0,0,1,1.32-.36c1.24,0,1.54.84,1.54,1.65v1.5a5.66,5.66,0,0,0,.06,1Zm-.11-2.06c-.8,0-1.71.13-1.71.91a.65.65,0,0,0,.69.7.95.95,0,0,0,1-.91Z"/><path class="cls-3" d="M126.76,298.82c0-.42,0-.76,0-1.09h.64l0,.65h0a1.39,1.39,0,0,1,1.26-.74,1.2,1.2,0,0,1,1.15.81h0a1.85,1.85,0,0,1,.45-.53,1.39,1.39,0,0,1,.89-.28c.54,0,1.33.35,1.33,1.75v2.37h-.72v-2.28c0-.78-.28-1.24-.87-1.24a1,1,0,0,0-.87.66,1.36,1.36,0,0,0-.06.37v2.49h-.71v-2.41c0-.65-.29-1.11-.85-1.11a1,1,0,0,0-.9.73.85.85,0,0,0-.06.36v2.43h-.72Z"/><path class="cls-3" d="M134.12,299.88a1.29,1.29,0,0,0,1.38,1.4,2.61,2.61,0,0,0,1.12-.21l.12.52a3.21,3.21,0,0,1-1.34.25,1.87,1.87,0,0,1-2-2,2,2,0,0,1,1.89-2.17,1.72,1.72,0,0,1,1.67,1.9,2.36,2.36,0,0,1,0,.34Zm2.15-.53a1,1,0,0,0-1-1.19,1.21,1.21,0,0,0-1.12,1.19Z"/><path class="cls-3" d="M103.85,321.35a8.11,8.11,0,0,1,1.39-.11,2.3,2.3,0,0,1,1.57.47,1.48,1.48,0,0,1,.49,1.17,1.66,1.66,0,0,1-.43,1.2,2.32,2.32,0,0,1-1.72.62,2.61,2.61,0,0,1-.58-.05v2.25h-.72Zm.72,2.7a2.09,2.09,0,0,0,.6.06c.87,0,1.41-.42,1.41-1.2s-.53-1.1-1.33-1.1a3.28,3.28,0,0,0-.68.06Z"/><path class="cls-3" d="M110.27,326.9l-.06-.51h0a1.53,1.53,0,0,1-1.24.6,1.15,1.15,0,0,1-1.23-1.16c0-1,.87-1.51,2.42-1.5v-.08a.83.83,0,0,0-.91-.94,2,2,0,0,0-1,.3l-.17-.48a2.48,2.48,0,0,1,1.33-.36c1.23,0,1.53.84,1.53,1.65v1.51a5.74,5.74,0,0,0,.07,1Zm-.11-2.06c-.8,0-1.71.12-1.71.91a.65.65,0,0,0,.69.7,1,1,0,0,0,1-.68.93.93,0,0,0,0-.23Z"/><path class="cls-3" d="M112,326.15a2,2,0,0,0,1,.29c.53,0,.78-.27.78-.6s-.21-.54-.75-.74c-.72-.26-1.06-.66-1.06-1.15a1.24,1.24,0,0,1,1.39-1.18,2.05,2.05,0,0,1,1,.25l-.19.53a1.64,1.64,0,0,0-.82-.23c-.43,0-.67.25-.67.55s.24.48.76.68c.7.27,1.06.62,1.06,1.22s-.55,1.21-1.51,1.21a2.25,2.25,0,0,1-1.13-.28Z"/><path class="cls-3" d="M115.25,326.15a2,2,0,0,0,1,.29c.53,0,.78-.27.78-.6s-.21-.54-.75-.74c-.72-.26-1.07-.66-1.07-1.15a1.25,1.25,0,0,1,1.4-1.18,2.09,2.09,0,0,1,1,.25l-.19.53a1.64,1.64,0,0,0-.82-.23c-.43,0-.68.25-.68.55s.25.48.77.68c.7.27,1.06.62,1.06,1.22s-.55,1.21-1.51,1.21a2.25,2.25,0,0,1-1.13-.28Z"/><path class="cls-3" d="M118.94,322.86l.54,2.05c.11.45.22.87.3,1.29h0c.09-.41.23-.85.36-1.28l.66-2.06h.61l.63,2c.15.48.27.91.36,1.32h0c.07-.41.18-.84.31-1.31l.58-2h.72l-1.3,4h-.67l-.61-1.93c-.14-.45-.26-.85-.36-1.32h0a12.25,12.25,0,0,1-.36,1.33l-.65,1.92h-.67l-1.22-4Z"/><path class="cls-3" d="M128.35,324.85a2,2,0,0,1-2,2.14,1.92,1.92,0,0,1-1.93-2.08,2,2,0,0,1,2-2.14A1.91,1.91,0,0,1,128.35,324.85Zm-3.2,0c0,.88.51,1.55,1.22,1.55s1.23-.66,1.23-1.57c0-.68-.34-1.55-1.21-1.55S125.15,324.12,125.15,324.89Z"/><path class="cls-3" d="M129.27,324.12c0-.47,0-.88,0-1.26h.64l0,.79h0a1.2,1.2,0,0,1,1.12-.88.6.6,0,0,1,.2,0v.69a.9.9,0,0,0-.25,0,1,1,0,0,0-1,.94,1.83,1.83,0,0,0,0,.35v2.15h-.73Z"/><path class="cls-3" d="M135.4,321v4.87c0,.36,0,.77,0,1h-.66l0-.7h0a1.48,1.48,0,0,1-1.37.79,1.84,1.84,0,0,1-1.73-2.05,1.94,1.94,0,0,1,1.81-2.17,1.35,1.35,0,0,1,1.22.62h0V321Zm-.74,3.52a1,1,0,0,0,0-.3,1.08,1.08,0,0,0-1.06-.85c-.76,0-1.21.66-1.21,1.55s.4,1.5,1.2,1.5a1.1,1.1,0,0,0,1.07-.88,1.09,1.09,0,0,0,0-.32Z"/><path class="cls-3" d="M112.42,359.92H113v3.9h1.86v.47h-2.43Z"/><path class="cls-3" d="M118.21,362.7a1.53,1.53,0,0,1-1.56,1.66,1.49,1.49,0,0,1-1.51-1.61,1.54,1.54,0,0,1,1.56-1.67A1.49,1.49,0,0,1,118.21,362.7Zm-2.49,0c0,.69.4,1.21,1,1.21s1-.52,1-1.22c0-.54-.27-1.21-.94-1.21S115.72,362.13,115.72,362.73Z"/><path class="cls-3" d="M121.63,361.15c0,.23,0,.48,0,.87v1.82a1.81,1.81,0,0,1-.45,1.43,1.66,1.66,0,0,1-1.14.38,2,2,0,0,1-1-.26l.15-.44a1.74,1.74,0,0,0,.92.25c.58,0,1-.3,1-1.1v-.35h0a1.12,1.12,0,0,1-1,.53,1.4,1.4,0,0,1-1.34-1.53,1.51,1.51,0,0,1,1.42-1.67,1,1,0,0,1,1,.55h0l0-.48Zm-.59,1.24a.72.72,0,0,0,0-.26.82.82,0,0,0-.8-.6c-.54,0-.93.46-.93,1.19s.31,1.12.93,1.12a.84.84,0,0,0,.79-.58,1.08,1.08,0,0,0,0-.3Z"/><path class="cls-3" d="M123.13,359.92v4.37h-.56v-4.37Z"/><path class="cls-3" d="M124.16,362c0-.32,0-.59,0-.85h.5l0,.52h0a1.16,1.16,0,0,1,1-.59c.43,0,1.11.26,1.11,1.34v1.87h-.57v-1.81c0-.5-.19-.92-.73-.92a.81.81,0,0,0-.77.58,1.06,1.06,0,0,0,0,.27v1.88h-.58Z"/><path class="cls-13" d="M87.64,416.51h2.85v.57H88.32v1.77h2v.56h-2v2.41h-.68Z"/><path class="cls-13" d="M94.65,419.88a1.86,1.86,0,0,1-1.9,2,1.8,1.8,0,0,1-1.82-2,1.86,1.86,0,0,1,1.89-2A1.8,1.8,0,0,1,94.65,419.88Zm-3,0c0,.83.48,1.46,1.15,1.46s1.16-.62,1.16-1.48c0-.64-.32-1.46-1.14-1.46S91.63,419.19,91.63,419.92Z"/><path class="cls-13" d="M95.52,419.19c0-.44,0-.83,0-1.19h.61l0,.75h0a1.15,1.15,0,0,1,1.06-.83l.19,0v.65l-.23,0a1,1,0,0,0-.93.89,1.66,1.66,0,0,0,0,.32v2h-.69Z"/><path class="cls-13" d="M99.12,416.91V418h1v.53h-1v2.06c0,.47.13.74.52.74a1.71,1.71,0,0,0,.4-.05l0,.52a1.78,1.78,0,0,1-.61.09.94.94,0,0,1-.75-.29,1.38,1.38,0,0,1-.27-1v-2.08h-.59V418h.59v-.91Z"/><path class="cls-13" d="M104.12,418c0,.28,0,.59,0,1.05v2.21a2.18,2.18,0,0,1-.54,1.74,2,2,0,0,1-1.39.46,2.48,2.48,0,0,1-1.26-.31l.17-.53a2.13,2.13,0,0,0,1.12.3c.71,0,1.23-.37,1.23-1.33v-.43h0a1.34,1.34,0,0,1-1.21.64,1.7,1.7,0,0,1-1.62-1.86,1.82,1.82,0,0,1,1.71-2,1.26,1.26,0,0,1,1.19.66h0l0-.58Zm-.71,1.51a1.08,1.08,0,0,0,0-.32,1,1,0,0,0-1-.73c-.66,0-1.13.56-1.13,1.44s.38,1.37,1.12,1.37a1,1,0,0,0,1-.71,1.15,1.15,0,0,0,.06-.37Z"/><path class="cls-13" d="M108.69,419.88a1.86,1.86,0,0,1-1.9,2,1.8,1.8,0,0,1-1.82-2,1.86,1.86,0,0,1,1.89-2A1.8,1.8,0,0,1,108.69,419.88Zm-3,0c0,.83.48,1.46,1.15,1.46s1.16-.62,1.16-1.48c0-.64-.32-1.46-1.14-1.46S105.67,419.19,105.67,419.92Z"/><path class="cls-13" d="M110.4,416.91V418h1v.53h-1v2.06c0,.47.13.74.52.74a1.71,1.71,0,0,0,.4-.05l0,.52a1.82,1.82,0,0,1-.61.09.94.94,0,0,1-.75-.29,1.38,1.38,0,0,1-.27-1v-2.08h-.59V418h.59v-.91Z"/><path class="cls-13" d="M114.54,416.51v3.14c0,1.19.53,1.69,1.24,1.69s1.29-.52,1.29-1.69v-3.14h.69v3.09c0,1.63-.85,2.3-2,2.3s-1.91-.62-1.91-2.27v-3.12Z"/><path class="cls-13" d="M118.79,421.11a1.81,1.81,0,0,0,.91.27c.5,0,.74-.25.74-.56s-.2-.52-.71-.7c-.68-.25-1-.63-1-1.08a1.18,1.18,0,0,1,1.32-1.12,2,2,0,0,1,.93.23l-.17.51a1.42,1.42,0,0,0-.78-.22c-.41,0-.64.23-.64.52s.23.45.73.64c.66.25,1,.59,1,1.15s-.52,1.14-1.43,1.14a2.17,2.17,0,0,1-1.07-.26Z"/><path class="cls-13" d="M122.38,420a1.23,1.23,0,0,0,1.31,1.32,2.51,2.51,0,0,0,1.06-.2l.11.5a3.08,3.08,0,0,1-1.26.23,1.77,1.77,0,0,1-1.88-1.92,1.85,1.85,0,0,1,1.79-2.05,1.61,1.61,0,0,1,1.57,1.79,2.63,2.63,0,0,1,0,.33Zm2-.5a1,1,0,0,0-1-1.13,1.15,1.15,0,0,0-1.06,1.13Z"/><path class="cls-13" d="M125.94,419.19c0-.44,0-.83,0-1.19h.61l0,.75h0a1.14,1.14,0,0,1,1.06-.83l.19,0v.65l-.23,0a1,1,0,0,0-.93.89,1.66,1.66,0,0,0,0,.32v2h-.69Z"/><path class="cls-13" d="M133.63,419.88a1.86,1.86,0,0,1-1.9,2,1.8,1.8,0,0,1-1.82-2,1.86,1.86,0,0,1,1.89-2A1.8,1.8,0,0,1,133.63,419.88Zm-3,0c0,.83.48,1.46,1.15,1.46s1.16-.62,1.16-1.48c0-.64-.32-1.46-1.14-1.46S130.61,419.19,130.61,419.92Z"/><path class="cls-13" d="M134.5,419.19c0-.44,0-.83,0-1.19h.61l0,.75h0a1.15,1.15,0,0,1,1.06-.83l.19,0v.65l-.23,0a1,1,0,0,0-.93.89,1.66,1.66,0,0,0,0,.32v2h-.69Z"/><path class="cls-13" d="M138.77,416.57a8.52,8.52,0,0,1,1.31-.1,2.19,2.19,0,0,1,1.49.44A1.44,1.44,0,0,1,142,418a1.58,1.58,0,0,1-.41,1.13,2.22,2.22,0,0,1-1.63.59,2.34,2.34,0,0,1-.55-.05v2.13h-.68Zm.68,2.56a2.26,2.26,0,0,0,.57.06c.83,0,1.33-.41,1.33-1.14s-.49-1-1.25-1a2.94,2.94,0,0,0-.65.06Z"/><path class="cls-13" d="M144.84,421.82l-.06-.49h0a1.42,1.42,0,0,1-1.17.57,1.08,1.08,0,0,1-1.16-1.09c0-.92.82-1.43,2.29-1.42v-.08a.79.79,0,0,0-.87-.88,1.94,1.94,0,0,0-1,.28l-.16-.45a2.36,2.36,0,0,1,1.26-.34c1.16,0,1.45.79,1.45,1.56v1.42a5.2,5.2,0,0,0,.06.92Zm-.1-1.95c-.76,0-1.62.12-1.62.86a.61.61,0,0,0,.66.66.94.94,0,0,0,.92-.64.85.85,0,0,0,0-.22Z"/><path class="cls-13" d="M146.43,421.11a1.81,1.81,0,0,0,.91.27c.5,0,.74-.25.74-.56s-.2-.52-.71-.7c-.68-.25-1-.63-1-1.08a1.18,1.18,0,0,1,1.32-1.12,2,2,0,0,1,.94.23l-.18.51a1.42,1.42,0,0,0-.78-.22c-.41,0-.63.23-.63.52s.22.45.72.64c.66.25,1,.59,1,1.15s-.52,1.14-1.43,1.14a2.17,2.17,0,0,1-1.07-.26Z"/><path class="cls-13" d="M149.54,421.11a1.89,1.89,0,0,0,.92.27c.5,0,.74-.25.74-.56s-.2-.52-.71-.7c-.69-.25-1-.63-1-1.08a1.17,1.17,0,0,1,1.31-1.12,2,2,0,0,1,.94.23l-.17.51a1.45,1.45,0,0,0-.78-.22c-.41,0-.64.23-.64.52s.23.45.73.64c.66.25,1,.59,1,1.15s-.52,1.14-1.43,1.14a2.14,2.14,0,0,1-1.07-.26Z"/><rect id="Case-3" data-name="Case" class="cls-1" x="495.66" y="142.27" width="178.35" height="309.83" rx="22"/><rect id="Background-2" data-name="Background" class="cls-2" x="506.76" y="155.26" width="153.3" height="283.84" rx="14.39"/><path class="cls-4" d="M575.67,233.15a22.79,22.79,0,1,1-22.79-22.79A22.79,22.79,0,0,1,575.67,233.15Z"/><path class="cls-14" d="M537.85,250.16v-11h10.92v-3.55s-12.56-6.57,0-16.74,21.53,11,10.76,15.64l-.29,4.65h8.67v10.32"/><rect class="cls-4" x="592.32" y="233.15" width="34.06" height="9.11" rx="2.68"/><path class="cls-3" d="M601.08,237.9h-1.2V239h1.33v.34h-1.73v-3.08h1.66v.33h-1.26v1h1.2Z"/><path class="cls-3" d="M603.6,236.11v2.67c0,.19,0,.42,0,.57h-.36l0-.39h0a.81.81,0,0,1-.75.44,1,1,0,0,1-.94-1.13,1,1,0,0,1,1-1.18.72.72,0,0,1,.66.34h0v-1.32Zm-.4,1.93a.5.5,0,0,0,0-.17.58.58,0,0,0-.57-.47c-.42,0-.67.37-.67.86s.22.81.66.81a.59.59,0,0,0,.58-.48.47.47,0,0,0,0-.17Z"/><path class="cls-3" d="M604.72,236.52a.24.24,0,0,1-.26.24.24.24,0,0,1-.24-.24.25.25,0,0,1,.25-.25A.24.24,0,0,1,604.72,236.52Zm-.45,2.83v-2.21h.4v2.21Z"/><path class="cls-3" d="M605.83,236.5v.64h.57v.3h-.57v1.19c0,.28.07.43.3.43l.23,0,0,.3a1.06,1.06,0,0,1-.36,0,.54.54,0,0,1-.43-.17.78.78,0,0,1-.16-.57v-1.21h-.34v-.3h.34v-.53Z"/><path class="cls-3" d="M607.83,236.31a5,5,0,0,1,.77-.06,1.28,1.28,0,0,1,.86.25.83.83,0,0,1,.27.65.87.87,0,0,1-.24.65,1.25,1.25,0,0,1-.94.34,1.06,1.06,0,0,1-.32,0v1.24h-.4Zm.4,1.48a1.55,1.55,0,0,0,.33,0c.48,0,.77-.23.77-.65s-.29-.61-.72-.61a1.49,1.49,0,0,0-.38,0Z"/><path class="cls-3" d="M610.18,237.83c0-.26,0-.49,0-.69h.35v.43h0a.65.65,0,0,1,.61-.48h.12v.38h-.14a.57.57,0,0,0-.54.51,1.15,1.15,0,0,0,0,.19v1.18h-.4Z"/><path class="cls-3" d="M613.62,238.22a1.08,1.08,0,0,1-1.1,1.18,1.05,1.05,0,0,1-1-1.14,1.07,1.07,0,0,1,1.09-1.17A1,1,0,0,1,613.62,238.22Zm-1.75,0c0,.48.28.85.67.85s.67-.37.67-.86-.18-.85-.66-.85S611.87,237.83,611.87,238.25Z"/><path class="cls-3" d="M614.17,239.35v-1.91h-.31v-.3h.31V237a.89.89,0,0,1,1-1,1.16,1.16,0,0,1,.56.14l-.12.31a.81.81,0,0,0-.46-.13c-.43,0-.55.3-.55.65v.11h1.28v2.21h-.4v-1.91h-.88v1.91Z"/><path class="cls-3" d="M616.52,236.11h.4v3.24h-.4Z"/><path class="cls-3" d="M617.82,238.31a.71.71,0,0,0,.76.77,1.51,1.51,0,0,0,.61-.11l.07.28a1.68,1.68,0,0,1-.74.14,1,1,0,0,1-1.08-1.11,1.07,1.07,0,0,1,1-1.19.93.93,0,0,1,.92,1,.74.74,0,0,1,0,.18ZM619,238a.57.57,0,0,0-.56-.65.66.66,0,0,0-.61.65Z"/><rect class="cls-4" x="592.32" y="247.09" width="34.06" height="9.11" rx="2.68"/><path class="cls-3" d="M601.86,253a1.41,1.41,0,0,0,.71.2c.41,0,.64-.21.64-.52s-.16-.45-.58-.61-.81-.44-.81-.87a.89.89,0,0,1,1-.84,1.52,1.52,0,0,1,.68.15l-.11.33a1.18,1.18,0,0,0-.59-.15c-.42,0-.58.25-.58.46s.19.43.62.59.78.46.78.91-.35.88-1.08.88a1.57,1.57,0,0,1-.78-.19Z"/><path class="cls-3" d="M604.4,252.45a.71.71,0,0,0,.76.76,1.51,1.51,0,0,0,.61-.11l.07.29a1.87,1.87,0,0,1-.74.13,1,1,0,0,1-1.08-1.11,1.07,1.07,0,0,1,1-1.19.93.93,0,0,1,.92,1,.84.84,0,0,1,0,.19Zm1.18-.29a.57.57,0,0,0-.56-.65.66.66,0,0,0-.61.65Z"/><path class="cls-3" d="M607,250.64v.63h.58v.31H607v1.19c0,.27.08.42.3.42l.23,0,0,.3a1,1,0,0,1-.35.05.57.57,0,0,1-.44-.17.81.81,0,0,1-.15-.57v-1.2h-.34v-.31h.34v-.53Z"/><path class="cls-3" d="M608.46,250.64v.63H609v.31h-.58v1.19c0,.27.08.42.3.42l.24,0v.3a1,1,0,0,1-.35.05.57.57,0,0,1-.44-.17.81.81,0,0,1-.15-.57v-1.2h-.34v-.31h.34v-.53Z"/><path class="cls-3" d="M609.94,250.65a.24.24,0,0,1-.26.25.25.25,0,1,1,.26-.25Zm-.45,2.83v-2.21h.4v2.21Z"/><path class="cls-3" d="M610.56,251.87c0-.23,0-.42,0-.6h.36l0,.36h0a.8.8,0,0,1,.73-.41c.3,0,.78.18.78.94v1.32H612V252.2c0-.35-.14-.65-.51-.65a.57.57,0,0,0-.54.41.54.54,0,0,0,0,.19v1.33h-.4Z"/><path class="cls-3" d="M615,251.27c0,.16,0,.34,0,.61v1.28a1.27,1.27,0,0,1-.32,1,1.15,1.15,0,0,1-.8.26,1.42,1.42,0,0,1-.74-.18l.11-.31a1.22,1.22,0,0,0,.64.18c.41,0,.71-.22.71-.77v-.25h0a.82.82,0,0,1-.71.37,1,1,0,0,1-.94-1.08,1.06,1.06,0,0,1,1-1.17.75.75,0,0,1,.69.38h0v-.33Zm-.42.87a.5.5,0,0,0,0-.18.59.59,0,0,0-.56-.43c-.39,0-.66.33-.66.84s.22.79.65.79a.58.58,0,0,0,.56-.41.76.76,0,0,0,0-.21Z"/><path class="cls-3" d="M615.59,253.07a1.14,1.14,0,0,0,.53.16c.29,0,.43-.15.43-.33s-.12-.3-.41-.41-.59-.36-.59-.62a.68.68,0,0,1,.77-.65,1,1,0,0,1,.54.14l-.1.29a.83.83,0,0,0-.45-.13c-.24,0-.37.14-.37.3s.13.27.42.38.58.33.58.66-.3.66-.83.66a1.29,1.29,0,0,1-.62-.15Z"/><path class="cls-3" d="M587.2,218.21a6.93,6.93,0,0,1,.85-.06,1.74,1.74,0,0,1,1.24.38,1.41,1.41,0,0,1,.44,1.11,1.64,1.64,0,0,1-.44,1.19,1.9,1.9,0,0,1-1.36.44c-.29,0-.52,0-.73,0Zm.4,2.72a2.36,2.36,0,0,0,.4,0,1.18,1.18,0,0,0,1.31-1.3,1.09,1.09,0,0,0-1.24-1.19,2.55,2.55,0,0,0-.47,0Z"/><path class="cls-3" d="M590.47,220.21a.71.71,0,0,0,.76.77,1.51,1.51,0,0,0,.61-.11l.07.28a1.66,1.66,0,0,1-.73.14,1,1,0,0,1-1.09-1.11,1.07,1.07,0,0,1,1-1.19.93.93,0,0,1,.91,1c0,.08,0,.14,0,.18Zm1.18-.28a.57.57,0,0,0-.56-.66.67.67,0,0,0-.61.66Z"/><path class="cls-3" d="M594.11,221.16a1.35,1.35,0,0,1-.63.13,1,1,0,0,1-1.1-1.13,1.12,1.12,0,0,1,1.19-1.17,1.25,1.25,0,0,1,.55.12l-.09.31a.86.86,0,0,0-.46-.11.77.77,0,0,0-.78.84.75.75,0,0,0,.76.82,1.11,1.11,0,0,0,.49-.11Z"/><path class="cls-3" d="M594.58,219.73c0-.26,0-.49,0-.69h.35v.43h0a.65.65,0,0,1,.61-.48h.12v.38h-.14a.56.56,0,0,0-.54.51,1.11,1.11,0,0,0,0,.19v1.18h-.4Z"/><path class="cls-3" d="M596.54,218.42a.23.23,0,0,1-.25.24.24.24,0,0,1-.24-.24.24.24,0,0,1,.25-.25A.23.23,0,0,1,596.54,218.42Zm-.44,2.83V219h.4v2.21Z"/><path class="cls-3" d="M597.16,219.76c0-.28,0-.51,0-.72h.36l0,.38h0a.88.88,0,0,1,.79-.43,1,1,0,0,1,.93,1.12,1,1,0,0,1-1,1.19.77.77,0,0,1-.68-.35h0v1.2h-.4Zm.4.59a.78.78,0,0,0,0,.16.62.62,0,0,0,.6.47c.43,0,.67-.35.67-.85s-.23-.82-.65-.82a.64.64,0,0,0-.61.49.86.86,0,0,0,0,.17Z"/><path class="cls-3" d="M600.25,218.4V219h.57v.3h-.57v1.19c0,.28.08.43.3.43l.23,0,0,.3a1.06,1.06,0,0,1-.36,0,.56.56,0,0,1-.43-.17.83.83,0,0,1-.16-.57v-1.21h-.34V219h.34v-.53Z"/><path class="cls-3" d="M601.16,221a.28.28,0,0,1,.28-.29.27.27,0,0,1,.27.29.28.28,0,1,1-.55,0Z"/><circle class="cls-4" cx="538.32" cy="291.53" r="5.65"/><circle class="cls-4" cx="552.88" cy="291.53" r="5.65"/><circle class="cls-4" cx="568.39" cy="291.53" r="5.65"/><circle class="cls-4" cx="582.95" cy="291.53" r="5.65"/><circle class="cls-4" cx="596.84" cy="291.53" r="5.65"/><circle class="cls-4" cx="611.4" cy="291.53" r="5.65"/><circle class="cls-4" cx="626.38" cy="291.53" r="5.65"/><circle class="cls-4" cx="538.32" cy="306.73" r="5.65"/><circle class="cls-4" cx="552.88" cy="306.73" r="5.65"/><circle class="cls-4" cx="568.39" cy="306.73" r="5.65"/><circle class="cls-4" cx="582.95" cy="306.73" r="5.65"/><circle class="cls-4" cx="596.84" cy="306.73" r="5.65"/><circle class="cls-4" cx="611.4" cy="306.73" r="5.65"/><circle class="cls-4" cx="626.38" cy="306.73" r="5.65"/><circle class="cls-4" cx="537.78" cy="321.92" r="5.65"/><circle class="cls-4" cx="552.35" cy="321.92" r="5.65"/><circle class="cls-4" cx="567.86" cy="321.92" r="5.65"/><circle class="cls-4" cx="582.42" cy="321.92" r="5.65"/><circle class="cls-4" cx="596.31" cy="321.92" r="5.65"/><circle class="cls-4" cx="610.87" cy="321.92" r="5.65"/><circle class="cls-4" cx="625.84" cy="321.92" r="5.65"/><circle class="cls-4" cx="537.78" cy="337.11" r="5.65"/><circle class="cls-4" cx="552.35" cy="337.11" r="5.65"/><circle class="cls-4" cx="567.86" cy="337.11" r="5.65"/><circle class="cls-4" cx="582.42" cy="337.11" r="5.65"/><circle class="cls-4" cx="596.31" cy="337.11" r="5.65"/><circle class="cls-4" cx="610.87" cy="337.11" r="5.65"/><circle class="cls-4" cx="625.84" cy="337.11" r="5.65"/><path class="cls-3" d="M534.22,281.87a5.53,5.53,0,0,0,0-.6h.36l0,.36h0a.76.76,0,0,1,.69-.41.66.66,0,0,1,.63.44h0a.74.74,0,0,1,.24-.28.76.76,0,0,1,.49-.16c.29,0,.73.19.73,1v1.3H537v-1.25c0-.43-.15-.68-.48-.68a.53.53,0,0,0-.47.36.64.64,0,0,0,0,.2v1.37h-.39v-1.32c0-.36-.16-.61-.46-.61a.54.54,0,0,0-.5.4.44.44,0,0,0,0,.2v1.33h-.4Z"/><path class="cls-3" d="M540,282.36a1.08,1.08,0,0,1-1.1,1.17,1.05,1.05,0,0,1-1.06-1.14,1.08,1.08,0,0,1,1.1-1.17A1,1,0,0,1,540,282.36Zm-1.75,0c0,.48.28.85.67.85s.67-.36.67-.86-.19-.85-.66-.85S538.28,282,538.28,282.38Z"/><path class="cls-3" d="M540.54,281.87c0-.23,0-.42,0-.6h.36l0,.37h0a.81.81,0,0,1,.73-.42c.3,0,.78.18.78.94v1.32H542v-1.27c0-.36-.14-.66-.51-.66a.57.57,0,0,0-.54.41.54.54,0,0,0,0,.19v1.33h-.4Z"/><path class="cls-3" d="M550.54,280.64v.63h.57v.31h-.57v1.19c0,.27.08.43.3.43a1.07,1.07,0,0,0,.23,0l0,.3a1.06,1.06,0,0,1-.36,0,.56.56,0,0,1-.43-.16.86.86,0,0,1-.15-.58v-1.2h-.35v-.31h.35v-.53Z"/><path class="cls-3" d="M553.41,282.88c0,.22,0,.43,0,.6h-.35l0-.36h0a.81.81,0,0,1-.73.41c-.34,0-.76-.19-.76-1v-1.29h.4v1.22c0,.42.13.71.5.71a.59.59,0,0,0,.53-.37.64.64,0,0,0,0-.2v-1.36h.4Z"/><path class="cls-3" d="M554.31,282.45a.69.69,0,0,0,.75.76,1.51,1.51,0,0,0,.61-.11l.07.29a1.86,1.86,0,0,1-.73.13,1,1,0,0,1-1.09-1.11,1.07,1.07,0,0,1,1-1.19.93.93,0,0,1,.91,1c0,.08,0,.15,0,.19Zm1.17-.29a.56.56,0,0,0-.55-.65.66.66,0,0,0-.62.65Z"/><path class="cls-3" d="M565.45,281.27l.29,1.12c.06.25.12.48.16.71h0c.05-.23.12-.47.19-.7l.36-1.13h.34l.34,1.11a6.1,6.1,0,0,1,.2.72h0c0-.23.1-.46.17-.72l.32-1.11h.39l-.71,2.21h-.36l-.34-1.05c-.08-.25-.14-.47-.2-.73h0a5.59,5.59,0,0,1-.2.73l-.35,1.05h-.37l-.66-2.21Z"/><path class="cls-3" d="M568.83,282.45a.69.69,0,0,0,.75.76,1.6,1.6,0,0,0,.62-.11l.06.29a1.86,1.86,0,0,1-.73.13,1,1,0,0,1-1.09-1.11,1.07,1.07,0,0,1,1-1.19.93.93,0,0,1,.91,1c0,.08,0,.15,0,.19Zm1.17-.29a.56.56,0,0,0-.55-.65.66.66,0,0,0-.62.65Z"/><path class="cls-3" d="M572.8,280.24v2.67a5.06,5.06,0,0,0,0,.57h-.36l0-.38h0a.83.83,0,0,1-.75.43,1,1,0,0,1-.95-1.12,1.06,1.06,0,0,1,1-1.19.74.74,0,0,1,.67.34h0v-1.32Zm-.4,1.93a1,1,0,0,0,0-.17.59.59,0,0,0-.58-.46c-.42,0-.66.36-.66.85s.22.82.65.82a.61.61,0,0,0,.59-.48,1,1,0,0,0,0-.18Z"/><path class="cls-3" d="M581.43,279.93v.63H582v.31h-.58v1.19c0,.27.08.43.31.43a1.07,1.07,0,0,0,.23,0l0,.3a1.06,1.06,0,0,1-.36.05.53.53,0,0,1-.43-.16.81.81,0,0,1-.16-.58v-1.2h-.34v-.31H581V280Z"/><path class="cls-3" d="M582.46,279.53h.4v1.38h0a.81.81,0,0,1,.29-.29.93.93,0,0,1,.41-.11c.3,0,.77.18.77.95v1.31h-.4V281.5c0-.35-.13-.66-.51-.66a.58.58,0,0,0-.54.41.5.5,0,0,0,0,.19v1.33h-.4Z"/><path class="cls-3" d="M586.84,282.17c0,.23,0,.43,0,.6h-.35l0-.36h0a.81.81,0,0,1-.73.41c-.34,0-.76-.19-.76-1v-1.29h.4v1.22c0,.42.13.71.5.71a.59.59,0,0,0,.53-.37.64.64,0,0,0,0-.2v-1.36h.4Z"/><path class="cls-3" d="M594.39,283.48v-1.9h-.31v-.31h.31v-.1a1,1,0,0,1,.26-.78.79.79,0,0,1,.54-.2,1,1,0,0,1,.34.06l-.06.31a.73.73,0,0,0-.25-.05c-.34,0-.43.3-.43.64v.12h.53v.31h-.53v1.9Z"/><path class="cls-3" d="M595.68,282c0-.26,0-.48,0-.69H596v.43h0a.66.66,0,0,1,.61-.48h.12v.38h-.14a.56.56,0,0,0-.54.51,1.11,1.11,0,0,0,0,.19v1.18h-.4Z"/><path class="cls-3" d="M597.64,280.65a.23.23,0,0,1-.25.25.25.25,0,0,1,0-.5A.23.23,0,0,1,597.64,280.65Zm-.44,2.83v-2.21h.4v2.21Z"/><path class="cls-3" d="M609.33,282.36a1,1,0,0,0,.53.16c.29,0,.43-.15.43-.33s-.12-.3-.41-.41-.59-.36-.59-.62a.68.68,0,0,1,.76-.65,1.17,1.17,0,0,1,.55.14l-.1.29a.94.94,0,0,0-.46-.13.33.33,0,0,0-.37.3c0,.19.14.27.42.38s.58.34.58.66-.3.67-.82.67a1.26,1.26,0,0,1-.62-.15Z"/><path class="cls-3" d="M612.41,282.77l0-.28h0a.8.8,0,0,1-.68.33.63.63,0,0,1-.67-.63c0-.54.47-.83,1.33-.83v0a.46.46,0,0,0-.51-.51,1.08,1.08,0,0,0-.57.16l-.09-.26a1.33,1.33,0,0,1,.72-.2c.68,0,.84.46.84.91v.82a2.86,2.86,0,0,0,0,.53Zm-.06-1.13c-.43,0-.93.07-.93.5a.35.35,0,0,0,.38.38.54.54,0,0,0,.53-.37.25.25,0,0,0,0-.12Z"/><path class="cls-3" d="M613.86,279.93v.63h.57v.31h-.57v1.19c0,.27.08.43.3.43a1.07,1.07,0,0,0,.23,0l0,.3a1,1,0,0,1-.36.06.56.56,0,0,1-.43-.17.86.86,0,0,1-.16-.58v-1.2h-.34v-.31h.34V280Z"/><path class="cls-3" d="M623.22,283.07a1,1,0,0,0,.53.16c.29,0,.43-.15.43-.33s-.11-.3-.41-.41-.58-.36-.58-.62a.68.68,0,0,1,.76-.65,1,1,0,0,1,.54.14l-.1.29a.8.8,0,0,0-.45-.13c-.24,0-.37.14-.37.3s.13.27.42.38.58.33.58.66-.3.66-.83.66a1.19,1.19,0,0,1-.62-.15Z"/><path class="cls-3" d="M626.93,282.88c0,.22,0,.43,0,.6h-.35l0-.36h0a.84.84,0,0,1-.74.41c-.34,0-.76-.19-.76-1v-1.29h.4v1.22c0,.42.13.71.5.71a.59.59,0,0,0,.53-.37.64.64,0,0,0,0-.2v-1.36h.4Z"/><path class="cls-3" d="M627.6,281.87a5.53,5.53,0,0,0,0-.6h.36l0,.37h0a.82.82,0,0,1,.73-.42c.31,0,.78.18.78.94v1.32h-.4v-1.27c0-.36-.13-.66-.51-.66a.58.58,0,0,0-.54.41.54.54,0,0,0,0,.19v1.33h-.4Z"/><path class="cls-3" d="M522.86,262.71c0,.63-.33.94-.72.94s-.68-.3-.69-.9.33-.92.72-.92S522.86,262.15,522.86,262.71Zm-1.09,0c0,.38.13.67.38.67s.39-.29.39-.68-.11-.66-.39-.66S521.77,262.36,521.77,262.74Zm.35,2.15,1.74-3.06h.26l-1.75,3.06Zm2.67-.95c0,.62-.33.93-.71.93s-.69-.29-.69-.89.32-.93.71-.93S524.79,263.37,524.79,263.94Zm-1.09,0c0,.38.14.66.39.66s.38-.28.38-.67-.1-.66-.38-.66S523.7,263.59,523.7,264Z"/><path class="cls-3" d="M526.25,261.77h1.65v.33h-1.26v1h1.17v.33h-1.17v1.39h-.39Z"/><path class="cls-3" d="M530.31,263.72a1.07,1.07,0,0,1-1.1,1.17,1,1,0,0,1-1.05-1.13,1.08,1.08,0,0,1,1.09-1.18A1,1,0,0,1,530.31,263.72Zm-1.75,0c0,.49.28.85.67.85s.67-.36.67-.86-.19-.84-.66-.84S528.56,263.32,528.56,263.74Z"/><path class="cls-3" d="M530.82,261.6h.4v3.24h-.4Z"/><path class="cls-3" d="M531.9,261.6h.4v3.24h-.4Z"/><path class="cls-3" d="M535,263.72a1.08,1.08,0,0,1-1.1,1.17,1,1,0,0,1-1.06-1.13,1.08,1.08,0,0,1,1.09-1.18A1,1,0,0,1,535,263.72Zm-1.76,0c0,.49.28.85.67.85s.68-.36.68-.86-.19-.84-.67-.84S533.22,263.32,533.22,263.74Z"/><path class="cls-3" d="M535.61,262.63l.29,1.13a6.46,6.46,0,0,1,.17.7h0c0-.22.12-.46.2-.7l.36-1.13H537l.34,1.11c.08.26.14.5.19.72h0a4.62,4.62,0,0,1,.17-.72l.31-1.11h.4l-.71,2.21h-.37l-.34-1c-.07-.25-.14-.47-.19-.73h0a6.39,6.39,0,0,1-.2.73l-.36,1h-.36l-.67-2.21Z"/><path class="cls-3" d="M539,263.81a.71.71,0,0,0,.76.77,1.33,1.33,0,0,0,.61-.12l.07.29a1.88,1.88,0,0,1-.74.14,1,1,0,0,1-1.08-1.12,1.07,1.07,0,0,1,1-1.19.94.94,0,0,1,.92,1,.78.78,0,0,1,0,.19Zm1.18-.29a.58.58,0,0,0-.56-.65.67.67,0,0,0-.61.65Z"/><path class="cls-3" d="M541.06,263.32c0-.26,0-.48,0-.69h.35v.44h0a.66.66,0,0,1,.61-.49l.12,0V263l-.14,0a.58.58,0,0,0-.54.52,1,1,0,0,0,0,.19v1.17h-.39Z"/><path class="cls-3" d="M542.49,264.43a1,1,0,0,0,.53.16c.3,0,.43-.14.43-.33s-.11-.29-.41-.4-.58-.36-.58-.63a.69.69,0,0,1,.76-.65,1.12,1.12,0,0,1,.54.14l-.1.29a.87.87,0,0,0-.45-.12c-.24,0-.37.13-.37.3s.13.26.42.37.58.34.58.67-.3.66-.83.66a1.29,1.29,0,0,1-.62-.15Z"/><path class="cls-3" d="M555.84,262.71c0,.63-.33.94-.71.94s-.69-.3-.69-.9.32-.92.71-.92S555.84,262.15,555.84,262.71Zm-1.08,0c0,.38.13.67.38.67s.38-.29.38-.68-.1-.66-.38-.66S554.76,262.36,554.76,262.74Zm.34,2.15,1.75-3.06h.25l-1.74,3.06Zm2.67-.95c0,.62-.33.93-.71.93s-.68-.29-.69-.89.33-.93.72-.93S557.77,263.37,557.77,263.94Zm-1.08,0c0,.38.14.66.38.66s.39-.28.39-.67-.11-.66-.39-.66S556.69,263.59,556.69,264Z"/><path class="cls-3" d="M559.23,261.77h1.66v.33h-1.26v1h1.16v.33h-1.16v1.39h-.4Z"/><path class="cls-3" d="M563.3,263.72a1.08,1.08,0,0,1-1.1,1.17,1,1,0,0,1-1.06-1.13,1.08,1.08,0,0,1,1.1-1.18A1,1,0,0,1,563.3,263.72Zm-1.75,0c0,.49.27.85.67.85s.67-.36.67-.86-.19-.84-.66-.84S561.55,263.32,561.55,263.74Z"/><path class="cls-3" d="M563.81,261.6h.4v3.24h-.4Z"/><path class="cls-3" d="M564.88,261.6h.41v3.24h-.41Z"/><path class="cls-3" d="M568,263.72a1.07,1.07,0,0,1-1.1,1.17,1,1,0,0,1-1.06-1.13,1.09,1.09,0,0,1,1.1-1.18A1,1,0,0,1,568,263.72Zm-1.75,0c0,.49.28.85.67.85s.67-.36.67-.86-.19-.84-.66-.84S566.21,263.32,566.21,263.74Z"/><path class="cls-3" d="M568.6,262.63l.29,1.13c.06.24.12.47.16.7h0c0-.22.12-.46.19-.7l.36-1.13H570l.34,1.11a6.68,6.68,0,0,1,.2.72h0c0-.22.1-.46.17-.72l.32-1.11h.39l-.71,2.21h-.36l-.34-1c-.08-.25-.14-.47-.2-.73h0a4.84,4.84,0,0,1-.2.73l-.35,1h-.37l-.66-2.21Z"/><path class="cls-3" d="M572.25,262a.24.24,0,0,1-.26.25.25.25,0,1,1,.26-.25Zm-.45,2.83v-2.21h.4v2.21Z"/><path class="cls-3" d="M572.87,263.23c0-.23,0-.41,0-.6h.35l0,.37h0a.81.81,0,0,1,.73-.42c.3,0,.78.19.78.94v1.32h-.4v-1.27c0-.36-.14-.65-.52-.65a.55.55,0,0,0-.53.41.52.52,0,0,0,0,.18v1.33h-.4Z"/><path class="cls-3" d="M577.3,262.63c0,.16,0,.34,0,.61v1.28a1.25,1.25,0,0,1-.32,1,1.16,1.16,0,0,1-.8.27,1.43,1.43,0,0,1-.74-.19l.11-.3a1.22,1.22,0,0,0,.64.17c.41,0,.71-.21.71-.77v-.25h0a.77.77,0,0,1-.7.37,1,1,0,0,1-.94-1.07,1.07,1.07,0,0,1,1-1.18.74.74,0,0,1,.69.39h0v-.34Zm-.41.88a1.11,1.11,0,0,0,0-.19.58.58,0,0,0-.56-.42c-.39,0-.66.32-.66.83s.22.8.65.8a.6.6,0,0,0,.56-.41.83.83,0,0,0,0-.22Z"/><path class="cls-3" d="M587.6,212.73v1.82c0,.69.31,1,.72,1s.75-.3.75-1v-1.82h.4v1.8c0,.94-.5,1.33-1.17,1.33s-1.1-.36-1.1-1.32v-1.81Z"/><path class="cls-3" d="M590.06,215.4a1,1,0,0,0,.53.16c.29,0,.43-.15.43-.33s-.11-.3-.41-.41-.58-.36-.58-.62a.68.68,0,0,1,.76-.65,1,1,0,0,1,.54.14l-.1.29a.8.8,0,0,0-.45-.13c-.24,0-.37.14-.37.3s.13.27.42.38.58.33.58.66-.3.66-.83.66a1.29,1.29,0,0,1-.62-.15Z"/><path class="cls-3" d="M592.15,214.78a.71.71,0,0,0,.76.76,1.51,1.51,0,0,0,.61-.11l.07.29a1.92,1.92,0,0,1-.74.13,1,1,0,0,1-1.08-1.11,1.07,1.07,0,0,1,1-1.19.93.93,0,0,1,.91,1,1,1,0,0,1,0,.19Zm1.18-.29a.57.57,0,0,0-.56-.65.66.66,0,0,0-.61.65Z"/><path class="cls-3" d="M594.21,214.29c0-.26,0-.48,0-.69h.35V214h0a.66.66,0,0,1,.61-.48h.12v.38h-.14a.56.56,0,0,0-.54.51,1.11,1.11,0,0,0,0,.19v1.18h-.4Z"/><path class="cls-3" d="M596.69,215.81v-3.08h.43l1,1.56a7.28,7.28,0,0,1,.55,1h0a12.39,12.39,0,0,1,0-1.26v-1.29H599v3.08h-.4l-1-1.56a9.7,9.7,0,0,1-.57-1h0c0,.38,0,.75,0,1.26v1.32Z"/><path class="cls-3" d="M600.9,215.81l0-.28h0a.83.83,0,0,1-.68.33.63.63,0,0,1-.67-.64c0-.53.47-.82,1.33-.82v0a.46.46,0,0,0-.51-.51,1.08,1.08,0,0,0-.57.16l-.09-.26a1.35,1.35,0,0,1,.72-.2c.68,0,.84.46.84.9v.83a2.86,2.86,0,0,0,0,.53Zm-.06-1.13c-.43,0-.93.07-.93.5a.35.35,0,0,0,.38.38.54.54,0,0,0,.53-.37.27.27,0,0,0,0-.13Z"/><path class="cls-3" d="M601.88,214.2a5.53,5.53,0,0,0,0-.6h.35l0,.36h0a.76.76,0,0,1,.69-.41.66.66,0,0,1,.63.44h0a.86.86,0,0,1,.25-.28.71.71,0,0,1,.49-.16c.29,0,.72.19.72,1v1.3h-.39v-1.25c0-.43-.15-.68-.48-.68a.52.52,0,0,0-.47.36.64.64,0,0,0,0,.2v1.37h-.4v-1.32c0-.36-.15-.61-.46-.61a.54.54,0,0,0-.49.4.45.45,0,0,0,0,.2v1.33h-.39Z"/><path class="cls-3" d="M605.91,214.78a.71.71,0,0,0,.76.76,1.51,1.51,0,0,0,.61-.11l.07.29a1.86,1.86,0,0,1-.73.13,1,1,0,0,1-1.09-1.11,1.07,1.07,0,0,1,1-1.19.93.93,0,0,1,.91,1c0,.08,0,.15,0,.19Zm1.18-.29a.56.56,0,0,0-.55-.65.66.66,0,0,0-.62.65Z"/><path class="cls-3" d="M535.71,194.63a5.33,5.33,0,0,1-2.16.39,3.83,3.83,0,0,1-4-4.15,4.08,4.08,0,0,1,4.28-4.31,4.25,4.25,0,0,1,1.94.37l-.25.86a3.9,3.9,0,0,0-1.65-.34,3,3,0,0,0-3.2,3.38,3,3,0,0,0,3.15,3.3,4.31,4.31,0,0,0,1.72-.34Z"/><path class="cls-3" d="M542.2,191.9a2.88,2.88,0,0,1-2.94,3.13,2.8,2.8,0,0,1-2.82-3,2.88,2.88,0,0,1,2.92-3.13A2.79,2.79,0,0,1,542.2,191.9Zm-4.67.06c0,1.29.74,2.27,1.78,2.27s1.79-1,1.79-2.29c0-1-.5-2.26-1.76-2.26S537.53,190.84,537.53,192Z"/><path class="cls-3" d="M543.54,190.6c0-.61,0-1.1,0-1.59h.93l.05,1h0a2,2,0,0,1,1.85-1.09,1.73,1.73,0,0,1,1.66,1.18h0a2.46,2.46,0,0,1,.65-.76,2,2,0,0,1,1.3-.42c.78,0,1.94.52,1.94,2.56v3.46H550.9v-3.33c0-1.13-.41-1.81-1.28-1.81a1.39,1.39,0,0,0-1.26,1,1.74,1.74,0,0,0-.09.54v3.63h-1v-3.52c0-.94-.41-1.62-1.23-1.62a1.57,1.57,0,0,0-1.41,1.59v3.55h-1.05Z"/><path class="cls-3" d="M553.69,190.93c0-.75,0-1.36-.05-1.92h1l0,1h0a2.32,2.32,0,0,1,2.09-1.15c1.43,0,2.5,1.21,2.5,3,0,2.11-1.29,3.16-2.68,3.16a2,2,0,0,1-1.81-.93h0v3.2h-1.06Zm1.06,1.57a3,3,0,0,0,0,.44,1.66,1.66,0,0,0,1.61,1.25c1.13,0,1.79-.92,1.79-2.27,0-1.18-.62-2.19-1.76-2.19a1.69,1.69,0,0,0-1.61,1.32,1.62,1.62,0,0,0-.07.44Z"/><path class="cls-3" d="M563.87,194.89l-.09-.74h0a2.2,2.2,0,0,1-1.8.88,1.68,1.68,0,0,1-1.8-1.69c0-1.42,1.27-2.2,3.54-2.19V191a1.21,1.21,0,0,0-1.34-1.36,3,3,0,0,0-1.53.43l-.24-.7a3.62,3.62,0,0,1,1.93-.53c1.8,0,2.24,1.23,2.24,2.41v2.2a7.6,7.6,0,0,0,.1,1.41Zm-.16-3c-1.17,0-2.5.18-2.5,1.33a1,1,0,0,0,1,1,1.47,1.47,0,0,0,1.43-1,1.35,1.35,0,0,0,.06-.34Z"/><path class="cls-3" d="M566.47,190.6c0-.61,0-1.1-.05-1.59h1l.06,1h0a2.19,2.19,0,0,1,1.95-1.11c.81,0,2.08.49,2.08,2.51v3.51h-1.07V191.5c0-.95-.35-1.74-1.36-1.74a1.52,1.52,0,0,0-1.44,1.1,1.47,1.47,0,0,0-.07.5v3.53h-1.07Z"/><path class="cls-3" d="M573.45,189l1.29,3.48c.13.39.28.85.37,1.2h0c.11-.35.23-.8.38-1.23l1.16-3.45h1.13l-1.6,4.19c-.77,2-1.29,3.06-2,3.69a2.94,2.94,0,0,1-1.31.69l-.27-.9a2.59,2.59,0,0,0,.93-.52,3.29,3.29,0,0,0,.91-1.19,1,1,0,0,0,.08-.26.91.91,0,0,0-.07-.28L572.28,189Z"/><path class="cls-3" d="M581.4,194.89V186.7h1.16l2.62,4.14a22.27,22.27,0,0,1,1.47,2.67h0c-.1-1.1-.12-2.1-.12-3.37V186.7h1v8.19h-1.07l-2.6-4.15a26.26,26.26,0,0,1-1.53-2.74h0c.06,1,.09,2,.09,3.38v3.5Z"/><path class="cls-3" d="M592.63,194.89l-.09-.74h0a2.19,2.19,0,0,1-1.8.88,1.68,1.68,0,0,1-1.8-1.69c0-1.42,1.27-2.2,3.54-2.19V191a1.21,1.21,0,0,0-1.33-1.36,3,3,0,0,0-1.54.43l-.24-.7a3.62,3.62,0,0,1,1.93-.53c1.8,0,2.24,1.23,2.24,2.41v2.2a8.57,8.57,0,0,0,.1,1.41Zm-.16-3c-1.17,0-2.5.18-2.5,1.33a1,1,0,0,0,1,1,1.47,1.47,0,0,0,1.43-1,1.35,1.35,0,0,0,.06-.34Z"/><path class="cls-3" d="M595.23,190.6c0-.61,0-1.1-.05-1.59h.94l0,1h0a2,2,0,0,1,1.85-1.09,1.73,1.73,0,0,1,1.66,1.18h0a2.36,2.36,0,0,1,.66-.76,2,2,0,0,1,1.3-.42c.78,0,1.93.52,1.93,2.56v3.46h-1v-3.33c0-1.13-.41-1.81-1.27-1.81a1.4,1.4,0,0,0-1.27,1,2.12,2.12,0,0,0-.08.54v3.63h-1.05v-3.52c0-.94-.41-1.62-1.23-1.62a1.47,1.47,0,0,0-1.32,1.07,1.5,1.5,0,0,0-.09.52v3.55h-1Z"/><path class="cls-3" d="M606,192.15a1.88,1.88,0,0,0,2,2,3.85,3.85,0,0,0,1.62-.3l.19.76a4.76,4.76,0,0,1-2,.37,2.74,2.74,0,0,1-2.9-3c0-1.78,1-3.18,2.76-3.18a2.5,2.5,0,0,1,2.44,2.78,4.36,4.36,0,0,1,0,.5Zm3.13-.77a1.52,1.52,0,0,0-1.48-1.74,1.77,1.77,0,0,0-1.64,1.74Z"/><path class="cls-3" d="M610.56,195.38l3.4-8.82h.82l-3.4,8.82Z"/><path class="cls-3" d="M615.63,186.26h1.07v8.63h-1.07Z"/><path class="cls-3" d="M623.83,191.9A2.88,2.88,0,0,1,620.9,195a2.8,2.8,0,0,1-2.82-3,2.88,2.88,0,0,1,2.92-3.13A2.79,2.79,0,0,1,623.83,191.9Zm-4.67.06c0,1.29.74,2.27,1.79,2.27s1.79-1,1.79-2.29c0-1-.5-2.26-1.77-2.26S619.16,190.84,619.16,192Z"/><path class="cls-3" d="M630.25,189c0,.42,0,.9,0,1.62V194a3.4,3.4,0,0,1-.84,2.69,3.1,3.1,0,0,1-2.14.71,3.8,3.8,0,0,1-2-.49l.27-.82a3.27,3.27,0,0,0,1.73.47c1.09,0,1.9-.57,1.9-2.06v-.65h0a2.11,2.11,0,0,1-1.87,1,2.63,2.63,0,0,1-2.51-2.87,2.84,2.84,0,0,1,2.66-3.13,1.94,1.94,0,0,1,1.83,1h0l0-.89Zm-1.11,2.32a1.56,1.56,0,0,0-1.55-1.62c-1,0-1.75.87-1.75,2.23,0,1.15.58,2.12,1.74,2.12a1.57,1.57,0,0,0,1.48-1.1,1.87,1.87,0,0,0,.08-.57Z"/><path class="cls-3" d="M637.3,191.9a2.87,2.87,0,0,1-2.93,3.13,2.8,2.8,0,0,1-2.82-3,2.88,2.88,0,0,1,2.92-3.13A2.79,2.79,0,0,1,637.3,191.9Zm-4.67.06c0,1.29.75,2.27,1.79,2.27s1.79-1,1.79-2.29c0-1-.5-2.26-1.76-2.26S632.63,190.84,632.63,192Z"/><circle class="cls-4" cx="527.94" cy="172.64" r="10.03"/><line class="cls-15" x1="522.88" y1="166.92" x2="532.06" y2="177.74"/><line class="cls-15" x1="531.12" y1="167.65" x2="524.23" y2="178.48"/></g><g id="Arrows"><path class="cls-3" d="M709.61,272.45a3.78,3.78,0,0,0,1.87.52c1.07,0,1.7-.56,1.7-1.38s-.44-1.18-1.53-1.6c-1.32-.47-2.13-1.15-2.13-2.29a2.33,2.33,0,0,1,2.61-2.2,3.6,3.6,0,0,1,1.79.4l-.29.85a3.24,3.24,0,0,0-1.53-.38c-1.11,0-1.53.66-1.53,1.21,0,.75.49,1.12,1.61,1.56,1.37.52,2.06,1.18,2.06,2.37s-.92,2.33-2.83,2.33a4.13,4.13,0,0,1-2.06-.52Z"/><path class="cls-3" d="M720.49,272.13c0,.6,0,1.13,0,1.59h-.93l-.06-1h0a2.16,2.16,0,0,1-1.92,1.08c-.91,0-2-.5-2-2.54v-3.4h1.06v3.22c0,1.1.33,1.84,1.29,1.84a1.52,1.52,0,0,0,1.39-1,1.47,1.47,0,0,0,.1-.53v-3.57h1Z"/><path class="cls-3" d="M722.2,273.72c0-.4,0-1,0-1.5v-7h1v3.65h0a2.15,2.15,0,0,1,2-1.07c1.44,0,2.45,1.2,2.44,3,0,2.08-1.3,3.11-2.6,3.11a2.06,2.06,0,0,1-1.94-1.09h0l0,1Zm1.09-2.33a2.32,2.32,0,0,0,.05.38,1.62,1.62,0,0,0,1.58,1.24c1.11,0,1.77-.9,1.77-2.23,0-1.16-.6-2.16-1.73-2.16a1.69,1.69,0,0,0-1.61,1.3,2.34,2.34,0,0,0-.06.43Z"/><path class="cls-3" d="M728.93,272.64a2.82,2.82,0,0,0,1.39.42c.77,0,1.13-.39,1.13-.87s-.3-.77-1.08-1.06c-1-.37-1.53-.95-1.53-1.65a1.79,1.79,0,0,1,2-1.7,2.94,2.94,0,0,1,1.43.36l-.27.77a2.15,2.15,0,0,0-1.18-.34c-.63,0-1,.36-1,.79s.35.7,1.11,1c1,.38,1.52.89,1.52,1.75,0,1-.79,1.74-2.17,1.74a3.3,3.3,0,0,1-1.63-.4Z"/><path class="cls-3" d="M738,273.5a3.81,3.81,0,0,1-1.67.34,2.76,2.76,0,0,1-2.89-3,3,3,0,0,1,3.12-3.09,3.6,3.6,0,0,1,1.46.3l-.24.82a2.37,2.37,0,0,0-1.22-.28,2,2,0,0,0-2,2.2,2,2,0,0,0,2,2.17,3,3,0,0,0,1.3-.29Z"/><path class="cls-3" d="M739.2,269.72c0-.68,0-1.27,0-1.81h.92l0,1.14h0a1.75,1.75,0,0,1,1.61-1.27,1,1,0,0,1,.3,0v1a1.86,1.86,0,0,0-.36,0,1.47,1.47,0,0,0-1.41,1.35,2.46,2.46,0,0,0,0,.49v3.1h-1Z"/><path class="cls-3" d="M744.35,266.28a.62.62,0,0,1-.67.65.63.63,0,0,1-.64-.65.65.65,0,0,1,.66-.66A.63.63,0,0,1,744.35,266.28Zm-1.17,7.44v-5.81h1.05v5.81Z"/><path class="cls-3" d="M746,269.81c0-.75,0-1.35,0-1.9h.94l0,1h0a2.27,2.27,0,0,1,2.06-1.13c1.4,0,2.46,1.19,2.46,3,0,2.09-1.27,3.12-2.64,3.12a2.05,2.05,0,0,1-1.79-.91h0v3.15h-1Zm1,1.54a2,2,0,0,0,.05.44,1.62,1.62,0,0,0,1.58,1.23c1.11,0,1.76-.91,1.76-2.24,0-1.16-.61-2.16-1.72-2.16a1.69,1.69,0,0,0-1.6,1.31,1.55,1.55,0,0,0-.07.43Z"/><path class="cls-3" d="M754.08,266.25v1.66h1.52v.81h-1.52v3.13c0,.72.21,1.12.8,1.12a2.21,2.21,0,0,0,.61-.07l0,.79a2.48,2.48,0,0,1-.94.15,1.46,1.46,0,0,1-1.14-.45,2.13,2.13,0,0,1-.41-1.51v-3.16h-.9v-.81h.9v-1.39Z"/><path class="cls-3" d="M758,266.28a.62.62,0,0,1-.67.65.63.63,0,0,1-.64-.65.65.65,0,0,1,.66-.66A.63.63,0,0,1,758,266.28Zm-1.17,7.44v-5.81h1.05v5.81Z"/><path class="cls-3" d="M764.85,270.77a2.84,2.84,0,0,1-2.9,3.08,2.76,2.76,0,0,1-2.78-3,2.83,2.83,0,0,1,2.88-3.08A2.75,2.75,0,0,1,764.85,270.77Zm-4.61.06c0,1.27.73,2.23,1.76,2.23s1.77-.95,1.77-2.26c0-1-.5-2.23-1.74-2.23S760.24,269.72,760.24,270.83Z"/><path class="cls-3" d="M766.18,269.48c0-.6,0-1.09,0-1.57h.94l.06,1h0a2.14,2.14,0,0,1,1.92-1.09c.8,0,2,.48,2,2.47v3.47h-1v-3.35c0-.93-.35-1.71-1.35-1.71a1.5,1.5,0,0,0-1.41,1.08,1.45,1.45,0,0,0-.07.49v3.49h-1.06Z"/><path class="cls-3" d="M782.23,270.17c-.06-1.13-.13-2.48-.12-3.49h0c-.28.94-.62,1.95-1,3.07l-1.43,3.92h-.79l-1.31-3.85c-.38-1.14-.71-2.18-.93-3.14h0c0,1-.08,2.36-.15,3.57l-.22,3.47h-1l.57-8.09h1.33l1.38,3.91c.33,1,.61,1.89.81,2.73h0c.2-.82.49-1.71.85-2.73l1.44-3.91H783l.51,8.09h-1Z"/><path class="cls-3" d="M788.32,273.72l-.09-.73h0a2.19,2.19,0,0,1-1.78.86,1.65,1.65,0,0,1-1.77-1.67c0-1.4,1.25-2.17,3.49-2.16v-.12a1.19,1.19,0,0,0-1.32-1.34,2.93,2.93,0,0,0-1.51.43l-.24-.69a3.51,3.51,0,0,1,1.9-.52c1.78,0,2.21,1.21,2.21,2.38v2.17a8.4,8.4,0,0,0,.1,1.39Zm-.16-3c-1.15,0-2.46.18-2.46,1.3a.94.94,0,0,0,1,1,1.45,1.45,0,0,0,1.4-1,1,1,0,0,0,.06-.34Z"/><path class="cls-3" d="M790.89,269.48c0-.6,0-1.09,0-1.57h.94l.06,1h0a2.14,2.14,0,0,1,1.92-1.09c.8,0,2.05.48,2.05,2.47v3.47h-1.06v-3.35c0-.93-.34-1.71-1.34-1.71a1.5,1.5,0,0,0-1.41,1.08,1.44,1.44,0,0,0-.08.49v3.49h-1.05Z"/><path class="cls-3" d="M800.76,273.72l-.08-.73h0a2.17,2.17,0,0,1-1.77.86,1.66,1.66,0,0,1-1.78-1.67c0-1.4,1.25-2.17,3.49-2.16v-.12a1.19,1.19,0,0,0-1.32-1.34,2.93,2.93,0,0,0-1.51.43l-.24-.69a3.55,3.55,0,0,1,1.91-.52c1.77,0,2.2,1.21,2.2,2.38v2.17a8.4,8.4,0,0,0,.1,1.39Zm-.15-3c-1.16,0-2.46.18-2.46,1.3a.93.93,0,0,0,1,1,1.45,1.45,0,0,0,1.41-1,1.35,1.35,0,0,0,.06-.34Z"/><path class="cls-3" d="M808.33,267.91c0,.42,0,.89,0,1.6v3.37a3.36,3.36,0,0,1-.83,2.65,3.07,3.07,0,0,1-2.11.69,3.64,3.64,0,0,1-1.93-.48l.26-.8a3.25,3.25,0,0,0,1.7.46c1.08,0,1.87-.57,1.87-2v-.65h0a2.07,2.07,0,0,1-1.85,1,2.59,2.59,0,0,1-2.47-2.83,2.79,2.79,0,0,1,2.62-3.08,1.94,1.94,0,0,1,1.81,1h0l0-.88Zm-1.09,2.29a1.47,1.47,0,0,0-.06-.48,1.52,1.52,0,0,0-1.47-1.11c-1,0-1.73.85-1.73,2.19,0,1.14.57,2.09,1.71,2.09a1.55,1.55,0,0,0,1.47-1.08,1.81,1.81,0,0,0,.08-.56Z"/><path class="cls-3" d="M810.63,271a1.85,1.85,0,0,0,2,2,3.83,3.83,0,0,0,1.61-.3l.18.76a4.72,4.72,0,0,1-1.94.36,2.7,2.7,0,0,1-2.85-2.93c0-1.75,1-3.13,2.72-3.13a2.46,2.46,0,0,1,2.4,2.74,2.81,2.81,0,0,1,0,.49Zm3.09-.76a1.5,1.5,0,0,0-1.46-1.71,1.74,1.74,0,0,0-1.62,1.71Z"/><path class="cls-3" d="M816.05,269.72c0-.68,0-1.27,0-1.81h.93l0,1.14h0a1.74,1.74,0,0,1,1.61-1.27,1,1,0,0,1,.3,0v1a1.94,1.94,0,0,0-.36,0,1.48,1.48,0,0,0-1.42,1.35,3.52,3.52,0,0,0,0,.49v3.1h-1Z"/><path class="cls-3" d="M741.69,279.79a7.91,7.91,0,0,0-1.51,4.91,8.11,8.11,0,0,0,1.51,4.87h-.83a7.74,7.74,0,0,1-1.57-4.87,7.9,7.9,0,0,1,1.57-4.91Z"/><path class="cls-3" d="M742.84,280.14a10.66,10.66,0,0,1,2-.17,3.32,3.32,0,0,1,2.34.66,2,2,0,0,1,.64,1.54,2.11,2.11,0,0,1-1.53,2.06v0a2,2,0,0,1,1.19,1.63,13,13,0,0,0,.63,2.22H747a9.46,9.46,0,0,1-.54-1.93c-.24-1.12-.67-1.54-1.62-1.57h-1v3.5h-1Zm1,3.68H745c1.12,0,1.83-.61,1.83-1.53s-.76-1.5-1.86-1.51a5,5,0,0,0-1,.09Z"/><path class="cls-3" d="M749.9,285.41a1.85,1.85,0,0,0,2,2,3.83,3.83,0,0,0,1.61-.3l.17.76a4.63,4.63,0,0,1-1.93.36,2.7,2.7,0,0,1-2.85-2.93c0-1.75,1-3.13,2.72-3.13a2.46,2.46,0,0,1,2.4,2.74,2.81,2.81,0,0,1,0,.49Zm3.09-.76a1.5,1.5,0,0,0-1.46-1.71,1.74,1.74,0,0,0-1.62,1.71Z"/><path class="cls-3" d="M755.32,283.88c0-.6,0-1.09-.05-1.57h.94l.06,1h0a2.14,2.14,0,0,1,1.92-1.09c.8,0,2,.48,2,2.47v3.47h-1v-3.35c0-.93-.35-1.71-1.35-1.71a1.5,1.5,0,0,0-1.41,1.08,1.45,1.45,0,0,0-.07.49v3.49h-1.06Z"/><path class="cls-3" d="M762.57,285.41a1.85,1.85,0,0,0,2,2,3.8,3.8,0,0,0,1.61-.3l.18.76a4.71,4.71,0,0,1-1.93.36,2.7,2.7,0,0,1-2.86-2.93c0-1.75,1-3.13,2.72-3.13a2.46,2.46,0,0,1,2.4,2.74,4.88,4.88,0,0,1,0,.49Zm3.09-.76a1.5,1.5,0,0,0-1.46-1.71,1.74,1.74,0,0,0-1.62,1.71Z"/><path class="cls-3" d="M768.41,282.31l.77,2.95c.17.65.32,1.25.43,1.85h0c.13-.59.32-1.21.51-1.83l1-3H772l.9,2.91c.21.69.38,1.3.51,1.89h0a18.49,18.49,0,0,1,.44-1.88l.83-2.92h1l-1.87,5.81h-1l-.88-2.77a17.33,17.33,0,0,1-.52-1.91h0a19,19,0,0,1-.53,1.92l-.94,2.76h-1l-1.75-5.81Z"/><path class="cls-3" d="M780,288.12l-.08-.73h0a2.17,2.17,0,0,1-1.77.86,1.66,1.66,0,0,1-1.78-1.67c0-1.4,1.25-2.17,3.49-2.16v-.12a1.19,1.19,0,0,0-1.32-1.34,2.93,2.93,0,0,0-1.51.43l-.24-.69a3.55,3.55,0,0,1,1.91-.52c1.77,0,2.2,1.21,2.2,2.38v2.17a8.4,8.4,0,0,0,.1,1.39Zm-.16-3c-1.15,0-2.45.18-2.45,1.3a.93.93,0,0,0,1,1,1.45,1.45,0,0,0,1.41-1,1.33,1.33,0,0,0,.05-.34Z"/><path class="cls-3" d="M782.56,279.6h1.06v8.52h-1.06Z"/><path class="cls-3" d="M784.59,289.59a17.31,17.31,0,0,0,.72-2.86l1.17-.12a13.89,13.89,0,0,1-1.14,2.91Z"/><path class="cls-3" d="M738.4,302.25a5,5,0,0,1-2.13.39,3.78,3.78,0,0,1-4-4.09,4,4,0,0,1,4.23-4.25,4.35,4.35,0,0,1,1.91.36l-.25.85a3.82,3.82,0,0,0-1.63-.33,3,3,0,0,0-3.15,3.33,2.94,2.94,0,0,0,3.1,3.25,4.27,4.27,0,0,0,1.71-.33Z"/><path class="cls-3" d="M742.81,302.52l-.09-.73h0a2.18,2.18,0,0,1-1.78.86,1.65,1.65,0,0,1-1.77-1.67c0-1.4,1.25-2.17,3.49-2.16v-.12a1.19,1.19,0,0,0-1.32-1.34,2.93,2.93,0,0,0-1.51.43l-.24-.69a3.51,3.51,0,0,1,1.9-.52c1.78,0,2.21,1.21,2.21,2.38v2.17a8.4,8.4,0,0,0,.1,1.39Zm-.16-3c-1.15,0-2.46.17-2.46,1.3a.94.94,0,0,0,1,1,1.44,1.44,0,0,0,1.4-1,1,1,0,0,0,.06-.34Z"/><path class="cls-3" d="M745.38,298.28c0-.6,0-1.09,0-1.57h.94l.06,1h0a2.14,2.14,0,0,1,1.92-1.09c.8,0,2.05.48,2.05,2.47v3.47h-1.06v-3.35c0-.93-.34-1.71-1.34-1.71a1.5,1.5,0,0,0-1.41,1.08,1.44,1.44,0,0,0-.08.49v3.49h-1Z"/><path class="cls-3" d="M756.18,302.3a3.81,3.81,0,0,1-1.67.34,2.76,2.76,0,0,1-2.89-3,3,3,0,0,1,3.12-3.09,3.6,3.6,0,0,1,1.46.3l-.24.82a2.37,2.37,0,0,0-1.22-.28,2,2,0,0,0-2,2.2,2,2,0,0,0,2,2.17,3,3,0,0,0,1.3-.29Z"/><path class="cls-3" d="M757.93,299.81a1.86,1.86,0,0,0,2,2,3.8,3.8,0,0,0,1.61-.3l.18.76a4.67,4.67,0,0,1-1.93.36,2.7,2.7,0,0,1-2.86-2.93c0-1.75,1-3.13,2.73-3.13a2.46,2.46,0,0,1,2.39,2.74,4.88,4.88,0,0,1,0,.49Zm3.09-.76a1.49,1.49,0,0,0-1.46-1.71,1.75,1.75,0,0,0-1.62,1.71Z"/><path class="cls-3" d="M763.35,294h1.06v8.52h-1.06Z"/><path class="cls-3" d="M769.4,302.52l-.08-.73h0a2.18,2.18,0,0,1-1.78.86,1.65,1.65,0,0,1-1.77-1.67c0-1.4,1.25-2.17,3.49-2.16v-.12a1.19,1.19,0,0,0-1.32-1.34,2.93,2.93,0,0,0-1.51.43l-.24-.69a3.55,3.55,0,0,1,1.91-.52c1.77,0,2.2,1.21,2.2,2.38v2.17a8.4,8.4,0,0,0,.1,1.39Zm-.16-3c-1.15,0-2.45.17-2.45,1.3a.93.93,0,0,0,1,1,1.43,1.43,0,0,0,1.4-1,1,1,0,0,0,.06-.34Z"/><path class="cls-3" d="M773.19,295.05v1.66h1.51v.81h-1.51v3.13c0,.72.21,1.12.8,1.12a2.26,2.26,0,0,0,.61-.07l0,.79a2.39,2.39,0,0,1-.93.15,1.46,1.46,0,0,1-1.14-.45,2.13,2.13,0,0,1-.41-1.51v-3.16h-.9v-.81h.9v-1.39Z"/><path class="cls-3" d="M777.07,295.08a.62.62,0,0,1-.67.65.63.63,0,0,1-.64-.65.65.65,0,0,1,.66-.66A.63.63,0,0,1,777.07,295.08Zm-1.18,7.44v-5.81H777v5.81Z"/><path class="cls-3" d="M784,299.57a2.84,2.84,0,0,1-2.89,3.08,2.76,2.76,0,0,1-2.78-3,2.83,2.83,0,0,1,2.88-3.08A2.74,2.74,0,0,1,784,299.57Zm-4.6.06c0,1.27.73,2.23,1.76,2.23s1.76-.95,1.76-2.26c0-1-.49-2.23-1.73-2.23S779.35,298.52,779.35,299.63Z"/><path class="cls-3" d="M785.29,298.28c0-.6,0-1.09,0-1.57h.94l.06,1h0a2.14,2.14,0,0,1,1.92-1.09c.8,0,2.05.48,2.05,2.47v3.47h-1.05v-3.35c0-.93-.35-1.71-1.35-1.71a1.5,1.5,0,0,0-1.41,1.08,1.44,1.44,0,0,0-.08.49v3.49h-1.05Z"/><path class="cls-3" d="M791.27,304a18.37,18.37,0,0,0,.72-2.86l1.17-.12a14.46,14.46,0,0,1-1.14,2.91Z"/><path class="cls-3" d="M753.66,314.21a1.87,1.87,0,0,0,2,2,3.75,3.75,0,0,0,1.6-.3l.18.76a4.67,4.67,0,0,1-1.93.36,2.69,2.69,0,0,1-2.85-2.93c0-1.75,1-3.13,2.72-3.13a2.47,2.47,0,0,1,2.4,2.74,4.35,4.35,0,0,1,0,.49Zm3.1-.76a1.5,1.5,0,0,0-1.46-1.71,1.74,1.74,0,0,0-1.62,1.71Z"/><path class="cls-3" d="M760.36,309.45v1.66h1.51v.81h-1.51v3.13c0,.72.2,1.12.79,1.12a2.15,2.15,0,0,0,.61-.07l0,.79a2.44,2.44,0,0,1-.94.15,1.44,1.44,0,0,1-1.13-.45,2.13,2.13,0,0,1-.41-1.51v-3.16h-.9v-.81h.9v-1.39Z"/><path class="cls-3" d="M767.13,316.7a3.81,3.81,0,0,1-1.67.34,2.76,2.76,0,0,1-2.89-3,3,3,0,0,1,3.12-3.09,3.6,3.6,0,0,1,1.46.3l-.24.82a2.37,2.37,0,0,0-1.22-.28,2,2,0,0,0-2.05,2.2,2,2,0,0,0,2,2.17,3,3,0,0,0,1.3-.29Z"/><path class="cls-3" d="M768,316.29a.71.71,0,0,1,.72-.75.76.76,0,0,1,0,1.51A.71.71,0,0,1,768,316.29Z"/><path class="cls-3" d="M770.48,316.29a.71.71,0,0,1,.72-.75.69.69,0,0,1,.7.75.71.71,0,1,1-1.42,0Z"/><path class="cls-3" d="M772.58,318.37a8.15,8.15,0,0,0,1.51-4.91,8,8,0,0,0-1.51-4.87h.81a7.65,7.65,0,0,1,1.57,4.89,7.76,7.76,0,0,1-1.57,4.89Z"/><path class="cls-3" d="M718.68,324.12h-2.46v-.89h6v.89h-2.47v7.2h-1.05Z"/><path class="cls-3" d="M727.47,328.37a2.84,2.84,0,0,1-2.89,3.08,2.76,2.76,0,0,1-2.78-3,2.83,2.83,0,0,1,2.88-3.08A2.75,2.75,0,0,1,727.47,328.37Zm-4.6.06c0,1.27.73,2.23,1.76,2.23s1.76-1,1.76-2.26c0-1-.49-2.23-1.74-2.23S722.87,327.32,722.87,328.43Z"/><path class="cls-3" d="M731.3,331.32c0-.4.05-1,.05-1.5v-7h1v3.65h0a2.15,2.15,0,0,1,2-1.07c1.44,0,2.46,1.2,2.44,3,0,2.08-1.3,3.11-2.6,3.11a2.06,2.06,0,0,1-1.94-1.09h0l0,1Zm1.09-2.33a2.6,2.6,0,0,0,.05.39,1.64,1.64,0,0,0,1.59,1.23c1.1,0,1.76-.9,1.76-2.23,0-1.16-.6-2.16-1.73-2.16a1.69,1.69,0,0,0-1.61,1.3,2.34,2.34,0,0,0-.06.43Z"/><path class="cls-3" d="M738.77,328.61a1.85,1.85,0,0,0,2,2,3.75,3.75,0,0,0,1.6-.3l.18.76a4.63,4.63,0,0,1-1.93.36,2.7,2.7,0,0,1-2.85-2.93c0-1.75,1-3.13,2.72-3.13a2.46,2.46,0,0,1,2.4,2.74,2.81,2.81,0,0,1,0,.49Zm3.09-.76a1.5,1.5,0,0,0-1.46-1.71,1.74,1.74,0,0,0-1.62,1.71Z"/><path class="cls-3" d="M751.75,322.8v7c0,.51,0,1.1,0,1.5h-.94l-.05-1h0a2.16,2.16,0,0,1-2,1.14c-1.41,0-2.49-1.19-2.49-2.95,0-1.93,1.19-3.12,2.61-3.12a2,2,0,0,1,1.75.89h0V322.8Zm-1.06,5.08a1.68,1.68,0,0,0-.05-.45,1.54,1.54,0,0,0-1.52-1.22c-1.09,0-1.74,1-1.74,2.24s.58,2.15,1.72,2.15a1.59,1.59,0,0,0,1.54-1.26,1.71,1.71,0,0,0,.05-.46Z"/><path class="cls-3" d="M754.09,328.61a1.86,1.86,0,0,0,2,2,3.8,3.8,0,0,0,1.61-.3l.18.76a4.67,4.67,0,0,1-1.93.36,2.7,2.7,0,0,1-2.86-2.93c0-1.75,1-3.13,2.73-3.13a2.46,2.46,0,0,1,2.39,2.74,4.88,4.88,0,0,1,0,.49Zm3.09-.76a1.49,1.49,0,0,0-1.46-1.71,1.75,1.75,0,0,0-1.62,1.71Z"/><path class="cls-3" d="M759.62,331.32v-5h-.81v-.81h.81v-.31a2.33,2.33,0,0,1,2.53-2.53,3,3,0,0,1,1.48.38l-.3.81a2.22,2.22,0,0,0-1.23-.34c-1.11,0-1.43.78-1.43,1.71v.28H764v5.81h-1v-5h-2.32v5Z"/><path class="cls-3" d="M765.79,327.08c0-.6,0-1.09,0-1.57h.94l.06,1h0a2.14,2.14,0,0,1,1.92-1.09c.8,0,2.05.48,2.05,2.47v3.47h-1.05V328c0-.93-.35-1.71-1.35-1.71a1.5,1.5,0,0,0-1.41,1.08,1.45,1.45,0,0,0-.07.49v3.49h-1.06Z"/><path class="cls-3" d="M773,328.61a1.85,1.85,0,0,0,2,2,3.83,3.83,0,0,0,1.61-.3l.18.76a4.72,4.72,0,0,1-1.94.36,2.7,2.7,0,0,1-2.85-2.93c0-1.75,1-3.13,2.72-3.13a2.46,2.46,0,0,1,2.4,2.74,4.88,4.88,0,0,1,0,.49Zm3.09-.76a1.5,1.5,0,0,0-1.46-1.71,1.74,1.74,0,0,0-1.62,1.71Z"/><path class="cls-3" d="M783.47,322.8v7c0,.51,0,1.1,0,1.5h-.94l-.05-1h0a2.14,2.14,0,0,1-2,1.14c-1.4,0-2.48-1.19-2.48-2.95,0-1.93,1.19-3.12,2.6-3.12a2,2,0,0,1,1.76.89h0V322.8Zm-1.05,5.08a1.68,1.68,0,0,0,0-.45,1.54,1.54,0,0,0-1.52-1.22c-1.09,0-1.74,1-1.74,2.24s.57,2.15,1.71,2.15a1.59,1.59,0,0,0,1.55-1.26,1.71,1.71,0,0,0,0-.46Z"/><path class="cls-3" d="M788.19,325.51l.77,2.95c.17.65.33,1.25.43,1.85h0c.13-.59.32-1.21.51-1.83l.95-3h.89l.9,2.91c.22.69.38,1.3.52,1.89h0a18.49,18.49,0,0,1,.44-1.88l.83-2.92h1l-1.88,5.81h-1l-.88-2.77c-.21-.65-.37-1.23-.52-1.91h0a19,19,0,0,1-.53,1.92l-.93,2.76h-1l-1.76-5.81Z"/><path class="cls-3" d="M797.78,323.88a.62.62,0,0,1-.67.65.63.63,0,0,1-.64-.65.65.65,0,0,1,.66-.66A.63.63,0,0,1,797.78,323.88Zm-1.17,7.44v-5.81h1v5.81Z"/><path class="cls-3" d="M800.68,323.85v1.66h1.52v.81h-1.52v3.13c0,.72.21,1.12.8,1.12a2.21,2.21,0,0,0,.61-.07l0,.79a2.48,2.48,0,0,1-.94.15,1.46,1.46,0,0,1-1.14-.45,2.13,2.13,0,0,1-.41-1.51v-3.16h-.9v-.81h.9v-1.39Z"/><path class="cls-3" d="M803.39,322.8h1.05v3.62h0a2,2,0,0,1,.76-.74,2.16,2.16,0,0,1,1.08-.3c.78,0,2,.48,2,2.48v3.46h-1.06V328c0-.93-.35-1.72-1.34-1.72a1.52,1.52,0,0,0-1.42,1.05,1.31,1.31,0,0,0-.07.51v3.5h-1.05Z"/><path class="cls-3" d="M735.22,345.45a5,5,0,0,1-2.13.39,3.78,3.78,0,0,1-4-4.09,4,4,0,0,1,4.23-4.25,4.44,4.44,0,0,1,1.92.36l-.26.85a3.82,3.82,0,0,0-1.63-.33,3,3,0,0,0-3.15,3.33,2.94,2.94,0,0,0,3.1,3.25,4.27,4.27,0,0,0,1.71-.33Z"/><path class="cls-3" d="M741.62,342.77a2.84,2.84,0,0,1-2.89,3.08,2.76,2.76,0,0,1-2.78-3,2.83,2.83,0,0,1,2.88-3.08A2.75,2.75,0,0,1,741.62,342.77Zm-4.61.06c0,1.27.74,2.23,1.77,2.23s1.76-.95,1.76-2.26c0-1-.49-2.23-1.74-2.23S737,341.72,737,342.83Z"/><path class="cls-3" d="M743.29,339.91l.77,2.95c.17.65.32,1.25.43,1.85h0c.13-.59.32-1.21.51-1.83l1-3h.89l.9,2.91c.21.69.38,1.3.51,1.89h0a16.15,16.15,0,0,1,.44-1.88l.83-2.92h1l-1.87,5.81h-1l-.89-2.77c-.2-.65-.37-1.23-.51-1.91h0a16.74,16.74,0,0,1-.52,1.92l-.94,2.76h-1l-1.75-5.81Z"/><path class="cls-3" d="M756.84,342.77a2.84,2.84,0,0,1-2.89,3.08,2.76,2.76,0,0,1-2.79-3,2.83,2.83,0,0,1,2.88-3.08A2.75,2.75,0,0,1,756.84,342.77Zm-4.61.06c0,1.27.73,2.23,1.76,2.23s1.77-.95,1.77-2.26c0-1-.5-2.23-1.74-2.23S752.23,341.72,752.23,342.83Z"/><path class="cls-3" d="M758.17,341.72c0-.68,0-1.27,0-1.81h.93l0,1.14h0a1.74,1.74,0,0,1,1.61-1.27,1,1,0,0,1,.3,0v1a1.94,1.94,0,0,0-.36,0,1.48,1.48,0,0,0-1.42,1.35,3.52,3.52,0,0,0,0,.49v3.1h-1Z"/><path class="cls-3" d="M763.19,342.58h0a7.91,7.91,0,0,1,.52-.66l1.7-2h1.27l-2.24,2.39,2.55,3.42h-1.28l-2-2.78-.54.6v2.18h-1.05V337.2h1.05Z"/><path class="cls-3" d="M770.21,344.45a3.75,3.75,0,0,0,1.87.52c1.06,0,1.69-.56,1.69-1.38s-.43-1.18-1.52-1.6c-1.32-.47-2.14-1.15-2.14-2.29a2.33,2.33,0,0,1,2.61-2.2,3.6,3.6,0,0,1,1.79.4l-.29.85a3.24,3.24,0,0,0-1.53-.38c-1.11,0-1.52.66-1.52,1.21,0,.75.49,1.12,1.6,1.56,1.37.52,2.07,1.18,2.07,2.37s-.93,2.33-2.84,2.33a4.16,4.16,0,0,1-2.06-.52Z"/><path class="cls-3" d="M776.23,341.81c0-.75,0-1.35-.05-1.9h1l0,1h0a2.28,2.28,0,0,1,2.06-1.13c1.41,0,2.46,1.19,2.46,3,0,2.09-1.27,3.12-2.64,3.12a2,2,0,0,1-1.78-.91h0v3.15h-1Zm1,1.54a3,3,0,0,0,.05.44A1.63,1.63,0,0,0,778.9,345c1.12,0,1.77-.91,1.77-2.24,0-1.16-.61-2.16-1.73-2.16a1.68,1.68,0,0,0-1.59,1.31,1.56,1.56,0,0,0-.08.43Z"/><path class="cls-3" d="M786.27,345.72l-.08-.73h0a2.17,2.17,0,0,1-1.77.86,1.66,1.66,0,0,1-1.78-1.67c0-1.4,1.25-2.17,3.49-2.16v-.12a1.19,1.19,0,0,0-1.32-1.34,2.93,2.93,0,0,0-1.51.43l-.24-.69a3.55,3.55,0,0,1,1.91-.52c1.77,0,2.21,1.21,2.21,2.38v2.17a8.47,8.47,0,0,0,.09,1.39Zm-.15-3c-1.16,0-2.46.18-2.46,1.3a.93.93,0,0,0,1,1,1.45,1.45,0,0,0,1.41-1,1.35,1.35,0,0,0,.06-.34Z"/><path class="cls-3" d="M793,345.5a3.81,3.81,0,0,1-1.67.34,2.76,2.76,0,0,1-2.89-3,3,3,0,0,1,3.12-3.09,3.56,3.56,0,0,1,1.46.3l-.24.82a2.35,2.35,0,0,0-1.22-.28,2,2,0,0,0-2,2.2,2,2,0,0,0,2,2.17,3,3,0,0,0,1.3-.29Z"/><path class="cls-3" d="M794.73,343a1.86,1.86,0,0,0,2,2,3.76,3.76,0,0,0,1.61-.3l.18.76a4.67,4.67,0,0,1-1.93.36,2.69,2.69,0,0,1-2.85-2.93c0-1.75,1-3.13,2.72-3.13a2.47,2.47,0,0,1,2.4,2.74,4.35,4.35,0,0,1,0,.49Zm3.1-.76a1.5,1.5,0,0,0-1.46-1.71,1.74,1.74,0,0,0-1.62,1.71Z"/><polyline class="cls-16" points="632.02 253.48 716.54 253.48 701.25 248.35"/><path class="cls-16" d="M417.71,424.11h33.07a3.89,3.89,0,0,0,3.9-3.9V305a3.91,3.91,0,0,1,3.9-3.9H482l-19-5.86"/><path class="cls-16" d="M155.45,362.43h59.78a7.39,7.39,0,0,0,7.39-7.38V297.28a7.38,7.38,0,0,1,7.38-7.39h12.38l-15.95-6.31"/></g></svg>