<svg xmlns="http://www.w3.org/2000/svg" viewBox="0 0 841.89 595.28"><defs><style>.cls-1,.cls-8{fill:#211915;}.cls-1{opacity:0.97;}.cls-2,.cls-5{fill:none;}.cls-2{stroke:#aeadb3;stroke-width:3px;}.cls-10,.cls-2,.cls-3,.cls-4,.cls-5,.cls-7{stroke-miterlimit:10;}.cls-10,.cls-3,.cls-9{fill:#d8d9dd;}.cls-3{stroke:#211915;}.cls-4{fill:#edeef0;}.cls-10,.cls-4,.cls-5,.cls-7{stroke:#c2c3c9;}.cls-5{stroke-width:2px;}.cls-6{fill:#f7f7f8;}.cls-7{fill:#c2c3c9;}</style></defs><title>User Flow - Cowork Space Manager [Recovered]</title><g id="Availability_Flux" data-name="Availability Flux"><path class="cls-1" d="M601.72,207.37v5.07h5.87v-5.07h1.59V219.5h-1.59v-5.69h-5.87v5.69h-1.56V207.37Z"/><path class="cls-1" d="M619.73,215.07a4.26,4.26,0,0,1-4.34,4.63,4.14,4.14,0,0,1-4.18-4.48c0-2.92,1.91-4.63,4.32-4.63A4.13,4.13,0,0,1,619.73,215.07Zm-6.92.09c0,1.91,1.1,3.35,2.65,3.35s2.64-1.42,2.64-3.38c0-1.48-.73-3.35-2.61-3.35S612.81,213.51,612.81,215.16Z"/><path class="cls-1" d="M623.63,208.28v2.51h2.27V212h-2.27v4.7c0,1.08.31,1.7,1.19,1.7a3.75,3.75,0,0,0,.92-.11l.07,1.19a4.06,4.06,0,0,1-1.41.21,2.2,2.2,0,0,1-1.71-.66,3.25,3.25,0,0,1-.61-2.27V212h-1.35v-1.2h1.35V208.7Z"/><path class="cls-1" d="M631.55,207.53a23,23,0,0,1,3.33-.25,6.93,6.93,0,0,1,4.91,1.51,5.59,5.59,0,0,1,1.71,4.36,6.41,6.41,0,0,1-1.74,4.71,7.47,7.47,0,0,1-5.37,1.75,25.35,25.35,0,0,1-2.84-.14Zm1.56,10.73a10.26,10.26,0,0,0,1.59.09c3.35,0,5.17-1.87,5.17-5.15,0-2.86-1.61-4.68-4.92-4.68a9,9,0,0,0-1.84.16Z"/><path class="cls-1" d="M644.44,215.43a2.78,2.78,0,0,0,3,3,5.8,5.8,0,0,0,2.42-.45l.27,1.13a7.13,7.13,0,0,1-2.9.54,4,4,0,0,1-4.29-4.39c0-2.63,1.55-4.7,4.09-4.7,2.85,0,3.6,2.5,3.6,4.11a5.63,5.63,0,0,1-.05.73Zm4.64-1.13a2.26,2.26,0,0,0-2.2-2.58,2.63,2.63,0,0,0-2.43,2.58Z"/><path class="cls-1" d="M652.36,217.88a4.06,4.06,0,0,0,2.08.63c1.16,0,1.7-.57,1.7-1.29s-.45-1.17-1.62-1.61c-1.57-.55-2.31-1.42-2.31-2.46,0-1.41,1.14-2.56,3-2.56a4.34,4.34,0,0,1,2.14.54l-.4,1.15a3.44,3.44,0,0,0-1.78-.5c-.93,0-1.46.54-1.46,1.19s.53,1,1.66,1.47c1.51.58,2.29,1.34,2.29,2.63,0,1.53-1.19,2.61-3.26,2.61a5,5,0,0,1-2.45-.59Z"/><path class="cls-1" d="M661.27,214.78h0c.22-.3.52-.68.78-1l2.55-3h1.91l-3.37,3.58L667,219.5h-1.93l-3-4.18-.81.91v3.27H659.7V206.72h1.57Z"/><path class="cls-1" d="M674,215.69l-1.26,3.81h-1.62l4.13-12.13h1.89l4.14,12.13h-1.68l-1.29-3.81Zm4-1.23L676.76,211c-.27-.79-.45-1.51-.63-2.22h0c-.18.72-.38,1.46-.61,2.2l-1.19,3.51Z"/><path class="cls-1" d="M683.21,210.79l1.71,4.9a21.68,21.68,0,0,1,.7,2.23h0c.2-.72.45-1.44.74-2.23l1.7-4.9h1.65l-3.42,8.71h-1.51l-3.31-8.71Z"/><path class="cls-1" d="M696,219.5l-.13-1.1h0a3.25,3.25,0,0,1-2.67,1.3,2.48,2.48,0,0,1-2.66-2.5c0-2.11,1.87-3.26,5.24-3.24v-.18a1.8,1.8,0,0,0-2-2,4.31,4.31,0,0,0-2.27.65l-.36-1a5.47,5.47,0,0,1,2.86-.77c2.66,0,3.31,1.82,3.31,3.57v3.25a12,12,0,0,0,.15,2.09Zm-.24-4.44c-1.73,0-3.69.26-3.69,2a1.4,1.4,0,0,0,1.5,1.51,2.16,2.16,0,0,0,2.1-1.46,1.47,1.47,0,0,0,.09-.5Z"/><path class="cls-1" d="M699.86,206.72h1.58V219.5h-1.58Z"/><path class="cls-1" d="M708.93,219.5l-.13-1.1h0a3.24,3.24,0,0,1-2.67,1.3,2.48,2.48,0,0,1-2.66-2.5c0-2.11,1.87-3.26,5.24-3.24v-.18a1.8,1.8,0,0,0-2-2,4.31,4.31,0,0,0-2.27.65l-.36-1a5.47,5.47,0,0,1,2.86-.77c2.67,0,3.32,1.82,3.32,3.57v3.25a12.06,12.06,0,0,0,.14,2.09Zm-.23-4.44c-1.73,0-3.7.26-3.7,2a1.41,1.41,0,0,0,1.5,1.51,2.18,2.18,0,0,0,2.11-1.46,1.76,1.76,0,0,0,.09-.5Z"/><path class="cls-1" d="M712.71,219.5c0-.59.07-1.47.07-2.25V206.72h1.57v5.47h0a3.25,3.25,0,0,1,3-1.6c2.17,0,3.7,1.8,3.68,4.45,0,3.11-2,4.66-3.91,4.66a3.12,3.12,0,0,1-2.92-1.64h-.05l-.07,1.44Zm1.64-3.49a2.71,2.71,0,0,0,.07.58,2.45,2.45,0,0,0,2.38,1.85c1.65,0,2.64-1.35,2.64-3.35,0-1.75-.9-3.24-2.59-3.24a2.52,2.52,0,0,0-2.41,1.94,3,3,0,0,0-.09.65Z"/><path class="cls-1" d="M724.79,208.34a1,1,0,0,1-2,0,1,1,0,0,1,1-1A.94.94,0,0,1,724.79,208.34ZM723,219.5v-8.71h1.59v8.71Z"/><path class="cls-1" d="M727.23,206.72h1.59V219.5h-1.59Z"/><path class="cls-1" d="M733.25,208.34a1,1,0,0,1-2,0,1,1,0,0,1,1-1A.94.94,0,0,1,733.25,208.34Zm-1.77,11.16v-8.71h1.59v8.71Z"/><path class="cls-1" d="M737.6,208.28v2.51h2.27V212H737.6v4.7c0,1.08.31,1.7,1.19,1.7a3.75,3.75,0,0,0,.92-.11l.07,1.19a4,4,0,0,1-1.4.21,2.18,2.18,0,0,1-1.71-.66,3.25,3.25,0,0,1-.62-2.27V212H734.7v-1.2h1.35V208.7Z"/><path class="cls-1" d="M742.43,215.43a2.78,2.78,0,0,0,3,3,5.8,5.8,0,0,0,2.42-.45l.27,1.13a7.13,7.13,0,0,1-2.9.54,4,4,0,0,1-4.29-4.39c0-2.63,1.55-4.7,4.09-4.7,2.85,0,3.6,2.5,3.6,4.11a5.63,5.63,0,0,1-.05.73Zm4.64-1.13a2.26,2.26,0,0,0-2.2-2.58,2.63,2.63,0,0,0-2.43,2.58Z"/><path class="cls-1" d="M571.25,228.61A11.88,11.88,0,0,0,569,236a12.11,12.11,0,0,0,2.27,7.31H570a11.6,11.6,0,0,1-2.36-7.31,11.83,11.83,0,0,1,2.36-7.36Z"/><path class="cls-1" d="M573,229.11a18.76,18.76,0,0,1,3-.23,5,5,0,0,1,3.41,1,3.29,3.29,0,0,1,1.06,2.54,3.6,3.6,0,0,1-.94,2.6,5,5,0,0,1-3.71,1.33,5.42,5.42,0,0,1-1.26-.11v4.86H573Zm1.56,5.85a5.32,5.32,0,0,0,1.3.13c1.89,0,3-.92,3-2.59s-1.13-2.38-2.86-2.38a6.87,6.87,0,0,0-1.48.12Z"/><path class="cls-1" d="M589.94,236.67a4.26,4.26,0,0,1-4.34,4.63,4.14,4.14,0,0,1-4.18-4.48c0-2.92,1.91-4.63,4.32-4.63A4.13,4.13,0,0,1,589.94,236.67Zm-6.92.09c0,1.91,1.1,3.35,2.65,3.35s2.64-1.42,2.64-3.38c0-1.48-.73-3.35-2.61-3.35S583,235.11,583,236.76Z"/><path class="cls-1" d="M591.71,239.48a4.13,4.13,0,0,0,2.09.63c1.15,0,1.7-.57,1.7-1.29s-.45-1.17-1.63-1.61c-1.56-.55-2.3-1.42-2.3-2.46,0-1.41,1.13-2.56,3-2.56a4.34,4.34,0,0,1,2.14.54l-.4,1.15a3.44,3.44,0,0,0-1.78-.5c-.93,0-1.46.54-1.46,1.19s.53,1,1.66,1.47c1.51.58,2.29,1.33,2.29,2.63,0,1.53-1.19,2.61-3.26,2.61a5,5,0,0,1-2.45-.59Z"/><path class="cls-1" d="M598.84,239.48a4.13,4.13,0,0,0,2.09.63c1.15,0,1.69-.57,1.69-1.29s-.45-1.17-1.62-1.61c-1.56-.55-2.3-1.42-2.3-2.46,0-1.41,1.13-2.56,3-2.56a4.35,4.35,0,0,1,2.15.54l-.4,1.15a3.44,3.44,0,0,0-1.78-.5c-.94,0-1.46.54-1.46,1.19s.52,1,1.66,1.47c1.51.58,2.28,1.33,2.28,2.63,0,1.53-1.18,2.61-3.25,2.61a5,5,0,0,1-2.45-.59Z"/><path class="cls-1" d="M608,229.94a1,1,0,0,1-2,0,1,1,0,0,1,1-1A.94.94,0,0,1,608,229.94Zm-1.76,11.16v-8.71h1.58v8.71Z"/><path class="cls-1" d="M610.33,241.1c0-.59.07-1.47.07-2.25V228.32H612v5.47h0a3.25,3.25,0,0,1,3-1.6c2.16,0,3.69,1.8,3.67,4.45,0,3.11-2,4.66-3.9,4.66a3.12,3.12,0,0,1-2.92-1.64h-.05l-.08,1.44Zm1.63-3.49a2.7,2.7,0,0,0,.08.58,2.44,2.44,0,0,0,2.37,1.85c1.66,0,2.65-1.35,2.65-3.35,0-1.75-.9-3.24-2.59-3.24a2.54,2.54,0,0,0-2.42,1.94,3.64,3.64,0,0,0-.09.65Z"/><path class="cls-1" d="M620.64,228.32h1.58V241.1h-1.58Z"/><path class="cls-1" d="M625.77,237a2.79,2.79,0,0,0,3,3,5.75,5.75,0,0,0,2.41-.45l.27,1.13a7.09,7.09,0,0,1-2.9.54,4,4,0,0,1-4.28-4.39c0-2.63,1.55-4.7,4.08-4.7,2.85,0,3.61,2.5,3.61,4.1a5.31,5.31,0,0,1-.06.74Zm4.64-1.13a2.25,2.25,0,0,0-2.19-2.58,2.63,2.63,0,0,0-2.43,2.58Z"/><path class="cls-1" d="M645.61,236.67a4.26,4.26,0,0,1-4.34,4.63,4.14,4.14,0,0,1-4.18-4.48c0-2.92,1.91-4.63,4.32-4.63A4.13,4.13,0,0,1,645.61,236.67Zm-6.92.09c0,1.91,1.1,3.35,2.65,3.35s2.65-1.42,2.65-3.38c0-1.48-.74-3.35-2.61-3.35S638.69,235.11,638.69,236.76Z"/><path class="cls-1" d="M653.82,240.78a6,6,0,0,1-2.51.5,4.14,4.14,0,0,1-4.34-4.45,4.43,4.43,0,0,1,4.68-4.62,5.23,5.23,0,0,1,2.2.45l-.36,1.22a3.75,3.75,0,0,0-1.84-.41,3.28,3.28,0,0,0,0,6.55,4.45,4.45,0,0,0,1.94-.43Z"/><path class="cls-1" d="M663,238.73c0,.9,0,1.69.07,2.37h-1.4l-.09-1.42h0a3.27,3.27,0,0,1-2.88,1.62c-1.37,0-3-.76-3-3.82v-5.09h1.59v4.82c0,1.66.5,2.78,1.94,2.78a2.3,2.3,0,0,0,2.09-1.44,2.38,2.38,0,0,0,.14-.81v-5.35H663Z"/><path class="cls-1" d="M665.58,235.23c0-1.11,0-2-.07-2.84h1.43l.07,1.49h0a3.44,3.44,0,0,1,3.1-1.69c2.11,0,3.69,1.78,3.69,4.43,0,3.13-1.91,4.68-4,4.68a3,3,0,0,1-2.68-1.37h0v4.74h-1.57Zm1.57,2.33a4,4,0,0,0,.07.64,2.46,2.46,0,0,0,2.38,1.86c1.67,0,2.65-1.37,2.65-3.37,0-1.75-.92-3.24-2.6-3.24a2.52,2.52,0,0,0-2.39,2,2.33,2.33,0,0,0-.11.65Z"/><path class="cls-1" d="M680.65,241.1l-.12-1.1h-.06a3.22,3.22,0,0,1-2.66,1.3,2.48,2.48,0,0,1-2.67-2.5c0-2.11,1.88-3.26,5.24-3.24v-.18a1.8,1.8,0,0,0-2-2,4.33,4.33,0,0,0-2.27.65l-.36-1a5.5,5.5,0,0,1,2.87-.77c2.66,0,3.31,1.82,3.31,3.56V239a13.14,13.14,0,0,0,.14,2.09Zm-.23-4.44c-1.73,0-3.69.26-3.69,2a1.4,1.4,0,0,0,1.49,1.51,2.16,2.16,0,0,0,2.11-1.46,1.76,1.76,0,0,0,.09-.5Z"/><path class="cls-1" d="M686.34,229.88v2.51h2.27v1.2h-2.27v4.7c0,1.08.31,1.7,1.19,1.7a3.75,3.75,0,0,0,.92-.11l.07,1.19a4.06,4.06,0,0,1-1.41.21,2.2,2.2,0,0,1-1.71-.66,3.25,3.25,0,0,1-.61-2.27v-4.76h-1.35v-1.2h1.35V230.3Z"/><path class="cls-1" d="M692.15,229.94a.93.93,0,0,1-1,1,.94.94,0,0,1-.95-1,1,1,0,0,1,1-1A.93.93,0,0,1,692.15,229.94Zm-1.76,11.16v-8.71H692v8.71Z"/><path class="cls-1" d="M702.49,236.67a4.26,4.26,0,0,1-4.34,4.63,4.14,4.14,0,0,1-4.18-4.48c0-2.92,1.91-4.63,4.32-4.63A4.13,4.13,0,0,1,702.49,236.67Zm-6.92.09c0,1.91,1.1,3.35,2.65,3.35s2.65-1.42,2.65-3.38c0-1.48-.74-3.35-2.61-3.35S695.57,235.11,695.57,236.76Z"/><path class="cls-1" d="M704.48,234.75c0-.9,0-1.64-.07-2.36h1.4l.09,1.44h0a3.2,3.2,0,0,1,2.88-1.64c1.21,0,3.08.72,3.08,3.71v5.2h-1.58v-5c0-1.41-.53-2.58-2-2.58a2.26,2.26,0,0,0-2.13,1.62,2.37,2.37,0,0,0-.1.74v5.24h-1.59Z"/><path class="cls-1" d="M718.45,241.1v-7.51h-1.22v-1.2h1.22V232a4.1,4.1,0,0,1,1-3,3,3,0,0,1,2.12-.81,3.77,3.77,0,0,1,1.35.25l-.21,1.23a2.36,2.36,0,0,0-1-.2c-1.35,0-1.69,1.19-1.69,2.52v.47h2.1v1.2H720v7.51Z"/><path class="cls-1" d="M731.2,236.67a4.26,4.26,0,0,1-4.34,4.63,4.14,4.14,0,0,1-4.18-4.48c0-2.92,1.91-4.63,4.32-4.63A4.13,4.13,0,0,1,731.2,236.67Zm-6.92.09c0,1.91,1.1,3.35,2.65,3.35s2.65-1.42,2.65-3.38c0-1.48-.74-3.35-2.61-3.35S724.28,235.11,724.28,236.76Z"/><path class="cls-1" d="M733.19,235.11c0-1,0-1.91-.07-2.72h1.39l0,1.71h.07a2.62,2.62,0,0,1,2.42-1.91,2.06,2.06,0,0,1,.45.05v1.5a2.26,2.26,0,0,0-.55-.06,2.23,2.23,0,0,0-2.12,2,4,4,0,0,0-.07.74v4.64h-1.57Z"/><path class="cls-1" d="M739.78,237a2.8,2.8,0,0,0,3,3,5.75,5.75,0,0,0,2.41-.45l.27,1.13a7.09,7.09,0,0,1-2.9.54,4,4,0,0,1-4.28-4.39c0-2.63,1.55-4.7,4.09-4.7,2.84,0,3.6,2.5,3.6,4.1a5.31,5.31,0,0,1-.06.74Zm4.65-1.13a2.27,2.27,0,0,0-2.2-2.58,2.63,2.63,0,0,0-2.43,2.58Z"/><path class="cls-1" d="M754.13,240.78a6,6,0,0,1-2.51.5,4.14,4.14,0,0,1-4.33-4.45,4.42,4.42,0,0,1,4.68-4.62,5.21,5.21,0,0,1,2.19.45l-.36,1.22a3.71,3.71,0,0,0-1.83-.41,3.28,3.28,0,0,0-.06,6.55,4.5,4.5,0,0,0,2-.43Z"/><path class="cls-1" d="M760.81,241.1l-.13-1.1h0a3.25,3.25,0,0,1-2.67,1.3,2.48,2.48,0,0,1-2.66-2.5c0-2.11,1.87-3.26,5.24-3.24v-.18a1.8,1.8,0,0,0-2-2,4.3,4.3,0,0,0-2.26.65l-.36-1a5.47,5.47,0,0,1,2.86-.77c2.66,0,3.31,1.82,3.31,3.56V239a12,12,0,0,0,.15,2.09Zm-.24-4.44c-1.73,0-3.69.26-3.69,2a1.4,1.4,0,0,0,1.49,1.51,2.16,2.16,0,0,0,2.11-1.46,1.47,1.47,0,0,0,.09-.5Z"/><path class="cls-1" d="M764.44,239.48a4.13,4.13,0,0,0,2.09.63c1.15,0,1.69-.57,1.69-1.29s-.45-1.17-1.62-1.61c-1.57-.55-2.3-1.42-2.3-2.46,0-1.41,1.13-2.56,3-2.56a4.35,4.35,0,0,1,2.15.54l-.4,1.15a3.44,3.44,0,0,0-1.78-.5c-.94,0-1.46.54-1.46,1.19s.52,1,1.65,1.47c1.52.58,2.29,1.33,2.29,2.63,0,1.53-1.19,2.61-3.26,2.61a5,5,0,0,1-2.45-.59Z"/><path class="cls-1" d="M773.69,229.88v2.51H776v1.2h-2.27v4.7c0,1.08.31,1.7,1.19,1.7a3.75,3.75,0,0,0,.92-.11l.07,1.19a4,4,0,0,1-1.4.21,2.18,2.18,0,0,1-1.71-.66,3.25,3.25,0,0,1-.62-2.27v-4.76h-1.35v-1.2h1.35V230.3Z"/><path class="cls-1" d="M776.79,243.28a12.16,12.16,0,0,0,2.27-7.36,12,12,0,0,0-2.27-7.31H778a11.46,11.46,0,0,1,2.36,7.32,11.71,11.71,0,0,1-2.36,7.35Z"/><polyline class="cls-2" points="94.82 283.12 304.35 283.12 270.92 269.94"/><rect id="Case" class="cls-3" x="341.89" y="115.12" width="193.42" height="336" rx="22"/><rect id="Background" class="cls-4" x="354.99" y="129.2" width="166.16" height="307.64" rx="14.39"/><polygon class="cls-5" points="397.56 188.45 439.76 188.45 439.76 222.88 473.99 222.88 496.75 249.1 496.75 306.77 447.16 306.77 447.16 365.56 414.09 365.56 413.57 337.16 386.72 315.16 386.72 198.78 397.56 188.45"/><circle class="cls-6" cx="411.89" cy="412.98" r="11.76"/><circle class="cls-6" cx="411.89" cy="387.71" r="11.76"/><polygon class="cls-7" points="405.88 386.11 411.85 378.07 418.12 386.64 413.68 386.64 413.68 397.35 408.94 397.35 408.94 386.18 405.88 386.11"/><polygon class="cls-7" points="405.81 414.6 411.85 422.73 418.19 414.06 413.7 414.06 413.7 403.24 408.91 403.24 408.91 414.53 405.81 414.6"/><path class="cls-8" d="M438.82,381h3.6v.73h-2.74V384h2.53v.72h-2.53v3h-.86Z"/><path class="cls-8" d="M443.45,380.68h.87v7h-.87Z"/><path class="cls-8" d="M450.12,385.27a2.35,2.35,0,0,1-2.39,2.55,2.28,2.28,0,0,1-2.29-2.47,2.34,2.34,0,0,1,2.37-2.54A2.27,2.27,0,0,1,450.12,385.27Zm-3.8.05c0,1.05.6,1.84,1.45,1.84s1.46-.78,1.46-1.86c0-.81-.41-1.84-1.44-1.84S446.32,384.41,446.32,385.32Z"/><path class="cls-8" d="M455.55,385.27a2.34,2.34,0,0,1-2.38,2.55,2.28,2.28,0,0,1-2.3-2.47,2.34,2.34,0,0,1,2.38-2.54A2.27,2.27,0,0,1,455.55,385.27Zm-3.8.05c0,1.05.61,1.84,1.46,1.84s1.45-.78,1.45-1.86c0-.81-.4-1.84-1.43-1.84S451.75,384.41,451.75,385.32Z"/><path class="cls-8" d="M456.65,384.41c0-.56,0-1.05,0-1.5h.76l0,.95h0a1.44,1.44,0,0,1,1.33-1.05,1,1,0,0,1,.25,0v.82a1.32,1.32,0,0,0-.3,0,1.22,1.22,0,0,0-1.17,1.12,2.35,2.35,0,0,0,0,.4v2.56h-.86Z"/><rect class="cls-9" x="433.61" y="392.73" width="29.8" height="13.48" rx="3.54"/><path class="cls-8" d="M441.08,399.74c0-.49,0-.9,0-1.3h.77l.05.8h0a1.76,1.76,0,0,1,1.58-.91c.67,0,1.7.4,1.7,2v2.87h-.87v-2.77c0-.77-.29-1.41-1.11-1.41A1.23,1.23,0,0,0,442,400a1.27,1.27,0,0,0-.06.41v2.88h-.87Z"/><path class="cls-8" d="M449.19,399a1.56,1.56,0,0,1-1.59,1.65,1.53,1.53,0,0,1-1.57-1.6,1.58,1.58,0,0,1,1.59-1.67A1.52,1.52,0,0,1,449.19,399Zm-2.5,0a1,1,0,0,0,.92,1.13c.53,0,.91-.46.91-1.14,0-.5-.27-1.14-.92-1.14S446.69,398.49,446.69,399Z"/><path class="cls-8" d="M453.8,397.61h0l-1.12.61-.17-.67,1.41-.75h.74v6.44h-.84Z"/><circle class="cls-9" cx="380.27" cy="148.26" r="10.87"/><line class="cls-10" x1="374.78" y1="142.06" x2="384.73" y2="153.79"/><line class="cls-10" x1="383.71" y1="142.86" x2="376.24" y2="154.59"/></g></svg>