<svg id="_1_" data-name="1ยบ" xmlns="http://www.w3.org/2000/svg" viewBox="0 0 135.49 234.63"><defs><style>.cls-1,.cls-3{fill:#d7d8dc;}.cls-1,.cls-6{stroke:#211915;}.cls-1,.cls-2,.cls-6{stroke-miterlimit:10;}.cls-2{fill:#ecedef;stroke:#c2c3c8;}.cls-4{fill:#211915;}.cls-5,.cls-6{fill:#adacb2;}.cls-6{stroke-width:0.3px;}.cls-7{fill:#99989d;}</style></defs><title>User Flow - Cowork Space Manager [Recovered]-02</title><path id="Case" class="cls-1" d="M22.5.5H113a22,22,0,0,1,22,22v187a24.58,24.58,0,0,1-24.58,24.58H22.5a22,22,0,0,1-22-22V22.5a22,22,0,0,1,22-22Z"/><rect id="Background" class="cls-2" x="9.61" y="10.29" width="115.53" height="213.9" rx="14.39"/><rect id="Image" class="cls-3" x="19.77" y="84.8" width="95.94" height="68.03" rx="4.61"/><path class="cls-4" d="M177.12,280.37v-3l-2.2-4h1l1,1.93c.27.52.48.95.69,1.43h0c.2-.45.44-.91.71-1.43l1-1.93h1l-2.33,4v3Z" transform="translate(-148.95 -180.33)"/><path class="cls-4" d="M184.86,277.83a2.44,2.44,0,0,1-2.49,2.65,2.37,2.37,0,0,1-2.39-2.57,2.44,2.44,0,0,1,2.48-2.66A2.37,2.37,0,0,1,184.86,277.83Zm-4,.05c0,1.09.63,1.92,1.51,1.92s1.52-.82,1.52-1.94c0-.85-.42-1.93-1.5-1.93S180.9,276.93,180.9,277.88Z" transform="translate(-148.95 -180.33)"/><path class="cls-4" d="M190.31,275.37c0,.36,0,.76,0,1.37v2.9a2.88,2.88,0,0,1-.71,2.29,2.69,2.69,0,0,1-1.82.6,3.19,3.19,0,0,1-1.66-.42l.23-.69a2.76,2.76,0,0,0,1.46.39c.93,0,1.61-.48,1.61-1.74v-.56h0a1.79,1.79,0,0,1-1.59.84,2.24,2.24,0,0,1-2.13-2.44,2.4,2.4,0,0,1,2.26-2.66,1.68,1.68,0,0,1,1.56.87h0l0-.75Zm-.94,2a1.28,1.28,0,0,0-.05-.41,1.3,1.3,0,0,0-1.27-1c-.87,0-1.49.73-1.49,1.89,0,1,.5,1.79,1.48,1.79a1.33,1.33,0,0,0,1.26-.93,1.59,1.59,0,0,0,.07-.48Z" transform="translate(-148.95 -180.33)"/><path class="cls-4" d="M194.55,280.37l-.08-.63h0a1.86,1.86,0,0,1-1.53.74,1.43,1.43,0,0,1-1.53-1.44c0-1.2,1.08-1.87,3-1.86v-.1a1,1,0,0,0-1.14-1.16,2.48,2.48,0,0,0-1.3.38l-.2-.6a3.07,3.07,0,0,1,1.64-.45c1.53,0,1.9,1.05,1.9,2.05v1.87a7.31,7.31,0,0,0,.08,1.2Zm-.14-2.56c-1,0-2.12.16-2.12,1.13a.81.81,0,0,0,.86.87,1.25,1.25,0,0,0,1.21-.84.93.93,0,0,0,0-.29Z" transform="translate(-148.95 -180.33)"/><path class="cls-4" d="M203.84,280.14a4.55,4.55,0,0,1-1.84.33,3.25,3.25,0,0,1-3.44-3.52,3.47,3.47,0,0,1,3.64-3.66,3.81,3.81,0,0,1,1.65.31l-.22.73a3.32,3.32,0,0,0-1.4-.29,2.59,2.59,0,0,0-2.72,2.88,2.53,2.53,0,0,0,2.68,2.8,3.68,3.68,0,0,0,1.46-.29Z" transform="translate(-148.95 -180.33)"/><path class="cls-4" d="M204.93,273h.91v7.34h-.91Z" transform="translate(-148.95 -180.33)"/><path class="cls-4" d="M210.14,280.37l-.08-.63h0a1.86,1.86,0,0,1-1.53.74A1.43,1.43,0,0,1,207,279c0-1.2,1.08-1.87,3-1.86v-.1a1,1,0,0,0-1.14-1.16,2.48,2.48,0,0,0-1.3.38l-.2-.6a3.07,3.07,0,0,1,1.64-.45c1.53,0,1.9,1.05,1.9,2.05v1.87a7.31,7.31,0,0,0,.08,1.2Zm-.14-2.56c-1,0-2.12.16-2.12,1.13a.81.81,0,0,0,.86.87A1.25,1.25,0,0,0,210,279a.93.93,0,0,0,.05-.29Z" transform="translate(-148.95 -180.33)"/><path class="cls-4" d="M212.22,279.44a2.43,2.43,0,0,0,1.2.36c.66,0,1-.33,1-.75s-.26-.67-.93-.92c-.9-.32-1.32-.81-1.32-1.41a1.54,1.54,0,0,1,1.72-1.47,2.55,2.55,0,0,1,1.23.31l-.23.66a1.94,1.94,0,0,0-1-.29c-.54,0-.84.31-.84.69s.3.6,1,.84c.86.33,1.31.77,1.31,1.51s-.69,1.5-1.87,1.5a2.83,2.83,0,0,1-1.41-.34Z" transform="translate(-148.95 -180.33)"/><path class="cls-4" d="M216.31,279.44a2.43,2.43,0,0,0,1.2.36c.66,0,1-.33,1-.75s-.26-.67-.93-.92c-.9-.32-1.32-.81-1.32-1.41a1.54,1.54,0,0,1,1.72-1.47,2.55,2.55,0,0,1,1.23.31l-.23.66a2,2,0,0,0-1-.29c-.54,0-.84.31-.84.69s.3.6.95.84c.87.33,1.32.77,1.32,1.51s-.69,1.5-1.87,1.5a2.83,2.83,0,0,1-1.41-.34Z" transform="translate(-148.95 -180.33)"/><path class="cls-4" d="M179.16,288.42l-1-3.87h.53l.46,1.95c.11.49.21,1,.28,1.34h0c.07-.38.19-.84.32-1.34l.52-1.95h.52l.47,2c.11.46.21.92.27,1.33h0c.08-.43.19-.86.31-1.34l.51-1.95h.51l-1.1,3.87h-.52l-.49-2a11.14,11.14,0,0,1-.25-1.26h0a11.12,11.12,0,0,1-.3,1.26l-.55,2Z" transform="translate(-148.95 -180.33)"/><path class="cls-4" d="M183.83,284.86a.31.31,0,1,1-.62,0,.31.31,0,0,1,.31-.32A.3.3,0,0,1,183.83,284.86Zm-.56,3.56v-2.78h.51v2.78Z" transform="translate(-148.95 -180.33)"/><path class="cls-4" d="M185.22,284.84v.8H186V286h-.73v1.5c0,.34.1.54.38.54a1,1,0,0,0,.29,0l0,.38a1.28,1.28,0,0,1-.45.07.69.69,0,0,1-.55-.21,1.05,1.05,0,0,1-.19-.72V286h-.43v-.38h.43V285Z" transform="translate(-148.95 -180.33)"/><path class="cls-4" d="M186.51,284.34H187v1.73h0a.93.93,0,0,1,.36-.35,1,1,0,0,1,.52-.14c.37,0,1,.22,1,1.18v1.66h-.51v-1.6c0-.45-.16-.83-.64-.83a.72.72,0,0,0-.68.51.58.58,0,0,0,0,.24v1.68h-.51Z" transform="translate(-148.95 -180.33)"/><path class="cls-4" d="M190.93,284.59a5.91,5.91,0,0,1,1-.07,1.57,1.57,0,0,1,1.08.32,1.05,1.05,0,0,1,.34.81,1.14,1.14,0,0,1-.3.83,1.59,1.59,0,0,1-1.18.42,2.33,2.33,0,0,1-.4,0v1.55h-.5Zm.5,1.87a1.62,1.62,0,0,0,.41,0c.6,0,1-.29,1-.83s-.36-.75-.91-.75a1.7,1.7,0,0,0-.47,0Z" transform="translate(-148.95 -180.33)"/><path class="cls-4" d="M193.87,286.5c0-.32,0-.6,0-.86h.44l0,.54h0a.83.83,0,0,1,.77-.6h.14v.48l-.17,0a.71.71,0,0,0-.68.65,1.64,1.64,0,0,0,0,.23v1.49h-.5Z" transform="translate(-148.95 -180.33)"/><path class="cls-4" d="M198.2,287a1.36,1.36,0,0,1-1.38,1.48,1.32,1.32,0,0,1-1.33-1.43,1.35,1.35,0,0,1,1.38-1.47A1.31,1.31,0,0,1,198.2,287Zm-2.2,0c0,.61.35,1.07.84,1.07s.85-.45.85-1.08c0-.47-.24-1.07-.84-1.07S196,286.5,196,287Z" transform="translate(-148.95 -180.33)"/><path class="cls-4" d="M198.89,288.42V286h-.39v-.38h.39v-.13a1.33,1.33,0,0,1,.32-1,.94.94,0,0,1,.68-.26,1.17,1.17,0,0,1,.43.08l-.07.39a.67.67,0,0,0-.32-.06c-.43,0-.54.37-.54.8v.15h.67V286h-.67v2.4Z" transform="translate(-148.95 -180.33)"/><path class="cls-4" d="M204.45,288.29a2.5,2.5,0,0,1-1,.18,1.81,1.81,0,0,1-1.91-2,1.93,1.93,0,0,1,2-2,2.07,2.07,0,0,1,.92.18l-.13.4a1.78,1.78,0,0,0-.78-.16,1.44,1.44,0,0,0-1.5,1.6,1.4,1.4,0,0,0,1.48,1.55,2,2,0,0,0,.82-.16Z" transform="translate(-148.95 -180.33)"/><path class="cls-4" d="M206.55,288.42l0-.36h0a1.05,1.05,0,0,1-.85.42.8.8,0,0,1-.85-.8c0-.67.6-1,1.67-1v-.06a.57.57,0,0,0-.63-.64,1.47,1.47,0,0,0-.73.2l-.11-.33a1.71,1.71,0,0,1,.91-.24c.85,0,1.06.57,1.06,1.13v1a4.55,4.55,0,0,0,0,.67Zm-.07-1.42c-.55,0-1.18.08-1.18.62a.45.45,0,0,0,.48.49.69.69,0,0,0,.67-.47.45.45,0,0,0,0-.16Z" transform="translate(-148.95 -180.33)"/><path class="cls-4" d="M207.78,286.5c0-.32,0-.6,0-.86h.44l0,.54h0a.83.83,0,0,1,.77-.6h.14v.48l-.17,0a.71.71,0,0,0-.68.65,1.64,1.64,0,0,0,0,.23v1.49h-.5Z" transform="translate(-148.95 -180.33)"/><path class="cls-4" d="M209.68,284.34h.5v4.08h-.5Z" transform="translate(-148.95 -180.33)"/><path class="cls-4" d="M212.57,288.42l0-.36h0a1,1,0,0,1-.85.42.8.8,0,0,1-.85-.8c0-.67.6-1,1.67-1v-.06a.57.57,0,0,0-.63-.64,1.47,1.47,0,0,0-.72.2l-.11-.33a1.71,1.71,0,0,1,.91-.24c.85,0,1,.57,1,1.13v1a4.47,4.47,0,0,0,.05.67ZM212.5,287c-.55,0-1.18.08-1.18.62a.45.45,0,0,0,.48.49.69.69,0,0,0,.67-.47.9.9,0,0,0,0-.16Z" transform="translate(-148.95 -180.33)"/><rect class="cls-5" x="72.14" y="125.73" width="35.26" height="12.52" rx="3.12"/><path class="cls-4" d="M230.18,311.11h.3v2.07h1v.25h-1.29Z" transform="translate(-148.95 -180.33)"/><path class="cls-4" d="M233,312.34h-.9v.84h1v.25H231.8v-2.32h1.26v.25h-1v.73h.9Z" transform="translate(-148.95 -180.33)"/><path class="cls-4" d="M234,311.36h-.71v-.25H235v.25h-.71v2.07H234Z" transform="translate(-148.95 -180.33)"/><path class="cls-4" d="M235.2,313.07a1.07,1.07,0,0,0,.53.15c.31,0,.49-.17.49-.4s-.12-.34-.44-.46-.61-.33-.61-.66a.67.67,0,0,1,.75-.63,1,1,0,0,1,.51.11l-.08.25a.92.92,0,0,0-.44-.11c-.32,0-.44.19-.44.35s.14.32.46.44.6.35.6.69-.27.67-.82.67a1.22,1.22,0,0,1-.59-.15Z" transform="translate(-148.95 -180.33)"/><path class="cls-4" d="M239.43,313.33a2.08,2.08,0,0,1-.71.13,1.09,1.09,0,0,1-1.19-1.18,1.16,1.16,0,0,1,1.25-1.2,1.4,1.4,0,0,1,.58.11l-.07.24a1.27,1.27,0,0,0-.51-.1.88.88,0,0,0-.94.94.94.94,0,0,0,1.3.87v-.69h-.47v-.24h.76Z" transform="translate(-148.95 -180.33)"/><path class="cls-4" d="M241.87,312.25a1.09,1.09,0,0,1-1.08,1.22,1.07,1.07,0,0,1-1-1.18,1.1,1.1,0,0,1,1.08-1.22A1.06,1.06,0,0,1,241.87,312.25Zm-1.8,0c0,.5.27.94.74.94s.75-.43.75-1-.25-.95-.75-.95S240.07,311.77,240.07,312.28Z" transform="translate(-148.95 -180.33)"/><path class="cls-4" d="M244.24,312.25a1.09,1.09,0,0,1-1.07,1.22,1.07,1.07,0,0,1-1-1.18,1.1,1.1,0,0,1,1.08-1.22A1.06,1.06,0,0,1,244.24,312.25Zm-1.8,0c0,.5.27.94.74.94s.75-.43.75-1-.24-.95-.74-.95S242.44,311.77,242.44,312.28Z" transform="translate(-148.95 -180.33)"/><path class="cls-4" d="M246.62,312.25a1.09,1.09,0,0,1-1.08,1.22,1.07,1.07,0,0,1-1-1.18,1.1,1.1,0,0,1,1.08-1.22A1.06,1.06,0,0,1,246.62,312.25Zm-1.81,0c0,.5.27.94.74.94s.75-.43.75-1-.24-.95-.74-.95S244.81,311.77,244.81,312.28Z" transform="translate(-148.95 -180.33)"/><path class="cls-4" d="M246.93,313.25a.2.2,0,0,1,.2-.21.2.2,0,0,1,.21.21.2.2,0,0,1-.21.22A.2.2,0,0,1,246.93,313.25Zm.09-.49-.05-1.65h.33l-.05,1.65Z" transform="translate(-148.95 -180.33)"/><rect class="cls-5" x="25.64" y="125.73" width="35.26" height="12.52" rx="3.12"/><path class="cls-4" d="M178.26,313.43v-2.32h.33l.74,1.17a6.61,6.61,0,0,1,.42.76h0c0-.31,0-.59,0-.95v-1H180v2.32h-.3l-.74-1.18a6.69,6.69,0,0,1-.43-.77h0c0,.29,0,.57,0,1v1Z" transform="translate(-148.95 -180.33)"/><path class="cls-4" d="M182,312.58a.82.82,0,0,1-.83.89.79.79,0,0,1-.8-.86.82.82,0,0,1,.83-.89A.79.79,0,0,1,182,312.58Zm-1.32,0c0,.37.21.64.51.64s.5-.27.5-.65-.14-.64-.5-.64S180.7,312.28,180.7,312.6Z" transform="translate(-148.95 -180.33)"/><path class="cls-4" d="M182.77,311.28v.48h.43V312h-.43v.9c0,.21.06.33.22.33l.18,0v.22a.57.57,0,0,1-.26.05.42.42,0,0,1-.33-.13.61.61,0,0,1-.12-.44V312h-.26v-.23h.26v-.4Z" transform="translate(-148.95 -180.33)"/><path class="cls-4" d="M183.88,311.29a.18.18,0,0,1-.19.19.18.18,0,0,1-.19-.19.19.19,0,0,1,.19-.19A.18.18,0,0,1,183.88,311.29Zm-.34,2.14v-1.67h.3v1.67Z" transform="translate(-148.95 -180.33)"/><path class="cls-4" d="M184.38,313.43V312h-.24v-.23h.24v-.08a.78.78,0,0,1,.19-.58.57.57,0,0,1,.41-.16.86.86,0,0,1,.26.05l-.05.24a.41.41,0,0,0-.19,0c-.26,0-.32.23-.32.48v.09h.4V312h-.4v1.44Z" transform="translate(-148.95 -180.33)"/><path class="cls-4" d="M185.46,311.76l.37,1c0,.11.08.24.1.34h0l.11-.35.33-1h.32l-.46,1.19a2.48,2.48,0,0,1-.57,1.05.79.79,0,0,1-.37.19l-.08-.25a.82.82,0,0,0,.27-.15,1,1,0,0,0,.25-.34.13.13,0,0,0,0-.07.45.45,0,0,0,0-.08l-.62-1.54Z" transform="translate(-148.95 -180.33)"/><path class="cls-4" d="M187.7,312.21c0-.17,0-.31,0-.45H188l0,.27h0a.57.57,0,0,1,.52-.31.49.49,0,0,1,.47.34h0a.6.6,0,0,1,.19-.22.61.61,0,0,1,.37-.12c.22,0,.54.15.54.73v1h-.29v-.94c0-.32-.12-.52-.36-.52a.39.39,0,0,0-.36.28.33.33,0,0,0,0,.15v1h-.29v-1c0-.26-.12-.46-.35-.46a.42.42,0,0,0-.38.31.32.32,0,0,0,0,.14v1h-.3Z" transform="translate(-148.95 -180.33)"/><path class="cls-4" d="M190.74,312.65a.54.54,0,0,0,.57.58,1,1,0,0,0,.46-.09l.06.22a1.32,1.32,0,0,1-.56.11.78.78,0,0,1-.82-.85.81.81,0,0,1,.78-.9.71.71,0,0,1,.69.79.53.53,0,0,1,0,.14Zm.89-.22a.43.43,0,0,0-.42-.49.51.51,0,0,0-.47.49Z" transform="translate(-148.95 -180.33)"/><path class="cls-4" d="M193,312.21c0-.17,0-.31,0-.45h.27l0,.28h0a.63.63,0,0,1,.56-.32c.23,0,.59.14.59.71v1h-.31v-1c0-.27-.1-.49-.38-.49a.43.43,0,0,0-.41.31.52.52,0,0,0,0,.14v1H193Z" transform="translate(-148.95 -180.33)"/><path class="cls-4" d="M195.1,312.65a.54.54,0,0,0,.58.58,1.1,1.1,0,0,0,.46-.09l.05.22a1.32,1.32,0,0,1-.56.11.78.78,0,0,1-.82-.85.82.82,0,0,1,.79-.9.71.71,0,0,1,.69.79c0,.06,0,.11,0,.14Zm.89-.22a.43.43,0,0,0-.42-.49.5.5,0,0,0-.46.49Z" transform="translate(-148.95 -180.33)"/><path class="cls-4" d="M196.79,311.76l.24.36.17.27h0c0-.1.11-.18.16-.27l.24-.36h.33l-.57.81.58.86h-.34l-.25-.38-.18-.28h0l-.18.28-.24.38h-.34l.6-.85-.57-.82Z" transform="translate(-148.95 -180.33)"/><path class="cls-4" d="M198.65,311.28v.48h.44V312h-.44v.9c0,.21.06.33.23.33l.18,0v.22a.62.62,0,0,1-.27.05.45.45,0,0,1-.33-.13.66.66,0,0,1-.11-.44V312h-.26v-.23h.26v-.4Z" transform="translate(-148.95 -180.33)"/><path class="cls-4" d="M200.52,311.28v.48H201V312h-.44v.9c0,.21.06.33.23.33l.17,0,0,.22a.62.62,0,0,1-.27.05.44.44,0,0,1-.33-.13.66.66,0,0,1-.12-.44V312H200v-.23h.25v-.4Z" transform="translate(-148.95 -180.33)"/><path class="cls-4" d="M201.63,311.29a.17.17,0,0,1-.19.19.18.18,0,0,1-.18-.19.19.19,0,0,1,.19-.19A.18.18,0,0,1,201.63,311.29Zm-.34,2.14v-1.67h.31v1.67Z" transform="translate(-148.95 -180.33)"/><path class="cls-4" d="M202.1,312.21c0-.17,0-.31,0-.45h.26l0,.27h0a.56.56,0,0,1,.52-.31.49.49,0,0,1,.47.34h0a.63.63,0,0,1,.55-.34c.23,0,.55.15.55.73v1h-.29v-.94c0-.32-.12-.52-.37-.52a.38.38,0,0,0-.35.28.33.33,0,0,0,0,.15v1h-.29v-1c0-.26-.12-.46-.35-.46a.42.42,0,0,0-.38.31.32.32,0,0,0,0,.14v1h-.3Z" transform="translate(-148.95 -180.33)"/><path class="cls-4" d="M205.14,312.65a.54.54,0,0,0,.57.58,1,1,0,0,0,.46-.09l.06.22a1.32,1.32,0,0,1-.56.11.78.78,0,0,1-.82-.85.81.81,0,0,1,.78-.9.71.71,0,0,1,.69.79c0,.06,0,.11,0,.14Zm.89-.22a.43.43,0,0,0-.42-.49.51.51,0,0,0-.47.49Z" transform="translate(-148.95 -180.33)"/><path class="cls-4" d="M207.72,325.28c0-.32,0-.71,0-1h0c-.08.27-.18.56-.29.88l-.41,1.13h-.23l-.38-1.11q-.17-.49-.27-.9h0c0,.29,0,.68,0,1l-.06,1h-.29l.17-2.32h.38l.4,1.12c.09.29.17.54.23.78h0c.06-.23.14-.48.25-.78l.41-1.12h.38l.15,2.32h-.3Z" transform="translate(-148.95 -180.33)"/><path class="cls-4" d="M209.47,326.3l0-.21h0a.62.62,0,0,1-.51.25.48.48,0,0,1-.51-.48c0-.4.36-.62,1-.62v0a.35.35,0,0,0-.38-.39.9.9,0,0,0-.44.12l-.07-.2a1,1,0,0,1,.55-.14c.51,0,.64.34.64.68v.62a2.42,2.42,0,0,0,0,.4Zm-.05-.85c-.33,0-.7.05-.7.38a.27.27,0,0,0,.28.29.43.43,0,0,0,.41-.28.34.34,0,0,0,0-.1Z" transform="translate(-148.95 -180.33)"/><path class="cls-4" d="M210.2,325.15c0-.19,0-.36,0-.52h.26V325h0a.5.5,0,0,1,.46-.36H211v.28h-.11a.42.42,0,0,0-.4.39.59.59,0,0,0,0,.14v.89h-.3Z" transform="translate(-148.95 -180.33)"/><path class="cls-4" d="M212.48,326.24a1.11,1.11,0,0,1-.48.1.79.79,0,0,1-.83-.85.85.85,0,0,1,.9-.89.87.87,0,0,1,.42.09l-.07.23a.72.72,0,0,0-.35-.08.63.63,0,0,0,0,1.26.83.83,0,0,0,.37-.09Z" transform="translate(-148.95 -180.33)"/><path class="cls-4" d="M214.23,325.85a3.1,3.1,0,0,0,0,.45H214l0-.27h0a.61.61,0,0,1-.55.31c-.26,0-.58-.14-.58-.73v-1h.31v.93c0,.32.09.53.37.53a.43.43,0,0,0,.4-.28.37.37,0,0,0,0-.15v-1h.3Z" transform="translate(-148.95 -180.33)"/><path class="cls-4" d="M214.69,326a.79.79,0,0,0,.4.12c.22,0,.32-.11.32-.25s-.08-.22-.31-.3-.44-.27-.44-.48a.52.52,0,0,1,.58-.48.77.77,0,0,1,.41.1l-.08.22a.62.62,0,0,0-.34-.1.25.25,0,0,0-.28.23c0,.14.1.2.32.28s.44.26.44.51-.23.5-.63.5a1,1,0,0,1-.47-.12Z" transform="translate(-148.95 -180.33)"/><path class="cls-4" d="M217.16,324.16a.17.17,0,0,1-.19.19.18.18,0,0,1-.18-.19A.18.18,0,0,1,217,324,.18.18,0,0,1,217.16,324.16Zm-.34,2.14v-1.67h.31v1.67Z" transform="translate(-148.95 -180.33)"/><path class="cls-4" d="M217.59,326a.79.79,0,0,0,.4.12c.22,0,.32-.11.32-.25s-.08-.22-.31-.3-.44-.27-.44-.48a.52.52,0,0,1,.58-.48.83.83,0,0,1,.41.1l-.08.22a.69.69,0,0,0-.34-.1.25.25,0,0,0-.28.23c0,.14.1.2.32.28s.43.26.43.51-.22.5-.62.5a1,1,0,0,1-.47-.12Z" transform="translate(-148.95 -180.33)"/><path class="cls-4" d="M221.5,326.2a2.08,2.08,0,0,1-.71.13,1.1,1.1,0,0,1-1.2-1.18,1.17,1.17,0,0,1,1.26-1.2,1.4,1.4,0,0,1,.58.11l-.07.25a1.15,1.15,0,0,0-.51-.1.87.87,0,0,0-.94.93.86.86,0,0,0,.9.94,1.11,1.11,0,0,0,.4-.06v-.7h-.48v-.24h.77Z" transform="translate(-148.95 -180.33)"/><path class="cls-4" d="M223.47,325.45a.82.82,0,0,1-.83.89.79.79,0,0,1-.8-.86.81.81,0,0,1,.83-.88A.78.78,0,0,1,223.47,325.45Zm-1.32,0c0,.37.21.64.5.64s.51-.27.51-.65-.14-.64-.5-.64S222.15,325.15,222.15,325.47Z" transform="translate(-148.95 -180.33)"/><path class="cls-4" d="M224.19,324.16a.18.18,0,0,1-.19.19.18.18,0,0,1-.19-.19A.19.19,0,0,1,224,324,.18.18,0,0,1,224.19,324.16Zm-.34,2.14v-1.67h.3v1.67Z" transform="translate(-148.95 -180.33)"/><path class="cls-4" d="M224.66,325.08c0-.17,0-.31,0-.45h.27l0,.28h0a.6.6,0,0,1,.55-.31c.23,0,.59.13.59.71v1h-.31v-1c0-.27-.1-.49-.38-.49a.43.43,0,0,0-.41.31.59.59,0,0,0,0,.14v1h-.3Z" transform="translate(-148.95 -180.33)"/><path class="cls-4" d="M228,324.63c0,.12,0,.26,0,.46v1a1,1,0,0,1-.24.76.87.87,0,0,1-.6.2,1.19,1.19,0,0,1-.56-.13l.08-.24a.92.92,0,0,0,.49.14c.31,0,.53-.17.53-.59V326h0a.63.63,0,0,1-.53.28.75.75,0,0,1-.71-.82.79.79,0,0,1,.75-.88.56.56,0,0,1,.52.28h0v-.25Zm-.31.66a.34.34,0,0,0,0-.14.43.43,0,0,0-.42-.32c-.29,0-.5.25-.5.63s.17.6.5.6a.44.44,0,0,0,.42-.31.88.88,0,0,0,0-.16Z" transform="translate(-148.95 -180.33)"/><path class="cls-5" d="M204.72,325.49a2.88,2.88,0,1,1-2.88-2.88A2.87,2.87,0,0,1,204.72,325.49Z" transform="translate(-148.95 -180.33)"/><path class="cls-6" d="M200,327.69V326.3h1.38v-.44s-1.59-.83,0-2.12,2.71,1.39,1.36,2l0,.58h1.09v1.3" transform="translate(-148.95 -180.33)"/><path class="cls-7" d="M200.1,396.57h-1v-.37h2.49v.37h-1v3h-.44Z" transform="translate(-148.95 -180.33)"/><path class="cls-7" d="M203.77,398.35a1.18,1.18,0,0,1-1.21,1.28,1.15,1.15,0,0,1-1.16-1.24,1.19,1.19,0,0,1,1.2-1.29A1.15,1.15,0,0,1,203.77,398.35Zm-1.92,0c0,.53.3.93.73.93s.74-.39.74-.94-.21-.93-.73-.93S201.85,397.91,201.85,398.37Z" transform="translate(-148.95 -180.33)"/><path class="cls-7" d="M206.35,398.92c0,.25,0,.47,0,.66H206l0-.4h0a.89.89,0,0,1-.8.45c-.38,0-.83-.21-.83-1.06v-1.41h.44v1.34c0,.46.14.77.54.77a.65.65,0,0,0,.58-.4.85.85,0,0,0,0-.23v-1.48h.44Z" transform="translate(-148.95 -180.33)"/><path class="cls-7" d="M208.8,399.49a1.59,1.59,0,0,1-.69.14,1.16,1.16,0,0,1-1.21-1.24,1.23,1.23,0,0,1,1.3-1.28,1.48,1.48,0,0,1,.61.12l-.1.34a1,1,0,0,0-.51-.11.91.91,0,0,0,0,1.82,1.35,1.35,0,0,0,.54-.12Z" transform="translate(-148.95 -180.33)"/><path class="cls-7" d="M209.32,396h.44v1.52h0a.77.77,0,0,1,.31-.31.87.87,0,0,1,.45-.13c.33,0,.85.2.85,1v1.44h-.44v-1.39c0-.39-.15-.72-.56-.72a.63.63,0,0,0-.59.44.44.44,0,0,0,0,.21v1.46h-.44Z" transform="translate(-148.95 -180.33)"/><path class="cls-7" d="M213.15,397.81c0-.25,0-.45,0-.65h.39l0,.39h0a.84.84,0,0,1,.76-.45.72.72,0,0,1,.69.49h0a1,1,0,0,1,.27-.32.85.85,0,0,1,.54-.17c.32,0,.79.21.79,1v1.43h-.43v-1.37c0-.47-.17-.75-.52-.75a.59.59,0,0,0-.53.4.73.73,0,0,0,0,.22v1.5h-.43v-1.45c0-.39-.17-.67-.51-.67a.6.6,0,0,0-.54.44.54.54,0,0,0,0,.22v1.46h-.43Z" transform="translate(-148.95 -180.33)"/><path class="cls-7" d="M217.57,398.45a.78.78,0,0,0,.83.84,1.62,1.62,0,0,0,.67-.13l.07.32a1.93,1.93,0,0,1-.8.15,1.12,1.12,0,0,1-1.19-1.22,1.18,1.18,0,0,1,1.13-1.31,1,1,0,0,1,1,1.14c0,.09,0,.16,0,.21Zm1.29-.32a.63.63,0,0,0-.61-.71.73.73,0,0,0-.68.71Z" transform="translate(-148.95 -180.33)"/><path class="cls-7" d="M221.42,396.46v.7h.63v.33h-.63v1.31c0,.3.08.47.33.47a1.2,1.2,0,0,0,.25,0l0,.33a1.18,1.18,0,0,1-.39.06.6.6,0,0,1-.47-.19.87.87,0,0,1-.17-.63v-1.32h-.38v-.33H221v-.59Z" transform="translate(-148.95 -180.33)"/><path class="cls-7" d="M224.71,398.35a1.19,1.19,0,0,1-1.21,1.28,1.15,1.15,0,0,1-1.16-1.24,1.19,1.19,0,0,1,1.2-1.29A1.16,1.16,0,0,1,224.71,398.35Zm-1.93,0c0,.53.31.93.74.93s.73-.39.73-.94-.2-.93-.72-.93S222.78,397.91,222.78,398.37Z" transform="translate(-148.95 -180.33)"/><path class="cls-7" d="M226.56,398.45a.78.78,0,0,0,.83.84,1.55,1.55,0,0,0,.67-.13l.08.32a2,2,0,0,1-.81.15,1.13,1.13,0,0,1-1.19-1.22,1.18,1.18,0,0,1,1.14-1.31,1,1,0,0,1,1,1.14,1.06,1.06,0,0,1,0,.21Zm1.29-.32a.62.62,0,0,0-.61-.71.72.72,0,0,0-.67.71Z" transform="translate(-148.95 -180.33)"/><path class="cls-7" d="M229,397.16l.35.52c.09.13.16.26.24.39h0l.24-.4.34-.51h.47l-.82,1.17.85,1.25h-.5l-.36-.55-.26-.42h0c-.08.15-.16.28-.25.42l-.35.55h-.49l.86-1.24-.82-1.18Z" transform="translate(-148.95 -180.33)"/><path class="cls-7" d="M231.61,396.47a.26.26,0,0,1-.28.28.27.27,0,0,1-.26-.28.26.26,0,0,1,.27-.27A.26.26,0,0,1,231.61,396.47Zm-.49,3.11v-2.42h.44v2.42Z" transform="translate(-148.95 -180.33)"/><path class="cls-7" d="M232.82,396.46v.7h.63v.33h-.63v1.31c0,.3.09.47.33.47a1.32,1.32,0,0,0,.26,0l0,.33a1.22,1.22,0,0,1-.39.06.62.62,0,0,1-.48-.19.91.91,0,0,1-.17-.63v-1.32H232v-.33h.37v-.59Z" transform="translate(-148.95 -180.33)"/></svg>