<svg xmlns="http://www.w3.org/2000/svg" xmlns:xlink="http://www.w3.org/1999/xlink" viewBox="0 0 841.89 595.28"><defs><style>.cls-1,.cls-3,.cls-4,.cls-6{fill:#d8d9dd;}.cls-1,.cls-6{stroke:#211915;}.cls-1,.cls-2,.cls-4,.cls-6,.cls-8{stroke-miterlimit:10;}.cls-2{fill:#edeef0;}.cls-2,.cls-4{stroke:#c2c3c9;}.cls-5,.cls-7{fill:#211915;}.cls-6{stroke-width:0.3px;}.cls-7{opacity:0.97;}.cls-8{fill:none;stroke:#aeadb3;stroke-width:3px;}</style></defs><title>User Flow - Cowork Space Manager [Recovered]</title><g id="Entry_Card_Flux" data-name="Entry Card Flux"><rect id="Case" class="cls-1" x="337.6" y="116.11" width="192.28" height="334.01" rx="22"/><rect id="Background" class="cls-2" x="350.63" y="127.23" width="165.18" height="305.82" rx="14.39"/><image width="224" height="225" transform="translate(410.58 351.98) scale(0.24)" xlink:href="../../../../../Library/Containers/com.aptonic.Dropzone4/Data/Library/Application%20Support/Dropzone/Promised%20Files/DzFilePromise-C4D4A19F-ABB7-4EC1-A637-A88DF273111F/Unknown.png"/><circle class="cls-3" cx="374.51" cy="147.89" r="9.42"/><line class="cls-4" x1="369.76" y1="142.51" x2="378.38" y2="152.68"/><line class="cls-4" x1="377.49" y1="143.2" x2="371.02" y2="153.37"/><rect class="cls-3" x="378.38" y="198.95" width="117.93" height="81.19" rx="5.74"/><path class="cls-5" d="M394.15,267.4c0-.81-.09-1.78-.08-2.5h0c-.2.68-.44,1.4-.73,2.2l-1,2.8h-.56l-.94-2.75c-.27-.81-.51-1.56-.67-2.25h0c0,.72-.06,1.69-.11,2.56l-.15,2.48h-.71l.4-5.78h1l1,2.79c.24.72.44,1.35.58,1.95h0a19.88,19.88,0,0,1,.61-1.95l1-2.79h1l.36,5.78h-.73Z"/><path class="cls-5" d="M398.5,269.94l-.06-.53h0a1.54,1.54,0,0,1-1.27.62,1.18,1.18,0,0,1-1.27-1.19c0-1,.89-1.55,2.49-1.54v-.09a.85.85,0,0,0-.94-1,2,2,0,0,0-1.08.31l-.17-.5a2.59,2.59,0,0,1,1.36-.37c1.27,0,1.58.87,1.58,1.7v1.55a6,6,0,0,0,.07,1Zm-.11-2.12c-.82,0-1.76.13-1.76.93a.68.68,0,0,0,.71.73,1,1,0,0,0,1-.7,1,1,0,0,0,0-.24Z"/><path class="cls-5" d="M403.81,268.81c0,.43,0,.8,0,1.13h-.67l-.05-.68h0a1.56,1.56,0,0,1-1.38.77c-.65,0-1.43-.36-1.43-1.82v-2.42h.76v2.3c0,.78.24,1.32.92,1.32a1.09,1.09,0,0,0,1-.69,1.18,1.18,0,0,0,.07-.39v-2.54h.75Z"/><path class="cls-5" d="M405.07,267.08c0-.49,0-.91,0-1.29h.66l0,.81h0a1.24,1.24,0,0,1,1.15-.91.73.73,0,0,1,.22,0v.71a1.06,1.06,0,0,0-1.27.94,2,2,0,0,0,0,.36v2.21h-.74Z"/><path class="cls-5" d="M410.74,269.78a2.63,2.63,0,0,1-1.19.24,2,2,0,0,1-2.07-2.11,2.12,2.12,0,0,1,2.23-2.21,2.42,2.42,0,0,1,1.05.22l-.17.58a1.81,1.81,0,0,0-.88-.2,1.44,1.44,0,0,0-1.46,1.57,1.42,1.42,0,0,0,1.44,1.55,2.17,2.17,0,0,0,.92-.2Z"/><path class="cls-5" d="M412.47,264.62a.44.44,0,0,1-.48.46.45.45,0,0,1-.46-.46.46.46,0,0,1,.47-.47A.45.45,0,0,1,412.47,264.62Zm-.84,5.32v-4.15h.75v4.15Z"/><path class="cls-5" d="M417.39,267.83a2,2,0,0,1-2.07,2.2,2,2,0,0,1-2-2.13,2,2,0,0,1,2.06-2.21A2,2,0,0,1,417.39,267.83Zm-3.29,0c0,.91.52,1.6,1.26,1.6s1.26-.68,1.26-1.62c0-.7-.35-1.59-1.24-1.59S414.1,267.08,414.1,267.87Z"/><path class="cls-5" d="M424.23,269.75a3.72,3.72,0,0,1-1.53.27,2.7,2.7,0,0,1-2.85-2.92,2.87,2.87,0,0,1,3-3,3.19,3.19,0,0,1,1.38.26l-.18.61a2.72,2.72,0,0,0-1.17-.24,2.15,2.15,0,0,0-2.26,2.38,2.11,2.11,0,0,0,2.23,2.33,3.06,3.06,0,0,0,1.21-.24Z"/><path class="cls-5" d="M428.8,267.83a2,2,0,0,1-2.07,2.2,2,2,0,0,1-2-2.13,2,2,0,0,1,2.06-2.21A2,2,0,0,1,428.8,267.83Zm-3.29,0c0,.91.52,1.6,1.26,1.6s1.26-.68,1.26-1.62c0-.7-.35-1.59-1.25-1.59S425.51,267.08,425.51,267.87Z"/><path class="cls-5" d="M429.75,266.91c0-.43,0-.78,0-1.12h.67l0,.68h0a1.52,1.52,0,0,1,1.37-.78c.57,0,1.47.35,1.47,1.77v2.48h-.76v-2.39c0-.67-.25-1.23-1-1.23a1.07,1.07,0,0,0-1,.77,1,1,0,0,0-.05.35v2.5h-.76Z"/><path class="cls-5" d="M438.1,263.85v5c0,.37,0,.79,0,1.07h-.68l0-.72h0A1.52,1.52,0,0,1,436,270a1.9,1.9,0,0,1-1.78-2.11,2,2,0,0,1,1.86-2.23,1.39,1.39,0,0,1,1.26.64h0v-2.48Zm-.76,3.63a1.66,1.66,0,0,0,0-.32,1.11,1.11,0,0,0-1.09-.88c-.78,0-1.24.69-1.24,1.61s.41,1.53,1.22,1.53a1.13,1.13,0,0,0,1.11-.9,1.58,1.58,0,0,0,0-.32Z"/><path class="cls-5" d="M439.77,268a1.33,1.33,0,0,0,1.43,1.44,2.68,2.68,0,0,0,1.14-.21l.13.54a3.36,3.36,0,0,1-1.38.25,1.92,1.92,0,0,1-2-2.09,2,2,0,0,1,1.95-2.24,1.76,1.76,0,0,1,1.71,2,2.87,2.87,0,0,1,0,.35Zm2.21-.54a1.07,1.07,0,0,0-1-1.23,1.25,1.25,0,0,0-1.16,1.23Z"/><path class="cls-5" d="M395.66,219.22a5.64,5.64,0,0,1-2.29.41,4.05,4.05,0,0,1-4.28-4.39,4.31,4.31,0,0,1,4.53-4.55,4.58,4.58,0,0,1,2.06.39l-.27.91a4,4,0,0,0-1.75-.36c-2,0-3.38,1.3-3.38,3.58a3.15,3.15,0,0,0,3.33,3.48,4.43,4.43,0,0,0,1.82-.36Z"/><path class="cls-5" d="M402.52,216.34a3,3,0,0,1-3.1,3.3,3,3,0,0,1-3-3.2,3,3,0,0,1,3.09-3.31A3,3,0,0,1,402.52,216.34Zm-4.94.06c0,1.37.79,2.39,1.89,2.39s1.9-1,1.9-2.41c0-1.06-.53-2.4-1.87-2.4S397.58,215.22,397.58,216.4Z"/><path class="cls-5" d="M404,215c0-.64,0-1.17-.05-1.68h1l.05,1h0a2.16,2.16,0,0,1,2-1.15,1.84,1.84,0,0,1,1.76,1.25h0a2.43,2.43,0,0,1,.69-.81,2.13,2.13,0,0,1,1.38-.44c.82,0,2,.54,2,2.71v3.66h-1.1V216c0-1.2-.44-1.92-1.36-1.92a1.46,1.46,0,0,0-1.33,1,1.89,1.89,0,0,0-.09.57v3.84h-1.11v-3.73c0-1-.44-1.71-1.3-1.71a1.55,1.55,0,0,0-1.4,1.13,1.69,1.69,0,0,0-.09.56v3.75H404Z"/><path class="cls-5" d="M414.69,215.31c0-.8,0-1.44-.06-2h1l.05,1.06h0a2.43,2.43,0,0,1,2.21-1.21c1.5,0,2.64,1.28,2.64,3.17,0,2.24-1.37,3.34-2.83,3.34a2.19,2.19,0,0,1-1.92-1h0v3.38h-1.11ZM415.8,217a2.22,2.22,0,0,0,.06.46,1.73,1.73,0,0,0,1.69,1.33c1.2,0,1.89-1,1.89-2.41,0-1.25-.65-2.32-1.85-2.32a1.81,1.81,0,0,0-1.71,1.41,1.77,1.77,0,0,0-.08.46Z"/><path class="cls-5" d="M425.45,219.5l-.09-.78h0a2.29,2.29,0,0,1-1.9.92,1.77,1.77,0,0,1-1.9-1.78c0-1.51,1.34-2.33,3.74-2.32v-.13a1.28,1.28,0,0,0-1.41-1.44,3.17,3.17,0,0,0-1.63.46l-.25-.74a3.8,3.8,0,0,1,2-.56c1.91,0,2.37,1.3,2.37,2.55V218a9.53,9.53,0,0,0,.1,1.49Zm-.16-3.18c-1.24,0-2.64.2-2.64,1.41a1,1,0,0,0,1.07,1.08,1.55,1.55,0,0,0,1.5-1,1.21,1.21,0,0,0,.07-.36Z"/><path class="cls-5" d="M428.21,215c0-.64,0-1.17,0-1.68h1l.06,1h0a2.28,2.28,0,0,1,2.06-1.18c.86,0,2.2.52,2.2,2.65v3.72h-1.13v-3.59c0-1-.38-1.84-1.44-1.84a1.61,1.61,0,0,0-1.52,1.16,1.69,1.69,0,0,0-.08.53v3.74h-1.13Z"/><path class="cls-5" d="M435.59,213.28,437,217c.14.42.29.91.4,1.28h0c.12-.37.25-.85.4-1.3l1.24-3.65h1.19l-1.7,4.43c-.81,2.14-1.36,3.23-2.13,3.9a3.07,3.07,0,0,1-1.39.73l-.28-1a3.12,3.12,0,0,0,1-.55,3.4,3.4,0,0,0,.95-1.26.92.92,0,0,0,.09-.27,1,1,0,0,0-.08-.3l-2.3-5.73Z"/><path class="cls-5" d="M444,219.5v-8.67h1.22l2.78,4.39a26.59,26.59,0,0,1,1.56,2.81h0c-.1-1.15-.13-2.21-.13-3.56v-3.63h1.06v8.67h-1.13l-2.76-4.4a28.2,28.2,0,0,1-1.62-2.89h0c.07,1.09.09,2.14.09,3.58v3.7Z"/><path class="cls-5" d="M455.88,219.5l-.09-.78h0a2.33,2.33,0,0,1-1.91.92,1.77,1.77,0,0,1-1.9-1.78c0-1.51,1.34-2.33,3.74-2.32v-.13a1.28,1.28,0,0,0-1.41-1.44,3.1,3.1,0,0,0-1.62.46l-.26-.74a3.8,3.8,0,0,1,2-.56c1.91,0,2.37,1.3,2.37,2.55V218a9.53,9.53,0,0,0,.1,1.49Zm-.16-3.18c-1.24,0-2.64.2-2.64,1.41a1,1,0,0,0,1.07,1.08,1.55,1.55,0,0,0,1.5-1,1.21,1.21,0,0,0,.07-.36Z"/><path class="cls-5" d="M458.64,215c0-.64,0-1.17-.05-1.68h1l.05,1h0a2.15,2.15,0,0,1,1.95-1.15,1.86,1.86,0,0,1,1.77,1.25h0a2.45,2.45,0,0,1,.7-.81,2.12,2.12,0,0,1,1.37-.44c.83,0,2,.54,2,2.71v3.66h-1.11V216c0-1.2-.44-1.92-1.35-1.92a1.48,1.48,0,0,0-1.34,1,1.89,1.89,0,0,0-.09.57v3.84h-1.1v-3.73c0-1-.44-1.71-1.3-1.71a1.55,1.55,0,0,0-1.4,1.13,1.47,1.47,0,0,0-.1.56v3.75h-1.1Z"/><path class="cls-5" d="M470,216.59a2,2,0,0,0,2.14,2.17,4,4,0,0,0,1.72-.33l.19.81a5,5,0,0,1-2.07.39,2.89,2.89,0,0,1-3.06-3.14c0-1.88,1.11-3.36,2.92-3.36,2,0,2.57,1.79,2.57,2.94a3,3,0,0,1,0,.52Zm3.32-.81a1.61,1.61,0,0,0-1.57-1.83,1.88,1.88,0,0,0-1.74,1.83Z"/><path class="cls-3" d="M486.67,244.73a21.41,21.41,0,1,1-21.41-21.4A21.42,21.42,0,0,1,486.67,244.73Z"/><path class="cls-6" d="M451.15,260.7V250.38H461.4v-3.33s-11.8-6.18,0-15.73,20.22,10.32,10.11,14.69l-.28,4.37h8.14v9.69"/><circle class="cls-3" cx="437.8" cy="331.4" r="10"/><path class="cls-5" d="M429.89,334.87v-7h1l2.23,3.52a19.63,19.63,0,0,1,1.25,2.26h0c-.08-.93-.1-1.77-.1-2.86v-2.91h.84v7h-.91L432,331.34a22.87,22.87,0,0,1-1.3-2.33h0c0,.88.07,1.72.07,2.88v3Z"/><path class="cls-5" d="M436.69,327.91h3.75v.75h-2.85V331h2.63v.74h-2.63v3.15h-.9Z"/><path class="cls-5" d="M446.59,334.64a4.38,4.38,0,0,1-1.84.33,3.25,3.25,0,0,1-3.44-3.52,3.47,3.47,0,0,1,3.64-3.66,3.81,3.81,0,0,1,1.65.31l-.22.74a3.17,3.17,0,0,0-1.4-.29,2.59,2.59,0,0,0-2.72,2.87,2.53,2.53,0,0,0,2.68,2.8,3.51,3.51,0,0,0,1.46-.29Z"/><path class="cls-7" d="M614.05,210.7v5.07h5.87V210.7h1.58v12.13h-1.58v-5.69h-5.87v5.69h-1.57V210.7Z"/><path class="cls-7" d="M632.05,218.4a4.26,4.26,0,0,1-4.34,4.63,4.14,4.14,0,0,1-4.18-4.48c0-2.92,1.91-4.63,4.32-4.63S632.05,215.74,632.05,218.4Zm-6.92.09c0,1.91,1.1,3.35,2.65,3.35s2.65-1.42,2.65-3.38c0-1.48-.74-3.35-2.61-3.35S625.13,216.83,625.13,218.49Z"/><path class="cls-7" d="M636,211.61v2.51h2.27v1.2H636V220c0,1.08.31,1.69,1.19,1.69a3.85,3.85,0,0,0,.92-.1l.07,1.18a3.78,3.78,0,0,1-1.4.22,2.16,2.16,0,0,1-1.71-.67,3.2,3.2,0,0,1-.62-2.26v-4.76h-1.35v-1.2h1.35V212Z"/><path class="cls-7" d="M643.87,210.86a21.65,21.65,0,0,1,3.33-.25,7,7,0,0,1,4.92,1.51,5.59,5.59,0,0,1,1.71,4.36,6.37,6.37,0,0,1-1.75,4.71,7.44,7.44,0,0,1-5.36,1.75,25.16,25.16,0,0,1-2.85-.15Zm1.57,10.73a10,10,0,0,0,1.58.09c3.35,0,5.17-1.87,5.17-5.15,0-2.86-1.6-4.68-4.92-4.68a8.83,8.83,0,0,0-1.83.16Z"/><path class="cls-7" d="M656.76,218.76a2.79,2.79,0,0,0,3,3,5.75,5.75,0,0,0,2.41-.45l.27,1.13a7.09,7.09,0,0,1-2.9.54,4,4,0,0,1-4.28-4.39c0-2.63,1.54-4.7,4.08-4.7,2.85,0,3.6,2.5,3.6,4.1a5.67,5.67,0,0,1,0,.74Zm4.64-1.13a2.25,2.25,0,0,0-2.19-2.58,2.63,2.63,0,0,0-2.43,2.58Z"/><path class="cls-7" d="M664.68,221.21a4.1,4.1,0,0,0,2.09.63c1.15,0,1.69-.58,1.69-1.3s-.45-1.17-1.62-1.6c-1.57-.56-2.31-1.42-2.31-2.46,0-1.41,1.14-2.56,3-2.56a4.31,4.31,0,0,1,2.14.54l-.39,1.15a3.35,3.35,0,0,0-1.79-.5c-.93,0-1.45.54-1.45,1.18s.52,1.05,1.65,1.48c1.52.58,2.29,1.33,2.29,2.63,0,1.53-1.19,2.61-3.26,2.61a5,5,0,0,1-2.45-.59Z"/><path class="cls-7" d="M673.59,218.11h0c.22-.3.53-.68.78-1l2.56-3h1.9l-3.36,3.58,3.83,5.13h-1.92l-3-4.18-.81.9v3.28H672V210.05h1.57Z"/><path class="cls-7" d="M686.3,219,685,222.83h-1.62l4.12-12.13h1.89l4.14,12.13H691.9L690.6,219Zm4-1.22-1.19-3.49c-.27-.8-.45-1.52-.63-2.22h0c-.18.72-.38,1.46-.61,2.2l-1.19,3.51Z"/><path class="cls-7" d="M695.53,214.12l1.71,4.89a22.62,22.62,0,0,1,.7,2.24H698c.2-.72.45-1.44.74-2.24l1.69-4.89h1.65l-3.42,8.71h-1.51l-3.31-8.71Z"/><path class="cls-7" d="M708.33,222.83l-.13-1.1h-.05a3.24,3.24,0,0,1-2.67,1.3,2.48,2.48,0,0,1-2.66-2.5c0-2.11,1.87-3.26,5.24-3.25v-.17a1.8,1.8,0,0,0-2-2,4.31,4.31,0,0,0-2.27.65l-.36-1.05a5.38,5.38,0,0,1,2.86-.77c2.67,0,3.32,1.82,3.32,3.56v3.26a12.06,12.06,0,0,0,.14,2.09Zm-.24-4.45c-1.72,0-3.69.27-3.69,2a1.41,1.41,0,0,0,1.5,1.51,2.16,2.16,0,0,0,2.1-1.46,1.47,1.47,0,0,0,.09-.5Z"/><path class="cls-7" d="M712.18,210.05h1.58v12.78h-1.58Z"/><path class="cls-7" d="M721.25,222.83l-.12-1.1h-.06a3.22,3.22,0,0,1-2.66,1.3,2.48,2.48,0,0,1-2.67-2.5c0-2.11,1.88-3.26,5.24-3.25v-.17a1.8,1.8,0,0,0-2-2,4.33,4.33,0,0,0-2.27.65l-.36-1.05a5.41,5.41,0,0,1,2.87-.77c2.66,0,3.31,1.82,3.31,3.56v3.26a13.14,13.14,0,0,0,.14,2.09Zm-.23-4.45c-1.73,0-3.69.27-3.69,2a1.4,1.4,0,0,0,1.49,1.51,2.16,2.16,0,0,0,2.11-1.46,1.76,1.76,0,0,0,.09-.5Z"/><path class="cls-7" d="M725,222.83c0-.59.07-1.48.07-2.25V210.05h1.57v5.47h0a3.23,3.23,0,0,1,3-1.6c2.16,0,3.69,1.8,3.67,4.45,0,3.11-2,4.66-3.91,4.66a3.09,3.09,0,0,1-2.91-1.64h-.06l-.07,1.44Zm1.64-3.49a3.42,3.42,0,0,0,.07.57,2.46,2.46,0,0,0,2.38,1.86c1.66,0,2.65-1.35,2.65-3.35,0-1.75-.9-3.24-2.6-3.24a2.52,2.52,0,0,0-2.41,1.94,2.91,2.91,0,0,0-.09.65Z"/><path class="cls-7" d="M737.11,211.67a1,1,0,0,1-2,0,1,1,0,0,1,1-1A.94.94,0,0,1,737.11,211.67Zm-1.76,11.16v-8.71h1.58v8.71Z"/><path class="cls-7" d="M739.56,210.05h1.58v12.78h-1.58Z"/><path class="cls-7" d="M745.57,211.67a1,1,0,0,1-2,0,1,1,0,0,1,1-1A.94.94,0,0,1,745.57,211.67Zm-1.76,11.16v-8.71h1.58v8.71Z"/><path class="cls-7" d="M749.93,211.61v2.51h2.26v1.2h-2.26V220c0,1.08.3,1.69,1.18,1.69a3.78,3.78,0,0,0,.92-.1l.07,1.18a3.74,3.74,0,0,1-1.4.22,2.17,2.17,0,0,1-1.71-.67,3.2,3.2,0,0,1-.61-2.26v-4.76H747v-1.2h1.35V212Z"/><path class="cls-7" d="M754.75,218.76a2.79,2.79,0,0,0,3,3,5.75,5.75,0,0,0,2.41-.45l.27,1.13a7.09,7.09,0,0,1-2.9.54,4,4,0,0,1-4.28-4.39c0-2.63,1.54-4.7,4.08-4.7,2.85,0,3.6,2.5,3.6,4.1a5.67,5.67,0,0,1,0,.74Zm4.64-1.13a2.25,2.25,0,0,0-2.19-2.58,2.63,2.63,0,0,0-2.43,2.58Z"/><path class="cls-7" d="M583.57,231.93a11.93,11.93,0,0,0-2.27,7.37,12.13,12.13,0,0,0,2.27,7.31h-1.24A11.66,11.66,0,0,1,580,239.3a12,12,0,0,1,2.36-7.37Z"/><path class="cls-7" d="M585.3,232.44a17.72,17.72,0,0,1,3-.24,5,5,0,0,1,3.4,1,3.26,3.26,0,0,1,1.06,2.54,3.57,3.57,0,0,1-.93,2.59,5,5,0,0,1-3.71,1.34,5.37,5.37,0,0,1-1.26-.11v4.86H585.3Zm1.57,5.85a5.18,5.18,0,0,0,1.29.13c1.89,0,3.05-.92,3.05-2.6s-1.14-2.37-2.87-2.37a6.76,6.76,0,0,0-1.47.12Z"/><path class="cls-7" d="M602.26,240a4.26,4.26,0,0,1-4.34,4.63,4.14,4.14,0,0,1-4.18-4.48c0-2.92,1.91-4.63,4.32-4.63S602.26,237.34,602.26,240Zm-6.92.09c0,1.91,1.1,3.35,2.65,3.35s2.65-1.42,2.65-3.38c0-1.48-.74-3.35-2.61-3.35S595.34,238.43,595.34,240.09Z"/><path class="cls-7" d="M604,242.81a4.1,4.1,0,0,0,2.09.63c1.15,0,1.69-.58,1.69-1.3s-.45-1.17-1.62-1.6c-1.57-.56-2.31-1.42-2.31-2.47,0-1.4,1.14-2.55,3-2.55a4.31,4.31,0,0,1,2.14.54l-.39,1.15a3.41,3.41,0,0,0-1.79-.5c-.93,0-1.45.54-1.45,1.18s.52,1.05,1.65,1.48c1.51.58,2.29,1.33,2.29,2.63,0,1.53-1.19,2.61-3.26,2.61a5,5,0,0,1-2.45-.59Z"/><path class="cls-7" d="M611.17,242.81a4.06,4.06,0,0,0,2.08.63c1.16,0,1.7-.58,1.7-1.3s-.45-1.17-1.62-1.6c-1.57-.56-2.31-1.42-2.31-2.47,0-1.4,1.14-2.55,3-2.55a4.34,4.34,0,0,1,2.14.54l-.39,1.15a3.41,3.41,0,0,0-1.79-.5c-.93,0-1.46.54-1.46,1.18s.53,1.05,1.66,1.48c1.51.58,2.29,1.33,2.29,2.63,0,1.53-1.19,2.61-3.26,2.61a5,5,0,0,1-2.45-.59Z"/><path class="cls-7" d="M620.27,233.27a.93.93,0,0,1-1,1,.94.94,0,0,1-1-1,1,1,0,0,1,1-1A.93.93,0,0,1,620.27,233.27Zm-1.76,11.16v-8.71h1.58v8.71Z"/><path class="cls-7" d="M622.65,244.43c0-.59.07-1.48.07-2.25V231.65h1.57v5.47h0a3.25,3.25,0,0,1,3-1.6c2.17,0,3.7,1.8,3.68,4.45,0,3.11-2,4.66-3.91,4.66a3.12,3.12,0,0,1-2.92-1.64h0l-.07,1.44Zm1.64-3.49a2.62,2.62,0,0,0,.07.57,2.45,2.45,0,0,0,2.38,1.86c1.65,0,2.64-1.35,2.64-3.35,0-1.75-.9-3.24-2.59-3.24a2.52,2.52,0,0,0-2.41,1.94,2.91,2.91,0,0,0-.09.65Z"/><path class="cls-7" d="M633,231.65h1.59v12.78H633Z"/><path class="cls-7" d="M638.09,240.36a2.8,2.8,0,0,0,3,3,5.71,5.71,0,0,0,2.41-.45l.27,1.13a7,7,0,0,1-2.89.54,4,4,0,0,1-4.29-4.39c0-2.63,1.55-4.7,4.09-4.7,2.84,0,3.6,2.5,3.6,4.1a5.31,5.31,0,0,1-.06.74Zm4.65-1.13a2.26,2.26,0,0,0-2.2-2.58,2.63,2.63,0,0,0-2.43,2.58Z"/><path class="cls-7" d="M657.93,240a4.26,4.26,0,0,1-4.34,4.63,4.14,4.14,0,0,1-4.18-4.48c0-2.92,1.91-4.63,4.33-4.63S657.93,237.34,657.93,240Zm-6.91.09c0,1.91,1.1,3.35,2.64,3.35s2.65-1.42,2.65-3.38c0-1.48-.74-3.35-2.61-3.35S651,238.43,651,240.09Z"/><path class="cls-7" d="M666.14,244.11a6,6,0,0,1-2.5.5,4.14,4.14,0,0,1-4.34-4.45,4.42,4.42,0,0,1,4.68-4.62,5.21,5.21,0,0,1,2.19.45l-.36,1.22a3.6,3.6,0,0,0-1.83-.41,3.28,3.28,0,0,0-.06,6.55,4.5,4.5,0,0,0,2-.43Z"/><path class="cls-7" d="M675.28,242.05c0,.9,0,1.7.07,2.38H674l-.09-1.42h0a3.27,3.27,0,0,1-2.88,1.62c-1.37,0-3-.76-3-3.82v-5.09h1.58v4.82c0,1.66.5,2.77,1.94,2.77a2.26,2.26,0,0,0,2.09-1.44,2.29,2.29,0,0,0,.15-.81v-5.34h1.58Z"/><path class="cls-7" d="M677.91,238.56c0-1.12,0-2-.07-2.84h1.42l.07,1.49h0a3.41,3.41,0,0,1,3.09-1.69c2.11,0,3.69,1.78,3.69,4.43,0,3.13-1.9,4.68-4,4.68a3.06,3.06,0,0,1-2.68-1.37h0V248h-1.56Zm1.56,2.32a3.21,3.21,0,0,0,.08.65,2.44,2.44,0,0,0,2.37,1.86c1.68,0,2.65-1.37,2.65-3.37,0-1.75-.92-3.24-2.59-3.24a2.53,2.53,0,0,0-2.4,2,2.76,2.76,0,0,0-.11.65Z"/><path class="cls-7" d="M693,244.43l-.13-1.1h-.05a3.25,3.25,0,0,1-2.67,1.3,2.48,2.48,0,0,1-2.66-2.5c0-2.11,1.87-3.26,5.24-3.25v-.18a1.79,1.79,0,0,0-2-2,4.28,4.28,0,0,0-2.27.65l-.36-1.05a5.38,5.38,0,0,1,2.86-.77c2.66,0,3.31,1.82,3.31,3.56v3.26a12,12,0,0,0,.15,2.09Zm-.24-4.45c-1.73,0-3.69.27-3.69,2a1.4,1.4,0,0,0,1.49,1.51,2.16,2.16,0,0,0,2.11-1.46,1.47,1.47,0,0,0,.09-.5Z"/><path class="cls-7" d="M698.66,233.21v2.51h2.27v1.2h-2.27v4.7c0,1.08.31,1.69,1.19,1.69a3.85,3.85,0,0,0,.92-.1l.07,1.18a3.78,3.78,0,0,1-1.4.22,2.16,2.16,0,0,1-1.71-.67,3.2,3.2,0,0,1-.62-2.26v-4.76h-1.35v-1.2h1.35v-2.09Z"/><path class="cls-7" d="M704.48,233.27a1,1,0,0,1-2,0,1,1,0,0,1,1-1A.94.94,0,0,1,704.48,233.27Zm-1.77,11.16v-8.71h1.59v8.71Z"/><path class="cls-7" d="M714.81,240a4.26,4.26,0,0,1-4.34,4.63,4.14,4.14,0,0,1-4.18-4.48c0-2.92,1.91-4.63,4.33-4.63S714.81,237.34,714.81,240Zm-6.91.09c0,1.91,1.09,3.35,2.64,3.35s2.65-1.42,2.65-3.38c0-1.48-.74-3.35-2.61-3.35S707.9,238.43,707.9,240.09Z"/><path class="cls-7" d="M716.81,238.07c0-.9,0-1.63-.08-2.35h1.41l.09,1.44h0a3.21,3.21,0,0,1,2.88-1.64c1.21,0,3.08.72,3.08,3.71v5.2h-1.58v-5c0-1.41-.52-2.58-2-2.58a2.25,2.25,0,0,0-2.12,1.62,2.35,2.35,0,0,0-.11.74v5.24h-1.58Z"/><path class="cls-7" d="M730.77,244.43v-7.51h-1.22v-1.2h1.22v-.42a4.1,4.1,0,0,1,1-3,3,3,0,0,1,2.13-.81,3.65,3.65,0,0,1,1.35.25l-.22,1.22a2.51,2.51,0,0,0-1-.19c-1.35,0-1.69,1.18-1.69,2.52v.47h2.11v1.2h-2.11v7.51Z"/><path class="cls-7" d="M743.52,240a4.26,4.26,0,0,1-4.34,4.63,4.14,4.14,0,0,1-4.18-4.48c0-2.92,1.91-4.63,4.32-4.63S743.52,237.34,743.52,240Zm-6.91.09c0,1.91,1.09,3.35,2.64,3.35s2.65-1.42,2.65-3.38c0-1.48-.74-3.35-2.61-3.35S736.61,238.43,736.61,240.09Z"/><path class="cls-7" d="M745.52,238.43c0-1,0-1.9-.08-2.71h1.39l0,1.71H747a2.61,2.61,0,0,1,2.41-1.91,2.06,2.06,0,0,1,.45,0v1.5a2.17,2.17,0,0,0-.54-.06,2.23,2.23,0,0,0-2.13,2,5.17,5.17,0,0,0-.07.73v4.65h-1.56Z"/><path class="cls-7" d="M752.1,240.36a2.8,2.8,0,0,0,3,3,5.8,5.8,0,0,0,2.42-.45l.27,1.13a7.13,7.13,0,0,1-2.9.54,4,4,0,0,1-4.29-4.39c0-2.63,1.55-4.7,4.09-4.7,2.84,0,3.6,2.5,3.6,4.1,0,.33,0,.58,0,.74Zm4.65-1.13a2.26,2.26,0,0,0-2.2-2.58,2.63,2.63,0,0,0-2.43,2.58Z"/><path class="cls-7" d="M766.45,244.11a5.91,5.91,0,0,1-2.5.5,4.14,4.14,0,0,1-4.34-4.45,4.43,4.43,0,0,1,4.68-4.62,5.27,5.27,0,0,1,2.2.45l-.36,1.22a3.67,3.67,0,0,0-1.84-.41,3.28,3.28,0,0,0,0,6.55,4.45,4.45,0,0,0,1.94-.43Z"/><path class="cls-7" d="M773.13,244.43l-.13-1.1h0a3.24,3.24,0,0,1-2.67,1.3,2.48,2.48,0,0,1-2.66-2.5c0-2.11,1.87-3.26,5.24-3.25v-.18a1.79,1.79,0,0,0-2-2,4.31,4.31,0,0,0-2.27.65l-.36-1.05a5.38,5.38,0,0,1,2.86-.77c2.67,0,3.32,1.82,3.32,3.56v3.26a12.06,12.06,0,0,0,.14,2.09ZM772.9,240c-1.73,0-3.7.27-3.7,2a1.41,1.41,0,0,0,1.5,1.51,2.16,2.16,0,0,0,2.1-1.46,1.48,1.48,0,0,0,.1-.5Z"/><path class="cls-7" d="M776.76,242.81a4.13,4.13,0,0,0,2.09.63c1.15,0,1.69-.58,1.69-1.3s-.45-1.17-1.62-1.6c-1.56-.56-2.3-1.42-2.3-2.47,0-1.4,1.13-2.55,3-2.55a4.34,4.34,0,0,1,2.14.54l-.4,1.15a3.34,3.34,0,0,0-1.78-.5c-.94,0-1.46.54-1.46,1.18s.52,1.05,1.66,1.48c1.51.58,2.28,1.33,2.28,2.63,0,1.53-1.18,2.61-3.25,2.61a5,5,0,0,1-2.45-.59Z"/><path class="cls-7" d="M786,233.21v2.51h2.26v1.2H786v4.7c0,1.08.3,1.69,1.18,1.69a3.78,3.78,0,0,0,.92-.1l.07,1.18a3.74,3.74,0,0,1-1.4.22,2.17,2.17,0,0,1-1.71-.67,3.2,3.2,0,0,1-.61-2.26v-4.76h-1.35v-1.2h1.35v-2.09Z"/><path class="cls-7" d="M789.11,246.61a12.17,12.17,0,0,0,2.27-7.37,11.94,11.94,0,0,0-2.27-7.31h1.22a11.45,11.45,0,0,1,2.36,7.33,11.65,11.65,0,0,1-2.36,7.35Z"/><polyline class="cls-8" points="107.15 286.45 316.67 286.45 283.24 273.27"/></g></svg>