<svg xmlns="http://www.w3.org/2000/svg" viewBox="0 0 841.89 595.28"><defs><style>.cls-1,.cls-12,.cls-3{fill:#d8d9dd;}.cls-1,.cls-6{stroke:#211915;}.cls-1,.cls-11,.cls-14,.cls-2,.cls-6{stroke-miterlimit:10;}.cls-10,.cls-11,.cls-2{fill:#edeef0;}.cls-2{stroke:#c2c3c9;}.cls-4{fill:#211915;}.cls-5,.cls-6{fill:#aeadb3;}.cls-6{stroke-width:0.3px;}.cls-7{fill:#9a999e;}.cls-14,.cls-8{fill:none;}.cls-9{fill:#c2c3c9;}.cls-11,.cls-14{stroke:#aeadb3;}.cls-11{stroke-width:0.5px;}.cls-12{opacity:0.75;}.cls-13{fill:#5b5b5f;}.cls-14{stroke-width:3px;}</style></defs><title>User Flow - Cowork Space Manager [Recovered]</title><g id="Core_Flux" data-name="Core Flux"><path id="Case" class="cls-1" d="M574.9,134.3H712.54a22,22,0,0,1,22,22v269A24.58,24.58,0,0,1,710,449.85H574.9a22,22,0,0,1-22-22V156.31A22,22,0,0,1,574.9,134.3Z"/><rect id="Background" class="cls-2" x="565.21" y="147.53" width="156.04" height="288.91" rx="14.39"/><rect id="Image" class="cls-3" x="578.93" y="248.17" width="129.59" height="91.88" rx="4.61"/><path class="cls-4" d="M590.26,268.75v-4l-3-5.41h1.38l1.33,2.59c.36.71.64,1.28.93,1.94h0c.26-.62.59-1.23.95-1.94l1.35-2.59h1.38l-3.15,5.39v4Z"/><path class="cls-4" d="M600.72,265.32a3.3,3.3,0,0,1-3.36,3.58,3.21,3.21,0,0,1-3.24-3.47,3.3,3.3,0,0,1,3.35-3.59A3.2,3.2,0,0,1,600.72,265.32Zm-5.35.06c0,1.48.85,2.6,2,2.6s2.05-1.1,2.05-2.62c0-1.15-.58-2.6-2-2.6S595.37,264.1,595.37,265.38Z"/><path class="cls-4" d="M608.08,262c0,.48-.05,1-.05,1.85v3.92c0,1.55-.31,2.5-1,3.08a3.57,3.57,0,0,1-2.46.81,4.25,4.25,0,0,1-2.24-.56l.3-.93a3.82,3.82,0,0,0,2,.53c1.26,0,2.18-.66,2.18-2.36v-.75h0a2.41,2.41,0,0,1-2.15,1.13,3,3,0,0,1-2.87-3.29c0-2.29,1.49-3.59,3-3.59a2.28,2.28,0,0,1,2.11,1.17h0l.06-1Zm-1.27,2.66a2,2,0,0,0-.06-.56,1.79,1.79,0,0,0-1.72-1.3c-1.17,0-2,1-2,2.56,0,1.32.67,2.42,2,2.42a1.8,1.8,0,0,0,1.7-1.25,2.15,2.15,0,0,0,.09-.66Z"/><path class="cls-4" d="M613.8,268.75l-.1-.85h0a2.5,2.5,0,0,1-2.06,1,1.93,1.93,0,0,1-2.07-1.94c0-1.63,1.45-2.52,4.06-2.51v-.14a1.39,1.39,0,0,0-1.53-1.56,3.33,3.33,0,0,0-1.76.5l-.28-.81a4.23,4.23,0,0,1,2.22-.6c2.06,0,2.57,1.41,2.57,2.76v2.53a9,9,0,0,0,.11,1.62Zm-.18-3.45c-1.34,0-2.86.21-2.86,1.52a1.08,1.08,0,0,0,1.16,1.17,1.67,1.67,0,0,0,1.63-1.13,1.28,1.28,0,0,0,.07-.39Z"/><path class="cls-4" d="M626.35,268.44a6,6,0,0,1-2.48.45,4.39,4.39,0,0,1-4.64-4.76,4.68,4.68,0,0,1,4.9-4.94,5,5,0,0,1,2.24.42l-.3,1a4.44,4.44,0,0,0-1.89-.39c-2.21,0-3.67,1.41-3.67,3.88,0,2.3,1.32,3.78,3.61,3.78a5,5,0,0,0,2-.39Z"/><path class="cls-4" d="M627.83,258.84h1.23v9.91h-1.23Z"/><path class="cls-4" d="M634.86,268.75l-.1-.85h0a2.52,2.52,0,0,1-2.07,1,1.92,1.92,0,0,1-2.06-1.94c0-1.63,1.45-2.52,4.06-2.51v-.14a1.39,1.39,0,0,0-1.54-1.56,3.32,3.32,0,0,0-1.75.5l-.28-.81a4.23,4.23,0,0,1,2.22-.6c2.06,0,2.56,1.41,2.56,2.76v2.53a10,10,0,0,0,.11,1.62Zm-.18-3.45c-1.34,0-2.86.21-2.86,1.52A1.08,1.08,0,0,0,633,268a1.68,1.68,0,0,0,1.63-1.13,1.28,1.28,0,0,0,.07-.39Z"/><path class="cls-4" d="M637.67,267.49a3.23,3.23,0,0,0,1.62.49c.89,0,1.31-.45,1.31-1s-.35-.9-1.25-1.24c-1.22-.43-1.79-1.1-1.79-1.91a2.09,2.09,0,0,1,2.33-2,3.43,3.43,0,0,1,1.66.42l-.31.89a2.67,2.67,0,0,0-1.38-.39c-.72,0-1.13.42-1.13.92s.41.81,1.29,1.15c1.17.44,1.77,1,1.77,2,0,1.19-.92,2-2.53,2a3.91,3.91,0,0,1-1.89-.46Z"/><path class="cls-4" d="M643.2,267.49a3.16,3.16,0,0,0,1.61.49c.9,0,1.31-.45,1.31-1s-.34-.9-1.25-1.24c-1.21-.43-1.79-1.1-1.79-1.91a2.09,2.09,0,0,1,2.33-2,3.36,3.36,0,0,1,1.66.42l-.3.89a2.74,2.74,0,0,0-1.38-.39c-.73,0-1.13.42-1.13.92s.4.81,1.28,1.15c1.17.44,1.77,1,1.77,2,0,1.19-.92,2-2.52,2a4,4,0,0,1-1.9-.46Z"/><path class="cls-4" d="M593,279.62l-1.32-5.23h.71L593,277c.16.65.3,1.3.39,1.8h0c.09-.52.25-1.14.43-1.81l.7-2.64h.7l.64,2.65a17.19,17.19,0,0,1,.36,1.79h0c.11-.57.25-1.15.42-1.8l.69-2.64h.69l-1.48,5.23h-.71l-.66-2.72a16.56,16.56,0,0,1-.34-1.71h0a17.11,17.11,0,0,1-.41,1.71l-.74,2.72Z"/><path class="cls-4" d="M599.34,274.81a.42.42,0,0,1-.44.42.41.41,0,0,1-.41-.42.42.42,0,0,1,.43-.43A.41.41,0,0,1,599.34,274.81Zm-.76,4.81v-3.75h.68v3.75Z"/><path class="cls-4" d="M601.21,274.79v1.08h1v.51h-1v2c0,.46.13.73.51.73a1.71,1.71,0,0,0,.4-.05l0,.51a1.56,1.56,0,0,1-.61.09,1,1,0,0,1-.73-.28,1.37,1.37,0,0,1-.27-1v-2.05H600v-.51h.58V275Z"/><path class="cls-4" d="M603,274.11h.69v2.34h0a1.33,1.33,0,0,1,.49-.48,1.46,1.46,0,0,1,.7-.19c.5,0,1.31.31,1.31,1.6v2.24h-.68v-2.16c0-.6-.23-1.11-.87-1.11a1,1,0,0,0-.92.68.78.78,0,0,0,0,.32v2.27H603Z"/><path class="cls-4" d="M608.92,274.45a8.23,8.23,0,0,1,1.29-.1,2.15,2.15,0,0,1,1.47.44,1.4,1.4,0,0,1,.46,1.09,1.53,1.53,0,0,1-.41,1.12,2.15,2.15,0,0,1-1.59.57,2.29,2.29,0,0,1-.55-.05v2.1h-.67Zm.67,2.52a2.23,2.23,0,0,0,.56.06c.82,0,1.31-.4,1.31-1.12s-.49-1-1.23-1a3,3,0,0,0-.64.05Z"/><path class="cls-4" d="M612.89,277c0-.45,0-.83,0-1.17h.6l0,.73h0a1.14,1.14,0,0,1,1-.82l.2,0v.65a.83.83,0,0,0-.24,0,1,1,0,0,0-.91.88,1.51,1.51,0,0,0,0,.32v2h-.68Z"/><path class="cls-4" d="M618.74,277.71a1.83,1.83,0,0,1-1.86,2,1.78,1.78,0,0,1-1.8-1.93,1.83,1.83,0,0,1,1.86-2A1.77,1.77,0,0,1,618.74,277.71Zm-3,0c0,.82.47,1.44,1.14,1.44s1.14-.61,1.14-1.46c0-.63-.32-1.44-1.13-1.44S615.77,277,615.77,277.75Z"/><path class="cls-4" d="M619.67,279.62v-3.24h-.52v-.51h.52v-.18a1.75,1.75,0,0,1,.44-1.31A1.27,1.27,0,0,1,621,274a1.46,1.46,0,0,1,.58.11l-.09.52a1.13,1.13,0,0,0-.43-.08c-.59,0-.73.51-.73,1.08v.21h.9v.51h-.9v3.24Z"/><path class="cls-4" d="M627.18,279.45a3.44,3.44,0,0,1-1.38.24,2.44,2.44,0,0,1-2.58-2.64,2.6,2.6,0,0,1,2.73-2.74,2.87,2.87,0,0,1,1.24.23l-.16.55a2.54,2.54,0,0,0-1.06-.22,2,2,0,0,0-2,2.16,1.9,1.9,0,0,0,2,2.1,2.72,2.72,0,0,0,1.1-.22Z"/><path class="cls-4" d="M630,279.62l0-.48h0a1.4,1.4,0,0,1-1.15.56,1.07,1.07,0,0,1-1.15-1.08c0-.9.81-1.4,2.26-1.39v-.08a.78.78,0,0,0-.86-.87,1.87,1.87,0,0,0-1,.28l-.16-.45a2.35,2.35,0,0,1,1.24-.33c1.14,0,1.42.78,1.42,1.54v1.4a6.17,6.17,0,0,0,.06.9Zm-.1-1.92c-.74,0-1.59.12-1.59.85a.61.61,0,0,0,.65.65.91.91,0,0,0,.9-.63.57.57,0,0,0,0-.22Z"/><path class="cls-4" d="M631.68,277c0-.45,0-.83,0-1.17h.6l0,.73h0a1.13,1.13,0,0,1,1-.82l.19,0v.65a.8.8,0,0,0-.23,0,1,1,0,0,0-.91.88,1.47,1.47,0,0,0,0,.32v2h-.67Z"/><path class="cls-4" d="M634.24,274.11h.69v5.51h-.69Z"/><path class="cls-4" d="M638.15,279.62l0-.48h0a1.38,1.38,0,0,1-1.14.56,1.07,1.07,0,0,1-1.15-1.08c0-.9.8-1.4,2.25-1.39v-.08a.77.77,0,0,0-.85-.87,1.84,1.84,0,0,0-1,.28l-.16-.45a2.34,2.34,0,0,1,1.23-.33c1.15,0,1.43.78,1.43,1.54v1.4a5,5,0,0,0,.06.9Zm-.1-1.92c-.74,0-1.59.12-1.59.85a.61.61,0,0,0,.64.65.94.94,0,0,0,.91-.63.85.85,0,0,0,0-.22Z"/><rect class="cls-5" x="649.66" y="303.45" width="47.62" height="16.91" rx="3.12"/><path class="cls-4" d="M661.93,310.27h.4v2.8h1.34v.34h-1.74Z"/><path class="cls-4" d="M665.75,311.94h-1.22v1.13h1.36v.34h-1.77v-3.14h1.7v.34h-1.29v1h1.22Z"/><path class="cls-4" d="M667.08,310.61h-1v-.34h2.33v.34h-1v2.8h-.41Z"/><path class="cls-4" d="M668.71,312.91a1.46,1.46,0,0,0,.73.21c.41,0,.65-.22.65-.54s-.17-.46-.59-.62-.83-.45-.83-.89a.91.91,0,0,1,1-.85,1.41,1.41,0,0,1,.69.15l-.11.33a1.31,1.31,0,0,0-.6-.15c-.43,0-.59.26-.59.47s.19.44.63.61.8.46.8.92-.36.9-1.1.9a1.59,1.59,0,0,1-.8-.2Z"/><path class="cls-4" d="M674.43,313.27a3.06,3.06,0,0,1-1,.17,1.47,1.47,0,0,1-1.61-1.58,1.56,1.56,0,0,1,1.69-1.62,2.09,2.09,0,0,1,.79.14l-.1.33a1.72,1.72,0,0,0-.69-.13,1.17,1.17,0,0,0-1.27,1.26,1.15,1.15,0,0,0,1.21,1.26A1.25,1.25,0,0,0,674,313v-.94h-.63v-.32h1Z"/><path class="cls-4" d="M677.73,311.81a1.48,1.48,0,0,1-1.46,1.65,1.44,1.44,0,0,1-1.41-1.59,1.49,1.49,0,0,1,1.45-1.65A1.43,1.43,0,0,1,677.73,311.81Zm-2.44.05c0,.67.36,1.27,1,1.27s1-.59,1-1.31-.33-1.27-1-1.27S675.29,311.17,675.29,311.86Z"/><path class="cls-4" d="M680.93,311.81a1.48,1.48,0,0,1-1.46,1.65,1.44,1.44,0,0,1-1.41-1.59,1.49,1.49,0,0,1,1.46-1.65A1.43,1.43,0,0,1,680.93,311.81Zm-2.44.05c0,.67.37,1.27,1,1.27s1-.59,1-1.31-.33-1.27-1-1.27S678.49,311.17,678.49,311.86Z"/><path class="cls-4" d="M684.13,311.81a1.48,1.48,0,0,1-1.46,1.65,1.44,1.44,0,0,1-1.41-1.59,1.49,1.49,0,0,1,1.46-1.65A1.42,1.42,0,0,1,684.13,311.81Zm-2.43.05c0,.67.36,1.27,1,1.27s1-.59,1-1.31-.32-1.27-1-1.27S681.7,311.17,681.7,311.86Z"/><path class="cls-4" d="M684.56,313.17a.27.27,0,0,1,.27-.29.27.27,0,0,1,.28.29.28.28,0,1,1-.55,0Zm.12-.67-.07-2.23h.45L685,312.5Z"/><rect class="cls-5" x="586.85" y="303.45" width="47.62" height="16.91" rx="3.12"/><path class="cls-4" d="M591.8,313.41v-3.14h.45l1,1.59a7,7,0,0,1,.56,1h0c0-.42,0-.8,0-1.29v-1.31h.38v3.14h-.41l-1-1.6a9,9,0,0,1-.58-1h0c0,.4,0,.77,0,1.3v1.34Z"/><path class="cls-4" d="M596.89,312.26a1.11,1.11,0,0,1-1.12,1.2,1.07,1.07,0,0,1-1.08-1.16,1.1,1.1,0,0,1,1.11-1.2A1.07,1.07,0,0,1,596.89,312.26Zm-1.79,0c0,.5.28.87.68.87a.78.78,0,0,0,.69-.87c0-.39-.19-.87-.68-.87S595.1,311.86,595.1,312.28Z"/><path class="cls-4" d="M597.89,310.51v.64h.59v.32h-.59v1.21c0,.28.08.44.31.44a1.09,1.09,0,0,0,.24,0l0,.31a1.13,1.13,0,0,1-.37.05.57.57,0,0,1-.44-.17.87.87,0,0,1-.16-.59v-1.22h-.35v-.32h.35v-.54Z"/><path class="cls-4" d="M599.4,310.52a.25.25,0,0,1-.27.25.24.24,0,0,1-.24-.25.26.26,0,1,1,.51,0Zm-.46,2.89v-2.26h.41v2.26Z"/><path class="cls-4" d="M600.07,313.41v-1.94h-.32v-.32h.32v-.1a1.07,1.07,0,0,1,.26-.79.78.78,0,0,1,.55-.21.83.83,0,0,1,.35.07l-.06.31a.57.57,0,0,0-.26-.05c-.35,0-.44.31-.44.65v.12H601v.32h-.55v1.94Z"/><path class="cls-4" d="M601.53,311.15l.5,1.33c.05.15.1.33.14.47h0l.14-.47.45-1.33h.43l-.61,1.61a3.39,3.39,0,0,1-.77,1.41,1,1,0,0,1-.51.26l-.1-.34a1.1,1.1,0,0,0,.36-.2,1.25,1.25,0,0,0,.34-.46.31.31,0,0,0,0-.09.3.3,0,0,0,0-.11l-.83-2.08Z"/><path class="cls-4" d="M604.56,311.76c0-.23,0-.42,0-.61h.36l0,.37h0a.78.78,0,0,1,.71-.42.67.67,0,0,1,.64.45h0a.79.79,0,0,1,.25-.29.76.76,0,0,1,.49-.16c.3,0,.74.2.74,1v1.33h-.4v-1.28c0-.43-.15-.69-.48-.69a.53.53,0,0,0-.49.37.64.64,0,0,0,0,.2v1.4H606v-1.35c0-.36-.16-.62-.47-.62a.56.56,0,0,0-.51.41.64.64,0,0,0,0,.2v1.36h-.4Z"/><path class="cls-4" d="M608.66,312.35a.73.73,0,0,0,.78.79,1.54,1.54,0,0,0,.62-.12l.07.29a1.73,1.73,0,0,1-.75.14,1,1,0,0,1-1.11-1.13,1.1,1.1,0,0,1,1.06-1.22,1,1,0,0,1,.93,1.06c0,.09,0,.15,0,.19Zm1.2-.29a.57.57,0,0,0-.56-.66.67.67,0,0,0-.63.66Z"/><path class="cls-4" d="M611.75,311.76c0-.23,0-.42,0-.61h.36l0,.38h0a.81.81,0,0,1,.74-.43c.31,0,.8.19.8,1v1.35h-.41v-1.3c0-.37-.14-.67-.52-.67a.58.58,0,0,0-.55.42.54.54,0,0,0,0,.19v1.36h-.41Z"/><path class="cls-4" d="M614.56,312.35a.72.72,0,0,0,.77.79A1.54,1.54,0,0,0,616,313l.07.29a1.73,1.73,0,0,1-.75.14,1,1,0,0,1-1.1-1.13,1.1,1.1,0,0,1,1.05-1.22,1,1,0,0,1,.93,1.06c0,.09,0,.15,0,.19Zm1.2-.29a.58.58,0,0,0-.57-.66.68.68,0,0,0-.63.66Z"/><path class="cls-4" d="M616.83,311.15l.33.49c.08.12.15.24.22.37h0c.07-.14.15-.26.22-.38l.32-.48h.44l-.77,1.09.79,1.17h-.46l-.33-.51a4.11,4.11,0,0,1-.24-.39h0l-.24.39-.33.51h-.45l.8-1.15-.76-1.11Z"/><path class="cls-4" d="M619.35,310.51v.64h.59v.32h-.59v1.21c0,.28.08.44.31.44a1.07,1.07,0,0,0,.23,0l0,.31a1.06,1.06,0,0,1-.36.05.57.57,0,0,1-.44-.17.82.82,0,0,1-.16-.59v-1.22h-.35v-.32H619v-.54Z"/><path class="cls-4" d="M621.87,310.51v.64h.59v.32h-.59v1.21c0,.28.08.44.31.44a1.09,1.09,0,0,0,.24,0l0,.31a1.13,1.13,0,0,1-.37.05.57.57,0,0,1-.44-.17.87.87,0,0,1-.16-.59v-1.22h-.35v-.32h.35v-.54Z"/><path class="cls-4" d="M623.38,310.52a.25.25,0,0,1-.27.25.24.24,0,0,1-.24-.25.26.26,0,0,1,.25-.26A.25.25,0,0,1,623.38,310.52Zm-.46,2.89v-2.26h.41v2.26Z"/><path class="cls-4" d="M624,311.76c0-.23,0-.42,0-.61h.36l0,.37h0a.76.76,0,0,1,.71-.42.66.66,0,0,1,.63.45h0a1,1,0,0,1,.25-.29.81.81,0,0,1,.5-.16c.3,0,.74.2.74,1v1.33h-.4v-1.28c0-.43-.16-.69-.49-.69a.53.53,0,0,0-.48.37.64.64,0,0,0,0,.2v1.4h-.4v-1.35c0-.36-.16-.62-.47-.62a.55.55,0,0,0-.51.41.64.64,0,0,0,0,.2v1.36H624Z"/><path class="cls-4" d="M628.11,312.35a.72.72,0,0,0,.77.79,1.59,1.59,0,0,0,.63-.12l.07.29a1.76,1.76,0,0,1-.75.14,1,1,0,0,1-1.11-1.13,1.1,1.1,0,0,1,1.06-1.22,1,1,0,0,1,.93,1.06.78.78,0,0,1,0,.19Zm1.2-.29a.57.57,0,0,0-.57-.66.67.67,0,0,0-.62.66Z"/><path class="cls-4" d="M631.6,329.41c0-.43-.05-1,0-1.35h0c-.11.37-.24.76-.39,1.19l-.56,1.52h-.31l-.5-1.49c-.15-.44-.28-.85-.37-1.22h0c0,.39,0,.92-.06,1.39l-.08,1.34h-.39l.22-3.14h.52l.54,1.52c.13.39.23.73.31,1.06h0a9.51,9.51,0,0,1,.33-1.06l.55-1.52h.52l.2,3.14h-.4Z"/><path class="cls-4" d="M634,330.79l0-.28h0a.87.87,0,0,1-.69.33.64.64,0,0,1-.69-.64c0-.55.49-.85,1.36-.84v-.05a.46.46,0,0,0-.51-.52,1.07,1.07,0,0,0-.59.17l-.09-.27a1.38,1.38,0,0,1,.74-.2c.68,0,.85.47.85.92v.84a2.9,2.9,0,0,0,0,.54Zm-.06-1.15c-.45,0-1,.07-1,.51a.37.37,0,0,0,.39.39.56.56,0,0,0,.54-.38.31.31,0,0,0,0-.13Z"/><path class="cls-4" d="M635,329.24c0-.26,0-.49,0-.7h.36V329h0a.68.68,0,0,1,.63-.49h.11v.39l-.14,0a.58.58,0,0,0-.55.53,1,1,0,0,0,0,.19v1.2H635Z"/><path class="cls-4" d="M638,330.71a1.65,1.65,0,0,1-.65.13,1.07,1.07,0,0,1-1.12-1.15,1.14,1.14,0,0,1,1.21-1.2,1.31,1.31,0,0,1,.57.12l-.09.31a1.08,1.08,0,0,0-.48-.1.85.85,0,0,0,0,1.69,1.2,1.2,0,0,0,.5-.11Z"/><path class="cls-4" d="M640.39,330.18c0,.23,0,.43,0,.61h-.36l0-.37h0a.83.83,0,0,1-.74.42c-.35,0-.78-.19-.78-1v-1.32h.41v1.25c0,.42.13.71.5.71a.58.58,0,0,0,.54-.37.49.49,0,0,0,0-.21v-1.38h.41Z"/><path class="cls-4" d="M641,330.37a1.08,1.08,0,0,0,.54.16c.3,0,.44-.14.44-.33s-.12-.3-.42-.41-.6-.37-.6-.64a.69.69,0,0,1,.78-.66,1,1,0,0,1,.55.14l-.1.29a.94.94,0,0,0-.46-.13c-.24,0-.38.14-.38.31s.14.27.43.38.59.35.59.68-.3.68-.84.68a1.2,1.2,0,0,1-.63-.16Z"/><path class="cls-4" d="M644.35,327.91a.26.26,0,1,1-.25-.26A.24.24,0,0,1,644.35,327.91Zm-.46,2.88v-2.25h.41v2.25Z"/><path class="cls-4" d="M644.92,330.37a1.11,1.11,0,0,0,.54.16c.3,0,.44-.14.44-.33s-.11-.3-.42-.41-.59-.37-.59-.64a.69.69,0,0,1,.78-.66,1.09,1.09,0,0,1,.55.14l-.1.29a.94.94,0,0,0-.46-.13c-.25,0-.38.14-.38.31s.13.27.43.38.59.35.59.68-.31.68-.84.68a1.24,1.24,0,0,1-.64-.16Z"/><path class="cls-4" d="M650.21,330.65a2.8,2.8,0,0,1-1,.17,1.64,1.64,0,0,1-1.18-.41,1.62,1.62,0,0,1-.44-1.17,1.58,1.58,0,0,1,1.7-1.62,1.88,1.88,0,0,1,.79.15l-.1.33a1.57,1.57,0,0,0-.7-.14,1.18,1.18,0,0,0-1.26,1.26,1.15,1.15,0,0,0,1.21,1.27,1.21,1.21,0,0,0,.54-.09v-.93h-.63v-.33h1Z"/><path class="cls-4" d="M652.87,329.65a1.1,1.1,0,0,1-1.12,1.19,1.07,1.07,0,0,1-1.08-1.16,1.1,1.1,0,0,1,1.12-1.19A1.07,1.07,0,0,1,652.87,329.65Zm-1.79,0a.77.77,0,0,0,.69.86c.39,0,.68-.36.68-.87s-.19-.87-.67-.87S651.08,329.24,651.08,329.67Z"/><path class="cls-4" d="M653.84,327.91a.24.24,0,0,1-.26.25.26.26,0,0,1,0-.51A.24.24,0,0,1,653.84,327.91Zm-.46,2.88v-2.25h.41v2.25Z"/><path class="cls-4" d="M654.47,329.15a5.63,5.63,0,0,0,0-.61h.37l0,.37h0a.83.83,0,0,1,.74-.42c.32,0,.8.18.8,1v1.34H656v-1.3c0-.36-.13-.66-.52-.66a.58.58,0,0,0-.55.42.54.54,0,0,0,0,.19v1.35h-.41Z"/><path class="cls-4" d="M659,328.54c0,.16,0,.34,0,.62v1.3a1.28,1.28,0,0,1-.32,1,1.16,1.16,0,0,1-.82.27,1.49,1.49,0,0,1-.75-.18l.11-.31a1.3,1.3,0,0,0,.66.17c.42,0,.72-.22.72-.78v-.26h0a.79.79,0,0,1-.71.38,1,1,0,0,1-1-1.1,1.08,1.08,0,0,1,1-1.19.76.76,0,0,1,.71.39h0v-.34Zm-.42.89a1.11,1.11,0,0,0,0-.19.6.6,0,0,0-.58-.43c-.39,0-.67.33-.67.85s.23.81.67.81a.61.61,0,0,0,.57-.42.83.83,0,0,0,0-.22Z"/><path class="cls-5" d="M627.54,329.69a3.88,3.88,0,0,1-3.88,3.88,3.89,3.89,0,0,1-3.89-3.88,3.89,3.89,0,1,1,7.77,0Z"/><path class="cls-6" d="M621.16,332.66v-1.87H623v-.6s-2.14-1.13,0-2.86,3.67,1.87,1.83,2.67l-.05.79h1.48v1.76"/><path class="cls-7" d="M621.31,425.7h-1.39v-.5h3.38v.5h-1.4v4.06h-.59Z"/><path class="cls-7" d="M626.26,428.1a1.59,1.59,0,0,1-1.63,1.73,1.56,1.56,0,0,1-1.57-1.68,1.6,1.6,0,0,1,1.63-1.74A1.55,1.55,0,0,1,626.26,428.1Zm-2.59,0c0,.72.41,1.26,1,1.26s1-.54,1-1.27c0-.56-.27-1.26-1-1.26S623.67,427.51,623.67,428.13Z"/><path class="cls-7" d="M629.75,428.87c0,.33,0,.63,0,.89h-.52l0-.54h0a1.22,1.22,0,0,1-1.08.61c-.52,0-1.13-.28-1.13-1.43v-1.91h.59v1.81c0,.62.19,1,.73,1a.87.87,0,0,0,.79-.54,1,1,0,0,0,0-.31v-2h.6Z"/><path class="cls-7" d="M633.06,429.64a2.18,2.18,0,0,1-.94.19,1.56,1.56,0,0,1-1.63-1.67,1.66,1.66,0,0,1,1.76-1.74,2.07,2.07,0,0,1,.83.17l-.14.46a1.36,1.36,0,0,0-.69-.16,1.14,1.14,0,0,0-1.16,1.24,1.12,1.12,0,0,0,1.14,1.22,1.61,1.61,0,0,0,.73-.16Z"/><path class="cls-7" d="M633.76,425h.59v2h0a1.16,1.16,0,0,1,.43-.42,1.27,1.27,0,0,1,.61-.17c.44,0,1.14.27,1.14,1.4v1.95H636v-1.88c0-.53-.2-1-.76-1a.86.86,0,0,0-.8.59.79.79,0,0,0,0,.28v2h-.59Z"/><path class="cls-7" d="M638.94,427.37c0-.34,0-.61,0-.88h.52l0,.52h0a1.11,1.11,0,0,1,1-.6,1,1,0,0,1,.93.66h0a1.31,1.31,0,0,1,.37-.43,1.09,1.09,0,0,1,.72-.23c.43,0,1.08.29,1.08,1.42v1.93H643v-1.85c0-.63-.23-1-.71-1a.77.77,0,0,0-.7.54.9.9,0,0,0-.05.3v2H641v-2c0-.52-.23-.9-.68-.9a.83.83,0,0,0-.74.59.92.92,0,0,0,0,.29v2h-.58Z"/><path class="cls-7" d="M644.9,428.23a1.05,1.05,0,0,0,1.12,1.14,2.26,2.26,0,0,0,.91-.17l.1.42a2.55,2.55,0,0,1-1.09.21,1.52,1.52,0,0,1-1.61-1.65,1.59,1.59,0,0,1,1.54-1.77,1.39,1.39,0,0,1,1.35,1.54c0,.12,0,.22,0,.28Zm1.74-.42a.84.84,0,0,0-.82-1,1,1,0,0,0-.91,1Z"/><path class="cls-7" d="M650.1,425.55v.94H651v.45h-.85v1.76c0,.41.11.64.44.64a1.4,1.4,0,0,0,.35,0l0,.44a1.41,1.41,0,0,1-.53.09.82.82,0,0,1-.64-.25,1.23,1.23,0,0,1-.23-.86v-1.78H649v-.45h.51v-.79Z"/><path class="cls-7" d="M654.54,428.1a1.59,1.59,0,0,1-1.63,1.73,1.55,1.55,0,0,1-1.57-1.68,1.6,1.6,0,0,1,1.62-1.74A1.56,1.56,0,0,1,654.54,428.1Zm-2.6,0c0,.72.41,1.26,1,1.26s1-.54,1-1.27c0-.56-.28-1.26-1-1.26S651.94,427.51,651.94,428.13Z"/><path class="cls-7" d="M657.05,428.23a1,1,0,0,0,1.12,1.14,2.26,2.26,0,0,0,.91-.17l.1.42a2.55,2.55,0,0,1-1.09.21,1.52,1.52,0,0,1-1.61-1.65,1.59,1.59,0,0,1,1.53-1.77,1.39,1.39,0,0,1,1.36,1.54c0,.12,0,.22,0,.28Zm1.74-.42a.84.84,0,0,0-.82-1,1,1,0,0,0-.92,1Z"/><path class="cls-7" d="M660.36,426.49l.46.7c.12.18.23.35.33.53h0c.11-.19.22-.36.33-.54l.46-.69h.64l-1.11,1.58,1.14,1.69H662l-.48-.74c-.13-.19-.24-.37-.35-.57h0a6.59,6.59,0,0,1-.34.57l-.47.74h-.66l1.16-1.67-1.11-1.6Z"/><path class="cls-7" d="M663.87,425.57a.35.35,0,0,1-.38.36.35.35,0,0,1-.36-.36.36.36,0,0,1,.37-.37A.35.35,0,0,1,663.87,425.57Zm-.66,4.19v-3.27h.59v3.27Z"/><path class="cls-7" d="M665.5,425.55v.94h.85v.45h-.85v1.76c0,.41.12.64.45.64a1.31,1.31,0,0,0,.34,0l0,.44a1.37,1.37,0,0,1-.53.09.83.83,0,0,1-.64-.25,1.23,1.23,0,0,1-.23-.86v-1.78h-.51v-.45h.51v-.79Z"/><rect id="Case-2" data-name="Case" class="cls-1" x="323.42" y="129.29" width="181.65" height="315.55" rx="22"/><rect id="Background-2" data-name="Background" class="cls-2" x="336.22" y="139.79" width="156.04" height="288.91" rx="14.39"/><path class="cls-4" d="M353.25,170h-3.32v-1.2H358V170h-3.34v9.73h-1.42Z"/><path class="cls-4" d="M365.13,175.76a3.84,3.84,0,0,1-3.91,4.17,3.73,3.73,0,0,1-3.76-4,3.82,3.82,0,0,1,3.89-4.16A3.71,3.71,0,0,1,365.13,175.76Zm-6.22.08c0,1.72,1,3,2.38,3s2.38-1.29,2.38-3.05c0-1.33-.67-3-2.35-3S358.91,174.35,358.91,175.84Z"/><path class="cls-4" d="M373.7,168.24v9.48c0,.7,0,1.49.07,2h-1.28l-.07-1.36h0a2.91,2.91,0,0,1-2.67,1.54c-1.9,0-3.36-1.61-3.36-4,0-2.61,1.61-4.21,3.52-4.21a2.6,2.6,0,0,1,2.36,1.19h0v-4.68Zm-1.42,6.86a2.4,2.4,0,0,0-.07-.6,2.1,2.1,0,0,0-2.06-1.66c-1.47,0-2.35,1.3-2.35,3s.78,2.9,2.32,2.9a2.14,2.14,0,0,0,2.09-1.7,2.37,2.37,0,0,0,.07-.61Z"/><path class="cls-4" d="M380.41,179.75l-.11-1h-.05a2.94,2.94,0,0,1-2.4,1.17,2.24,2.24,0,0,1-2.4-2.26c0-1.89,1.69-2.93,4.72-2.91v-.17a1.62,1.62,0,0,0-1.78-1.81,4,4,0,0,0-2,.58l-.33-.94a4.89,4.89,0,0,1,2.58-.69c2.4,0,3,1.63,3,3.2v2.94a10.81,10.81,0,0,0,.13,1.88Zm-.21-4c-1.55,0-3.32.25-3.32,1.77a1.27,1.27,0,0,0,1.35,1.36,2,2,0,0,0,1.89-1.31,1.47,1.47,0,0,0,.08-.45Z"/><path class="cls-4" d="M384.27,171.9l1.72,4.64c.18.52.37,1.13.5,1.6h0c.15-.47.31-1.07.51-1.63l1.55-4.61h1.51L388,177.49c-1,2.69-1.72,4.07-2.69,4.91a3.9,3.9,0,0,1-1.75.93l-.36-1.2a3.63,3.63,0,0,0,1.25-.7,4.29,4.29,0,0,0,1.2-1.59,1.08,1.08,0,0,0,.11-.34,1.33,1.33,0,0,0-.09-.37l-2.9-7.23Z"/><path class="cls-4" d="M486.89,286.91l-2.24,6.58h.88l.68-2.07h2.34l.7,2.07h.91l-2.25-6.58Zm-.5,3.85.65-1.91c.12-.4.23-.8.33-1.19h0a11.75,11.75,0,0,0,.34,1.2l.64,1.9Z"/><path id="Image-2" data-name="Image" class="cls-3" d="M488,200.45h3a0,0,0,0,1,0,0v83.8a0,0,0,0,1,0,0h-3a4.61,4.61,0,0,1-4.61-4.61V205.06a4.61,4.61,0,0,1,4.61-4.61Z"/><path class="cls-8" d="M505.07,298a.78.78,0,0,0-.72.59,1.2,1.2,0,0,0,0,.2v.45a1.11,1.11,0,0,0,0,.19.75.75,0,0,0,.72.56c.5,0,.79-.41.79-1S505.57,298,505.07,298Z"/><path d="M487.61,299a6.43,6.43,0,0,0-.2.85h0c-.06-.27-.14-.54-.23-.86l-.41-1.3h-.4l-.42,1.33c-.09.28-.18.56-.24.83h0c-.05-.27-.12-.54-.2-.84l-.34-1.32h-.49l.79,2.61h.43l.42-1.24a5.52,5.52,0,0,0,.24-.87h0c.07.31.14.57.23.86l.4,1.25h.44l.84-2.61H488Z"/><path d="M489.16,296.61a.29.29,0,0,0-.29.3.29.29,0,1,0,.58,0A.28.28,0,0,0,489.16,296.61Z"/><rect x="488.93" y="297.65" width="0.47" height="2.61"/><path d="M490.76,296.9l-.46.12v.63h-.41V298h.41v1.42a1,1,0,0,0,.18.68.65.65,0,0,0,.51.2,1.1,1.1,0,0,0,.42-.06l0-.36a.91.91,0,0,1-.27,0c-.27,0-.36-.18-.36-.5V298h.68v-.36h-.68Z"/><path id="Hour_-_Background" data-name="Hour - Background" class="cls-9" d="M484.77,195.61H491a0,0,0,0,1,0,0v13.06a0,0,0,0,1,0,0h-6.26a4.84,4.84,0,0,1-4.84-4.84v-3.39a4.84,4.84,0,0,1,4.84-4.84Z"/><path class="cls-4" d="M484.31,199.59h0l-1.11.6-.16-.66,1.39-.74h.73v6.36h-.83Z"/><path class="cls-4" d="M491.58,198.79v.57l-2.77,5.79h-.89l2.76-5.63v0h-3.11v-.71Z"/><path class="cls-4" d="M358.06,292.94v-2.8L356,286.35h1l.93,1.82c.25.49.45.9.65,1.36h0c.19-.43.41-.87.67-1.36l.94-1.82h1l-2.21,3.78v2.81Z"/><path class="cls-4" d="M365.39,290.53a2.32,2.32,0,0,1-2.35,2.52,2.25,2.25,0,0,1-2.27-2.44,2.31,2.31,0,0,1,2.34-2.51A2.24,2.24,0,0,1,365.39,290.53Zm-3.75.05c0,1,.59,1.82,1.44,1.82s1.43-.77,1.43-1.84c0-.8-.4-1.82-1.41-1.82S361.64,289.68,361.64,290.58Z"/><path class="cls-4" d="M370.55,288.2c0,.35,0,.73,0,1.31v2.74a2.73,2.73,0,0,1-.68,2.17,2.5,2.5,0,0,1-1.72.56,3,3,0,0,1-1.58-.39l.22-.65a2.71,2.71,0,0,0,1.39.37c.88,0,1.52-.46,1.52-1.65v-.53h0a1.68,1.68,0,0,1-1.5.79,2.12,2.12,0,0,1-2-2.31,2.27,2.27,0,0,1,2.14-2.51,1.56,1.56,0,0,1,1.47.82h0l0-.72Zm-.89,1.87a1.61,1.61,0,0,0,0-.39,1.25,1.25,0,0,0-1.21-.91c-.82,0-1.41.7-1.41,1.79,0,.93.47,1.7,1.4,1.7a1.27,1.27,0,0,0,1.2-.88,1.76,1.76,0,0,0,.06-.46Z"/><path class="cls-4" d="M374.56,292.94l-.07-.6h0a1.76,1.76,0,0,1-1.44.71,1.35,1.35,0,0,1-1.45-1.36c0-1.15,1-1.77,2.84-1.76v-.1a1,1,0,0,0-1.07-1.1,2.31,2.31,0,0,0-1.23.36l-.2-.57a2.89,2.89,0,0,1,1.56-.42c1.44,0,1.8,1,1.8,1.93v1.77a6.57,6.57,0,0,0,.07,1.14Zm-.13-2.42c-.94,0-2,.15-2,1.07a.76.76,0,0,0,.81.82,1.16,1.16,0,0,0,1.14-.79.92.92,0,0,0,.05-.28Z"/><path class="cls-4" d="M383.36,292.72a4.13,4.13,0,0,1-1.74.32,3.09,3.09,0,0,1-3.26-3.34,3.28,3.28,0,0,1,3.44-3.46,3.68,3.68,0,0,1,1.57.29l-.21.7a3,3,0,0,0-1.33-.28,2.45,2.45,0,0,0-2.57,2.72,2.39,2.39,0,0,0,2.53,2.65,3.34,3.34,0,0,0,1.39-.27Z"/><path class="cls-4" d="M384.39,286h.86v6.95h-.86Z"/><path class="cls-4" d="M389.32,292.94l-.07-.6h0a1.76,1.76,0,0,1-1.45.71,1.35,1.35,0,0,1-1.44-1.36c0-1.15,1-1.77,2.84-1.76v-.1a1,1,0,0,0-1.07-1.1,2.31,2.31,0,0,0-1.23.36l-.2-.57a2.88,2.88,0,0,1,1.55-.42c1.45,0,1.8,1,1.8,1.93v1.77a6.5,6.5,0,0,0,.08,1.14Zm-.13-2.42c-.94,0-2,.15-2,1.07a.76.76,0,0,0,.81.82,1.16,1.16,0,0,0,1.14-.79.92.92,0,0,0,.05-.28Z"/><path class="cls-4" d="M391.29,292.06a2.26,2.26,0,0,0,1.14.34c.62,0,.92-.31.92-.7s-.25-.64-.88-.87c-.85-.31-1.26-.78-1.26-1.34a1.46,1.46,0,0,1,1.64-1.39,2.3,2.3,0,0,1,1.16.29l-.21.63a1.83,1.83,0,0,0-1-.28c-.51,0-.79.3-.79.65s.28.57.9.8c.82.31,1.24.72,1.24,1.43s-.65,1.42-1.77,1.42a2.64,2.64,0,0,1-1.33-.33Z"/><path class="cls-4" d="M395.16,292.06a2.26,2.26,0,0,0,1.14.34c.62,0,.92-.31.92-.7s-.25-.64-.88-.87c-.85-.31-1.25-.78-1.25-1.34a1.45,1.45,0,0,1,1.63-1.39,2.3,2.3,0,0,1,1.16.29l-.21.63a1.83,1.83,0,0,0-1-.28c-.51,0-.79.3-.79.65s.28.57.9.8c.82.31,1.24.72,1.24,1.43s-.65,1.42-1.77,1.42a2.64,2.64,0,0,1-1.33-.33Z"/><rect id="Image-3" data-name="Image" class="cls-3" x="355.85" y="200.45" width="112.96" height="83.8" rx="4.61"/><path class="cls-4" d="M357.55,297.65l.34,1.33c.08.29.15.56.2.83h0c.06-.27.15-.55.24-.83l.42-1.33h.4l.41,1.3c.1.32.17.59.23.86h0a6.43,6.43,0,0,1,.2-.85l.37-1.31h.47l-.84,2.61h-.44l-.39-1.25a7.76,7.76,0,0,1-.24-.86h0a5.52,5.52,0,0,1-.24.87l-.42,1.24h-.43l-.79-2.61Z"/><path class="cls-4" d="M361.86,296.91a.29.29,0,1,1-.58,0,.29.29,0,0,1,.29-.3A.28.28,0,0,1,361.86,296.91Zm-.52,3.35v-2.61h.47v2.61Z"/><path class="cls-4" d="M363.17,296.9v.75h.68V298h-.68v1.41c0,.32.09.51.36.51a.85.85,0,0,0,.27,0l0,.36a1.19,1.19,0,0,1-.43.06.68.68,0,0,1-.51-.19,1,1,0,0,1-.18-.69V298h-.41v-.36h.41V297Z"/><path class="cls-4" d="M364.39,296.43h.47v1.63h0a.92.92,0,0,1,.34-.34,1,1,0,0,1,.49-.13c.35,0,.91.21.91,1.11v1.56h-.47v-1.5c0-.42-.16-.78-.61-.78a.68.68,0,0,0-.63.48.48.48,0,0,0,0,.22v1.58h-.47Z"/><path class="cls-4" d="M368.53,298.5c0-.34,0-.61,0-.85h.43l0,.44h0a1,1,0,0,1,.93-.5,1.19,1.19,0,0,1,1.11,1.33,1.24,1.24,0,0,1-1.19,1.4.92.92,0,0,1-.81-.41h0v1.42h-.47Zm.47.7a1.11,1.11,0,0,0,0,.19.75.75,0,0,0,.72.56c.5,0,.79-.41.79-1s-.28-1-.78-1a.78.78,0,0,0-.72.59,1.2,1.2,0,0,0,0,.2Z"/><path class="cls-4" d="M371.61,298.46c0-.31,0-.57,0-.81H372l0,.51h0a.78.78,0,0,1,.72-.57h.14v.45l-.17,0a.67.67,0,0,0-.63.62,1.38,1.38,0,0,0,0,.22v1.39h-.47Z"/><path class="cls-4" d="M375.68,298.93a1.28,1.28,0,0,1-1.3,1.39,1.24,1.24,0,0,1-1.25-1.34,1.27,1.27,0,0,1,1.3-1.39A1.23,1.23,0,0,1,375.68,298.93Zm-2.07,0c0,.57.33,1,.79,1s.8-.42.8-1-.22-1-.79-1S373.61,298.46,373.61,299Z"/><path class="cls-4" d="M376.33,300.26V298H376v-.36h.36v-.13a1.2,1.2,0,0,1,.31-.91.89.89,0,0,1,.63-.24,1.08,1.08,0,0,1,.41.07l-.07.37a.71.71,0,0,0-.3-.06c-.4,0-.51.36-.51.76v.14h.64V298h-.64v2.25Z"/><path class="cls-4" d="M381.57,300.14a2.31,2.31,0,0,1-1,.17,1.7,1.7,0,0,1-1.8-1.84,1.81,1.81,0,0,1,1.9-1.91,2,2,0,0,1,.86.16l-.11.39a1.66,1.66,0,0,0-.74-.16,1.36,1.36,0,0,0-1.42,1.51,1.32,1.32,0,0,0,1.4,1.46,1.92,1.92,0,0,0,.77-.15Z"/><path class="cls-4" d="M382.14,296.43h.48v3.83h-.48Z"/><path class="cls-4" d="M384.86,300.26l0-.33h0a1,1,0,0,1-.8.39.74.74,0,0,1-.8-.75c0-.63.56-1,1.57-1v-.06a.54.54,0,0,0-.59-.6,1.26,1.26,0,0,0-.68.19l-.11-.31a1.64,1.64,0,0,1,.86-.23c.8,0,1,.54,1,1.07v1a4,4,0,0,0,0,.63Zm-.07-1.33c-.52,0-1.1.08-1.1.59a.42.42,0,0,0,.44.45.67.67,0,0,0,.64-.44.77.77,0,0,0,0-.15Z"/><path class="cls-4" d="M386,298.46c0-.31,0-.57,0-.81h.41l0,.51h0a.79.79,0,0,1,.73-.57h.13v.45l-.16,0a.68.68,0,0,0-.64.62,1.38,1.38,0,0,0,0,.22v1.39H386Z"/><path class="cls-4" d="M389.21,300.26l0-.33h0a.94.94,0,0,1-.8.39.74.74,0,0,1-.8-.75c0-.63.57-1,1.58-1v-.06a.54.54,0,0,0-.6-.6,1.29,1.29,0,0,0-.68.19l-.11-.31a1.64,1.64,0,0,1,.86-.23c.8,0,1,.54,1,1.07v1a4,4,0,0,0,0,.63Zm-.07-1.33c-.52,0-1.11.08-1.11.59a.42.42,0,0,0,.45.45.66.66,0,0,0,.63-.44.4.4,0,0,0,0-.15Z"/><rect id="OK_Button" data-name="OK Button" class="cls-9" x="425.35" y="273.01" width="46.5" height="14.96" rx="4.61"/><path class="cls-4" d="M430.8,277.66h.7v4.87h2.34v.59h-3Z"/><path class="cls-4" d="M434.88,281.29a1.26,1.26,0,0,0,1.35,1.36,2.58,2.58,0,0,0,1.08-.2l.12.51a3.23,3.23,0,0,1-1.3.24,1.82,1.82,0,0,1-1.93-2,1.91,1.91,0,0,1,1.84-2.12,1.66,1.66,0,0,1,1.62,1.85,2.5,2.5,0,0,1,0,.33Zm2.09-.51a1,1,0,0,0-1-1.16,1.19,1.19,0,0,0-1.09,1.16Z"/><path class="cls-4" d="M439.4,278.07v1.13h1v.54h-1v2.12c0,.48.14.76.54.76a1.33,1.33,0,0,0,.41-.05l0,.54a1.87,1.87,0,0,1-.63.09,1,1,0,0,1-.77-.3,1.47,1.47,0,0,1-.27-1v-2.14h-.61v-.54h.61v-.94Z"/><path class="cls-4" d="M443,277.51l-1,1.16h-.51l.71-1.16Z"/><path class="cls-4" d="M443.56,282.39a1.87,1.87,0,0,0,.94.29c.52,0,.76-.26.76-.59s-.2-.52-.73-.72c-.7-.25-1-.64-1-1.11a1.21,1.21,0,0,1,1.35-1.15,1.9,1.9,0,0,1,1,.24l-.17.52a1.64,1.64,0,0,0-.81-.22c-.42,0-.65.24-.65.53s.23.47.74.67c.68.25,1,.6,1,1.18s-.53,1.17-1.46,1.17a2.3,2.3,0,0,1-1.11-.26Z"/><path class="cls-4" d="M449.45,283.12V280.8l-1.72-3.14h.8l.77,1.51c.21.41.37.74.54,1.12h0c.15-.35.34-.71.55-1.12l.79-1.51h.8l-1.83,3.14v2.32Z"/><path class="cls-4" d="M455.53,281.13a1.91,1.91,0,0,1-1.95,2.08,1.87,1.87,0,0,1-1.88-2,1.91,1.91,0,0,1,1.94-2.08A1.86,1.86,0,0,1,455.53,281.13Zm-3.11,0c0,.86.49,1.51,1.19,1.51s1.19-.64,1.19-1.53c0-.66-.33-1.5-1.17-1.5S452.42,280.42,452.42,281.17Z"/><path class="cls-4" d="M459.81,279.2c0,.28,0,.6,0,1.08v2.27a2.29,2.29,0,0,1-.56,1.8,2.11,2.11,0,0,1-1.43.47,2.51,2.51,0,0,1-1.3-.33l.18-.54a2.22,2.22,0,0,0,1.15.31c.73,0,1.26-.38,1.26-1.37v-.44h0a1.4,1.4,0,0,1-1.24.66,1.75,1.75,0,0,1-1.67-1.92,1.88,1.88,0,0,1,1.76-2.08,1.32,1.32,0,0,1,1.23.68h0l0-.59Zm-.74,1.55a1.15,1.15,0,0,0,0-.33,1,1,0,0,0-1-.75c-.69,0-1.17.58-1.17,1.48s.39,1.41,1.16,1.41a1,1,0,0,0,1-.73,1.24,1.24,0,0,0,.05-.38Z"/><path class="cls-4" d="M463.13,283.12l-.05-.49h0a1.46,1.46,0,0,1-1.2.58,1.12,1.12,0,0,1-1.2-1.13c0-.94.85-1.46,2.36-1.45v-.08a.81.81,0,0,0-.89-.91,1.91,1.91,0,0,0-1,.29l-.16-.47a2.41,2.41,0,0,1,1.28-.35c1.2,0,1.5.82,1.5,1.61v1.46a5.44,5.44,0,0,0,.06.94Zm-.1-2c-.78,0-1.66.12-1.66.88a.62.62,0,0,0,.67.68A1,1,0,0,0,463,282a1,1,0,0,0,0-.23Z"/><path class="cls-4" d="M464.73,282.71a.47.47,0,0,1,.48-.5.47.47,0,0,1,.48.5.48.48,0,1,1-1,0Zm.2-1.16-.11-3.89h.78l-.12,3.89Z"/><rect id="Hour_-_Background-2" data-name="Hour - Background" class="cls-9" x="352.35" y="195.61" width="26.7" height="13.06" rx="4.61"/><path class="cls-4" d="M355.94,199.59h0l-1.11.6-.17-.66,1.39-.74h.74v6.36h-.83Z"/><path class="cls-4" d="M359,203.53a1.82,1.82,0,0,1,1.26-1.7v0a1.57,1.57,0,0,1-1-1.43,1.78,1.78,0,0,1,2-1.69,1.64,1.64,0,0,1,1.85,1.57,1.61,1.61,0,0,1-1,1.48v0a1.77,1.77,0,0,1,1.28,1.65,2,2,0,0,1-2.16,1.84C359.81,205.25,359,204.46,359,203.53Zm3.43,0c0-.77-.54-1.14-1.4-1.38a1.37,1.37,0,0,0-1.15,1.31,1.18,1.18,0,0,0,1.27,1.21A1.16,1.16,0,0,0,362.43,203.49Zm-2.37-3.17c0,.63.48,1,1.21,1.17a1.26,1.26,0,0,0,1-1.16,1,1,0,0,0-1.08-1A1,1,0,0,0,360.06,200.32Z"/><path class="cls-4" d="M364.16,201.2a.59.59,0,1,1,1.17,0,.59.59,0,1,1-1.17,0Zm0,3.45a.59.59,0,1,1,1.17,0,.59.59,0,1,1-1.17,0Z"/><path class="cls-4" d="M370.34,201.9c0,2.16-.8,3.35-2.21,3.35-1.24,0-2.08-1.16-2.1-3.26s.92-3.31,2.21-3.31S370.34,199.88,370.34,201.9Zm-3.45.1c0,1.65.51,2.59,1.29,2.59s1.3-1,1.3-2.65-.4-2.59-1.29-2.59S366.89,200.27,366.89,202Z"/><path class="cls-4" d="M375.36,201.9c0,2.16-.8,3.35-2.21,3.35-1.24,0-2.09-1.16-2.11-3.26s.92-3.31,2.22-3.31S375.36,199.88,375.36,201.9Zm-3.45.1c0,1.65.5,2.59,1.29,2.59s1.3-1,1.3-2.65-.4-2.59-1.29-2.59S371.91,200.27,371.91,202Z"/><path id="Image-4" data-name="Image" class="cls-3" d="M336.66,199h2.51a4.61,4.61,0,0,1,4.61,4.61v74.58a4.61,4.61,0,0,1-4.61,4.61h-2.51a0,0,0,0,1,0,0V199A0,0,0,0,1,336.66,199Z"/><path class="cls-9" d="M335.73,404.79h156a0,0,0,0,1,0,0v11.05a15.58,15.58,0,0,1-15.58,15.58H351.31a15.58,15.58,0,0,1-15.58-15.58V404.79A0,0,0,0,1,335.73,404.79Z"/><circle class="cls-7" cx="359.91" cy="418.11" r="10.16"/><circle class="cls-7" cx="466.04" cy="418.11" r="10.16"/><path class="cls-4" d="M348.78,419.4l-.37,1.14h-.49l1.24-3.64h.56l1.25,3.64h-.51l-.38-1.14ZM350,419l-.36-1c-.08-.23-.13-.45-.19-.66h0q-.07.33-.18.66l-.36,1Z"/><path class="cls-4" d="M351.56,417.93l.51,1.47a5.11,5.11,0,0,1,.21.67h0c.06-.22.13-.43.22-.67l.51-1.47h.49l-1,2.61H352l-1-2.61Z"/><path class="cls-4" d="M355.4,420.54l0-.32h0a1,1,0,0,1-.8.38.74.74,0,0,1-.8-.75c0-.63.57-1,1.58-1v-.05a.54.54,0,0,0-.6-.61,1.32,1.32,0,0,0-.68.2l-.11-.32a1.64,1.64,0,0,1,.86-.23c.8,0,1,.55,1,1.07v1a3.79,3.79,0,0,0,0,.62Zm-.07-1.33c-.52,0-1.11.08-1.11.59a.41.41,0,0,0,.45.45.65.65,0,0,0,.63-.43.45.45,0,0,0,0-.16Z"/><path class="cls-4" d="M357.08,417.2a.28.28,0,0,1-.3.29.28.28,0,0,1-.29-.29.29.29,0,0,1,.3-.3A.28.28,0,0,1,357.08,417.2Zm-.53,3.34v-2.61H357v2.61Z"/><path class="cls-4" d="M357.82,416.71h.47v3.83h-.47Z"/><path class="cls-4" d="M360.54,420.54l0-.32h0a1,1,0,0,1-.8.38.74.74,0,0,1-.8-.75c0-.63.56-1,1.57-1v-.05a.54.54,0,0,0-.59-.61,1.33,1.33,0,0,0-.69.2l-.1-.32a1.61,1.61,0,0,1,.86-.23c.79,0,1,.55,1,1.07v1a3.79,3.79,0,0,0,0,.62Zm-.07-1.33c-.52,0-1.11.08-1.11.59a.42.42,0,0,0,.45.45.64.64,0,0,0,.63-.43.45.45,0,0,0,0-.16Z"/><path class="cls-4" d="M361.67,420.54a6.59,6.59,0,0,0,0-.67v-3.16h.47v1.64h0a1,1,0,0,1,.89-.48,1.17,1.17,0,0,1,1.1,1.33,1.24,1.24,0,0,1-1.17,1.4.93.93,0,0,1-.88-.49h0l0,.43Zm.5-1a.88.88,0,0,0,0,.17.74.74,0,0,0,.71.56c.5,0,.8-.41.8-1s-.27-1-.78-1a.76.76,0,0,0-.73.58,1.12,1.12,0,0,0,0,.2Z"/><path class="cls-4" d="M365.3,417.2a.28.28,0,0,1-.3.29.28.28,0,0,1-.29-.29.29.29,0,0,1,.3-.3A.28.28,0,0,1,365.3,417.2Zm-.53,3.34v-2.61h.48v2.61Z"/><path class="cls-4" d="M366,416.71h.47v3.83H366Z"/><path class="cls-4" d="M367.84,417.2a.28.28,0,0,1-.3.29.28.28,0,0,1-.29-.29.29.29,0,0,1,.3-.3A.28.28,0,0,1,367.84,417.2Zm-.53,3.34v-2.61h.48v2.61Z"/><path class="cls-4" d="M369.15,417.18v.75h.68v.36h-.68v1.41c0,.33.09.51.35.51a1.47,1.47,0,0,0,.28,0l0,.35a1.1,1.1,0,0,1-.42.07.65.65,0,0,1-.51-.2.94.94,0,0,1-.19-.68v-1.43h-.4v-.36h.4v-.63Z"/><path class="cls-4" d="M370.58,417.93l.58,1.55c.06.17.12.37.16.53h0l.17-.55.52-1.53h.5l-.71,1.86a3.89,3.89,0,0,1-.9,1.64,1.21,1.21,0,0,1-.58.31l-.12-.4a1.26,1.26,0,0,0,.42-.23,1.56,1.56,0,0,0,.4-.53.35.35,0,0,0,0-.12.49.49,0,0,0,0-.12l-1-2.41Z"/><path class="cls-4" d="M459.16,417a5.29,5.29,0,0,1,.9-.07,1.5,1.5,0,0,1,1,.3,1,1,0,0,1,.32.76,1.05,1.05,0,0,1-.28.78,1.52,1.52,0,0,1-1.11.4,2.17,2.17,0,0,1-.38,0v1.45h-.47Zm.47,1.75a1.41,1.41,0,0,0,.39,0c.57,0,.91-.28.91-.78s-.34-.71-.86-.71a2,2,0,0,0-.44,0Z"/><path class="cls-4" d="M462.15,419.32a.84.84,0,0,0,.9.91,1.81,1.81,0,0,0,.72-.13l.08.34a2.22,2.22,0,0,1-.87.16,1.21,1.21,0,0,1-1.28-1.32,1.27,1.27,0,0,1,1.22-1.41A1.11,1.11,0,0,1,464,419.1c0,.1,0,.18,0,.22Zm1.39-.34a.67.67,0,0,0-.66-.77.79.79,0,0,0-.73.77Z"/><path class="cls-4" d="M464.59,418.75c0-.31,0-.58,0-.82H465v.51h0a.79.79,0,0,1,.73-.57l.13,0v.45a.41.41,0,0,0-.16,0,.67.67,0,0,0-.64.61,1.38,1.38,0,0,0,0,.22v1.39h-.47Z"/><path class="cls-4" d="M466.57,420.54v-2.25h-.37v-.36h.37v-.14a1,1,0,0,1,1.14-1.14,1.36,1.36,0,0,1,.66.17l-.13.37a1,1,0,0,0-.55-.16c-.51,0-.65.35-.65.77v.13h1.52v2.61h-.47v-2.25h-1v2.25Z"/><path class="cls-4" d="M469.35,416.71h.47v3.83h-.47Z"/><circle class="cls-7" cx="414.25" cy="409.65" r="15.46"/><path class="cls-4" d="M410,412.8a3.5,3.5,0,0,1-1.44.26,2.55,2.55,0,0,1-2.7-2.76,2.72,2.72,0,0,1,2.85-2.87,3.09,3.09,0,0,1,1.3.24l-.17.58a2.57,2.57,0,0,0-1.1-.23,2,2,0,0,0-2.13,2.25,2,2,0,0,0,2.1,2.2,2.84,2.84,0,0,0,1.15-.23Z"/><path class="cls-4" d="M413,413l-.06-.49h0a1.48,1.48,0,0,1-1.2.58,1.12,1.12,0,0,1-1.2-1.13c0-.95.84-1.46,2.35-1.45v-.09a.8.8,0,0,0-.89-.9,2,2,0,0,0-1,.29l-.16-.47A2.42,2.42,0,0,1,412,409c1.2,0,1.49.82,1.49,1.6V412a6.65,6.65,0,0,0,.06.94Zm-.11-2c-.78,0-1.66.12-1.66.88a.63.63,0,0,0,.67.68,1,1,0,0,0,.95-.65,1,1,0,0,0,0-.23Z"/><path class="cls-4" d="M414.68,410.28c0-.46,0-.86,0-1.22h.62l0,.77h0a1.18,1.18,0,0,1,1.08-.86l.21,0v.68a1,1,0,0,0-.25,0,1,1,0,0,0-.95.92,1.69,1.69,0,0,0,0,.33V413h-.71Z"/><path class="cls-4" d="M420.64,407.23V412c0,.35,0,.74,0,1H420l0-.68h0a1.45,1.45,0,0,1-1.34.77,1.79,1.79,0,0,1-1.67-2,1.87,1.87,0,0,1,1.75-2.11,1.32,1.32,0,0,1,1.19.6h0v-2.34Zm-.72,3.43a1,1,0,0,0,0-.3,1,1,0,0,0-1-.83c-.74,0-1.17.65-1.17,1.51s.39,1.45,1.16,1.45a1.07,1.07,0,0,0,1-.85,1,1,0,0,0,0-.3Z"/><path class="cls-5" d="M373.92,314a4.84,4.84,0,0,1-4.93,4.74,5.07,5.07,0,0,1-3.17-1.11,4.66,4.66,0,0,1-1.75-3.63,4.93,4.93,0,0,1,9.85,0Z"/><path class="cls-6" d="M365.82,317.62v-2.28h2.36v-.74s-2.71-1.37,0-3.48,4.66,2.28,2.33,3.25l-.06,1h1.87v2.14"/><path class="cls-5" d="M362.43,314.08a4.84,4.84,0,0,1-4.93,4.74,5.07,5.07,0,0,1-3.17-1.11,4.66,4.66,0,0,1-1.75-3.63,4.93,4.93,0,0,1,9.85,0Z"/><path class="cls-6" d="M354.26,317.71v-2.28h2.35v-.74s-2.71-1.37,0-3.48,4.66,2.28,2.33,3.25l-.06,1h1.87v2.14"/><path class="cls-5" d="M385.58,314.1a4.83,4.83,0,0,1-4.92,4.73,5,5,0,0,1-3.17-1.11,4.64,4.64,0,0,1-1.76-3.62,4.93,4.93,0,0,1,9.85,0Z"/><path class="cls-6" d="M377.49,317.72v-2.28h2.36v-.74s-2.72-1.36,0-3.48,4.65,2.29,2.32,3.25l-.06,1H384v2.14"/><path class="cls-4" d="M389.35,313v1.27h1.22v.33h-1.22v1.28H389v-1.28h-1.23v-.33H389V313Z"/><path class="cls-4" d="M393.13,312.72h-1.34l-.14.91.29,0a1.44,1.44,0,0,1,.75.18,1,1,0,0,1,.51.91,1.23,1.23,0,0,1-1.31,1.2,1.66,1.66,0,0,1-.87-.22l.11-.36a1.7,1.7,0,0,0,.75.19.78.78,0,0,0,.84-.76c0-.45-.31-.78-1-.78a3.11,3.11,0,0,0-.49,0l.23-1.69h1.68Z"/><path class="cls-4" d="M395.1,314c0-.31,0-.58,0-.82h.41l0,.51h0a.79.79,0,0,1,.73-.57l.13,0v.45l-.16,0a.67.67,0,0,0-.64.61,1.5,1.5,0,0,0,0,.22v1.4h-.47Z"/><path class="cls-4" d="M397.08,314.62a.83.83,0,0,0,.89.9,1.87,1.87,0,0,0,.73-.13l.08.34a2.26,2.26,0,0,1-.87.16,1.22,1.22,0,0,1-1.29-1.32,1.27,1.27,0,0,1,1.23-1.41,1.11,1.11,0,0,1,1.08,1.23,1.21,1.21,0,0,1,0,.23Zm1.39-.35a.67.67,0,0,0-.66-.77.8.8,0,0,0-.73.77Z"/><path class="cls-4" d="M401,315.84l0-.33h0a1,1,0,0,1-.8.39.75.75,0,0,1-.8-.76c0-.63.57-1,1.58-1v-.05a.54.54,0,0,0-.6-.61,1.29,1.29,0,0,0-.68.2l-.11-.32a1.64,1.64,0,0,1,.86-.23c.8,0,1,.55,1,1.07v1a4,4,0,0,0,0,.63Zm-.07-1.34c-.52,0-1.11.08-1.11.59a.41.41,0,0,0,.45.45.65.65,0,0,0,.63-.43.45.45,0,0,0,0-.16Z"/><path class="cls-4" d="M404,315.74a1.86,1.86,0,0,1-.75.15,1.24,1.24,0,0,1-1.31-1.33,1.33,1.33,0,0,1,1.41-1.39,1.69,1.69,0,0,1,.66.13l-.11.37a1.15,1.15,0,0,0-.55-.12,1,1,0,0,0,0,2,1.39,1.39,0,0,0,.59-.13Z"/><path class="cls-4" d="M405.19,312.47v.75h.68v.36h-.68V315c0,.33.09.51.35.51a1.47,1.47,0,0,0,.28,0l0,.35a1.1,1.1,0,0,1-.42.07.69.69,0,0,1-.52-.2,1,1,0,0,1-.18-.68v-1.43h-.4v-.36h.4v-.63Z"/><path class="cls-4" d="M406.63,314.62a.83.83,0,0,0,.9.9,1.77,1.77,0,0,0,.72-.13l.08.34a2.16,2.16,0,0,1-.86.16,1.22,1.22,0,0,1-1.29-1.32,1.27,1.27,0,0,1,1.23-1.41,1.11,1.11,0,0,1,1.08,1.23,1.21,1.21,0,0,1,0,.23Zm1.4-.35a.68.68,0,0,0-.66-.77.8.8,0,0,0-.73.77Z"/><path class="cls-4" d="M411.33,312v3.16c0,.23,0,.5,0,.68h-.43l0-.46h0a1,1,0,0,1-.9.52,1.19,1.19,0,0,1-1.11-1.33,1.25,1.25,0,0,1,1.17-1.41.88.88,0,0,1,.79.4h0V312Zm-.47,2.29a1.36,1.36,0,0,0,0-.2.7.7,0,0,0-.69-.56c-.49,0-.78.44-.78,1s.26,1,.77,1a.72.72,0,0,0,.7-.57,1.12,1.12,0,0,0,0-.2Z"/><path class="cls-4" d="M366.68,333.52c0-.38,0-.84,0-1.18h0c-.09.32-.21.66-.35,1l-.48,1.33h-.27l-.44-1.31c-.13-.38-.24-.74-.32-1.06h0c0,.34,0,.8-.06,1.21l-.07,1.17h-.34l.19-2.73h.45l.47,1.32c.11.34.21.64.28.92h0c.07-.28.17-.57.29-.92l.48-1.32h.45l.18,2.73h-.35Z"/><path class="cls-4" d="M368.73,334.72l0-.25h0a.72.72,0,0,1-.6.3.56.56,0,0,1-.6-.57c0-.47.42-.73,1.18-.73v0a.4.4,0,0,0-.44-.45,1,1,0,0,0-.52.14l-.08-.23a1.21,1.21,0,0,1,.65-.18c.6,0,.75.41.75.81v.73a2.27,2.27,0,0,0,0,.47Zm-.05-1c-.39,0-.83.06-.83.44a.31.31,0,0,0,.34.34.49.49,0,0,0,.47-.33.36.36,0,0,0,0-.11Z"/><path class="cls-4" d="M369.6,333.37c0-.23,0-.43,0-.61h.32v.38h0a.6.6,0,0,1,.55-.43l.1,0v.33h-.12a.5.5,0,0,0-.48.46.79.79,0,0,0,0,.17v1h-.35Z"/><path class="cls-4" d="M371.34,332.21a.22.22,0,0,1-.23.22.21.21,0,0,1-.21-.22.22.22,0,1,1,.44,0Zm-.4,2.51v-2h.36v2Z"/><path class="cls-4" d="M373,334.72l0-.25h0a.74.74,0,0,1-.61.3.56.56,0,0,1-.6-.57c0-.47.43-.73,1.19-.73v0a.41.41,0,0,0-.45-.45,1,1,0,0,0-.51.14l-.08-.23a1.15,1.15,0,0,1,.64-.18c.6,0,.75.41.75.81v.73a3.28,3.28,0,0,0,0,.47Zm-.06-1c-.39,0-.83.06-.83.44a.32.32,0,0,0,.34.34.48.48,0,0,0,.47-.33.2.2,0,0,0,0-.11Z"/><path class="cls-4" d="M377,333.52c0-.38,0-.84,0-1.18h0c-.09.32-.2.66-.34,1l-.48,1.33h-.27l-.44-1.31c-.13-.38-.24-.74-.32-1.06h0c0,.34,0,.8-.05,1.21l-.07,1.17h-.34l.19-2.73h.45l.47,1.32c.11.34.2.64.27.92h0a8.3,8.3,0,0,1,.28-.92l.49-1.32h.45l.17,2.73h-.34Z"/><path class="cls-4" d="M379.76,333.72a1,1,0,0,1-1,1,.93.93,0,0,1-.94-1,1,1,0,0,1,1-1.05A.93.93,0,0,1,379.76,333.72Zm-1.56,0c0,.43.25.76.6.76s.59-.32.59-.76-.16-.76-.58-.76S378.2,333.37,378.2,333.74Z"/><path class="cls-4" d="M380.21,333.29c0-.2,0-.37,0-.53h.32l0,.32h0a.72.72,0,0,1,.64-.37c.28,0,.7.17.7.84v1.17h-.36v-1.13c0-.32-.12-.58-.45-.58a.51.51,0,0,0-.48.36.47.47,0,0,0,0,.17v1.18h-.35Z"/><path class="cls-4" d="M382.87,332.19v.57h.51V333h-.51v1.06c0,.24.07.38.27.38l.2,0,0,.26a.85.85,0,0,1-.32.05.48.48,0,0,1-.38-.15.72.72,0,0,1-.14-.51V333h-.3v-.27h.3v-.47Z"/><path class="cls-4" d="M384,333.81a.63.63,0,0,0,.68.68,1.4,1.4,0,0,0,.54-.1l.06.25a1.51,1.51,0,0,1-.65.12.91.91,0,0,1-1-1,1,1,0,0,1,.93-1.06.84.84,0,0,1,.81.93.72.72,0,0,1,0,.17Zm1.05-.26a.5.5,0,0,0-.49-.58.59.59,0,0,0-.55.58Z"/><path class="cls-4" d="M386.18,332.21a.2.2,0,0,1-.22.22.22.22,0,0,1-.22-.22A.22.22,0,0,1,386,332,.21.21,0,0,1,386.18,332.21Zm-.39,2.51v-2h.35v2Z"/><path class="cls-4" d="M386.73,333.37c0-.23,0-.43,0-.61H387v.38h0a.59.59,0,0,1,.54-.43l.1,0v.33h-.12a.5.5,0,0,0-.48.46c0,.05,0,.1,0,.17v1h-.36Z"/><path class="cls-4" d="M389.8,333.72a1,1,0,0,1-1,1,.93.93,0,0,1-.94-1,1,1,0,0,1,1-1.05A.94.94,0,0,1,389.8,333.72Zm-1.56,0c0,.43.25.76.59.76s.6-.32.6-.76-.17-.76-.59-.76S388.24,333.37,388.24,333.74Z"/><path class="cls-4" d="M368.19,339.55a1.71,1.71,0,0,1-1.69,1.92,1.68,1.68,0,0,1-1.64-1.85,1.73,1.73,0,0,1,1.69-1.91A1.66,1.66,0,0,1,368.19,339.55Zm-2.83.06c0,.78.43,1.47,1.17,1.47s1.16-.68,1.16-1.51-.38-1.48-1.16-1.48S365.36,338.81,365.36,339.61Z"/><path class="cls-4" d="M368.78,339.5c0-.27,0-.49,0-.71h.42l0,.43h0a.88.88,0,0,1,.82-.48.78.78,0,0,1,.74.52h0a1,1,0,0,1,.29-.34.89.89,0,0,1,.58-.18c.34,0,.86.22.86,1.13v1.54h-.47v-1.48c0-.5-.18-.81-.57-.81a.61.61,0,0,0-.56.44.79.79,0,0,0,0,.23v1.62h-.46v-1.57c0-.41-.18-.72-.55-.72a.64.64,0,0,0-.58.48.59.59,0,0,0,0,.23v1.58h-.47Z"/><path class="cls-4" d="M375.54,338.79c0,.19,0,.4,0,.72V341a1.5,1.5,0,0,1-.37,1.19,1.39,1.39,0,0,1-.95.32,1.67,1.67,0,0,1-.87-.22l.12-.36a1.43,1.43,0,0,0,.76.2c.49,0,.85-.25.85-.91V341h0a.92.92,0,0,1-.83.44,1.17,1.17,0,0,1-1.11-1.28,1.25,1.25,0,0,1,1.18-1.38.85.85,0,0,1,.81.45h0l0-.4Zm-.49,1a.69.69,0,0,0,0-.22.67.67,0,0,0-.66-.5c-.45,0-.78.38-.78,1s.26.94.77.94a.69.69,0,0,0,.66-.49.73.73,0,0,0,0-.25Z"/><path class="cls-4" d="M375.92,342.07a6.76,6.76,0,0,0,.32-1.29l.53,0a6.28,6.28,0,0,1-.51,1.31Z"/><path class="cls-4" d="M378.43,340.92a1.26,1.26,0,0,0,.62.19c.35,0,.51-.17.51-.39s-.13-.35-.48-.48-.7-.42-.7-.74a.81.81,0,0,1,.91-.76,1.28,1.28,0,0,1,.64.16l-.12.34a1,1,0,0,0-.53-.15c-.29,0-.44.16-.44.36s.15.31.49.44.69.4.69.79-.36.78-1,.78a1.46,1.46,0,0,1-.73-.18Z"/><path class="cls-4" d="M383,340.08a1.28,1.28,0,0,1-1.3,1.39,1.25,1.25,0,0,1-1.26-1.35,1.28,1.28,0,0,1,1.3-1.38A1.24,1.24,0,0,1,383,340.08Zm-2.08,0c0,.57.33,1,.8,1s.79-.42.79-1-.22-1-.78-1S380.92,339.61,380.92,340.11Z"/><path class="cls-4" d="M385,340.19a.84.84,0,0,0,.89.91,1.68,1.68,0,0,0,.73-.14l.08.34a2,2,0,0,1-.87.16,1.21,1.21,0,0,1-1.29-1.31,1.27,1.27,0,0,1,1.23-1.41,1.11,1.11,0,0,1,1.08,1.23,1.18,1.18,0,0,1,0,.22Zm1.39-.34a.68.68,0,0,0-.66-.78.8.8,0,0,0-.73.78Z"/><path class="cls-4" d="M387.65,338.79l.38.57c.09.14.18.28.26.42h0l.26-.43.37-.56h.51l-.89,1.27.92,1.35h-.54l-.39-.59c-.1-.15-.19-.3-.28-.45h0l-.28.45-.37.59h-.53l.93-1.34-.88-1.28Z"/><path class="cls-4" d="M390.46,338.06a.29.29,0,1,1-.58,0,.29.29,0,0,1,.29-.3A.28.28,0,0,1,390.46,338.06Zm-.52,3.35v-2.62h.47v2.62Z"/><path class="cls-4" d="M391.77,338v.75h.68v.37h-.68v1.41c0,.32.09.5.36.5a.91.91,0,0,0,.27,0l0,.36a1.19,1.19,0,0,1-.43.06.65.65,0,0,1-.51-.2,1,1,0,0,1-.18-.68v-1.42h-.41v-.37h.41v-.62Z"/><path class="cls-4" d="M393.22,340.19a.84.84,0,0,0,.9.91,1.63,1.63,0,0,0,.72-.14l.08.34a2,2,0,0,1-.87.16,1.21,1.21,0,0,1-1.28-1.31,1.27,1.27,0,0,1,1.22-1.41,1.1,1.1,0,0,1,1.08,1.23c0,.09,0,.17,0,.22Zm1.39-.34a.68.68,0,0,0-.66-.78.78.78,0,0,0-.72.78Z"/><path class="cls-4" d="M397.92,337.57v3.16c0,.24,0,.5,0,.68h-.43l0-.46h0a1,1,0,0,1-.89.52,1.2,1.2,0,0,1-1.12-1.33,1.25,1.25,0,0,1,1.17-1.4.87.87,0,0,1,.79.39h0v-1.56Zm-.48,2.29a.68.68,0,0,0,0-.2.7.7,0,0,0-.68-.55c-.5,0-.79.43-.79,1s.26,1,.78,1a.73.73,0,0,0,.71-.77Z"/><path class="cls-4" d="M398.62,341.13a.31.31,0,0,1,.32-.33.3.3,0,0,1,.31.33.31.31,0,0,1-.31.34A.32.32,0,0,1,398.62,341.13Zm.13-.77-.07-2.59h.51l-.07,2.59Z"/><path class="cls-5" d="M361.56,337.87a6.49,6.49,0,0,1-6.62,6.37,6.76,6.76,0,0,1-4.26-1.49,6.28,6.28,0,0,1-2.36-4.88,6.62,6.62,0,0,1,13.24,0Z"/><path class="cls-6" d="M350.68,342.75v-3.07h3.17v-1s-3.65-1.84,0-4.68,6.26,3.07,3.13,4.37l-.08,1.3h2.52v2.88"/><circle class="cls-3" cx="471.85" cy="337.87" r="5.73"/><path class="cls-10" d="M471.85,337c.6-1.65,1.63-2.62,2.45-2.49a1.23,1.23,0,0,1,.83.3,1.57,1.57,0,0,1,.62.87c.76,1.51-.82,4.21-3.9,6.75-3.08-2.54-4.66-5.24-3.9-6.75a1.57,1.57,0,0,1,.62-.87,1.23,1.23,0,0,1,.83-.3C470.22,334.37,471.25,335.34,471.85,337Z"/><circle class="cls-3" cx="468.81" cy="315.84" r="7.2"/><circle class="cls-3" cx="451.55" cy="315.84" r="7.2"/><line class="cls-11" x1="349.75" y1="305.37" x2="479.94" y2="305.37"/><circle class="cls-7" cx="468.81" cy="315.84" r="5.02"/><ellipse class="cls-3" cx="467.1" cy="314.77" rx="0.66" ry="1.69"/><ellipse class="cls-3" cx="470.37" cy="314.77" rx="0.66" ry="1.69"/><path class="cls-3" d="M470.17,319.19q-.63,0-1.32,0c-.48,0-1,0-1.39,0a1.25,1.25,0,0,1-.86-.36,1.2,1.2,0,0,1-.35-.86h5.13A1.22,1.22,0,0,1,470.17,319.19Z"/><rect id="Case-3" data-name="Case" class="cls-1" x="86.32" y="129.38" width="181.65" height="315.55" rx="22"/><rect id="Screen" class="cls-2" x="98.63" y="142.61" width="156.04" height="288.91" rx="14.39"/><circle id="Logo_-_Temlate" data-name="Logo - Temlate" class="cls-2" cx="176.65" cy="237.12" r="21.45"/><path class="cls-4" d="M166.24,233.71h1v6.68h3.2v.81h-4.17Z"/><path class="cls-4" d="M176.16,238.47a2.62,2.62,0,0,1-2.67,2.85,2.55,2.55,0,0,1-2.58-2.76,2.63,2.63,0,0,1,2.67-2.86A2.54,2.54,0,0,1,176.16,238.47Zm-4.26.05c0,1.18.68,2.07,1.63,2.07s1.64-.88,1.64-2.09c0-.91-.46-2.06-1.62-2.06S171.9,237.5,171.9,238.52Z"/><path class="cls-4" d="M182,235.82c0,.39,0,.83,0,1.48v3.12a3.11,3.11,0,0,1-.77,2.46,2.85,2.85,0,0,1-2,.64,3.43,3.43,0,0,1-1.78-.44l.24-.75a3,3,0,0,0,1.58.43c1,0,1.73-.53,1.73-1.88v-.6h0a1.92,1.92,0,0,1-1.71.9,2.4,2.4,0,0,1-2.29-2.62,2.59,2.59,0,0,1,2.42-2.86,1.8,1.8,0,0,1,1.68.94h0l0-.82ZM181,238a1.29,1.29,0,0,0-.06-.45,1.4,1.4,0,0,0-1.36-1c-.94,0-1.6.79-1.6,2,0,1.06.53,1.93,1.59,1.93a1.41,1.41,0,0,0,1.35-1,1.53,1.53,0,0,0,.08-.52Z"/><path class="cls-4" d="M188.47,238.47a2.62,2.62,0,0,1-2.67,2.85,2.55,2.55,0,0,1-2.58-2.76,2.63,2.63,0,0,1,2.66-2.86A2.54,2.54,0,0,1,188.47,238.47Zm-4.26.05c0,1.18.67,2.07,1.63,2.07s1.63-.88,1.63-2.09c0-.91-.45-2.06-1.61-2.06S184.21,237.5,184.21,238.52Z"/><rect id="Button_-_Username" data-name="Button - Username" class="cls-12" x="131.61" y="284.02" width="90.08" height="16.12" rx="5.97"/><rect id="Button_-_Password" data-name="Button - Password" class="cls-12" x="132.11" y="309.03" width="90.08" height="16.12" rx="5.97"/><rect id="Button_-_LogIn" data-name="Button - LogIn" class="cls-12" x="153.99" y="348.48" width="46.31" height="13.69" rx="5.07"/><path class="cls-4" d="M160.34,290.23v3.33c0,1.26.56,1.79,1.31,1.79s1.37-.55,1.37-1.79v-3.33h.73v3.28c0,1.72-.91,2.43-2.12,2.43s-2-.66-2-2.4v-3.31Z"/><path class="cls-4" d="M164.84,295.1a1.91,1.91,0,0,0,1,.29c.53,0,.78-.27.78-.6s-.2-.54-.75-.74c-.72-.26-1.06-.66-1.06-1.14a1.25,1.25,0,0,1,1.39-1.19,2,2,0,0,1,1,.25l-.18.54a1.57,1.57,0,0,0-.83-.24c-.43,0-.67.25-.67.55s.24.49.76.69c.71.26,1.06.61,1.06,1.21s-.55,1.21-1.5,1.21a2.4,2.4,0,0,1-1.14-.27Z"/><path class="cls-4" d="M168.64,294a1.3,1.3,0,0,0,1.39,1.4,2.72,2.72,0,0,0,1.11-.21l.13.52a3.21,3.21,0,0,1-1.34.25,1.87,1.87,0,0,1-2-2,2,2,0,0,1,1.89-2.18,1.71,1.71,0,0,1,1.67,1.9c0,.15,0,.27,0,.35Zm2.15-.53a1,1,0,0,0-1-1.19,1.21,1.21,0,0,0-1.13,1.19Z"/><path class="cls-4" d="M172.41,293.07c0-.47,0-.88,0-1.25H173l0,.79h0a1.21,1.21,0,0,1,1.11-.89.71.71,0,0,1,.21,0v.69a1,1,0,0,0-.25,0,1,1,0,0,0-1,.94,1.67,1.67,0,0,0,0,.34v2.15h-.72Z"/><path class="cls-4" d="M175.17,292.91c0-.42,0-.76,0-1.09h.65l0,.66h0a1.49,1.49,0,0,1,1.33-.76c.56,0,1.43.34,1.43,1.72v2.41h-.73v-2.33c0-.65-.25-1.19-.94-1.19a1,1,0,0,0-1,.75,1.16,1.16,0,0,0,0,.34v2.43h-.73Z"/><path class="cls-4" d="M182,295.85l-.06-.51h0a1.5,1.5,0,0,1-1.23.6,1.15,1.15,0,0,1-1.24-1.16c0-1,.87-1.51,2.43-1.5v-.08a.83.83,0,0,0-.92-.93,2,2,0,0,0-1,.3l-.16-.49a2.53,2.53,0,0,1,1.32-.36c1.23,0,1.53.85,1.53,1.65v1.51a5.74,5.74,0,0,0,.07,1Zm-.1-2.06c-.8,0-1.71.13-1.71.91a.65.65,0,0,0,.69.7,1,1,0,0,0,1-.68.59.59,0,0,0,0-.23Z"/><path class="cls-4" d="M183.81,292.91c0-.42,0-.76,0-1.09h.64l0,.65h0a1.39,1.39,0,0,1,1.27-.75,1.19,1.19,0,0,1,1.14.81h0a1.54,1.54,0,0,1,.45-.52,1.32,1.32,0,0,1,.89-.29c.53,0,1.32.35,1.32,1.75v2.38h-.71v-2.28c0-.78-.29-1.25-.88-1.25a1,1,0,0,0-.87.67,1.32,1.32,0,0,0,0,.37v2.49h-.72v-2.42c0-.64-.28-1.11-.84-1.11a1,1,0,0,0-.91.74,1,1,0,0,0-.06.36v2.43h-.71Z"/><path class="cls-4" d="M191.16,294a1.3,1.3,0,0,0,1.39,1.4,2.72,2.72,0,0,0,1.11-.21l.13.52a3.21,3.21,0,0,1-1.34.25,1.87,1.87,0,0,1-2-2,2,2,0,0,1,1.89-2.18,1.71,1.71,0,0,1,1.67,1.9c0,.15,0,.27,0,.35Zm2.15-.53a1,1,0,0,0-1-1.19,1.21,1.21,0,0,0-1.13,1.19Z"/><path class="cls-4" d="M160.89,315.43a8.21,8.21,0,0,1,1.39-.11,2.33,2.33,0,0,1,1.58.47,1.55,1.55,0,0,1,.49,1.18,1.66,1.66,0,0,1-.44,1.2,2.33,2.33,0,0,1-1.71.61,2.51,2.51,0,0,1-.58,0V321h-.73Zm.73,2.71a2.41,2.41,0,0,0,.6.06c.87,0,1.4-.43,1.4-1.2s-.52-1.1-1.32-1.1a3.13,3.13,0,0,0-.68.06Z"/><path class="cls-4" d="M167.31,321l-.05-.51h0a1.49,1.49,0,0,1-1.23.6,1.15,1.15,0,0,1-1.24-1.15c0-1,.87-1.51,2.43-1.5v-.09a.83.83,0,0,0-.92-.93,2.07,2.07,0,0,0-1.05.3l-.16-.48a2.44,2.44,0,0,1,1.32-.36c1.23,0,1.53.84,1.53,1.65V320a5.54,5.54,0,0,0,.07,1Zm-.1-2.06c-.8,0-1.71.13-1.71.91a.64.64,0,0,0,.69.7,1,1,0,0,0,1-.67.69.69,0,0,0,.05-.24Z"/><path class="cls-4" d="M169,320.23a1.91,1.91,0,0,0,1,.29c.54,0,.79-.26.79-.6s-.21-.54-.75-.74c-.73-.26-1.07-.66-1.07-1.14a1.24,1.24,0,0,1,1.39-1.18,1.92,1.92,0,0,1,1,.25l-.18.53a1.57,1.57,0,0,0-.82-.23c-.44,0-.68.25-.68.55s.24.48.77.68c.7.27,1,.62,1,1.22s-.55,1.21-1.5,1.21a2.31,2.31,0,0,1-1.14-.28Z"/><path class="cls-4" d="M172.3,320.23a1.91,1.91,0,0,0,1,.29c.54,0,.79-.26.79-.6s-.21-.54-.75-.74c-.73-.26-1.07-.66-1.07-1.14a1.24,1.24,0,0,1,1.39-1.18,1.92,1.92,0,0,1,1,.25l-.18.53a1.58,1.58,0,0,0-.83-.23c-.43,0-.67.25-.67.55s.24.48.77.68c.7.27,1.05.62,1.05,1.22s-.55,1.21-1.5,1.21a2.29,2.29,0,0,1-1.14-.28Z"/><path class="cls-4" d="M176,317l.53,2.05c.12.45.23.87.3,1.28h0c.09-.41.22-.84.35-1.27l.66-2.06h.62l.62,2c.15.48.27.9.36,1.31h0a11.43,11.43,0,0,1,.3-1.31l.58-2h.72l-1.3,4h-.66l-.62-1.92a13.63,13.63,0,0,1-.36-1.33h0a12.42,12.42,0,0,1-.37,1.34l-.65,1.91h-.67l-1.21-4Z"/><path class="cls-4" d="M185.39,318.93a2,2,0,0,1-2,2.14,1.92,1.92,0,0,1-1.94-2.07,2,2,0,0,1,2-2.14A1.91,1.91,0,0,1,185.39,318.93Zm-3.2,0c0,.89.51,1.55,1.23,1.55s1.22-.65,1.22-1.56c0-.69-.34-1.55-1.2-1.55S182.19,318.21,182.19,319Z"/><path class="cls-4" d="M186.32,318.21c0-.48,0-.89,0-1.26h.65l0,.79h0a1.22,1.22,0,0,1,1.12-.88l.21,0v.69l-.25,0a1,1,0,0,0-1,.94,1.76,1.76,0,0,0,0,.34V321h-.72Z"/><path class="cls-4" d="M192.44,315.07v4.87c0,.36,0,.77,0,1h-.66l0-.7h0a1.5,1.5,0,0,1-1.38.79,1.84,1.84,0,0,1-1.72-2.05,1.92,1.92,0,0,1,1.81-2.16,1.35,1.35,0,0,1,1.21.61h0v-2.4Zm-.73,3.52a1.63,1.63,0,0,0,0-.31,1.09,1.09,0,0,0-1.06-.85c-.76,0-1.21.67-1.21,1.56s.4,1.49,1.19,1.49a1.11,1.11,0,0,0,1.08-.87,1.58,1.58,0,0,0,0-.32Z"/><path class="cls-4" d="M169.47,354H170v3.9h1.87v.47h-2.43Z"/><path class="cls-4" d="M175.26,356.78a1.54,1.54,0,0,1-1.57,1.67,1.49,1.49,0,0,1-1.5-1.61,1.53,1.53,0,0,1,1.56-1.67A1.48,1.48,0,0,1,175.26,356.78Zm-2.49,0c0,.68.39,1.2.95,1.2s.95-.51.95-1.22c0-.53-.26-1.2-.94-1.2S172.77,356.22,172.77,356.82Z"/><path class="cls-4" d="M178.68,355.24c0,.23,0,.48,0,.86v1.82a1.8,1.8,0,0,1-.45,1.44,1.67,1.67,0,0,1-1.14.37,2,2,0,0,1-1-.26l.14-.43a1.77,1.77,0,0,0,.92.25c.59,0,1-.31,1-1.1v-.35h0a1.12,1.12,0,0,1-1,.53,1.4,1.4,0,0,1-1.33-1.53,1.5,1.5,0,0,1,1.41-1.67,1,1,0,0,1,1,.54h0l0-.47Zm-.59,1.24a1,1,0,0,0,0-.26.83.83,0,0,0-.8-.6c-.55,0-.94.46-.94,1.18s.31,1.13.93,1.13a.83.83,0,0,0,.79-.58,1.12,1.12,0,0,0,.05-.31Z"/><path class="cls-4" d="M180.18,354v4.37h-.57V354Z"/><path class="cls-4" d="M181.21,356.09c0-.32,0-.59,0-.85h.51l0,.52h0a1.16,1.16,0,0,1,1-.59c.44,0,1.11.26,1.11,1.33v1.88h-.57v-1.81c0-.51-.19-.93-.73-.93a.82.82,0,0,0-.76.59.68.68,0,0,0,0,.26v1.89h-.57Z"/><path class="cls-13" d="M144.68,410.6h2.86v.57h-2.17v1.76h2v.57h-2v2.4h-.69Z"/><path class="cls-13" d="M151.69,414a1.86,1.86,0,0,1-1.89,2,1.82,1.82,0,0,1-1.83-2,1.86,1.86,0,0,1,1.89-2A1.81,1.81,0,0,1,151.69,414Zm-3,0c0,.84.48,1.47,1.16,1.47S151,414.85,151,414c0-.65-.33-1.47-1.15-1.47S148.67,413.28,148.67,414Z"/><path class="cls-13" d="M152.57,413.28c0-.45,0-.83,0-1.19h.6l0,.75h0a1.15,1.15,0,0,1,1.05-.84.6.6,0,0,1,.2,0v.65l-.24,0a1,1,0,0,0-.93.89,2.69,2.69,0,0,0,0,.32v2h-.68Z"/><path class="cls-13" d="M156.16,411v1.09h1v.53h-1v2.05c0,.48.14.74.52.74a1.75,1.75,0,0,0,.4,0l0,.52a1.89,1.89,0,0,1-.62.09,1,1,0,0,1-.75-.29,1.43,1.43,0,0,1-.26-1v-2.08h-.59v-.53h.59v-.91Z"/><path class="cls-13" d="M161.17,412.09c0,.28,0,.58,0,1.05v2.21a2.18,2.18,0,0,1-.54,1.74,2,2,0,0,1-1.39.46,2.42,2.42,0,0,1-1.27-.32l.18-.53a2.1,2.1,0,0,0,1.11.3c.71,0,1.23-.37,1.23-1.33v-.42h0a1.39,1.39,0,0,1-1.22.64,1.71,1.71,0,0,1-1.62-1.86,1.83,1.83,0,0,1,1.72-2,1.27,1.27,0,0,1,1.19.67h0l0-.58Zm-.72,1.51a.8.8,0,0,0,0-.32,1,1,0,0,0-1-.73c-.67,0-1.14.56-1.14,1.44s.38,1.37,1.13,1.37a1,1,0,0,0,1-.71,1.18,1.18,0,0,0,0-.37Z"/><path class="cls-13" d="M165.73,414a1.86,1.86,0,0,1-1.89,2,1.82,1.82,0,0,1-1.83-2,1.87,1.87,0,0,1,1.89-2A1.81,1.81,0,0,1,165.73,414Zm-3,0c0,.84.48,1.47,1.16,1.47S165,414.85,165,414c0-.65-.33-1.47-1.15-1.47S162.71,413.28,162.71,414Z"/><path class="cls-13" d="M167.44,411v1.09h1v.53h-1v2.05c0,.48.14.74.52.74a1.75,1.75,0,0,0,.4,0l0,.52a1.78,1.78,0,0,1-.61.09,1,1,0,0,1-.75-.29,1.43,1.43,0,0,1-.27-1v-2.08h-.59v-.53h.59v-.91Z"/><path class="cls-13" d="M171.59,410.6v3.14c0,1.19.53,1.69,1.24,1.69s1.29-.52,1.29-1.69V410.6h.69v3.09c0,1.63-.86,2.3-2,2.3s-1.9-.62-1.9-2.27V410.6Z"/><path class="cls-13" d="M175.83,415.19a1.78,1.78,0,0,0,.91.28c.51,0,.74-.25.74-.57s-.19-.51-.7-.7c-.69-.24-1-.62-1-1.08a1.17,1.17,0,0,1,1.31-1.12,2,2,0,0,1,.94.24l-.17.5a1.54,1.54,0,0,0-.78-.22c-.41,0-.64.24-.64.52s.23.46.72.65c.66.25,1,.58,1,1.15s-.52,1.14-1.42,1.14a2.14,2.14,0,0,1-1.07-.26Z"/><path class="cls-13" d="M179.43,414.12a1.22,1.22,0,0,0,1.3,1.33,2.51,2.51,0,0,0,1.06-.2l.12.49a2.94,2.94,0,0,1-1.27.24,1.77,1.77,0,0,1-1.87-1.92,1.85,1.85,0,0,1,1.78-2.06,1.62,1.62,0,0,1,1.58,1.8,2,2,0,0,1,0,.32Zm2-.49a1,1,0,0,0-1-1.13,1.15,1.15,0,0,0-1.06,1.13Z"/><path class="cls-13" d="M183,413.28c0-.45,0-.83,0-1.19h.61l0,.75h0a1.15,1.15,0,0,1,1-.84.64.64,0,0,1,.2,0v.65l-.24,0a1,1,0,0,0-.93.89,2.69,2.69,0,0,0,0,.32v2H183Z"/><path class="cls-13" d="M190.68,414a1.87,1.87,0,0,1-1.9,2,1.82,1.82,0,0,1-1.83-2,1.87,1.87,0,0,1,1.89-2A1.81,1.81,0,0,1,190.68,414Zm-3,0c0,.84.48,1.47,1.16,1.47S190,414.85,190,414c0-.65-.33-1.47-1.14-1.47S187.65,413.28,187.65,414Z"/><path class="cls-13" d="M191.55,413.28c0-.45,0-.83,0-1.19h.6l0,.75h0a1.15,1.15,0,0,1,1-.84.6.6,0,0,1,.2,0v.65l-.24,0a1,1,0,0,0-.93.89,2.69,2.69,0,0,0,0,.32v2h-.68Z"/><path class="cls-13" d="M195.81,410.66a7.54,7.54,0,0,1,1.32-.1,2.16,2.16,0,0,1,1.49.44,1.41,1.41,0,0,1,.46,1.11,1.54,1.54,0,0,1-.41,1.13,2.17,2.17,0,0,1-1.62.58,2.37,2.37,0,0,1-.55,0v2.12h-.69Zm.69,2.56a2.32,2.32,0,0,0,.57,0c.82,0,1.33-.4,1.33-1.13s-.5-1-1.26-1a3.07,3.07,0,0,0-.64,0Z"/><path class="cls-13" d="M201.88,415.9l0-.48h0a1.41,1.41,0,0,1-1.16.57,1.09,1.09,0,0,1-1.17-1.1c0-.92.82-1.42,2.29-1.41v-.08a.78.78,0,0,0-.86-.88,1.88,1.88,0,0,0-1,.28l-.16-.46A2.39,2.39,0,0,1,201,412c1.17,0,1.45.8,1.45,1.56V415a6.22,6.22,0,0,0,.06.91Zm-.1-1.94c-.76,0-1.61.11-1.61.86a.62.62,0,0,0,.65.66,1,1,0,0,0,.92-.64.85.85,0,0,0,0-.22Z"/><path class="cls-13" d="M203.47,415.19a1.78,1.78,0,0,0,.91.28c.51,0,.74-.25.74-.57s-.19-.51-.7-.7c-.69-.24-1-.62-1-1.08a1.17,1.17,0,0,1,1.31-1.12,2,2,0,0,1,.94.24l-.17.5a1.54,1.54,0,0,0-.78-.22c-.41,0-.64.24-.64.52s.23.46.72.65c.67.25,1,.58,1,1.15s-.52,1.14-1.42,1.14a2.14,2.14,0,0,1-1.07-.26Z"/><path class="cls-13" d="M206.59,415.19a1.75,1.75,0,0,0,.91.28c.51,0,.74-.25.74-.57s-.2-.51-.71-.7c-.68-.24-1-.62-1-1.08a1.17,1.17,0,0,1,1.31-1.12,2,2,0,0,1,.94.24l-.18.5a1.51,1.51,0,0,0-.78-.22c-.4,0-.63.24-.63.52s.23.46.72.65c.66.25,1,.58,1,1.15s-.52,1.14-1.42,1.14a2.11,2.11,0,0,1-1.07-.26Z"/></g><g id="Arrows"><path class="cls-14" d="M477.58,280.48h46.67a4.68,4.68,0,0,1,4.67,4.67V304a4.67,4.67,0,0,0,4.67,4.67H544.9l-9.43-6"/><path class="cls-14" d="M209.9,355.33h77a7.39,7.39,0,0,0,7.39-7.39V290.18a7.38,7.38,0,0,1,7.38-7.39h12.38l-15.95-6.32"/></g></svg>