<svg id="_1_" data-name="1ยบ" xmlns="http://www.w3.org/2000/svg" viewBox="0 0 841.89 595.28"><defs><style>.cls-1,.cls-4{fill:#d8d9dd;}.cls-1,.cls-9{stroke:#211915;}.cls-1,.cls-11,.cls-12,.cls-2,.cls-9{stroke-miterlimit:10;}.cls-10,.cls-2{fill:#edeef0;}.cls-2{stroke:#c2c3c9;}.cls-3{fill:#211915;}.cls-11,.cls-12,.cls-5{fill:none;}.cls-6{fill:#c2c3c9;}.cls-7{fill:#9a999e;}.cls-8,.cls-9{fill:#aeadb3;}.cls-9{stroke-width:0.3px;}.cls-11,.cls-12{stroke:#aeadb3;}.cls-11{stroke-width:0.5px;}.cls-12{stroke-width:3px;}</style></defs><title>User Flow - Cowork Space Manager [Recovered]-02</title><g id="_2_Core_Flux" data-name=" 2 Core Flux"><rect id="Case" class="cls-1" x="226.86" y="135.29" width="181.65" height="315.55" rx="22"/><rect id="Background" class="cls-2" x="239.66" y="145.79" width="156.04" height="288.91" rx="14.39"/><path class="cls-3" d="M256.68,176h-3.32v-1.2h8.09V176h-3.29v9.72h-1.43Z"/><path class="cls-3" d="M268.56,181.77a3.84,3.84,0,0,1-3.48,4.15h-.42a3.72,3.72,0,0,1-3.77-3.67c0-.11,0-.22,0-.33a3.83,3.83,0,0,1,3.47-4.16h.42a3.71,3.71,0,0,1,3.78,3.64C268.57,181.52,268.57,181.65,268.56,181.77Zm-6.22.08c0,1.72,1,3,2.38,3s2.38-1.28,2.38-3c0-1.33-.66-3-2.35-3S262.34,180.36,262.34,181.85Z"/><path class="cls-3" d="M277.16,174.25v9.48c0,.69,0,1.49.06,2h-1.28l-.06-1.36h0a2.87,2.87,0,0,1-2.67,1.54c-1.9,0-3.35-1.6-3.35-4,0-2.6,1.6-4.21,3.51-4.21a2.63,2.63,0,0,1,2.37,1.2h0v-4.68Zm-1.43,6.85a3.05,3.05,0,0,0-.06-.6,2.09,2.09,0,0,0-2.06-1.65c-1.48,0-2.35,1.3-2.35,3s.78,2.9,2.32,2.9a2.15,2.15,0,0,0,2.09-1.7,3.18,3.18,0,0,0,.06-.62Z"/><path class="cls-3" d="M283.85,185.75l-.12-1h0a2.93,2.93,0,0,1-2.4,1.17,2.23,2.23,0,0,1-2.39-2.07,1.09,1.09,0,0,1,0-.18c0-1.9,1.68-2.93,4.71-2.92v-.16a1.61,1.61,0,0,0-1.39-1.81,1.7,1.7,0,0,0-.39,0,3.91,3.91,0,0,0-2,.58l-.32-.94a4.82,4.82,0,0,1,2.57-.7c2.4,0,3,1.64,3,3.21v2.93a11.8,11.8,0,0,0,.13,1.88Zm-.21-4c-1.56,0-3.33.24-3.33,1.77a1.27,1.27,0,0,0,1.17,1.36h.18a2,2,0,0,0,1.9-1.31,1.77,1.77,0,0,0,.08-.46Z"/><path class="cls-3" d="M287.71,177.91l1.71,4.63c.18.52.38,1.14.51,1.61h0c.14-.47.31-1.07.5-1.64l1.56-4.6h1.5l-2.14,5.59c-1,2.69-1.71,4.07-2.69,4.91a3.66,3.66,0,0,1-1.75.92l-.35-1.2a3.79,3.79,0,0,0,1.24-.69,4.27,4.27,0,0,0,1.2-1.59,1.06,1.06,0,0,0,.12-.34,1.56,1.56,0,0,0-.1-.37l-2.9-7.23Z"/><path class="cls-3" d="M390.32,292.92l-2.23,6.58H389l.69-2.07H392l.71,2.07h.91l-2.25-6.58Zm-.5,3.85.65-1.91c.13-.4.23-.8.33-1.19h0c.1.38.2.77.34,1.2l.65,1.9Z"/><path id="Image" class="cls-4" d="M391.48,206.45h3v83.8h-3a4.6,4.6,0,0,1-4.61-4.61V211.06A4.6,4.6,0,0,1,391.48,206.45Z"/><path class="cls-5" d="M408.51,304a.75.75,0,0,0-.72.59.61.61,0,0,0,0,.19v.45a.67.67,0,0,0,0,.2.72.72,0,0,0,.71.55c.5,0,.79-.41.79-1S409,304,408.51,304Z"/><path d="M391,305a8.08,8.08,0,0,0-.2.85h0c-.06-.26-.13-.54-.23-.85l-.4-1.31h-.4l-.45,1.31c-.09.28-.17.56-.23.82h0c-.05-.27-.12-.54-.19-.83l-.35-1.33h-.48l.78,2.62h.44l.42-1.25c.09-.28.17-.55.24-.86h0a8.37,8.37,0,0,0,.23.86l.4,1.25h.43l.84-2.62h-.47Z"/><path d="M392.6,302.62a.29.29,0,0,0-.3.28v0a.3.3,0,1,0,.3-.3Z"/><rect x="392.36" y="303.65" width="0.47" height="2.61"/><path d="M394.16,302.9l-.47.13v.62h-.4V304h.4v1.43a.92.92,0,0,0,.19.68.65.65,0,0,0,.51.2,1.52,1.52,0,0,0,.42-.06v-.36h-.28c-.26,0-.35-.18-.35-.51V304h.68v-.36h-.7Z"/><path id="Hour_-_Background" data-name="Hour - Background" class="cls-6" d="M388.16,201.62h6.26v13.06h-6.26a4.84,4.84,0,0,1-4.84-4.84v-3.39a4.84,4.84,0,0,1,4.84-4.84Z"/><path class="cls-3" d="M387.74,205.6h0l-1.1.59-.17-.65,1.39-.74h.73v6.35h-.83Z"/><path class="cls-3" d="M395,204.8v.56l-2.77,5.79h-.89l2.76-5.62H391v-.71Z"/><path class="cls-3" d="M261.5,299v-2.8l-2.09-3.8h1l.93,1.82c.25.5.45.9.66,1.36h0c.18-.43.41-.86.66-1.36l.95-1.82h1l-2.21,3.79V299Z"/><path class="cls-3" d="M268.83,296.54a2.31,2.31,0,0,1-2.12,2.5h-.24a2.25,2.25,0,0,1-2.28-2.22,1.48,1.48,0,0,1,0-.21,2.31,2.31,0,0,1,2.11-2.51h.24a2.24,2.24,0,0,1,2.29,2.19A2.09,2.09,0,0,1,268.83,296.54Zm-3.76,0a1.64,1.64,0,0,0,1.44,1.82c.84,0,1.44-.78,1.44-1.84,0-.8-.4-1.82-1.42-1.82s-1.46,1-1.46,1.89Z"/><path class="cls-3" d="M274,294.21v4.05a2.75,2.75,0,0,1-.67,2.16,2.53,2.53,0,0,1-1.73.57,3.08,3.08,0,0,1-1.57-.39l.21-.66a2.61,2.61,0,0,0,1.39.37c.88,0,1.53-.46,1.53-1.65v-.53h0a1.7,1.7,0,0,1-1.51.8,2.12,2.12,0,0,1-2-2.23.22.22,0,0,0,0-.08,2.27,2.27,0,0,1,2-2.51h.13a1.59,1.59,0,0,1,1.48.83h0v-.72Zm-.89,1.87a1,1,0,0,0-.05-.39,1.24,1.24,0,0,0-1.2-.91c-.82,0-1.41.69-1.41,1.79,0,.93.47,1.7,1.4,1.7a1.25,1.25,0,0,0,1.19-.88,1.43,1.43,0,0,0,.07-.46Z"/><path class="cls-3" d="M278,299l-.07-.6h0a1.78,1.78,0,0,1-1.45.7,1.35,1.35,0,0,1-1.45-1.25v-.11c0-1.14,1-1.77,2.85-1.76v-.1a1,1,0,0,0-.9-1.09h-.18a2.34,2.34,0,0,0-1.23.35l-.2-.57a3,3,0,0,1,1.56-.42c1.45,0,1.8,1,1.8,1.94v1.77a6.25,6.25,0,0,0,.08,1.14Zm-.13-2.42c-.94,0-2,.15-2,1.07a.77.77,0,0,0,.72.82h.09a1.19,1.19,0,0,0,1.15-.8.61.61,0,0,0,0-.27Z"/><path class="cls-3" d="M286.79,298.73a4.13,4.13,0,0,1-1.74.31,3.09,3.09,0,0,1-3.26-2.89c0-.15,0-.29,0-.44a3.28,3.28,0,0,1,3.09-3.46h.35a3.34,3.34,0,0,1,1.56.29l-.2.69a3.2,3.2,0,0,0-1.33-.27,2.45,2.45,0,0,0-2.58,2.31,2.81,2.81,0,0,0,0,.41,2.39,2.39,0,0,0,2.11,2.64,2,2,0,0,0,.42,0,3.48,3.48,0,0,0,1.39-.27Z"/><path class="cls-3" d="M287.83,292h.86v7h-.86Z"/><path class="cls-3" d="M292.75,299l-.06-.6h0a1.78,1.78,0,0,1-1.45.7,1.35,1.35,0,0,1-1.45-1.25v-.11c0-1.14,1-1.77,2.85-1.76v-.1a1,1,0,0,0-.9-1.09h-.18a2.34,2.34,0,0,0-1.23.35l-.2-.57a3,3,0,0,1,1.56-.42c1.45,0,1.8,1,1.8,1.94v1.77a6.25,6.25,0,0,0,.08,1.14Zm-.12-2.42c-.94,0-2,.15-2,1.07a.76.76,0,0,0,.7.82h.11a1.19,1.19,0,0,0,1.15-.8.86.86,0,0,0,.05-.27Z"/><path class="cls-3" d="M294.73,298.07a2.26,2.26,0,0,0,1.13.34c.63,0,.92-.32.92-.71s-.24-.63-.88-.87c-.85-.3-1.25-.77-1.25-1.34a1.46,1.46,0,0,1,1.52-1.4h.11a2.4,2.4,0,0,1,1.17.3l-.22.62a2,2,0,0,0-1-.27c-.51,0-.79.29-.79.64s.28.57.9.81c.82.31,1.24.72,1.24,1.42a1.58,1.58,0,0,1-1.77,1.42,2.69,2.69,0,0,1-1.33-.32Z"/><path class="cls-3" d="M298.6,298.07a2.26,2.26,0,0,0,1.13.34c.63,0,.92-.32.92-.71s-.24-.63-.88-.87c-.85-.3-1.25-.77-1.25-1.34a1.46,1.46,0,0,1,1.52-1.4h.12a2.4,2.4,0,0,1,1.17.3l-.22.62a2,2,0,0,0-1-.27c-.51,0-.79.29-.79.64s.28.57.9.81c.82.31,1.24.72,1.24,1.42a1.58,1.58,0,0,1-1.77,1.42,2.69,2.69,0,0,1-1.33-.32Z"/><rect id="Image-2" class="cls-4" x="259.29" y="206.45" width="112.96" height="83.8" rx="4.61"/><path class="cls-3" d="M261,303.65l.35,1.33c.07.29.14.56.19.83h0c.06-.26.15-.54.23-.82l.43-1.34h.4L263,305c.1.31.18.59.24.85h0a8.08,8.08,0,0,1,.2-.85l.37-1.31h.47l-.84,2.62H263l-.4-1.25a8.37,8.37,0,0,1-.23-.86h0c-.07.31-.15.58-.24.86l-.42,1.25h-.44l-.78-2.62Z"/><path class="cls-3" d="M265.3,302.92a.28.28,0,0,1-.27.29h0a.29.29,0,0,1-.29-.27v0a.29.29,0,0,1,.28-.3h0a.28.28,0,0,1,.29.27Zm-.53,3.35v-2.62h.47v2.62Z"/><path class="cls-3" d="M266.61,302.9v.75h.68V304h-.68v1.41c0,.33.09.51.35.51h.28v.36a1.52,1.52,0,0,1-.42.06.65.65,0,0,1-.51-.2.92.92,0,0,1-.19-.68V304h-.4v-.36h.4V303Z"/><path class="cls-3" d="M267.82,302.43h.48v1.63h0a.83.83,0,0,1,.34-.33,1,1,0,0,1,.49-.14c.35,0,.91.22.91,1.12v1.56h-.48v-1.51c0-.42-.15-.77-.6-.77a.68.68,0,0,0-.64.47.45.45,0,0,0,0,.23v1.58h-.48Z"/><path class="cls-3" d="M272,304.51v-.86h.43v.45h0a1,1,0,0,1,.93-.51,1.19,1.19,0,0,1,1.12,1.26s0,0,0,.07a1.25,1.25,0,0,1-1.06,1.4h-.13a.92.92,0,0,1-.8-.41h0v1.42H272Zm.47.69a.67.67,0,0,0,0,.2.72.72,0,0,0,.71.55c.5,0,.79-.41.79-1s-.27-1-.77-1a.75.75,0,0,0-.72.59.61.61,0,0,0,0,.19Z"/><path class="cls-3" d="M275,304.47v-.82h.41v.52h0a.79.79,0,0,1,.73-.58h.13V304h-.16a.66.66,0,0,0-.64.61.81.81,0,0,0,0,.22v1.4H275Z"/><path class="cls-3" d="M279.16,304.94a1.29,1.29,0,0,1-1.16,1.39h-.14a1.25,1.25,0,0,1-1.3-1.2V305a1.3,1.3,0,0,1,1.19-1.39h.11a1.23,1.23,0,0,1,1.3,1.17Zm-2.08,0c0,.58.33,1,.8,1s.79-.43.79-1-.22-1-.78-1-.85.53-.85,1.06Z"/><path class="cls-3" d="M279.77,306.27V304h-.37v-.36h.37v-.12a1.22,1.22,0,0,1,.3-.91.93.93,0,0,1,.64-.25,1.1,1.1,0,0,1,.4.08l-.06.37a.56.56,0,0,0-.31-.06c-.4,0-.5.35-.5.75v.14h.63V304h-.63v2.26Z"/><path class="cls-3" d="M285,306.15a2.45,2.45,0,0,1-1,.17,1.69,1.69,0,0,1-1.8-1.59,1,1,0,0,1,0-.25,1.81,1.81,0,0,1,1.71-1.91h.19a1.85,1.85,0,0,1,.87.16l-.12.38a1.79,1.79,0,0,0-.69-.11,1.36,1.36,0,0,0-1.43,1.29,1.48,1.48,0,0,0,0,.21,1.32,1.32,0,0,0,1.18,1.46h.22a2,2,0,0,0,.77-.15Z"/><path class="cls-3" d="M285.57,302.43h.48v3.84h-.48Z"/><path class="cls-3" d="M288.3,306.27v-.33h0a1,1,0,0,1-.8.39.76.76,0,0,1-.8-.7v-.05c0-.64.57-1,1.58-1v-.05a.54.54,0,0,0-.46-.61h-.14a1.26,1.26,0,0,0-.68.2l-.11-.31a1.56,1.56,0,0,1,.86-.24c.8,0,1,.55,1,1.07v1a3.32,3.32,0,0,0,0,.63Zm-.07-1.34c-.52,0-1.11.08-1.11.59a.41.41,0,0,0,.37.45h.08a.65.65,0,0,0,.63-.43.38.38,0,0,0,0-.15Z"/><path class="cls-3" d="M289.45,304.47v-.82h.42v.52h0a.77.77,0,0,1,.72-.58h.13V304h-.16a.67.67,0,0,0-.63.61.81.81,0,0,0,0,.22v1.4h-.47Z"/><path class="cls-3" d="M292.64,306.27v-.33h0a1,1,0,0,1-.8.39.76.76,0,0,1-.8-.7v-.05c0-.64.56-1,1.57-1v-.05a.54.54,0,0,0-.46-.61H292a1.26,1.26,0,0,0-.68.2l-.11-.31a1.56,1.56,0,0,1,.86-.24c.8,0,1,.55,1,1.07v1a3.32,3.32,0,0,0,0,.63Zm-.07-1.34c-.52,0-1.11.08-1.11.59a.42.42,0,0,0,.39.45h.06a.64.64,0,0,0,.63-.43.38.38,0,0,0,0-.15Z"/><rect id="OK_Button" data-name="OK Button" class="cls-6" x="328.79" y="279.01" width="46.5" height="14.96" rx="4.61"/><path class="cls-3" d="M334.23,283.67h.71v4.87h2.33v.59h-3Z"/><path class="cls-3" d="M338.32,287.3a1.25,1.25,0,0,0,1.13,1.36h.21a2.74,2.74,0,0,0,1.09-.2l.12.51a3.2,3.2,0,0,1-1.3.24,1.82,1.82,0,0,1-1.94-1.7c0-.1,0-.2,0-.3a1.91,1.91,0,0,1,1.68-2.1h.16a1.66,1.66,0,0,1,1.63,1.69.76.76,0,0,1,0,.15,1.93,1.93,0,0,1,0,.34Zm2.09-.51a1,1,0,0,0-.83-1.15h-.17a1.19,1.19,0,0,0-1.1,1.16Z"/><path class="cls-3" d="M342.84,284.08v1.13h1v.54h-1v2.11c0,.49.14.77.53.77a2,2,0,0,0,.42-.05v.53a1.7,1.7,0,0,1-.63.1,1,1,0,0,1-.77-.3,1.48,1.48,0,0,1-.28-1v-2.14h-.61v-.54h.66v-.94Z"/><path class="cls-3" d="M346.39,283.51l-1,1.16h-.51l.71-1.16Z"/><path class="cls-3" d="M347,288.4a1.84,1.84,0,0,0,.94.28c.51,0,.76-.26.76-.58s-.21-.53-.73-.72c-.71-.25-1-.64-1-1.11a1.21,1.21,0,0,1,1.26-1.16h.09a2,2,0,0,1,1,.24l-.18.52a1.52,1.52,0,0,0-.8-.23c-.42,0-.66.25-.66.54s.24.47.75.66c.68.26,1,.6,1,1.18a1.32,1.32,0,0,1-1.47,1.18,2.24,2.24,0,0,1-1.1-.27Z"/><path class="cls-3" d="M352.89,289.13v-2.32l-1.73-3.14h.8l.77,1.5c.21.42.38.75.55,1.13h0c.16-.36.34-.71.55-1.13l.79-1.5h.8l-1.83,3.13v2.33Z"/><path class="cls-3" d="M359,287.13a1.92,1.92,0,0,1-1.74,2.08H357a1.86,1.86,0,0,1-1.88-1.86v-.14a1.91,1.91,0,0,1,1.75-2.07h.2A1.85,1.85,0,0,1,359,287C359,287,359,287.07,359,287.13Zm-3.11,0c0,.86.5,1.51,1.19,1.51s1.2-.64,1.2-1.52c0-.66-.34-1.51-1.18-1.51s-1.21.82-1.21,1.56Z"/><path class="cls-3" d="M363.24,285.21v3.35a2.26,2.26,0,0,1-.56,1.79,2,2,0,0,1-1.42.47,2.6,2.6,0,0,1-1.31-.32l.18-.55a2.14,2.14,0,0,0,1.15.31c.73,0,1.26-.38,1.26-1.37v-.43h0a1.43,1.43,0,0,1-1.25.65,1.75,1.75,0,0,1-1.68-1.82.28.28,0,0,0,0-.09,1.88,1.88,0,0,1,1.67-2.07h.1a1.28,1.28,0,0,1,1.22.68h0v-.59Zm-.73,1.54a.86.86,0,0,0,0-.32,1,1,0,0,0-1-.75c-.68,0-1.17.57-1.17,1.48s.39,1.41,1.16,1.41a1,1,0,0,0,1-.73,1.21,1.21,0,0,0,.06-.38Z"/><path class="cls-3" d="M366.57,289.13l-.06-.5h0a1.46,1.46,0,0,1-1.2.59,1.13,1.13,0,0,1-1.2-1v-.09c0-.95.84-1.47,2.36-1.46v-.08a.81.81,0,0,0-.7-.91h-.2a2,2,0,0,0-1,.3l-.16-.47a2.37,2.37,0,0,1,1.29-.35c1.2,0,1.49.82,1.49,1.6v1.47a7.42,7.42,0,0,0,.06.94Zm-.11-2c-.78,0-1.66.12-1.66.88a.63.63,0,0,0,.58.68h.09a1,1,0,0,0,.95-.66.81.81,0,0,0,0-.22Z"/><path class="cls-3" d="M368.16,288.71a.48.48,0,0,1,.46-.5h0a.46.46,0,0,1,.48.46v0a.48.48,0,0,1-.45.51h0a.48.48,0,0,1-.48-.48Zm.21-1.15-.12-3.89H369l-.11,3.89Z"/><rect id="Hour_-_Background-2" data-name="Hour - Background-2" class="cls-6" x="255.78" y="201.62" width="26.7" height="13.06" rx="4.61"/><path class="cls-3" d="M259.37,205.6h0l-1.11.59-.16-.65,1.39-.74h.67v6.35h-.83Z"/><path class="cls-3" d="M262.44,209.54a1.81,1.81,0,0,1,1.26-1.7h0a1.59,1.59,0,0,1-1-1.43,1.78,1.78,0,0,1,1.85-1.7h.15a1.64,1.64,0,0,1,1.84,1.41c0,.05,0,.1,0,.15a1.62,1.62,0,0,1-1,1.49h0a1.75,1.75,0,0,1,1.28,1.64,2,2,0,0,1-2.14,1.85h0C263.24,211.26,262.44,210.47,262.44,209.54Zm3.42,0c0-.77-.54-1.14-1.4-1.39a1.4,1.4,0,0,0-1.14,1.31,1.17,1.17,0,0,0,1.13,1.21.65.65,0,0,0,.14,0,1.14,1.14,0,0,0,1.26-1,1,1,0,0,0,0-.17Zm-2.37-3.18c0,.64.48,1,1.22,1.18a1.25,1.25,0,0,0,1-1.16,1,1,0,0,0-1-1h-.07a1,1,0,0,0-1.14.84s0,.07,0,.1Z"/><path class="cls-3" d="M267.6,207.2a.58.58,0,1,1,.58.61.57.57,0,0,1-.58-.56Zm0,3.45a.58.58,0,1,1,.58.58A.58.58,0,0,1,267.6,210.65Z"/><path class="cls-3" d="M273.78,207.91c0,2.16-.8,3.35-2.21,3.35-1.24,0-2.08-1.16-2.1-3.27s.91-3.3,2.21-3.3S273.78,205.88,273.78,207.91Zm-3.45.09c0,1.66.5,2.6,1.29,2.6s1.3-1,1.3-2.65-.4-2.6-1.29-2.6-1.3.92-1.3,2.65Z"/><path class="cls-3" d="M278.79,207.91c0,2.16-.8,3.35-2.21,3.35-1.24,0-2.08-1.16-2.1-3.27s.92-3.3,2.21-3.3S278.79,205.88,278.79,207.91Zm-3.45.09c0,1.66.51,2.6,1.29,2.6s1.3-1,1.3-2.65-.4-2.6-1.29-2.6S275.34,206.27,275.34,208Z"/><path id="Image-3" class="cls-4" d="M240.09,205h2.51a4.6,4.6,0,0,1,4.61,4.61v74.58a4.6,4.6,0,0,1-4.61,4.61h-2.51V205Z"/><path class="cls-6" d="M239.16,410.8h156v11.05a15.59,15.59,0,0,1-15.58,15.58H254.75a15.59,15.59,0,0,1-15.59-15.57h0V410.8Z"/><circle class="cls-7" cx="263.34" cy="424.11" r="10.16"/><circle class="cls-7" cx="369.47" cy="424.11" r="10.16"/><path class="cls-3" d="M252.22,425.41l-.38,1.14h-.48l1.23-3.64h.57l1.24,3.64h-.5l-.39-1.14Zm1.19-.37-.35-1c-.08-.24-.14-.45-.19-.66h0c-.06.21-.12.43-.19.66l-.35,1.05Z"/><path class="cls-3" d="M255,423.94l.51,1.47a4,4,0,0,1,.21.67h0c.06-.22.14-.44.22-.67l.51-1.47h.5l-1,2.61h-.45l-1-2.61Z"/><path class="cls-3" d="M258.83,426.55v-.33h0a1,1,0,0,1-.8.39.75.75,0,0,1-.8-.68v-.07c0-.63.56-1,1.57-1v-.06a.55.55,0,0,0-.47-.6h-.12a1.25,1.25,0,0,0-.68.19l-.11-.31a1.55,1.55,0,0,1,.86-.23c.8,0,1,.54,1,1.07v1a3.32,3.32,0,0,0,0,.63Zm-.07-1.33c-.52,0-1.11.08-1.11.59a.42.42,0,0,0,.39.45h.06a.65.65,0,0,0,.63-.44.38.38,0,0,0,0-.15Z"/><path class="cls-3" d="M260.52,423.2a.29.29,0,0,1-.29.29h0a.29.29,0,0,1-.28-.28h0a.3.3,0,1,1,.59-.11A.21.21,0,0,1,260.52,423.2Zm-.53,3.35v-2.61h.47v2.61Z"/><path class="cls-3" d="M261.25,422.72h.48v3.83h-.48Z"/><path class="cls-3" d="M264,426.55v-.33h0a1,1,0,0,1-.8.39.75.75,0,0,1-.8-.68v-.07c0-.63.56-1,1.57-1v-.06a.55.55,0,0,0-.47-.6h-.12a1.25,1.25,0,0,0-.68.19l-.11-.31a1.73,1.73,0,0,1,.86-.23c.8,0,1,.54,1,1.07v1a2.68,2.68,0,0,0,.05.63Zm-.07-1.33c-.51,0-1.1.08-1.1.59a.42.42,0,0,0,.39.45h.06a.66.66,0,0,0,.63-.44.38.38,0,0,0,0-.15Z"/><path class="cls-3" d="M265.16,426.55v-3.83h.47v1.64h0a1,1,0,0,1,.89-.48,1.18,1.18,0,0,1,1.12,1.24s0,.06,0,.09a1.24,1.24,0,0,1-1.07,1.39h-.11a.93.93,0,0,1-.87-.49h0v.43Zm.49-1.05v.18a.74.74,0,0,0,.72.55c.49,0,.79-.4.79-1s-.27-1-.78-1a.77.77,0,0,0-.72.59.61.61,0,0,0,0,.19Z"/><path class="cls-3" d="M268.74,423.2a.29.29,0,0,1-.29.29h0a.29.29,0,0,1-.28-.28h0a.3.3,0,1,1,.59-.11A.21.21,0,0,1,268.74,423.2Zm-.53,3.35v-2.61h.47v2.61Z"/><path class="cls-3" d="M269.47,422.72H270v3.83h-.48Z"/><path class="cls-3" d="M271.27,423.2a.29.29,0,0,1-.58,0h0a.29.29,0,0,1,.28-.3h0a.28.28,0,0,1,.29.27Zm-.53,3.35v-2.61h.48v2.61Z"/><path class="cls-3" d="M272.58,423.19v.75h.68v.36h-.68v1.41c0,.32.09.51.36.51h.27v.36a1,1,0,0,1-.43.06.69.69,0,0,1-.51-.19,1,1,0,0,1-.18-.69V424.3h-.41v-.36h.48v-.63Z"/><path class="cls-3" d="M274,423.94l.57,1.54c.06.17.13.38.17.54h0c.05-.16.1-.36.17-.55l.51-1.53H276l-.72,1.86a4,4,0,0,1-.89,1.64,1.33,1.33,0,0,1-.59.3l-.11-.4a1.27,1.27,0,0,0,.41-.23,1.41,1.41,0,0,0,.4-.53.21.21,0,0,0,0-.11.24.24,0,0,0,0-.12l-1-2.41Z"/><path class="cls-3" d="M362.6,423a6.82,6.82,0,0,1,.9-.07,1.49,1.49,0,0,1,1,.31,1,1,0,0,1,.32.76,1.05,1.05,0,0,1-.28.77,1.49,1.49,0,0,1-1.12.4,1.15,1.15,0,0,1-.37,0v1.46h-.47Zm.47,1.76a1.21,1.21,0,0,0,.38,0c.57,0,.92-.28.92-.78s-.34-.71-.86-.71a1.62,1.62,0,0,0-.44,0Z"/><path class="cls-3" d="M365.58,425.33a.84.84,0,0,0,.76.91h.14a1.63,1.63,0,0,0,.72-.14l.08.34a1.94,1.94,0,0,1-.86.16,1.21,1.21,0,0,1-1.29-1.12.6.6,0,0,1,0-.19,1.26,1.26,0,0,1,1.12-1.4h.11a1.11,1.11,0,0,1,1.09,1.13s0,.07,0,.1a.81.81,0,0,1,0,.22ZM367,425a.68.68,0,0,0-.58-.76h-.08a.79.79,0,0,0-.73.77Z"/><path class="cls-3" d="M368,424.75v-.81h.42v.51h0a.77.77,0,0,1,.72-.57h.14v.45h-.15a.66.66,0,0,0-.64.61.81.81,0,0,0,0,.22v1.39h-.47Z"/><path class="cls-3" d="M370,426.55V424.3h-.36v-.36H370v-.14a1,1,0,0,1,.84-1.14.76.76,0,0,1,.3,0,1.31,1.31,0,0,1,.67.17l-.14.36a1,1,0,0,0-.51-.19c-.5,0-.65.35-.65.77v.13H372v2.61h-.47V424.3h-1.05v2.25Z"/><path class="cls-3" d="M372.78,422.72h.48v3.83h-.48Z"/><circle class="cls-7" cx="317.68" cy="415.65" r="15.46"/><path class="cls-3" d="M313.41,418.81a3.42,3.42,0,0,1-1.45.26,2.56,2.56,0,0,1-2.7-2.4c0-.12,0-.25,0-.37a2.72,2.72,0,0,1,2.55-2.86h.3a2.88,2.88,0,0,1,1.29.24l-.17.57a2.55,2.55,0,0,0-1.08-.25,2,2,0,0,0-2.14,1.85,1.79,1.79,0,0,0,0,.4,2,2,0,0,0,1.79,2.19,1.61,1.61,0,0,0,.31,0,2.66,2.66,0,0,0,1.15-.23Z"/><path class="cls-3" d="M316.38,419l-.06-.5h0a1.46,1.46,0,0,1-1.2.59,1.13,1.13,0,0,1-1.2-1V418c0-.95.84-1.47,2.36-1.46v-.08a.81.81,0,0,0-.7-.91h-.19a2.07,2.07,0,0,0-1,.29l-.16-.47a2.41,2.41,0,0,1,1.28-.34c1.2,0,1.49.81,1.49,1.6v1.47a6,6,0,0,0,.07.94Zm-.1-2c-.78,0-1.67.12-1.67.88a.63.63,0,0,0,.58.68h.1a1,1,0,0,0,.95-.66.81.81,0,0,0,0-.22Z"/><path class="cls-3" d="M318.16,416.29v-1.23h.63v.77h0a1.18,1.18,0,0,1,1.09-.85h.2v.67h-.24a1,1,0,0,0-1,.91,1.93,1.93,0,0,0,0,.34V419h-.68Z"/><path class="cls-3" d="M324.07,413.23V419h-.64v-.68h0a1.45,1.45,0,0,1-1.33.77,1.8,1.8,0,0,1-1.69-1.91s0-.06,0-.09a1.87,1.87,0,0,1,1.63-2.08h.11a1.3,1.3,0,0,1,1.18.6h0v-2.35Zm-.71,3.43a1.5,1.5,0,0,0,0-.3,1.06,1.06,0,0,0-1-.82c-.74,0-1.18.64-1.18,1.51s.39,1.45,1.16,1.45a1.08,1.08,0,0,0,1.05-.85,1.61,1.61,0,0,0,0-.31Z"/><path class="cls-8" d="M277.35,320a4.83,4.83,0,0,1-4.92,4.73,5,5,0,0,1-3.17-1.11A4.61,4.61,0,0,1,267.5,320a4.93,4.93,0,0,1,9.85,0Z"/><path class="cls-9" d="M269.26,323.62v-2.28h2.36v-.74s-2.72-1.36,0-3.48,4.65,2.29,2.32,3.25l-.06,1h1.87v2.15"/><path class="cls-8" d="M265.86,320.09a4.83,4.83,0,0,1-4.92,4.74h0a5,5,0,0,1-3.17-1.11,4.63,4.63,0,0,1-1.76-3.63,4.93,4.93,0,0,1,9.85,0Z"/><path class="cls-9" d="M257.69,323.72v-2.29h2.36v-.73s-2.72-1.37,0-3.48,4.65,2.28,2.32,3.25l-.06,1h1.85v2.15"/><path class="cls-8" d="M289,320.1a4.84,4.84,0,0,1-4.93,4.74,5,5,0,0,1-3.17-1.11,4.67,4.67,0,0,1-1.76-3.63,4.93,4.93,0,0,1,9.85,0Z"/><path class="cls-9" d="M280.92,323.73v-2.28h2.36v-.74s-2.71-1.37,0-3.48,4.65,2.28,2.33,3.25l-.07,1h1.88v2.14"/><path class="cls-3" d="M292.79,319v1.27H294v.32h-1.22v1.28h-.35v-1.28h-1.22v-.32h1.22V319Z"/><path class="cls-3" d="M296.56,318.73h-1.34l-.13.9h.28a1.53,1.53,0,0,1,.76.19,1,1,0,0,1,.5.9,1.2,1.2,0,0,1-1.22,1.2h-.09a1.89,1.89,0,0,1-.87-.21l.12-.37a1.53,1.53,0,0,0,.75.2.78.78,0,0,0,.83-.71v-.05c0-.46-.31-.78-1-.78h-.48l.22-1.69h1.68Z"/><path class="cls-3" d="M298.53,320v-.81H299v.51h0a.77.77,0,0,1,.72-.57h.13v.45h-.16a.67.67,0,0,0-.63.61.81.81,0,0,0,0,.22v1.39h-.47Z"/><path class="cls-3" d="M300.51,320.62a.84.84,0,0,0,.76.91h.14a1.63,1.63,0,0,0,.72-.14l.08.34a2,2,0,0,1-.87.17,1.21,1.21,0,0,1-1.28-1.13.61.61,0,0,1,0-.19,1.26,1.26,0,0,1,1.12-1.4h.1a1.1,1.1,0,0,1,1.09,1.11s0,.08,0,.12v.22Zm1.4-.34a.68.68,0,0,0-.58-.76h-.08a.78.78,0,0,0-.73.77Z"/><path class="cls-3" d="M304.4,321.84v-.33h0a1,1,0,0,1-.8.39.75.75,0,0,1-.8-.68v-.07c0-.63.56-1,1.57-1v-.06a.55.55,0,0,0-.47-.6h-.12a1.25,1.25,0,0,0-.68.19l-.11-.31a1.55,1.55,0,0,1,.86-.23c.8,0,1,.54,1,1.07v1a3.32,3.32,0,0,0,0,.63Zm-.07-1.33c-.52,0-1.11.08-1.11.59a.42.42,0,0,0,.39.45h.06a.65.65,0,0,0,.63-.44.38.38,0,0,0,0-.15Z"/><path class="cls-3" d="M307.42,321.74a1.61,1.61,0,0,1-.75.16,1.23,1.23,0,0,1-1.3-1.17,1,1,0,0,1,0-.17,1.33,1.33,0,0,1,1.27-1.39h.13a1.51,1.51,0,0,1,.66.14l-.11.37a1,1,0,0,0-.55-.13,1,1,0,0,0,0,2,1.29,1.29,0,0,0,.58-.13Z"/><path class="cls-3" d="M308.62,318.48v.75h.68v.36h-.68V321c0,.32.09.51.36.51h.27v.36a1,1,0,0,1-.42.07.65.65,0,0,1-.51-.2,1,1,0,0,1-.16-.74v-1.43h-.41v-.36h.41v-.63Z"/><path class="cls-3" d="M310.07,320.62a.84.84,0,0,0,.77.91H311a1.67,1.67,0,0,0,.73-.14l.08.34a2,2,0,0,1-.87.17,1.22,1.22,0,0,1-1.29-1.14,1.08,1.08,0,0,1,0-.18,1.26,1.26,0,0,1,1.12-1.4h.11a1.11,1.11,0,0,1,1.09,1.13s0,.07,0,.1v.22Zm1.39-.34a.66.66,0,0,0-.56-.76h-.1a.79.79,0,0,0-.73.77Z"/><path class="cls-3" d="M314.77,318v3.83h-.43v-.45h0a1,1,0,0,1-.89.51,1.19,1.19,0,0,1-1.13-1.25s0-.05,0-.08a1.24,1.24,0,0,1,1.09-1.39h.08a.86.86,0,0,1,.79.4h0V318Zm-.48,2.28a.67.67,0,0,0,0-.2.7.7,0,0,0-.68-.55c-.5,0-.79.43-.79,1s.26,1,.77,1a.72.72,0,0,0,.7-.57.67.67,0,0,0,0-.2Z"/><path class="cls-3" d="M270.16,339.53v-1.18h0a9.09,9.09,0,0,1-.34,1l-.48,1.33h-.27l-.44-1.3c-.12-.35-.23-.7-.32-1.06h0a10.37,10.37,0,0,1-.05,1.21l-.08,1.17h-.33L268,338h.45l.47,1.33c.11.33.2.63.27.92h0c.07-.28.17-.58.29-.92L270,338h.45l.17,2.74h-.47Z"/><path class="cls-3" d="M272.16,340.73v-.25h0a.74.74,0,0,1-.6.29.56.56,0,0,1-.6-.52v0c0-.48.42-.74,1.18-.73h0a.41.41,0,0,0-.35-.46h-.1a.92.92,0,0,0-.51.15l-.08-.24a1.3,1.3,0,0,1,.64-.17.7.7,0,0,1,.76.64.86.86,0,0,1,0,.16v.74a3.69,3.69,0,0,0,0,.47Zm-.06-1c-.38,0-.83.06-.83.44a.32.32,0,0,0,.3.34h0a.49.49,0,0,0,.48-.33v-.45Z"/><path class="cls-3" d="M273,339.38v-.62h.31v.39h0a.6.6,0,0,1,.54-.43h.1v.34h-.12a.5.5,0,0,0-.48.45.49.49,0,0,0,0,.17v1.05H273Z"/><path class="cls-3" d="M274.77,338.21a.21.21,0,0,1-.2.22h0a.22.22,0,0,1,0-.44.21.21,0,0,1,.23.19Zm-.4,2.52v-2h.36v2Z"/><path class="cls-3" d="M276.41,340.73v-.25h0a.74.74,0,0,1-.6.29.56.56,0,0,1-.6-.52v0c0-.48.42-.74,1.18-.73h0A.41.41,0,0,0,276,339h-.1a.92.92,0,0,0-.51.15l-.08-.24a1.34,1.34,0,0,1,.65-.17c.6,0,.74.41.74.8v.74a1.85,1.85,0,0,0,0,.47Zm-.05-1c-.39,0-.83.06-.83.44a.31.31,0,0,0,.28.34h.05a.49.49,0,0,0,.48-.33v-.11Z"/><path class="cls-3" d="M280.45,339.53v-1.18h0a9.22,9.22,0,0,1-.35,1l-.48,1.33h-.27l-.44-1.3c-.13-.39-.24-.74-.32-1.06h0a8.66,8.66,0,0,1-.06,1.21l-.07,1.17h-.34l.19-2.74h.45l.47,1.33c.11.3.2.61.28.92h0c.07-.28.17-.58.29-.92l.48-1.33h.46l.17,2.74h-.35Z"/><path class="cls-3" d="M283.16,339.73a1,1,0,0,1-1,1,.94.94,0,0,1-1-.93v-.07a1,1,0,0,1,1-1,.93.93,0,0,1,1,.91Zm-1.55,0c0,.43.24.75.59.75s.6-.32.6-.76-.17-.75-.59-.75-.57.41-.57.78Z"/><path class="cls-3" d="M283.64,339.3a4.86,4.86,0,0,0,0-.54H284v.33h0a.7.7,0,0,1,.65-.37c.27,0,.69.16.69.84v1.17H285V339.6c0-.32-.12-.58-.46-.58a.51.51,0,0,0-.48.36.49.49,0,0,0,0,.17v1.18h-.36Z"/><path class="cls-3" d="M286.3,338.2v.56h.52V339h-.52v1.06c0,.24.07.38.27.38h.21v.27a.81.81,0,0,1-.31,0,.51.51,0,0,1-.39-.15.72.72,0,0,1-.14-.51V339h-.3v-.28h.3v-.47Z"/><path class="cls-3" d="M287.39,339.81a.63.63,0,0,0,.58.68h.09a1.28,1.28,0,0,0,.55-.1l.06.26a1.84,1.84,0,0,1-.66.12.91.91,0,0,1-1-.81.61.61,0,0,1,0-.19,1,1,0,0,1,.92-1.06.84.84,0,0,1,.82.84.25.25,0,0,0,0,.08v.17Zm1-.25A.52.52,0,0,0,288,339h-.07a.58.58,0,0,0-.55.58Z"/><path class="cls-3" d="M289.62,338.21a.22.22,0,0,1-.22.22h0a.22.22,0,1,1,.23-.22Zm-.4,2.52v-2h.36v2Z"/><path class="cls-3" d="M290.16,339.38v-.62h.32v.39h0a.59.59,0,0,1,.55-.43h.1v.34H291a.5.5,0,0,0-.48.45.49.49,0,0,0,0,.17v1.05h-.37Z"/><path class="cls-3" d="M293.23,339.73a1,1,0,0,1-1,1,.92.92,0,0,1-.94-.92v-.08a1,1,0,0,1,1-1,.92.92,0,0,1,.94.92Zm-1.56,0c0,.43.25.75.6.75s.6-.32.6-.76-.17-.75-.59-.75-.61.41-.61.78Z"/><path class="cls-3" d="M271.62,345.56a1.71,1.71,0,0,1-1.48,1.9h-.21a1.66,1.66,0,0,1-1.64-1.68.86.86,0,0,1,0-.16,1.74,1.74,0,0,1,1.53-1.91H270a1.66,1.66,0,0,1,1.64,1.68A1,1,0,0,1,271.62,345.56Zm-2.82.06c0,.77.42,1.47,1.16,1.47s1.17-.68,1.17-1.51-.38-1.48-1.16-1.48-1.17.72-1.17,1.52Z"/><path class="cls-3" d="M272.22,345.51v-.71h.41v.42h0a.91.91,0,0,1,.82-.48.77.77,0,0,1,.74.53h0a1.39,1.39,0,0,1,.29-.35,1,1,0,0,1,.58-.18c.35,0,.86.23.86,1.14v1.54h-.46v-1.49c0-.5-.19-.8-.57-.8a.61.61,0,0,0-.56.43,1,1,0,0,0,0,.24v1.62h-.47v-1.57c0-.42-.18-.72-.54-.72a.65.65,0,0,0-.59.48.89.89,0,0,0,0,.23v1.58h-.46Z"/><path class="cls-3" d="M279,344.8V347a1.48,1.48,0,0,1-.37,1.19,1.38,1.38,0,0,1-.95.31,1.67,1.67,0,0,1-.87-.21l.12-.36a1.61,1.61,0,0,0,.77.2c.48,0,.84-.25.84-.91V347h0a1,1,0,0,1-.83.43,1.16,1.16,0,0,1-1.12-1.21v-.06a1.27,1.27,0,0,1,1.12-1.39h.06a.87.87,0,0,1,.82.46h0v-.4Zm-.49,1a.74.74,0,0,0,0-.21.7.7,0,0,0-.67-.51c-.45,0-.77.39-.77,1s.26.94.77.94a.7.7,0,0,0,.66-.48,1.13,1.13,0,0,0,0-.26Z"/><path class="cls-3" d="M279.36,348.08a8.11,8.11,0,0,0,.32-1.29l.53-.06a7.51,7.51,0,0,1-.51,1.32Z"/><path class="cls-3" d="M281.86,346.93a1.29,1.29,0,0,0,.63.19c.34,0,.51-.17.51-.39s-.14-.35-.49-.48-.69-.43-.69-.74a.8.8,0,0,1,.84-.77h.06a1.32,1.32,0,0,1,.64.16l-.12.35a1,1,0,0,0-.53-.15c-.28,0-.44.16-.44.35s.16.32.5.45a.93.93,0,0,1,.68.79c0,.39-.35.78-1,.78a1.59,1.59,0,0,1-.74-.18Z"/><path class="cls-3" d="M286.43,346.09a1.28,1.28,0,0,1-1.15,1.38h-.15a1.23,1.23,0,0,1-1.25-1.2.65.65,0,0,1,0-.14,1.26,1.26,0,0,1,1.14-1.38h.15a1.24,1.24,0,0,1,1.26,1.21A.65.65,0,0,1,286.43,346.09Zm-2.07,0c0,.58.33,1,.79,1a.89.89,0,0,0,.8-1c0-.57-.23-1-.79-1s-.8.53-.8,1Z"/><path class="cls-3" d="M288.44,346.19a.84.84,0,0,0,.76.91h.14a1.77,1.77,0,0,0,.72-.13l.08.34a2.17,2.17,0,0,1-.87.16,1.21,1.21,0,0,1-1.28-1.13.61.61,0,0,1,0-.19,1.26,1.26,0,0,1,1.12-1.4h.1a1.1,1.1,0,0,1,1.09,1.11s0,.08,0,.12v.22Zm1.4-.34a.68.68,0,0,0-.58-.76h-.08a.79.79,0,0,0-.73.77Z"/><path class="cls-3" d="M291.09,344.8l.37.56.27.43h0c.09-.16.18-.29.26-.43l.37-.56h.51l-.89,1.26.92,1.36h-.54l-.38-.59c-.11-.16-.19-.3-.29-.46h0c-.08.16-.17.3-.27.46l-.38.59h-.52l.93-1.34-.89-1.28Z"/><path class="cls-3" d="M293.9,344.07a.3.3,0,1,1-.3-.3h0a.29.29,0,0,1,.29.29Zm-.53,3.35V344.8h.47v2.62Z"/><path class="cls-3" d="M295.21,344.05v.75h.68v.36h-.68v1.41c0,.33.09.51.35.51h.28v.35a1.2,1.2,0,0,1-.42.07.65.65,0,0,1-.51-.2.92.92,0,0,1-.19-.68v-1.43h-.4v-.36h.4v-.63Z"/><path class="cls-3" d="M296.65,346.19a.84.84,0,0,0,.76.91h.14a1.77,1.77,0,0,0,.72-.13l.09.34a2.35,2.35,0,0,1-.87.16,1.22,1.22,0,0,1-1.29-1.14,1.08,1.08,0,0,1,0-.18,1.26,1.26,0,0,1,1.12-1.4h.11a1.11,1.11,0,0,1,1.09,1.13s0,.07,0,.1a.81.81,0,0,1,0,.22Zm1.4-.34a.68.68,0,0,0-.58-.76h-.08a.79.79,0,0,0-.73.77Z"/><path class="cls-3" d="M301.35,343.58v3.84h-.43V347h0a1,1,0,0,1-.89.51,1.18,1.18,0,0,1-1.13-1.23s0-.06,0-.09a1.25,1.25,0,0,1,1.08-1.4h.09a.86.86,0,0,1,.79.4h0v-1.56Zm-.47,2.29a.67.67,0,0,0,0-.2.71.71,0,0,0-.69-.56c-.49,0-.78.44-.78,1s.26,1,.77,1a.72.72,0,0,0,.7-.57.67.67,0,0,0,0-.2Z"/><path class="cls-3" d="M302.05,347.14a.33.33,0,0,1,.32-.34h0a.32.32,0,0,1,.32.32v0a.32.32,0,0,1-.64,0Zm.14-.77-.08-2.6h.52l-.08,2.6Z"/><path class="cls-8" d="M265,343.88a6.52,6.52,0,0,1-6.62,6.37,6.67,6.67,0,0,1-4.26-1.5,6.25,6.25,0,0,1-2.37-4.87,6.63,6.63,0,0,1,13.25,0Z"/><path class="cls-9" d="M254.16,348.75v-3.07h3.17v-1s-3.65-1.84,0-4.68,6.26,3.07,3.13,4.37l-.09,1.3h2.52v2.89"/><circle class="cls-4" cx="375.29" cy="343.88" r="5.73"/><path class="cls-10" d="M375.29,343c.59-1.65,1.63-2.63,2.45-2.5a1.32,1.32,0,0,1,.83.3,1.65,1.65,0,0,1,.61.88c.76,1.5-.82,4.2-3.89,6.74-3.08-2.54-4.66-5.24-3.9-6.74a1.65,1.65,0,0,1,.61-.88,1.32,1.32,0,0,1,.83-.3C373.65,340.37,374.69,341.35,375.29,343Z"/><circle class="cls-4" cx="372.25" cy="321.84" r="7.2"/><circle class="cls-4" cx="354.98" cy="321.84" r="7.2"/><line class="cls-11" x1="253.18" y1="311.37" x2="383.37" y2="311.37"/><circle class="cls-7" cx="372.25" cy="321.84" r="5.02"/><ellipse class="cls-4" cx="370.54" cy="320.78" rx="0.66" ry="1.69"/><ellipse class="cls-4" cx="373.81" cy="320.78" rx="0.66" ry="1.69"/><path class="cls-4" d="M373.6,325.19h-2.7a1.21,1.21,0,0,1-1.22-1.21h5.13a1.21,1.21,0,0,1-1.21,1.21Z"/></g><g id="Arrows"><path class="cls-12" d="M386.87,424.11h33.07a3.89,3.89,0,0,0,3.9-3.88V305a3.92,3.92,0,0,1,3.9-3.9h23.42l-19-5.86"/></g></svg>