<svg id="_1_" data-name="1ยบ" xmlns="http://www.w3.org/2000/svg" viewBox="0 0 841.89 595.28"><defs><style>.cls-1,.cls-4{fill:#d8d9dd;}.cls-1{stroke:#211915;}.cls-1,.cls-2,.cls-6{stroke-miterlimit:10;}.cls-2{fill:#edeef0;stroke:#c2c3c9;}.cls-3{fill:#211915;}.cls-4{opacity:0.75;isolation:isolate;}.cls-5{fill:#5b5b5f;}.cls-6{fill:none;stroke:#aeadb3;stroke-width:3px;}</style></defs><title>User Flow - Cowork Space Manager [Recovered]-02</title><g id="_2_Core_Flux" data-name=" 2 Core Flux"><rect id="Case-2" class="cls-1" x="29.28" y="135.29" width="181.65" height="315.55" rx="22"/><rect id="Screen" class="cls-2" x="41.59" y="148.52" width="156.04" height="288.91" rx="14.39"/><circle id="Logo_-_Temlate" data-name="Logo - Temlate" class="cls-2" cx="119.61" cy="243.04" r="21.45"/><path class="cls-3" d="M109.2,239.63h1v6.67h3.2v.81h-4.2Z"/><path class="cls-3" d="M119.12,244.38a2.63,2.63,0,0,1-2.39,2.85h-.29a2.57,2.57,0,0,1-2.58-2.54,1.77,1.77,0,0,1,0-.23,2.62,2.62,0,0,1,2.38-2.84h.28a2.54,2.54,0,0,1,2.6,2.48A2.62,2.62,0,0,1,119.12,244.38Zm-4.27.06c0,1.17.68,2.06,1.64,2.06s1.63-.87,1.63-2.08c0-.92-.46-2.07-1.61-2.07S114.85,243.42,114.85,244.44Z"/><path class="cls-3" d="M125,241.74v4.6a3,3,0,0,1-.77,2.45,2.8,2.8,0,0,1-2,.65,3.38,3.38,0,0,1-1.79-.45l.24-.74a3.14,3.14,0,0,0,1.58.42c1,0,1.74-.52,1.74-1.88v-.6h0a1.91,1.91,0,0,1-1.71.9,2.41,2.41,0,0,1-2.3-2.5s0-.08,0-.12a2.58,2.58,0,0,1,2.29-2.84h.14a1.76,1.76,0,0,1,1.67.93h0v-.81Zm-1,2.12a1.62,1.62,0,0,0,0-.44,1.42,1.42,0,0,0-1.37-1c-.93,0-1.6.79-1.6,2,0,1.05.54,1.93,1.59,1.93a1.44,1.44,0,0,0,1.36-1,1.81,1.81,0,0,0,.07-.52Z"/><path class="cls-3" d="M131.43,244.38a2.63,2.63,0,0,1-2.39,2.85h-.29a2.57,2.57,0,0,1-2.59-2.53,1.93,1.93,0,0,1,0-.24,2.62,2.62,0,0,1,2.38-2.84h.29a2.55,2.55,0,0,1,2.6,2.5A2.26,2.26,0,0,1,131.43,244.38Zm-4.27.06c0,1.17.68,2.06,1.63,2.06s1.64-.87,1.64-2.08c0-.92-.46-2.07-1.61-2.07S127.16,243.42,127.16,244.44Z"/><rect id="Button_-_Username" data-name="Button - Username" class="cls-4" x="74.57" y="289.93" width="90.08" height="16.12" rx="5.97"/><rect id="Button_-_Password" data-name="Button - Password" class="cls-4" x="75.06" y="314.94" width="90.08" height="16.12" rx="5.97"/><rect id="Button_-_LogIn" data-name="Button - LogIn" class="cls-4" x="96.95" y="354.39" width="46.31" height="13.69" rx="5.07"/><path class="cls-3" d="M103.3,296.15v3.32c0,1.26.56,1.79,1.31,1.79s1.36-.55,1.36-1.79v-3.32h.74v3.27c0,1.73-.91,2.43-2.13,2.43s-2-.65-2-2.4v-3.3Z"/><path class="cls-3" d="M107.79,301a2.07,2.07,0,0,0,1,.29c.53,0,.78-.26.78-.6s-.21-.54-.75-.74c-.72-.26-1.07-.66-1.07-1.14a1.25,1.25,0,0,1,1.31-1.19h.09a2,2,0,0,1,1,.25l-.19.53a1.59,1.59,0,0,0-.82-.23c-.44,0-.68.25-.68.55s.24.48.77.68c.7.27,1.06.62,1.06,1.22a1.34,1.34,0,0,1-1.51,1.2,2.25,2.25,0,0,1-1.13-.27Z"/><path class="cls-3" d="M111.6,299.88a1.29,1.29,0,0,0,1.17,1.4,1.47,1.47,0,0,0,.21,0,2.69,2.69,0,0,0,1.12-.21l.12.52a3.23,3.23,0,0,1-1.34.25,1.87,1.87,0,0,1-2-1.73,1.22,1.22,0,0,1,0-.27,2,2,0,0,1,1.82-2.17h.07a1.71,1.71,0,0,1,1.68,1.74.86.86,0,0,1,0,.16,1.93,1.93,0,0,1,0,.34Zm2.15-.53a1,1,0,0,0-.79-1.17.75.75,0,0,0-.21,0,1.21,1.21,0,0,0-1.12,1.19Z"/><path class="cls-3" d="M115.36,299v-1.26H116v.79h0a1.21,1.21,0,0,1,1.12-.88h.2v.69h-.24a1,1,0,0,0-1,.94,1.93,1.93,0,0,0,0,.34v2.15h-.73Z"/><path class="cls-3" d="M118.12,298.82v-1.09h.65v.67h0a1.46,1.46,0,0,1,1.33-.76c.56,0,1.42.33,1.42,1.71v2.41h-.73v-2.32c0-.65-.24-1.19-.93-1.19a1,1,0,0,0-1,.75,1.27,1.27,0,0,0,0,.34v2.42h-.73Z"/><path class="cls-3" d="M125,301.76l-.06-.51h0a1.5,1.5,0,0,1-1.24.6,1.16,1.16,0,0,1-1.23-1.07v-.08c0-1,.87-1.51,2.42-1.5v-.09a.83.83,0,0,0-.72-.93H124a2,2,0,0,0-1,.3l-.17-.48a2.45,2.45,0,0,1,1.32-.36c1.24,0,1.54.84,1.54,1.65v1.5a5.6,5.6,0,0,0,.06,1Zm-.11-2.06c-.8,0-1.71.13-1.71.91a.65.65,0,0,0,.6.7h.09a1,1,0,0,0,1-.9h0Z"/><path class="cls-3" d="M126.76,298.82v-1.09h.64v.65h0a1.38,1.38,0,0,1,1.26-.74,1.2,1.2,0,0,1,1.15.81h0a2.08,2.08,0,0,1,.45-.53,1.43,1.43,0,0,1,.89-.28c.54,0,1.33.35,1.33,1.75v2.37h-.72v-2.28c0-.78-.28-1.24-.87-1.24a1,1,0,0,0-.87.66,1.15,1.15,0,0,0-.06.37v2.49h-.71v-2.41c0-.65-.29-1.11-.85-1.11a1,1,0,0,0-.9.73.74.74,0,0,0-.06.36v2.43h-.72Z"/><path class="cls-3" d="M134.12,299.88a1.29,1.29,0,0,0,1.17,1.4,1.47,1.47,0,0,0,.21,0,2.69,2.69,0,0,0,1.12-.21l.12.52a3.23,3.23,0,0,1-1.34.25,1.87,1.87,0,0,1-2-1.73,1.22,1.22,0,0,1,0-.27,2,2,0,0,1,1.82-2.17h.07a1.72,1.72,0,0,1,1.68,1.76c0,.05,0,.09,0,.14a1.93,1.93,0,0,1,0,.34Zm2.15-.53a1,1,0,0,0-.79-1.17.75.75,0,0,0-.21,0,1.21,1.21,0,0,0-1.12,1.19Z"/><path class="cls-3" d="M103.85,321.35a8.06,8.06,0,0,1,1.39-.11,2.34,2.34,0,0,1,1.57.47,1.49,1.49,0,0,1,.49,1.17,1.66,1.66,0,0,1-.43,1.2,2.32,2.32,0,0,1-1.72.62,2.28,2.28,0,0,1-.58-.05v2.25h-.72Zm.72,2.7a2,2,0,0,0,.6.06c.87,0,1.41-.42,1.41-1.2s-.53-1.1-1.33-1.1a3.82,3.82,0,0,0-.68.06Z"/><path class="cls-3" d="M110.27,326.9l-.06-.51h0a1.5,1.5,0,0,1-1.24.6,1.16,1.16,0,0,1-1.23-1.07v-.09c0-1,.87-1.51,2.42-1.5v-.08a.84.84,0,0,0-.71-.94h-.2a2,2,0,0,0-1,.3l-.17-.48a2.49,2.49,0,0,1,1.33-.36c1.23,0,1.53.84,1.53,1.65v1.51a5.61,5.61,0,0,0,.07,1Zm-.11-2.06c-.8,0-1.71.12-1.71.91a.65.65,0,0,0,.6.7h.09a1,1,0,0,0,1-.68.89.89,0,0,0,0-.23Z"/><path class="cls-3" d="M112,326.15a2.07,2.07,0,0,0,1,.29c.53,0,.78-.27.78-.6s-.21-.54-.75-.74c-.72-.26-1.06-.66-1.06-1.15a1.25,1.25,0,0,1,1.29-1.19h.1a2.06,2.06,0,0,1,1,.25l-.19.53a1.59,1.59,0,0,0-.82-.23c-.43,0-.67.25-.67.55s.24.48.76.68c.7.27,1.06.62,1.06,1.22A1.35,1.35,0,0,1,113,327a2.26,2.26,0,0,1-1.13-.28Z"/><path class="cls-3" d="M115.25,326.15a2.07,2.07,0,0,0,1,.29c.53,0,.78-.27.78-.6s-.21-.54-.75-.74c-.72-.26-1.07-.66-1.07-1.15a1.25,1.25,0,0,1,1.31-1.19h.09a2.06,2.06,0,0,1,1,.25l-.19.53a1.59,1.59,0,0,0-.82-.23c-.43,0-.68.25-.68.55s.25.48.77.68c.7.27,1.06.62,1.06,1.22a1.35,1.35,0,0,1-1.51,1.21,2.26,2.26,0,0,1-1.13-.28Z"/><path class="cls-3" d="M118.94,322.86l.54,2.05c.11.45.22.87.3,1.29h0c.09-.41.23-.85.36-1.28l.66-2.06h.61l.63,2c.15.48.27.91.36,1.32h0c.07-.41.18-.84.31-1.31l.58-2H124l-1.3,4H122l-.61-1.93c-.14-.45-.26-.85-.36-1.32h0a12.45,12.45,0,0,1-.36,1.33l-.65,1.92h-.67l-1.22-4Z"/><path class="cls-3" d="M128.35,324.85a2,2,0,0,1-1.86,2.14h-.14a1.92,1.92,0,0,1-1.94-1.9c0-.06,0-.12,0-.18a2,2,0,0,1,1.86-2.14h.14a1.92,1.92,0,0,1,1.94,1.88A1.34,1.34,0,0,1,128.35,324.85Zm-3.2,0c0,.88.51,1.55,1.22,1.55s1.23-.66,1.23-1.57c0-.68-.34-1.55-1.21-1.55s-1.24.84-1.24,1.61Z"/><path class="cls-3" d="M129.27,324.12v-1.26h.64v.79h0a1.2,1.2,0,0,1,1.12-.88h.2v.69H131a1,1,0,0,0-1,.94,2,2,0,0,0,0,.35v2.15h-.73Z"/><path class="cls-3" d="M135.4,321v5.87h-.66v-.7h0a1.48,1.48,0,0,1-1.37.79,1.84,1.84,0,0,1-1.74-1.94s0-.07,0-.11a1.94,1.94,0,0,1,1.69-2.16h.12a1.35,1.35,0,0,1,1.22.62h0V321Zm-.74,3.52a.76.76,0,0,0,0-.3,1.08,1.08,0,0,0-1.06-.85c-.76,0-1.21.66-1.21,1.55s.4,1.5,1.2,1.5a1.09,1.09,0,0,0,1.07-.88.86.86,0,0,0,0-.32Z"/><path class="cls-3" d="M112.42,359.92H113v3.9h1.86v.47h-2.43Z"/><path class="cls-3" d="M118.21,362.7a1.53,1.53,0,0,1-1.39,1.65h-.17a1.49,1.49,0,0,1-1.51-1.46.75.75,0,0,1,0-.15,1.54,1.54,0,0,1,1.4-1.66h.16a1.5,1.5,0,0,1,1.52,1.46C118.22,362.6,118.21,362.65,118.21,362.7Zm-2.49,0a1.08,1.08,0,0,0,1,1.21c.6,0,1-.52,1-1.22,0-.54-.27-1.21-.94-1.21a1.16,1.16,0,0,0-1.06,1.25Z"/><path class="cls-3" d="M121.63,361.15v2.69a1.82,1.82,0,0,1-.45,1.43,1.69,1.69,0,0,1-1.14.38,2,2,0,0,1-1-.26l.15-.44a1.77,1.77,0,0,0,.92.25c.58,0,1-.3,1-1.1v-.35h0a1.13,1.13,0,0,1-1,.53,1.41,1.41,0,0,1-1.35-1.45.22.22,0,0,0,0-.08,1.51,1.51,0,0,1,1.34-1.66h.08a1,1,0,0,1,1,.55h0v-.48Zm-.59,1.24a.57.57,0,0,0,0-.26.83.83,0,0,0-.8-.6c-.54,0-.93.46-.93,1.19s.31,1.12.93,1.12a.84.84,0,0,0,.79-.58,1.5,1.5,0,0,0,0-.3Z"/><path class="cls-3" d="M123.13,359.92v4.37h-.56v-4.37Z"/><path class="cls-3" d="M124.16,362v-.85h.5v.52h0a1.16,1.16,0,0,1,1-.59c.43,0,1.11.26,1.11,1.34v1.87h-.57v-1.81c0-.5-.19-.92-.73-.92a.8.8,0,0,0-.77.58,1.22,1.22,0,0,0,0,.27v1.88h-.58Z"/><path class="cls-5" d="M87.64,416.51h2.85v.57H88.32v1.77h2v.56h-2v2.41h-.68Z"/><path class="cls-5" d="M94.65,419.88a1.87,1.87,0,0,1-1.71,2h-.19a1.8,1.8,0,0,1-1.83-1.77,1.77,1.77,0,0,1,0-.23,1.87,1.87,0,0,1,1.71-2h.18a1.8,1.8,0,0,1,1.84,1.76A1.93,1.93,0,0,1,94.65,419.88Zm-3,0c0,.83.48,1.46,1.15,1.46s1.16-.62,1.16-1.48c0-.64-.32-1.46-1.14-1.46s-1.19.79-1.19,1.52Z"/><path class="cls-5" d="M95.52,419.19V418h.61v.75h0a1.14,1.14,0,0,1,1.06-.83h.19v.65h-.23a1,1,0,0,0-.93.89,1.71,1.71,0,0,0,0,.32v2h-.69Z"/><path class="cls-5" d="M99.12,416.91V418h1v.53h-1v2.06c0,.47.13.74.52.74a1.83,1.83,0,0,0,.4-.05v.52a1.59,1.59,0,0,1-.61.09,1,1,0,0,1-.75-.29,1.38,1.38,0,0,1-.27-1v-2.08h-.59V418h.59v-.91Z"/><path class="cls-5" d="M104.12,418v3.26a2.17,2.17,0,0,1-.54,1.74,2,2,0,0,1-1.39.46,2.53,2.53,0,0,1-1.26-.31l.17-.53a2.12,2.12,0,0,0,1.12.3c.71,0,1.23-.37,1.23-1.33v-.43h0a1.35,1.35,0,0,1-1.21.64,1.7,1.7,0,0,1-1.63-1.77.28.28,0,0,0,0-.09,1.82,1.82,0,0,1,1.63-2h.08a1.27,1.27,0,0,1,1.19.66h0V418Zm-.71,1.51a.86.86,0,0,0,0-.32,1,1,0,0,0-1-.73c-.66,0-1.13.56-1.13,1.44s.38,1.37,1.12,1.37a1,1,0,0,0,1-.71,1.15,1.15,0,0,0,.06-.37Z"/><path class="cls-5" d="M108.69,419.88a1.87,1.87,0,0,1-1.71,2h-.19a1.8,1.8,0,0,1-1.83-1.77,1.77,1.77,0,0,1,0-.23,1.87,1.87,0,0,1,1.71-2h.18a1.8,1.8,0,0,1,1.84,1.76A1.93,1.93,0,0,1,108.69,419.88Zm-3,0c0,.83.48,1.46,1.15,1.46s1.16-.62,1.16-1.48c0-.64-.32-1.46-1.14-1.46s-1.19.79-1.19,1.52Z"/><path class="cls-5" d="M110.4,416.91V418h1v.53h-1v2.06c0,.47.13.74.52.74a1.83,1.83,0,0,0,.4-.05v.52a2.1,2.1,0,0,1-.61.09,1,1,0,0,1-.75-.29,1.38,1.38,0,0,1-.27-1v-2.08h-.59V418h.59v-.91Z"/><path class="cls-5" d="M114.54,416.51v3.14c0,1.19.53,1.69,1.24,1.69s1.29-.52,1.29-1.69v-3.14h.69v3.09c0,1.63-.85,2.3-2,2.3s-1.91-.62-1.91-2.27v-3.12Z"/><path class="cls-5" d="M118.79,421.11a1.82,1.82,0,0,0,.91.27c.5,0,.74-.25.74-.56s-.2-.52-.71-.7c-.68-.25-1-.63-1-1.08a1.18,1.18,0,0,1,1.23-1.13h.09a2,2,0,0,1,.93.23l-.17.51a1.42,1.42,0,0,0-.78-.22c-.41,0-.64.23-.64.52s.23.45.73.64c.66.25,1,.59,1,1.15a1.28,1.28,0,0,1-1.43,1.14,2.12,2.12,0,0,1-1.07-.26Z"/><path class="cls-5" d="M122.38,420a1.23,1.23,0,0,0,1.13,1.32h.18a2.56,2.56,0,0,0,1.06-.2l.11.5a3.2,3.2,0,0,1-1.26.23,1.76,1.76,0,0,1-1.88-1.65,1.22,1.22,0,0,1,0-.27,1.85,1.85,0,0,1,1.64-2h.15a1.61,1.61,0,0,1,1.58,1.64.76.76,0,0,1,0,.15,1.82,1.82,0,0,1,0,.33Zm2-.5a1,1,0,0,0-.86-1.12h-.14a1.16,1.16,0,0,0-1.06,1.13Z"/><path class="cls-5" d="M125.94,419.19V418h.61v.75h0a1.13,1.13,0,0,1,1.06-.83h.19v.65h-.23a1,1,0,0,0-.93.89,1.71,1.71,0,0,0,0,.32v2H126Z"/><path class="cls-5" d="M133.63,419.88a1.87,1.87,0,0,1-1.71,2h-.19a1.8,1.8,0,0,1-1.83-1.77,1.77,1.77,0,0,1,0-.23,1.87,1.87,0,0,1,1.71-2h.18a1.8,1.8,0,0,1,1.84,1.76A1.93,1.93,0,0,1,133.63,419.88Zm-3,0c0,.83.48,1.46,1.15,1.46s1.16-.62,1.16-1.48c0-.64-.32-1.46-1.14-1.46s-1.19.79-1.19,1.52Z"/><path class="cls-5" d="M134.5,419.19V418h.61v.75h0a1.14,1.14,0,0,1,1.06-.83h.19v.65h-.23a1,1,0,0,0-.93.89,1.71,1.71,0,0,0,0,.32v2h-.69Z"/><path class="cls-5" d="M138.77,416.57a8.17,8.17,0,0,1,1.31-.1,2.22,2.22,0,0,1,1.49.44A1.44,1.44,0,0,1,142,418a1.57,1.57,0,0,1-.41,1.13,2.23,2.23,0,0,1-1.63.59,2.05,2.05,0,0,1-.55-.05v2.13h-.68Zm.68,2.56a2.76,2.76,0,0,0,.57.06c.83,0,1.33-.41,1.33-1.14s-.49-1-1.25-1a3.49,3.49,0,0,0-.65.06Z"/><path class="cls-5" d="M144.84,421.82l-.06-.49h0a1.41,1.41,0,0,1-1.17.57,1.09,1.09,0,0,1-1.16-1v-.09c0-.92.82-1.43,2.29-1.42v-.08a.8.8,0,0,0-.69-.88h-.18a2,2,0,0,0-1,.28l-.16-.45a2.34,2.34,0,0,1,1.26-.34c1.16,0,1.45.79,1.45,1.56v1.42a4.69,4.69,0,0,0,.06.92Zm-.1-1.95c-.76,0-1.62.12-1.62.86a.61.61,0,0,0,.56.66h.1a1,1,0,0,0,.92-.64.81.81,0,0,0,0-.22Z"/><path class="cls-5" d="M146.43,421.11a1.82,1.82,0,0,0,.91.27c.5,0,.74-.25.74-.56s-.2-.52-.71-.7c-.68-.25-1-.63-1-1.08a1.18,1.18,0,0,1,1.23-1.13h.09a2,2,0,0,1,.94.23l-.18.51a1.42,1.42,0,0,0-.78-.22c-.41,0-.63.23-.63.52s.22.45.72.64c.66.25,1,.59,1,1.15a1.28,1.28,0,0,1-1.43,1.14,2.12,2.12,0,0,1-1.07-.26Z"/><path class="cls-5" d="M149.54,421.11a1.89,1.89,0,0,0,.92.27c.5,0,.74-.25.74-.56s-.2-.52-.71-.7c-.69-.25-1-.63-1-1.08a1.17,1.17,0,0,1,1.21-1.13h.1a2,2,0,0,1,.94.23l-.17.51a1.42,1.42,0,0,0-.78-.22c-.41,0-.64.23-.64.52s.23.45.73.64c.66.25,1,.59,1,1.15a1.28,1.28,0,0,1-1.43,1.14,2.12,2.12,0,0,1-1.07-.26Z"/></g><g id="Arrows"><path class="cls-6" d="M155.45,362.43h59.78a7.39,7.39,0,0,0,7.39-7.38V297.28a7.37,7.37,0,0,1,7.37-7.39h12.39l-15.95-6.31"/></g></svg>