<svg id="_1_" data-name="1ยบ" xmlns="http://www.w3.org/2000/svg" viewBox="0 0 841.89 595.28"><defs><style>.cls-1,.cls-3,.cls-4{fill:#d8d9dd;}.cls-1,.cls-4{stroke:#211915;}.cls-1,.cls-2,.cls-4,.cls-6,.cls-7{stroke-miterlimit:10;}.cls-2{fill:#edeef0;}.cls-2,.cls-6{stroke:#c2c3c9;}.cls-4{stroke-width:0.3px;}.cls-5{fill:#211915;}.cls-6,.cls-7{fill:none;}.cls-7{stroke:#aeadb3;stroke-width:3px;}</style></defs><title>User Flow - Cowork Space Manager [Recovered]-02</title><g id="_2_Core_Flux" data-name=" 2 Core Flux"><rect id="Case-3" class="cls-1" x="193.58" y="142.27" width="178.35" height="309.83" rx="22"/><rect id="Background-2" class="cls-2" x="204.68" y="155.26" width="153.3" height="283.84" rx="14.39"/><path class="cls-3" d="M273.59,233.15a22.79,22.79,0,1,1-22.79-22.79h0A22.79,22.79,0,0,1,273.59,233.15Z"/><path class="cls-4" d="M235.77,250.16v-11h10.92v-3.55s-12.56-6.57,0-16.74,21.53,11,10.76,15.64l-.29,4.65h8.67v10.32"/><rect class="cls-3" x="290.24" y="233.15" width="34.06" height="9.11" rx="2.68"/><path class="cls-5" d="M299,237.9h-1.2V239h1.33v.34H297.4v-3.08h1.66v.33H297.8v1H299Z"/><path class="cls-5" d="M301.52,236.11v3.24h-.36V239h0a.82.82,0,0,1-.75.44,1,1,0,0,1-1-1.05.22.22,0,0,1,0-.08,1,1,0,0,1,.8-1.16.68.68,0,0,1,.2,0,.71.71,0,0,1,.66.34h0v-1.32Zm-.4,1.93a.49.49,0,0,0,0-.17.59.59,0,0,0-.57-.47c-.42,0-.67.37-.67.86s.22.81.66.81a.6.6,0,0,0,.58-.48.49.49,0,0,0,0-.17Z"/><path class="cls-5" d="M302.64,236.52a.24.24,0,0,1-.24.24h0a.24.24,0,0,1-.24-.24.25.25,0,0,1,.25-.25.24.24,0,0,1,.25.23Zm-.45,2.83v-2.21h.4v2.21Z"/><path class="cls-5" d="M303.75,236.5v.64h.57v.3h-.57v1.19c0,.28.07.43.3.43h.23v.3a1.09,1.09,0,0,1-.36,0,.54.54,0,0,1-.43-.17.74.74,0,0,1-.16-.57v-1.21H303v-.3h.34v-.53Z"/><path class="cls-5" d="M305.75,236.31a4.9,4.9,0,0,1,.77-.06,1.34,1.34,0,0,1,.86.25.84.84,0,0,1,.27.65.91.91,0,0,1-.24.65,1.28,1.28,0,0,1-.94.34.86.86,0,0,1-.32,0v1.24h-.4Zm.4,1.48a1.82,1.82,0,0,0,.33,0c.48,0,.77-.23.77-.65s-.29-.61-.72-.61a1.21,1.21,0,0,0-.38,0Z"/><path class="cls-5" d="M308.1,237.83v-.69h.35v.43h0a.64.64,0,0,1,.61-.48h.12v.38H309a.57.57,0,0,0-.54.51.61.61,0,0,0,0,.19v1.18h-.4Z"/><path class="cls-5" d="M311.54,238.22a1.09,1.09,0,0,1-1,1.18h-.12a1.07,1.07,0,0,1-1-1.1v0a1.07,1.07,0,0,1,1-1.17h.13a1,1,0,0,1,1,1C311.55,238.12,311.54,238.17,311.54,238.22Zm-1.75,0c0,.48.28.85.67.85s.67-.37.67-.86-.18-.85-.66-.85-.68.47-.68.89Z"/><path class="cls-5" d="M312.09,239.35v-1.91h-.31v-.3h.31V237a.88.88,0,0,1,.76-1h.24a1.22,1.22,0,0,1,.56.14l-.12.31a.84.84,0,0,0-.46-.13c-.43,0-.55.3-.55.65v.11h1.28v2.21h-.4v-1.91h-.88v1.91Z"/><path class="cls-5" d="M314.44,236.11h.4v3.24h-.4Z"/><path class="cls-5" d="M315.74,238.31a.7.7,0,0,0,.64.77h.12a1.43,1.43,0,0,0,.61-.11l.07.28a1.74,1.74,0,0,1-.74.14,1,1,0,0,1-1.09-.91,1.34,1.34,0,0,1,0-.2,1.05,1.05,0,0,1,.94-1.18h.06a.93.93,0,0,1,.92.94v.24Zm1.18-.31a.57.57,0,0,0-.49-.64h-.07a.66.66,0,0,0-.61.65Z"/><rect class="cls-3" x="290.24" y="247.09" width="34.06" height="9.11" rx="2.68"/><path class="cls-5" d="M299.78,253a1.36,1.36,0,0,0,.71.2c.41,0,.64-.21.64-.52s-.16-.45-.58-.61-.81-.44-.81-.87a.89.89,0,0,1,.93-.85h.07a1.6,1.6,0,0,1,.68.15l-.11.33a1.23,1.23,0,0,0-.59-.15c-.42,0-.58.25-.58.46s.19.43.62.59a1,1,0,0,1,.78.91c0,.45-.35.88-1.08.88a1.5,1.5,0,0,1-.78-.19Z"/><path class="cls-5" d="M302.32,252.45a.71.71,0,0,0,.65.76h.11a1.43,1.43,0,0,0,.61-.11l.07.29a1.9,1.9,0,0,1-.74.13,1,1,0,0,1-1.09-.91,1.34,1.34,0,0,1,0-.2,1.05,1.05,0,0,1,.94-1.18h.06a.93.93,0,0,1,.92.94v.25Zm1.18-.29a.57.57,0,0,0-.49-.64h-.07a.66.66,0,0,0-.61.65Z"/><path class="cls-5" d="M304.92,250.64v.63h.58v.31h-.58v1.19c0,.27.08.42.3.42h.23v.3a1.06,1.06,0,0,1-.35,0,.55.55,0,0,1-.44-.17.78.78,0,0,1-.15-.57v-1.2h-.34v-.31h.34v-.53Z"/><path class="cls-5" d="M306.38,250.64v.63h.54v.31h-.58v1.19c0,.27.08.42.3.42h.24v.3a1.06,1.06,0,0,1-.35,0,.55.55,0,0,1-.44-.17.78.78,0,0,1-.15-.57v-1.2h-.34v-.31h.34v-.53Z"/><path class="cls-5" d="M307.86,250.65a.25.25,0,0,1-.23.25h0a.25.25,0,0,1-.24-.26.24.24,0,0,1,.26-.24A.26.26,0,0,1,307.86,250.65Zm-.45,2.83v-2.21h.4v2.21Z"/><path class="cls-5" d="M308.48,251.87v-.6h.36v.36h0a.8.8,0,0,1,.73-.41c.3,0,.78.18.78.94v1.32h-.43V252.2c0-.35-.14-.65-.51-.65a.57.57,0,0,0-.54.41.61.61,0,0,0,0,.19v1.33h-.4Z"/><path class="cls-5" d="M312.92,251.27v1.89a1.3,1.3,0,0,1-.32,1,1.17,1.17,0,0,1-.8.26,1.36,1.36,0,0,1-.74-.18l.11-.31a1.19,1.19,0,0,0,.64.18c.41,0,.71-.22.71-.77v-.25h0a.82.82,0,0,1-.71.37,1,1,0,0,1-.94-1.06v0a1.07,1.07,0,0,1,.94-1.17h.06a.76.76,0,0,1,.69.38h0v-.33Zm-.42.87a.54.54,0,0,0,0-.18.59.59,0,0,0-.56-.43c-.39,0-.66.33-.66.84s.22.79.65.79a.59.59,0,0,0,.56-.41.74.74,0,0,0,0-.21Z"/><path class="cls-5" d="M313.51,253.07a1.1,1.1,0,0,0,.53.16c.29,0,.43-.15.43-.33s-.12-.3-.41-.41-.59-.36-.59-.62a.68.68,0,0,1,.7-.66h.07a1,1,0,0,1,.54.14l-.1.29a.81.81,0,0,0-.45-.13c-.24,0-.37.14-.37.3s.13.27.42.38a.78.78,0,0,1,.58.66.74.74,0,0,1-.83.66,1.32,1.32,0,0,1-.62-.15Z"/><path class="cls-5" d="M285.12,218.21a6,6,0,0,1,.85-.06,1.75,1.75,0,0,1,1.24.38,1.44,1.44,0,0,1,.44,1.11,1.63,1.63,0,0,1-.44,1.19,1.88,1.88,0,0,1-1.36.44h-.73Zm.4,2.72h.4a1.19,1.19,0,0,0,1.31-1,1.13,1.13,0,0,0,0-.26,1.1,1.1,0,0,0-1-1.2h-.73Z"/><path class="cls-5" d="M288.39,220.21a.7.7,0,0,0,.64.77h.12a1.43,1.43,0,0,0,.61-.11l.07.28a1.67,1.67,0,0,1-.73.14,1,1,0,0,1-1.09-.9.74.74,0,0,1,0-.21A1.05,1.05,0,0,1,289,219H289a.93.93,0,0,1,.91.95v.23Zm1.18-.28a.57.57,0,0,0-.48-.65H289a.66.66,0,0,0-.61.66Z"/><path class="cls-5" d="M292,221.16a1.4,1.4,0,0,1-.63.13,1,1,0,0,1-1.11-.88,1,1,0,0,1,0-.25,1.12,1.12,0,0,1,1.06-1.17h.13a1.3,1.3,0,0,1,.55.12l-.09.31a.83.83,0,0,0-.46-.11.77.77,0,0,0-.79.76.25.25,0,0,0,0,.08.75.75,0,0,0,.67.82h.09a1.21,1.21,0,0,0,.49-.11Z"/><path class="cls-5" d="M292.5,219.73V219h.35v.43h0a.64.64,0,0,1,.61-.48h.12v.38h-.14a.55.55,0,0,0-.54.51.61.61,0,0,0,0,.19v1.18h-.4Z"/><path class="cls-5" d="M294.46,218.42a.23.23,0,0,1-.22.24h0a.25.25,0,0,1,0-.49h0a.23.23,0,0,1,.24.22Zm-.44,2.83V219h.4v2.21Z"/><path class="cls-5" d="M295.08,219.76V219h.36v.38h0a.87.87,0,0,1,.79-.43,1,1,0,0,1,.93,1.06v.06a1,1,0,0,1-.79,1.17.75.75,0,0,1-.21,0,.77.77,0,0,1-.68-.35h0v1.2h-.4Zm.4.59a.43.43,0,0,0,0,.16.61.61,0,0,0,.6.47c.43,0,.67-.35.67-.85s-.23-.82-.65-.82a.65.65,0,0,0-.61.49.49.49,0,0,0,0,.17Z"/><path class="cls-5" d="M298.17,218.4v.6h.57v.3h-.57v1.19c0,.28.08.43.3.43h.23v.3a1.09,1.09,0,0,1-.36,0,.54.54,0,0,1-.43-.17.83.83,0,0,1-.16-.57v-1.21h-.34V219h.34v-.53Z"/><path class="cls-5" d="M299.08,221a.28.28,0,0,1,.27-.29h0a.27.27,0,0,1,.27.27v0a.28.28,0,0,1-.23.33.27.27,0,0,1-.32-.22.2.2,0,0,1,0-.11Z"/><circle class="cls-3" cx="236.24" cy="291.53" r="5.65"/><circle class="cls-3" cx="250.8" cy="291.53" r="5.65"/><circle class="cls-3" cx="266.31" cy="291.53" r="5.65"/><circle class="cls-3" cx="280.87" cy="291.53" r="5.65"/><circle class="cls-3" cx="294.76" cy="291.53" r="5.65"/><circle class="cls-3" cx="309.32" cy="291.53" r="5.65"/><circle class="cls-3" cx="324.3" cy="291.53" r="5.65"/><circle class="cls-3" cx="236.24" cy="306.73" r="5.65"/><circle class="cls-3" cx="250.8" cy="306.73" r="5.65"/><circle class="cls-3" cx="266.31" cy="306.73" r="5.65"/><circle class="cls-3" cx="280.87" cy="306.73" r="5.65"/><circle class="cls-3" cx="294.76" cy="306.73" r="5.65"/><circle class="cls-3" cx="309.32" cy="306.73" r="5.65"/><circle class="cls-3" cx="324.3" cy="306.73" r="5.65"/><circle class="cls-3" cx="235.7" cy="321.92" r="5.65"/><circle class="cls-3" cx="250.27" cy="321.92" r="5.65"/><circle class="cls-3" cx="265.78" cy="321.92" r="5.65"/><circle class="cls-3" cx="280.34" cy="321.92" r="5.65"/><circle class="cls-3" cx="294.23" cy="321.92" r="5.65"/><circle class="cls-3" cx="308.79" cy="321.92" r="5.65"/><circle class="cls-3" cx="323.76" cy="321.92" r="5.65"/><circle class="cls-3" cx="235.7" cy="337.11" r="5.65"/><circle class="cls-3" cx="250.27" cy="337.11" r="5.65"/><circle class="cls-3" cx="265.78" cy="337.11" r="5.65"/><circle class="cls-3" cx="280.34" cy="337.11" r="5.65"/><circle class="cls-3" cx="294.23" cy="337.11" r="5.65"/><circle class="cls-3" cx="308.79" cy="337.11" r="5.65"/><circle class="cls-3" cx="323.76" cy="337.11" r="5.65"/><path class="cls-5" d="M232.14,281.87q0-.3,0-.6h.36v.36h0a.74.74,0,0,1,.69-.41.67.67,0,0,1,.63.44h0a.65.65,0,0,1,.24-.28.72.72,0,0,1,.49-.16c.29,0,.73.19.73,1v1.3h-.36v-1.25c0-.43-.15-.68-.48-.68a.53.53,0,0,0-.47.36.67.67,0,0,0,0,.2v1.37h-.39V282.2c0-.36-.16-.61-.46-.61a.53.53,0,0,0-.5.4.34.34,0,0,0,0,.2v1.33h-.4Z"/><path class="cls-5" d="M237.92,282.36a1.09,1.09,0,0,1-1,1.17h-.11a1.06,1.06,0,0,1-1.07-1,.34.34,0,0,1,0-.1,1.08,1.08,0,0,1,1-1.17h.12a1,1,0,0,1,1.06.93A.74.74,0,0,1,237.92,282.36Zm-1.75,0c0,.48.28.85.67.85s.67-.36.67-.86-.19-.85-.66-.85-.65.5-.65.88Z"/><path class="cls-5" d="M238.46,281.87v-.6h.36v.37h0a.78.78,0,0,1,.73-.42c.3,0,.78.18.78.94v1.32h-.41v-1.27c0-.36-.14-.66-.51-.66a.57.57,0,0,0-.54.41.61.61,0,0,0,0,.19v1.33h-.4Z"/><path class="cls-5" d="M248.46,280.64v.63H249v.31h-.57v1.19c0,.27.08.43.3.43H249v.3a1.09,1.09,0,0,1-.36,0,.56.56,0,0,1-.43-.16.85.85,0,0,1-.15-.58v-1.2h-.35v-.31h.35v-.53Z"/><path class="cls-5" d="M251.33,282.88v.6H251v-.36h0a.81.81,0,0,1-.73.41c-.34,0-.76-.19-.76-1v-1.29h.4v1.22c0,.42.13.71.5.71a.6.6,0,0,0,.53-.37.67.67,0,0,0,0-.2v-1.36h.4Z"/><path class="cls-5" d="M252.23,282.45a.69.69,0,0,0,.61.76H253a1.43,1.43,0,0,0,.61-.11l.07.29a1.85,1.85,0,0,1-.73.13,1,1,0,0,1-1.09-.9.74.74,0,0,1,0-.21,1.05,1.05,0,0,1,.94-1.18h.06a.93.93,0,0,1,.91.95v.24Zm1.17-.29a.56.56,0,0,0-.47-.64h-.08a.65.65,0,0,0-.62.65Z"/><path class="cls-5" d="M263.37,281.27l.29,1.12c.06.25.12.48.16.71h0c.05-.23.12-.47.19-.7l.36-1.13h.34l.34,1.11a6.44,6.44,0,0,1,.2.72h0a3,3,0,0,1,.17-.72l.32-1.11h.39l-.71,2.21h-.36l-.34-1.05c-.08-.25-.14-.47-.2-.73h0a6.05,6.05,0,0,1-.2.73l-.35,1.05h-.37l-.66-2.21Z"/><path class="cls-5" d="M266.75,282.45a.69.69,0,0,0,.61.76h.14a1.66,1.66,0,0,0,.62-.11l.06.29a1.85,1.85,0,0,1-.73.13,1,1,0,0,1-1.09-.9.74.74,0,0,1,0-.21,1.05,1.05,0,0,1,.94-1.18h.06a.93.93,0,0,1,.91.95v.24Zm1.17-.29a.56.56,0,0,0-.47-.64h-.08a.65.65,0,0,0-.62.65Z"/><path class="cls-5" d="M270.72,280.24v2.67a5.42,5.42,0,0,0,0,.57h-.36v-.38h0a.83.83,0,0,1-.75.43,1,1,0,0,1-1-1,.22.22,0,0,1,0-.08,1.05,1.05,0,0,1,.92-1.18h.08a.73.73,0,0,1,.67.34h0v-1.32Zm-.4,1.93V282a.6.6,0,0,0-.58-.46c-.42,0-.66.36-.66.85s.22.82.65.82a.61.61,0,0,0,.59-.48v-.56Z"/><path class="cls-5" d="M279.35,279.93v.63h.57v.31h-.58v1.19c0,.27.08.43.31.43h.23v.3a1.12,1.12,0,0,1-.36,0,.53.53,0,0,1-.43-.16.76.76,0,0,1-.16-.58v-1.2h-.34v-.31h.33V280Z"/><path class="cls-5" d="M280.38,279.53h.4v1.38h0a.81.81,0,0,1,.7-.4c.3,0,.77.18.77.95v1.31h-.4V281.5c0-.35-.13-.66-.51-.66a.58.58,0,0,0-.54.41.31.31,0,0,0,0,.19v1.33h-.4Z"/><path class="cls-5" d="M284.76,282.17v.6h-.35v-.36h0a.81.81,0,0,1-.73.41c-.34,0-.76-.19-.76-1v-1.29h.4v1.22c0,.42.13.71.5.71a.6.6,0,0,0,.53-.37.67.67,0,0,0,0-.2v-1.36h.4Z"/><path class="cls-5" d="M292.31,283.48v-1.9H292v-.31h.31v-.1a1,1,0,0,1,.26-.78.82.82,0,0,1,.54-.2,1,1,0,0,1,.34.06l-.06.31a.74.74,0,0,0-.25-.05c-.34,0-.43.3-.43.64v.12h.53v.31h-.53v1.9Z"/><path class="cls-5" d="M293.6,282v-.69h.32v.43h0a.64.64,0,0,1,.61-.48h.12v.38h-.14a.55.55,0,0,0-.54.51.61.61,0,0,0,0,.19v1.18h-.4Z"/><path class="cls-5" d="M295.56,280.65a.23.23,0,0,1-.21.25h0a.25.25,0,0,1,0-.5.23.23,0,0,1,.25.21Zm-.44,2.83v-2.21h.4v2.21Z"/><path class="cls-5" d="M307.25,282.36a1,1,0,0,0,.53.16c.29,0,.43-.15.43-.33s-.12-.3-.41-.41-.59-.36-.59-.62a.67.67,0,0,1,.7-.65H308a1.18,1.18,0,0,1,.55.14l-.1.29a.94.94,0,0,0-.46-.13.34.34,0,0,0-.37.29h0c0,.19.14.27.42.38s.58.34.58.66a.75.75,0,0,1-.82.67,1.32,1.32,0,0,1-.62-.15Z"/><path class="cls-5" d="M310.33,282.77v-.28h0a.81.81,0,0,1-.68.33.63.63,0,0,1-.67-.59v0c0-.54.47-.83,1.33-.83h0a.46.46,0,0,0-.41-.51h-.1a1,1,0,0,0-.57.16l-.09-.26a1.37,1.37,0,0,1,.72-.2c.68,0,.84.46.84.91v.82a2.35,2.35,0,0,0,0,.53Zm-.06-1.13c-.43,0-.93.07-.93.5a.35.35,0,0,0,.31.38h.07a.54.54,0,0,0,.53-.37.24.24,0,0,0,0-.12Z"/><path class="cls-5" d="M311.78,279.93v.63h.57v.31h-.57v1.19c0,.27.08.43.3.43h.23v.3a1.13,1.13,0,0,1-.36.06.54.54,0,0,1-.43-.17.86.86,0,0,1-.16-.58v-1.2H311v-.31h.34V280Z"/><path class="cls-5" d="M321.14,283.07a1,1,0,0,0,.53.16c.29,0,.43-.15.43-.33s-.11-.3-.41-.41-.58-.36-.58-.62a.67.67,0,0,1,.7-.65h.06a1,1,0,0,1,.54.14l-.1.29a.81.81,0,0,0-.45-.13c-.24,0-.37.14-.37.3s.13.27.42.38a.78.78,0,0,1,.58.66.74.74,0,0,1-.83.66,1.12,1.12,0,0,1-.62-.15Z"/><path class="cls-5" d="M324.85,282.88v.6h-.35v-.36h0a.84.84,0,0,1-.74.41c-.34,0-.76-.19-.76-1v-1.29h.4v1.22c0,.42.13.71.5.71a.6.6,0,0,0,.53-.37.67.67,0,0,0,0-.2v-1.36h.4Z"/><path class="cls-5" d="M325.52,281.87q0-.3,0-.6h.36v.37h0a.8.8,0,0,1,.73-.42c.31,0,.78.18.78.94v1.32H327v-1.27c0-.36-.13-.66-.51-.66a.58.58,0,0,0-.54.41.61.61,0,0,0,0,.19v1.33h-.4Z"/><path class="cls-5" d="M220.78,262.71c0,.63-.33.94-.72.94s-.68-.3-.69-.9.33-.92.72-.92S220.78,262.15,220.78,262.71Zm-1.09,0c0,.38.13.67.38.67s.39-.29.39-.68-.11-.66-.39-.66-.38.32-.38.7Zm.35,2.15,1.74-3.06H222l-1.75,3.06Zm2.67-.95c0,.62-.33.93-.71.93s-.69-.29-.69-.89.32-.93.71-.93.69.35.69.92Zm-1.09,0c0,.38.14.66.39.66s.38-.28.38-.67-.1-.66-.38-.66-.39.35-.39.76Z"/><path class="cls-5" d="M224.17,261.77h1.65v.33h-1.26v1h1.17v.33h-1.17v1.39h-.39Z"/><path class="cls-5" d="M228.23,263.72a1.08,1.08,0,0,1-1,1.17h-.13a1,1,0,0,1-1.06-.94,1.21,1.21,0,0,1,0-.19,1.08,1.08,0,0,1,1-1.18h.12a1,1,0,0,1,1.06.93A.74.74,0,0,1,228.23,263.72Zm-1.75,0c0,.49.28.85.67.85s.67-.36.67-.86-.19-.84-.66-.84-.68.45-.68.87Z"/><path class="cls-5" d="M228.74,261.6h.4v3.24h-.4Z"/><path class="cls-5" d="M229.82,261.6h.4v3.24h-.4Z"/><path class="cls-5" d="M232.92,263.72a1.09,1.09,0,0,1-1,1.17h-.11a1,1,0,0,1-1.07-.93,1.34,1.34,0,0,1,0-.2,1.08,1.08,0,0,1,1-1.18h.12a1,1,0,0,1,1.07.92A.81.81,0,0,1,232.92,263.72Zm-1.76,0c0,.49.28.85.67.85s.68-.36.68-.86-.19-.84-.67-.84-.7.45-.7.87Z"/><path class="cls-5" d="M233.53,262.63l.29,1.13c.07.23.12.46.17.7h0a2.48,2.48,0,0,1,.2-.7l.36-1.13h.37l.34,1.11c.08.26.14.5.19.72h0a3.76,3.76,0,0,1,.17-.72l.31-1.11h.4l-.71,2.21h-.37l-.34-1c-.07-.25-.14-.47-.19-.73h0c-.06.25-.12.49-.2.73l-.36,1h-.36l-.67-2.21Z"/><path class="cls-5" d="M236.92,263.81a.7.7,0,0,0,.64.77h.12a1.28,1.28,0,0,0,.61-.12l.07.29a1.91,1.91,0,0,1-.74.14,1,1,0,0,1-1.09-.91,1.48,1.48,0,0,1,0-.21,1.05,1.05,0,0,1,.94-1.18h.06a.94.94,0,0,1,.92,1v.23Zm1.18-.29a.58.58,0,0,0-.51-.65h-.05a.67.67,0,0,0-.61.65Z"/><path class="cls-5" d="M239,263.32v-.69h.35v.44h0a.65.65,0,0,1,.61-.49h.12V263h-.14a.58.58,0,0,0-.54.52.61.61,0,0,0,0,.19v1.17H239Z"/><path class="cls-5" d="M240.41,264.43a1,1,0,0,0,.53.16c.3,0,.43-.14.43-.33s-.11-.29-.41-.4-.58-.36-.58-.63a.68.68,0,0,1,.72-.65h0a1.14,1.14,0,0,1,.54.14l-.1.29a.89.89,0,0,0-.45-.12c-.24,0-.37.13-.37.3s.13.26.42.37a.79.79,0,0,1,.58.67.74.74,0,0,1-.83.66,1.32,1.32,0,0,1-.62-.15Z"/><path class="cls-5" d="M253.76,262.71c0,.63-.33.94-.71.94s-.69-.3-.69-.9.32-.92.71-.92S253.76,262.15,253.76,262.71Zm-1.08,0c0,.38.13.67.38.67s.38-.29.38-.68-.1-.66-.38-.66-.38.32-.38.7Zm.34,2.15,1.75-3.06H255l-1.74,3.06Zm2.67-.95c0,.62-.33.93-.71.93s-.68-.29-.69-.89.33-.93.72-.93.68.35.68.92Zm-1.08,0c0,.38.14.66.38.66s.39-.28.39-.67-.11-.66-.39-.66-.38.35-.38.76Z"/><path class="cls-5" d="M257.15,261.77h1.66v.33h-1.26v1h1.16v.33h-1.16v1.39h-.4Z"/><path class="cls-5" d="M261.22,263.72a1.09,1.09,0,0,1-1,1.17h-.11a1,1,0,0,1-1.07-.93,1.34,1.34,0,0,1,0-.2,1.08,1.08,0,0,1,1-1.18h.13a1,1,0,0,1,1.06.93A.74.74,0,0,1,261.22,263.72Zm-1.75,0c0,.49.27.85.67.85s.67-.36.67-.86-.19-.84-.66-.84-.68.45-.68.87Z"/><path class="cls-5" d="M261.73,261.6h.4v3.24h-.4Z"/><path class="cls-5" d="M262.8,261.6h.41v3.24h-.41Z"/><path class="cls-5" d="M265.92,263.72a1.08,1.08,0,0,1-1,1.17h-.13a1,1,0,0,1-1.07-.93,1.34,1.34,0,0,1,0-.2,1.09,1.09,0,0,1,1-1.18h.11a1,1,0,0,1,1.06.93A.74.74,0,0,1,265.92,263.72Zm-1.75,0c0,.49.28.85.67.85s.67-.36.67-.86-.19-.84-.66-.84a.79.79,0,0,0-.72.87Z"/><path class="cls-5" d="M266.52,262.63l.29,1.13c.06.24.12.47.16.7h0a2.82,2.82,0,0,1,.19-.7l.36-1.13h.4l.34,1.11c.08.24.14.48.2.72h0a3.1,3.1,0,0,1,.17-.72l.32-1.11h.39l-.71,2.21h-.36l-.34-1c-.08-.25-.14-.47-.2-.73h0a6.05,6.05,0,0,1-.2.73l-.35,1h-.37l-.66-2.21Z"/><path class="cls-5" d="M270.17,262a.25.25,0,0,1-.23.25h0a.25.25,0,0,1-.24-.26.24.24,0,0,1,.26-.24A.26.26,0,0,1,270.17,262Zm-.45,2.83v-2.21h.4v2.21Z"/><path class="cls-5" d="M270.79,263.23v-.6h.35V263h0a.78.78,0,0,1,.73-.42c.3,0,.78.19.78.94v1.32h-.4v-1.27c0-.36-.14-.65-.52-.65a.5.5,0,0,0-.53.59v1.33h-.4Z"/><path class="cls-5" d="M275.22,262.63v1.89a1.27,1.27,0,0,1-.32,1,1.18,1.18,0,0,1-.8.27,1.46,1.46,0,0,1-.74-.19l.11-.3a1.28,1.28,0,0,0,.64.17c.41,0,.71-.21.71-.77v-.25h0a.77.77,0,0,1-.7.37,1,1,0,0,1-.94-1.06h0a1.08,1.08,0,0,1,.95-1.18h.05a.76.76,0,0,1,.69.39h0v-.34Zm-.41.88v-.19a.58.58,0,0,0-.56-.42c-.39,0-.66.32-.66.83s.22.8.65.8a.6.6,0,0,0,.56-.41.81.81,0,0,0,0-.22Z"/><path class="cls-5" d="M285.52,212.73v1.82c0,.69.31,1,.72,1s.75-.3.75-1v-1.82h.4v1.8c0,.94-.5,1.33-1.17,1.33s-1.1-.36-1.1-1.32v-1.81Z"/><path class="cls-5" d="M288,215.4a1,1,0,0,0,.53.16c.29,0,.43-.15.43-.33s-.11-.3-.41-.41-.58-.36-.58-.62a.67.67,0,0,1,.7-.65h.06a1,1,0,0,1,.54.14l-.1.29a.81.81,0,0,0-.45-.13c-.24,0-.37.14-.37.3s.13.27.42.38a.78.78,0,0,1,.58.66.74.74,0,0,1-.83.66,1.32,1.32,0,0,1-.62-.15Z"/><path class="cls-5" d="M290.07,214.78a.71.71,0,0,0,.65.76h.11a1.43,1.43,0,0,0,.61-.11l.07.29a1.9,1.9,0,0,1-.74.13,1,1,0,0,1-1.09-.91,1.34,1.34,0,0,1,0-.2,1.05,1.05,0,0,1,.94-1.18h.06a.93.93,0,0,1,.91.95v.24Zm1.18-.29a.57.57,0,0,0-.49-.64h-.07a.66.66,0,0,0-.61.65Z"/><path class="cls-5" d="M292.13,214.29v-.69h.35v.4h0a.64.64,0,0,1,.61-.48h.12v.38h-.14a.55.55,0,0,0-.54.51.61.61,0,0,0,0,.19v1.18h-.4Z"/><path class="cls-5" d="M294.61,215.81v-3.08H295l1,1.56a7.46,7.46,0,0,1,.55,1h0q0-.63,0-1.26v-1.29h.33v3.08h-.4l-1-1.56a9.9,9.9,0,0,1-.57-1h0v2.58Z"/><path class="cls-5" d="M298.82,215.81v-.28h0a.83.83,0,0,1-.68.33.63.63,0,0,1-.67-.59v-.05c0-.53.47-.82,1.33-.82h0a.46.46,0,0,0-.41-.51h-.1a1,1,0,0,0-.57.16l-.09-.26a1.37,1.37,0,0,1,.72-.2c.68,0,.84.46.84.9v.83a2.35,2.35,0,0,0,0,.53Zm-.06-1.13c-.43,0-.93.07-.93.5a.35.35,0,0,0,.31.38h.07a.54.54,0,0,0,.53-.37.29.29,0,0,0,0-.13Z"/><path class="cls-5" d="M299.8,214.2q0-.3,0-.6h.35V214h0a.74.74,0,0,1,.69-.41.67.67,0,0,1,.63.44h0a.75.75,0,0,1,.25-.28.71.71,0,0,1,.49-.16c.29,0,.72.19.72,1v1.3h-.39V214.6c0-.43-.15-.68-.48-.68a.5.5,0,0,0-.47.36.67.67,0,0,0,0,.2v1.37h-.4v-1.32c0-.36-.15-.61-.46-.61a.52.52,0,0,0-.49.4.34.34,0,0,0,0,.2v1.33h-.39Z"/><path class="cls-5" d="M303.83,214.78a.71.71,0,0,0,.65.76h.11a1.43,1.43,0,0,0,.61-.11l.07.29a1.85,1.85,0,0,1-.73.13,1,1,0,0,1-1.09-.9.74.74,0,0,1,0-.21,1.05,1.05,0,0,1,.94-1.18h.06a.93.93,0,0,1,.91.95v.24Zm1.18-.29a.56.56,0,0,0-.47-.64h-.08a.65.65,0,0,0-.62.65Z"/><path class="cls-5" d="M233.63,194.63a5.34,5.34,0,0,1-2.16.39,3.83,3.83,0,0,1-4-3.64,2.9,2.9,0,0,1,0-.51,4.08,4.08,0,0,1,3.84-4.31h.44a4.33,4.33,0,0,1,1.94.37l-.25.86a3.9,3.9,0,0,0-1.65-.34,3,3,0,0,0-3.22,2.77,2.49,2.49,0,0,0,0,.61,3,3,0,0,0,2.68,3.29,2.44,2.44,0,0,0,.47,0,4.26,4.26,0,0,0,1.72-.34Z"/><path class="cls-5" d="M240.12,191.9A2.89,2.89,0,0,1,237.5,195h-.32a2.81,2.81,0,0,1-2.83-2.77,1.77,1.77,0,0,1,0-.23,2.88,2.88,0,0,1,2.62-3.12h.3a2.78,2.78,0,0,1,2.84,2.73A2.43,2.43,0,0,1,240.12,191.9Zm-4.67.06c0,1.29.74,2.27,1.78,2.27s1.79-1,1.79-2.29c0-1-.5-2.26-1.76-2.26s-1.81,1.16-1.81,2.32Z"/><path class="cls-5" d="M241.46,190.6V189h.93l.05,1h0a2,2,0,0,1,1.85-1.09A1.73,1.73,0,0,1,246,190.1h0a2.37,2.37,0,0,1,.65-.76,2,2,0,0,1,1.3-.42c.78,0,1.94.52,1.94,2.56v3.46h-1v-3.33c0-1.13-.41-1.81-1.28-1.81a1.38,1.38,0,0,0-1.26,1,1.65,1.65,0,0,0-.09.54V195h-1v-3.52c0-.94-.41-1.62-1.23-1.62a1.56,1.56,0,0,0-1.41,1.59V195H241.5Z"/><path class="cls-5" d="M251.61,190.93c0-.75,0-1.36-.05-1.92h1v1h0a2.32,2.32,0,0,1,2.09-1.15c1.43,0,2.5,1.21,2.5,3,0,2.11-1.29,3.16-2.68,3.16a2,2,0,0,1-1.81-.93h0v3.2H251.6Zm1.06,1.57a3.23,3.23,0,0,0,0,.44,1.65,1.65,0,0,0,1.61,1.25c1.13,0,1.79-.92,1.79-2.27,0-1.18-.62-2.19-1.76-2.19a1.69,1.69,0,0,0-1.61,1.32,1.31,1.31,0,0,0-.07.44Z"/><path class="cls-5" d="M261.79,194.89l-.09-.74h0a2.21,2.21,0,0,1-1.8.88,1.68,1.68,0,0,1-1.8-1.56v-.13c0-1.42,1.27-2.2,3.54-2.19V191a1.22,1.22,0,0,0-1-1.36h-.3a3,3,0,0,0-1.53.43l-.24-.7a3.64,3.64,0,0,1,1.93-.53c1.8,0,2.24,1.23,2.24,2.41v2.2a7.44,7.44,0,0,0,.1,1.41Zm-.16-3c-1.17,0-2.5.18-2.5,1.33a1,1,0,0,0,1,1,1.47,1.47,0,0,0,1.43-1,1.86,1.86,0,0,0,.06-.34Z"/><path class="cls-5" d="M264.39,190.6a15.66,15.66,0,0,0-.05-1.59h1l.06,1h0a2.17,2.17,0,0,1,2-1.11c.81,0,2.08.49,2.08,2.51v3.51h-1.07V191.5c0-.95-.35-1.74-1.36-1.74a1.52,1.52,0,0,0-1.44,1.1,1.41,1.41,0,0,0-.07.5v3.53h-1.07Z"/><path class="cls-5" d="M271.37,189l1.29,3.48c.13.39.28.85.37,1.2h0c.11-.35.23-.8.38-1.23l1.16-3.45h1.13l-1.6,4.19c-.77,2-1.29,3.06-2,3.69a2.87,2.87,0,0,1-1.31.69l-.27-.9a2.59,2.59,0,0,0,.93-.52,3.32,3.32,0,0,0,.91-1.19,1.12,1.12,0,0,0,.08-.26.89.89,0,0,0-.07-.28L270.2,189Z"/><path class="cls-5" d="M279.32,194.89V186.7h1.16l2.62,4.14a23.12,23.12,0,0,1,1.47,2.67h0c-.1-1.1-.12-2.1-.12-3.37V186.7h1v8.19h-1.07l-2.6-4.15a24.52,24.52,0,0,1-1.53-2.74h0c.06,1,.09,2,.09,3.38v3.5Z"/><path class="cls-5" d="M290.55,194.89l-.09-.74h0a2.21,2.21,0,0,1-1.8.88,1.68,1.68,0,0,1-1.8-1.56v-.13c0-1.42,1.27-2.2,3.54-2.19V191a1.22,1.22,0,0,0-1-1.36h-.28a3,3,0,0,0-1.54.43l-.24-.7a3.64,3.64,0,0,1,1.93-.53c1.8,0,2.24,1.23,2.24,2.41v2.2a7.44,7.44,0,0,0,.1,1.41Zm-.16-3c-1.17,0-2.5.18-2.5,1.33a1,1,0,0,0,1,1,1.47,1.47,0,0,0,1.43-1,1.86,1.86,0,0,0,.06-.34Z"/><path class="cls-5" d="M293.15,190.6a15.66,15.66,0,0,0,0-1.59H294v1h0a2,2,0,0,1,1.85-1.09,1.73,1.73,0,0,1,1.66,1.18h0a2.19,2.19,0,0,1,.66-.76,2,2,0,0,1,1.3-.42c.78,0,1.93.52,1.93,2.56v3.46h-1v-3.33c0-1.13-.41-1.81-1.27-1.81a1.39,1.39,0,0,0-1.27,1,2,2,0,0,0-.08.54V195h-1.05v-3.52c0-.94-.41-1.62-1.23-1.62a1.46,1.46,0,0,0-1.32,1.07,1.54,1.54,0,0,0-.09.52V195h-1Z"/><path class="cls-5" d="M303.92,192.15a1.87,1.87,0,0,0,1.75,2h.25a3.79,3.79,0,0,0,1.62-.3l.19.76a4.77,4.77,0,0,1-2,.37,2.74,2.74,0,0,1-2.91-2.56,2.16,2.16,0,0,1,0-.44c0-1.78,1-3.18,2.76-3.18a2.49,2.49,0,0,1,2.45,2.54,1.93,1.93,0,0,1,0,.24,4.17,4.17,0,0,1,0,.5Zm3.13-.77a1.52,1.52,0,0,0-1.29-1.72l-.19,0a1.76,1.76,0,0,0-1.64,1.74Z"/><path class="cls-5" d="M308.48,195.38l3.4-8.82h.82l-3.4,8.82Z"/><path class="cls-5" d="M313.55,186.26h1.07v8.63h-1.07Z"/><path class="cls-5" d="M321.75,191.9A2.88,2.88,0,0,1,319.1,195h-.28a2.81,2.81,0,0,1-2.83-2.77,1.77,1.77,0,0,1,0-.23,2.88,2.88,0,0,1,2.62-3.12h.3a2.79,2.79,0,0,1,2.83,3Zm-4.67.06c0,1.29.74,2.27,1.79,2.27s1.79-1,1.79-2.29c0-1-.5-2.26-1.77-2.26s-1.81,1.16-1.81,2.32Z"/><path class="cls-5" d="M328.17,189v5a3.42,3.42,0,0,1-.84,2.69,3.1,3.1,0,0,1-2.14.71,3.88,3.88,0,0,1-2-.49l.27-.82a3.29,3.29,0,0,0,1.73.47c1.09,0,1.9-.57,1.9-2.06v-.65h0a2.1,2.1,0,0,1-1.87,1,2.64,2.64,0,0,1-2.52-2.74.57.57,0,0,1,0-.13,2.83,2.83,0,0,1,2.53-3.12h.13a2,2,0,0,1,1.83,1h0V189Zm-1.11,2.32a1.56,1.56,0,0,0-1.5-1.62h-.05c-1,0-1.75.87-1.75,2.23,0,1.15.58,2.12,1.74,2.12A1.58,1.58,0,0,0,327,193a2.18,2.18,0,0,0,.08-.57Z"/><path class="cls-5" d="M335.22,191.9a2.88,2.88,0,0,1-2.6,3.12h-.33a2.8,2.8,0,0,1-2.83-2.77,1.77,1.77,0,0,1,0-.23,2.88,2.88,0,0,1,2.62-3.12h.3a2.78,2.78,0,0,1,2.83,2.74A2.26,2.26,0,0,1,335.22,191.9Zm-4.67.06c0,1.29.75,2.27,1.79,2.27s1.79-1,1.79-2.29c0-1-.5-2.26-1.76-2.26s-1.82,1.16-1.82,2.32Z"/><circle class="cls-3" cx="225.86" cy="172.64" r="10.03"/><line class="cls-6" x1="220.8" y1="166.92" x2="229.98" y2="177.74"/><line class="cls-6" x1="229.04" y1="167.65" x2="222.15" y2="178.48"/></g><g id="Arrows"><path class="cls-5" d="M407.53,272.45a3.81,3.81,0,0,0,1.87.52c1.07,0,1.7-.56,1.7-1.38s-.44-1.18-1.53-1.6c-1.32-.47-2.13-1.15-2.13-2.29a2.31,2.31,0,0,1,2.44-2.21h.17a3.61,3.61,0,0,1,1.79.4l-.29.85a3.27,3.27,0,0,0-1.53-.38c-1.11,0-1.53.66-1.53,1.21,0,.75.49,1.12,1.61,1.56,1.37.52,2.06,1.18,2.06,2.37s-.92,2.33-2.83,2.33a4.12,4.12,0,0,1-2.06-.52Z"/><path class="cls-5" d="M418.41,272.13v1.59h-.93l-.06-1h0a2.17,2.17,0,0,1-1.92,1.08c-.91,0-2-.5-2-2.54v-3.4h1.06v3.22c0,1.1.33,1.84,1.29,1.84a1.53,1.53,0,0,0,1.39-1,1.61,1.61,0,0,0,.1-.53v-3.57h1Z"/><path class="cls-5" d="M420.12,273.72v-8.5h1v3.65h0a2.15,2.15,0,0,1,2-1.07c1.44,0,2.45,1.2,2.44,3,0,2.08-1.3,3.11-2.6,3.11a2,2,0,0,1-1.94-1.09h0v1Zm1.09-2.33a1.65,1.65,0,0,0,.05.38,1.62,1.62,0,0,0,1.58,1.24c1.11,0,1.77-.9,1.77-2.23,0-1.16-.6-2.16-1.73-2.16a1.69,1.69,0,0,0-1.61,1.3,1.59,1.59,0,0,0-.06.43Z"/><path class="cls-5" d="M426.85,272.64a2.83,2.83,0,0,0,1.39.42c.77,0,1.13-.39,1.13-.87s-.3-.77-1.08-1.06c-1-.37-1.53-.95-1.53-1.65a1.79,1.79,0,0,1,1.86-1.71h.14a3,3,0,0,1,1.43.36l-.27.77a2.16,2.16,0,0,0-1.18-.34c-.63,0-1,.36-1,.79s.35.7,1.11,1c1,.38,1.52.89,1.52,1.75s-.79,1.74-2.17,1.74a3.31,3.31,0,0,1-1.63-.4Z"/><path class="cls-5" d="M435.92,273.5a3.87,3.87,0,0,1-1.67.34,2.76,2.76,0,0,1-2.9-2.62,2.44,2.44,0,0,1,0-.38,3,3,0,0,1,2.9-3.09h.22a3.67,3.67,0,0,1,1.46.3l-.24.82a2.38,2.38,0,0,0-1.22-.28,2,2,0,0,0-2,2,1.48,1.48,0,0,0,0,.21A2,2,0,0,0,434.3,273h.18a3.08,3.08,0,0,0,1.3-.29Z"/><path class="cls-5" d="M437.12,269.72v-1.81H438v1.14h0a1.73,1.73,0,0,1,1.61-1.27.76.76,0,0,1,.3,0v1h-.36a1.47,1.47,0,0,0-1.41,1.35,2,2,0,0,0,0,.49v3.1h-1Z"/><path class="cls-5" d="M442.27,266.28a.63.63,0,0,1-.59.65h-.08a.62.62,0,0,1-.64-.62v0a.65.65,0,0,1,.64-.66h0a.63.63,0,0,1,.65.61Zm-1.17,7.44v-5.81h1v5.81Z"/><path class="cls-5" d="M443.92,269.81v-1.9h.94v1h0a2.25,2.25,0,0,1,2.06-1.13c1.4,0,2.46,1.19,2.46,3,0,2.09-1.27,3.12-2.64,3.12A2,2,0,0,1,445,273h0v3.15h-1Zm1,1.54a1.63,1.63,0,0,0,1.63,1.67c1.11,0,1.76-.91,1.76-2.24,0-1.16-.61-2.16-1.72-2.16a1.69,1.69,0,0,0-1.6,1.31,1.25,1.25,0,0,0-.07.43Z"/><path class="cls-5" d="M452,266.25v1.66h1.52v.81H452v3.13c0,.72.21,1.12.8,1.12a2.12,2.12,0,0,0,.61-.07v.79a2.51,2.51,0,0,1-.94.15,1.46,1.46,0,0,1-1.14-.45,2.09,2.09,0,0,1-.41-1.51v-3.16H450v-.81h.9v-1.39Z"/><path class="cls-5" d="M455.92,266.28a.63.63,0,0,1-.59.65h-.08a.62.62,0,0,1-.64-.62v0a.65.65,0,0,1,.64-.66h0a.63.63,0,0,1,.65.61Zm-1.17,7.44v-5.81h1.05v5.81Z"/><path class="cls-5" d="M462.77,270.77a2.84,2.84,0,0,1-2.59,3.07h-.31a2.75,2.75,0,0,1-2.79-2.73,2.44,2.44,0,0,1,0-.27,2.83,2.83,0,0,1,2.57-3.07H460a2.76,2.76,0,0,1,2.81,2.69C462.78,270.56,462.78,270.67,462.77,270.77Zm-4.61.06c0,1.27.73,2.23,1.76,2.23s1.77-.95,1.77-2.26c0-1-.5-2.23-1.74-2.23S458.16,269.72,458.16,270.83Z"/><path class="cls-5" d="M464.1,269.48v-1.57H465l.06,1h0a2.14,2.14,0,0,1,1.92-1.09c.8,0,2,.48,2,2.47v3.47h-1v-3.35c0-.93-.35-1.71-1.35-1.71a1.49,1.49,0,0,0-1.41,1.08,1.35,1.35,0,0,0-.07.49v3.49h-1.06Z"/><path class="cls-5" d="M480.15,270.17c-.06-1.13-.13-2.48-.12-3.49h0c-.28.94-.62,1.95-1,3.07l-1.43,3.92h-.79l-1.31-3.85c-.38-1.14-.71-2.18-.93-3.14h0c0,1-.08,2.36-.15,3.57l-.22,3.47h-1l.57-8.09h1.33l1.38,3.91c.33,1,.61,1.89.81,2.73h0c.2-.82.49-1.71.85-2.73l1.44-3.91h1.34l.51,8.09h-1Z"/><path class="cls-5" d="M486.24,273.72l-.09-.73h0a2.23,2.23,0,0,1-1.78.86,1.66,1.66,0,0,1-1.77-1.53v-.14c0-1.4,1.25-2.17,3.49-2.16v-.12a1.2,1.2,0,0,0-1-1.34h-.3a2.85,2.85,0,0,0-1.51.43l-.24-.69a3.53,3.53,0,0,1,1.9-.52c1.78,0,2.21,1.21,2.21,2.38v2.17a8.06,8.06,0,0,0,.1,1.39Zm-.16-3c-1.15,0-2.46.18-2.46,1.3a.93.93,0,0,0,.87,1h.13a1.46,1.46,0,0,0,1.4-1,1,1,0,0,0,.06-.34Z"/><path class="cls-5" d="M488.81,269.48v-1.57h.94l.06,1h0a2.14,2.14,0,0,1,1.92-1.09c.8,0,2,.48,2,2.47v3.47h-1.06v-3.35c0-.93-.34-1.71-1.34-1.71a1.49,1.49,0,0,0-1.41,1.08,1.36,1.36,0,0,0-.08.49v3.49h-1.05Z"/><path class="cls-5" d="M498.68,273.72l-.08-.73h0a2.19,2.19,0,0,1-1.77.86,1.66,1.66,0,0,1-1.78-1.54v-.13c0-1.4,1.25-2.17,3.49-2.16v-.12a1.2,1.2,0,0,0-1-1.34h-.3a2.85,2.85,0,0,0-1.51.43l-.24-.69a3.54,3.54,0,0,1,1.91-.52c1.77,0,2.2,1.21,2.2,2.38v2.17a8.06,8.06,0,0,0,.1,1.39Zm-.15-3c-1.16,0-2.46.18-2.46,1.3a.93.93,0,0,0,.85,1h.15a1.45,1.45,0,0,0,1.41-1,1.86,1.86,0,0,0,.06-.34Z"/><path class="cls-5" d="M506.25,267.91v5a3.37,3.37,0,0,1-.83,2.65,3.07,3.07,0,0,1-2.11.69,3.6,3.6,0,0,1-1.93-.48l.26-.8a3.17,3.17,0,0,0,1.7.46,1.74,1.74,0,0,0,1.87-2v-.65h0a2.06,2.06,0,0,1-1.85,1,2.59,2.59,0,0,1-2.48-2.7.57.57,0,0,1,0-.13,2.78,2.78,0,0,1,2.48-3.07h.14a2,2,0,0,1,1.81,1h0V268Zm-1.09,2.29a2,2,0,0,0-.06-.48,1.53,1.53,0,0,0-1.47-1.11c-1,0-1.73.85-1.73,2.19,0,1.14.57,2.09,1.71,2.09a1.56,1.56,0,0,0,1.47-1.08,2.1,2.1,0,0,0,.08-.56Z"/><path class="cls-5" d="M508.55,271a1.85,1.85,0,0,0,1.68,2h.32a3.87,3.87,0,0,0,1.61-.3l.18.76a4.65,4.65,0,0,1-1.94.36,2.71,2.71,0,0,1-2.86-2.54,2.54,2.54,0,0,1,0-.39c0-1.75,1-3.13,2.72-3.13a2.45,2.45,0,0,1,2.41,2.5,1.93,1.93,0,0,1,0,.24,4,4,0,0,1,0,.49Zm3.09-.76a1.52,1.52,0,0,0-1.28-1.7h-.18a1.73,1.73,0,0,0-1.62,1.71Z"/><path class="cls-5" d="M514,269.72v-1.81h.93v1.14h0a1.73,1.73,0,0,1,1.61-1.27.76.76,0,0,1,.3,0v1h-.36a1.48,1.48,0,0,0-1.42,1.35,4,4,0,0,0,0,.49v3.1h-1Z"/><path class="cls-5" d="M439.61,279.79a7.86,7.86,0,0,0-1.51,4.91,8,8,0,0,0,1.51,4.87h-.83a7.72,7.72,0,0,1-1.57-4.87,7.89,7.89,0,0,1,1.57-4.91Z"/><path class="cls-5" d="M440.76,280.14a10.32,10.32,0,0,1,2-.17,3.34,3.34,0,0,1,2.34.66,2,2,0,0,1,.64,1.54,2.12,2.12,0,0,1-1.53,2.06h0a2,2,0,0,1,1.19,1.63,12.22,12.22,0,0,0,.63,2.22h-1.11a9.22,9.22,0,0,1-.54-1.93c-.24-1.12-.67-1.54-1.62-1.57h-1v3.5h-1Zm1,3.68h1.16c1.12,0,1.83-.61,1.83-1.53s-.76-1.5-1.86-1.51a5.55,5.55,0,0,0-1,.09Z"/><path class="cls-5" d="M447.82,285.41a1.85,1.85,0,0,0,1.68,2h.32a3.87,3.87,0,0,0,1.61-.3l.17.76a4.57,4.57,0,0,1-1.93.36,2.71,2.71,0,0,1-2.86-2.54,2.54,2.54,0,0,1,0-.39c0-1.75,1-3.13,2.72-3.13a2.45,2.45,0,0,1,2.41,2.5,1.93,1.93,0,0,1,0,.24,4,4,0,0,1,0,.49Zm3.09-.76a1.52,1.52,0,0,0-1.28-1.7h-.18a1.73,1.73,0,0,0-1.62,1.71Z"/><path class="cls-5" d="M453.24,283.88a15.25,15.25,0,0,0-.05-1.57h.94l.06,1h0a2.14,2.14,0,0,1,1.92-1.09c.8,0,2,.48,2,2.47v3.47h-1v-3.35c0-.93-.35-1.71-1.35-1.71a1.49,1.49,0,0,0-1.41,1.08,1.35,1.35,0,0,0-.07.49v3.49h-1.06Z"/><path class="cls-5" d="M460.49,285.41a1.85,1.85,0,0,0,1.68,2h.32a3.72,3.72,0,0,0,1.61-.3l.18.76a4.73,4.73,0,0,1-1.93.36,2.71,2.71,0,0,1-2.87-2.52,2.77,2.77,0,0,1,0-.41c0-1.75,1-3.13,2.72-3.13a2.45,2.45,0,0,1,2.41,2.5,1.93,1.93,0,0,1,0,.24,4,4,0,0,1,0,.49Zm3.09-.76a1.52,1.52,0,0,0-1.28-1.7h-.18a1.73,1.73,0,0,0-1.62,1.71Z"/><path class="cls-5" d="M466.33,282.31l.77,2.95c.17.65.32,1.25.43,1.85h0c.13-.59.32-1.21.51-1.83l1-3h.88l.9,2.91c.21.69.38,1.3.51,1.89h0a17.66,17.66,0,0,1,.44-1.88l.83-2.92h1l-1.87,5.81h-1l-.88-2.77a15.86,15.86,0,0,1-.52-1.91h0c-.15.65-.32,1.29-.53,1.92l-.94,2.76h-1l-1.75-5.81Z"/><path class="cls-5" d="M477.92,288.12l-.08-.73h0a2.19,2.19,0,0,1-1.77.86,1.66,1.66,0,0,1-1.78-1.54v-.13c0-1.4,1.25-2.17,3.49-2.16v-.12a1.2,1.2,0,0,0-1-1.34h-.3a2.85,2.85,0,0,0-1.51.43l-.24-.69a3.54,3.54,0,0,1,1.91-.52c1.77,0,2.2,1.21,2.2,2.38v2.17a8.06,8.06,0,0,0,.1,1.39Zm-.16-3c-1.15,0-2.45.18-2.45,1.3a.93.93,0,0,0,.85,1h.15a1.45,1.45,0,0,0,1.41-1,1.27,1.27,0,0,0,0-.34Z"/><path class="cls-5" d="M480.48,279.6h1.06v8.52h-1.06Z"/><path class="cls-5" d="M482.51,289.59a17.61,17.61,0,0,0,.72-2.86l1.17-.12a13.74,13.74,0,0,1-1.14,2.91Z"/><path class="cls-5" d="M436.32,302.25a5,5,0,0,1-2.13.39,3.78,3.78,0,0,1-4-3.54,3.37,3.37,0,0,1,0-.55,4,4,0,0,1,3.73-4.25h.5a4.33,4.33,0,0,1,1.91.36l-.25.85a3.84,3.84,0,0,0-1.63-.33,3,3,0,0,0-3.17,2.83,2.83,2.83,0,0,0,0,.5,2.94,2.94,0,0,0,2.6,3.24,2.79,2.79,0,0,0,.5,0,4.2,4.2,0,0,0,1.71-.33Z"/><path class="cls-5" d="M440.73,302.52l-.09-.73h0a2.21,2.21,0,0,1-1.78.86,1.66,1.66,0,0,1-1.77-1.53V301c0-1.4,1.25-2.17,3.49-2.16v-.12a1.2,1.2,0,0,0-1-1.34h-.3a2.85,2.85,0,0,0-1.51.43l-.24-.69a3.53,3.53,0,0,1,1.9-.52c1.78,0,2.21,1.21,2.21,2.38v2.17a8.06,8.06,0,0,0,.1,1.39Zm-.16-3c-1.15,0-2.46.17-2.46,1.3a.93.93,0,0,0,.87,1h.13a1.45,1.45,0,0,0,1.4-1,1,1,0,0,0,.06-.34Z"/><path class="cls-5" d="M443.3,298.28v-1.57h.94l.06,1h0a2.14,2.14,0,0,1,1.92-1.09c.8,0,2,.48,2,2.47v3.47h-1.06v-3.35c0-.93-.34-1.71-1.34-1.71a1.49,1.49,0,0,0-1.41,1.08,1.36,1.36,0,0,0-.08.49v3.49h-1Z"/><path class="cls-5" d="M454.1,302.3a3.87,3.87,0,0,1-1.67.34,2.76,2.76,0,0,1-2.9-2.62,2.44,2.44,0,0,1,0-.38,3,3,0,0,1,2.9-3.09h.22a3.67,3.67,0,0,1,1.46.3l-.24.82a2.38,2.38,0,0,0-1.22-.28,2,2,0,0,0-2,2,1.48,1.48,0,0,0,0,.21,2,2,0,0,0,1.82,2.16h.18a3.08,3.08,0,0,0,1.3-.29Z"/><path class="cls-5" d="M455.85,299.81a1.86,1.86,0,0,0,1.71,2h.29a3.72,3.72,0,0,0,1.61-.3l.18.76a4.57,4.57,0,0,1-1.93.36,2.71,2.71,0,0,1-2.87-2.52,2.77,2.77,0,0,1,0-.41c0-1.75,1-3.13,2.73-3.13a2.46,2.46,0,0,1,2.4,2.51,1.77,1.77,0,0,1,0,.23,4,4,0,0,1,0,.49Zm3.09-.76a1.49,1.49,0,0,0-1.26-1.69l-.2,0a1.76,1.76,0,0,0-1.62,1.71Z"/><path class="cls-5" d="M461.27,294h1.06v8.52h-1.06Z"/><path class="cls-5" d="M467.32,302.52l-.08-.73h0a2.21,2.21,0,0,1-1.78.86,1.66,1.66,0,0,1-1.77-1.53V301c0-1.4,1.25-2.17,3.49-2.16v-.12a1.2,1.2,0,0,0-1-1.34h-.3a2.85,2.85,0,0,0-1.51.43l-.24-.69a3.54,3.54,0,0,1,1.91-.52c1.77,0,2.2,1.21,2.2,2.38v2.17a8.06,8.06,0,0,0,.1,1.39Zm-.16-3c-1.15,0-2.45.17-2.45,1.3a.93.93,0,0,0,.85,1h.15a1.43,1.43,0,0,0,1.4-1,1,1,0,0,0,.06-.34Z"/><path class="cls-5" d="M471.11,295.05v1.66h1.51v.81h-1.51v3.13c0,.72.21,1.12.8,1.12a2.54,2.54,0,0,0,.61-.07v.79a2.49,2.49,0,0,1-.93.15,1.46,1.46,0,0,1-1.14-.45,2.09,2.09,0,0,1-.41-1.51v-3.16h-.9v-.81h.9v-1.39Z"/><path class="cls-5" d="M475,295.08a.63.63,0,0,1-.59.65h-.08a.62.62,0,0,1-.64-.62v0a.65.65,0,0,1,.64-.66h0a.63.63,0,0,1,.65.61Zm-1.18,7.44v-5.81h1.11v5.81Z"/><path class="cls-5" d="M481.92,299.57a2.84,2.84,0,0,1-2.59,3.07H479a2.75,2.75,0,0,1-2.79-2.73,2.44,2.44,0,0,1,0-.27,2.83,2.83,0,0,1,2.57-3.07h.31a2.74,2.74,0,0,1,2.8,2.68C481.93,299.35,481.93,299.46,481.92,299.57Zm-4.6.06c0,1.27.73,2.23,1.76,2.23s1.76-.95,1.76-2.26c0-1-.49-2.23-1.73-2.23a2,2,0,0,0-1.84,2.26Z"/><path class="cls-5" d="M483.21,298.28v-1.57h.94l.06,1h0a2.14,2.14,0,0,1,1.92-1.09c.8,0,2.05.48,2.05,2.47v3.47h-1.05v-3.35c0-.93-.35-1.71-1.35-1.71a1.49,1.49,0,0,0-1.41,1.08,1.36,1.36,0,0,0-.08.49v3.49h-1.05Z"/><path class="cls-5" d="M489.19,304a20,20,0,0,0,.72-2.86l1.17-.12a15.16,15.16,0,0,1-1.14,2.91Z"/><path class="cls-5" d="M451.58,314.21a1.86,1.86,0,0,0,1.73,2,1.22,1.22,0,0,0,.27,0,3.68,3.68,0,0,0,1.6-.3l.18.76a4.57,4.57,0,0,1-1.93.36,2.69,2.69,0,0,1-2.86-2.51,2,2,0,0,1,0-.42c0-1.75,1-3.13,2.72-3.13a2.47,2.47,0,0,1,2.41,2.52c0,.08,0,.15,0,.22a4,4,0,0,1,0,.49Zm3.1-.76a1.52,1.52,0,0,0-1.28-1.7h-.18a1.73,1.73,0,0,0-1.62,1.71Z"/><path class="cls-5" d="M458.28,309.45v1.66h1.51v.81h-1.51v3.13c0,.72.2,1.12.79,1.12a2.12,2.12,0,0,0,.61-.07v.79a2.51,2.51,0,0,1-.94.15,1.44,1.44,0,0,1-1.13-.45,2.09,2.09,0,0,1-.41-1.51v-3.16h-.9v-.81h.9v-1.39Z"/><path class="cls-5" d="M465.05,316.7a3.87,3.87,0,0,1-1.67.34,2.76,2.76,0,0,1-2.9-2.62,2.44,2.44,0,0,1,0-.38,3,3,0,0,1,2.9-3.09h.22a3.67,3.67,0,0,1,1.46.3l-.24.82a2.38,2.38,0,0,0-1.22-.28,2,2,0,0,0-2.06,1.94,2.26,2.26,0,0,0,0,.26,2,2,0,0,0,1.82,2.16h.18a3.08,3.08,0,0,0,1.3-.29Z"/><path class="cls-5" d="M465.92,316.29a.7.7,0,0,1,.67-.75h.05a.76.76,0,0,1,0,1.51.7.7,0,0,1-.72-.7S465.92,316.31,465.92,316.29Z"/><path class="cls-5" d="M468.4,316.29a.7.7,0,0,1,.67-.75h.05a.69.69,0,0,1,.7.68v.07a.71.71,0,0,1-.71.71.7.7,0,0,1-.71-.7Z"/><path class="cls-5" d="M470.5,318.37a8.13,8.13,0,0,0,1.51-4.91,8,8,0,0,0-1.51-4.87h.81a7.69,7.69,0,0,1,1.57,4.89,7.81,7.81,0,0,1-1.57,4.89Z"/><path class="cls-5" d="M416.6,324.12h-2.46v-.89h6v.89h-2.47v7.2h-1.05Z"/><path class="cls-5" d="M425.39,328.37a2.84,2.84,0,0,1-2.59,3.07h-.3a2.75,2.75,0,0,1-2.79-2.73,2.44,2.44,0,0,1,0-.27,2.83,2.83,0,0,1,2.57-3.07h.31a2.75,2.75,0,0,1,2.8,2.7C425.4,328.17,425.4,328.27,425.39,328.37Zm-4.6.06c0,1.27.73,2.23,1.76,2.23s1.76-1,1.76-2.26c0-1-.49-2.23-1.74-2.23S420.79,327.32,420.79,328.43Z"/><path class="cls-5" d="M429.22,331.32c0-.4,0-1,0-1.5v-7h1v3.65h0a2.15,2.15,0,0,1,2-1.07c1.44,0,2.46,1.2,2.44,3,0,2.08-1.3,3.11-2.6,3.11a2,2,0,0,1-1.94-1.09h0v1Zm1.09-2.33a1.74,1.74,0,0,0,.05.39,1.64,1.64,0,0,0,1.59,1.23c1.1,0,1.76-.9,1.76-2.23,0-1.16-.6-2.16-1.73-2.16a1.69,1.69,0,0,0-1.61,1.3,1.59,1.59,0,0,0-.06.43Z"/><path class="cls-5" d="M436.69,328.61a1.85,1.85,0,0,0,1.68,2h.32a3.68,3.68,0,0,0,1.6-.3l.18.76a4.57,4.57,0,0,1-1.93.36,2.71,2.71,0,0,1-2.86-2.54,2.54,2.54,0,0,1,0-.39c0-1.75,1-3.13,2.72-3.13a2.45,2.45,0,0,1,2.41,2.5,1.93,1.93,0,0,1,0,.24,4,4,0,0,1,0,.49Zm3.09-.76a1.52,1.52,0,0,0-1.28-1.7h-.18a1.73,1.73,0,0,0-1.62,1.71Z"/><path class="cls-5" d="M449.67,322.8v8.5h-.94l-.05-1h0a2.16,2.16,0,0,1-2,1.14c-1.41,0-2.49-1.19-2.49-2.95,0-1.93,1.19-3.12,2.61-3.12a2,2,0,0,1,1.75.89h0V322.8Zm-1.06,5.08a2.3,2.3,0,0,0-.05-.45,1.54,1.54,0,0,0-1.52-1.22c-1.09,0-1.74,1-1.74,2.24s.58,2.15,1.72,2.15a1.6,1.6,0,0,0,1.54-1.26,2.4,2.4,0,0,0,.05-.46Z"/><path class="cls-5" d="M452,328.61a1.86,1.86,0,0,0,1.71,2H454a3.72,3.72,0,0,0,1.61-.3l.18.76a4.57,4.57,0,0,1-1.93.36,2.71,2.71,0,0,1-2.87-2.52,2.77,2.77,0,0,1,0-.41c0-1.75,1-3.13,2.73-3.13a2.46,2.46,0,0,1,2.4,2.51,1.77,1.77,0,0,1,0,.23,4,4,0,0,1,0,.49Zm3.09-.76a1.49,1.49,0,0,0-1.26-1.69l-.2,0a1.76,1.76,0,0,0-1.62,1.71Z"/><path class="cls-5" d="M457.54,331.32v-5h-.81v-.81h.81v-.31a2.33,2.33,0,0,1,2.11-2.53h.42a3.1,3.1,0,0,1,1.48.38l-.3.81a2.24,2.24,0,0,0-1.23-.34c-1.11,0-1.43.78-1.43,1.71v.28h3.33v5.81h-1v-5H458.6v5Z"/><path class="cls-5" d="M463.71,327.08v-1.57h.94l.06,1h0a2.14,2.14,0,0,1,1.92-1.09c.8,0,2.05.48,2.05,2.47v3.47h-1.05V328c0-.93-.35-1.71-1.35-1.71a1.49,1.49,0,0,0-1.41,1.08,1.35,1.35,0,0,0-.07.49v3.49h-1.06Z"/><path class="cls-5" d="M470.92,328.61a1.85,1.85,0,0,0,1.68,2h.32a3.87,3.87,0,0,0,1.61-.3l.18.76a4.65,4.65,0,0,1-1.94.36,2.71,2.71,0,0,1-2.86-2.54,2.54,2.54,0,0,1,0-.39c0-1.75,1-3.13,2.72-3.13a2.45,2.45,0,0,1,2.41,2.5,1.93,1.93,0,0,1,0,.24,4,4,0,0,1,0,.49Zm3.09-.76a1.52,1.52,0,0,0-1.28-1.7h-.18a1.73,1.73,0,0,0-1.62,1.71Z"/><path class="cls-5" d="M481.39,322.8v8.5h-.94l-.05-1h0a2.14,2.14,0,0,1-2,1.14c-1.4,0-2.48-1.19-2.48-2.95,0-1.93,1.19-3.12,2.6-3.12a2,2,0,0,1,1.76.89h0V322.8Zm-1.05,5.08a1.7,1.7,0,0,0,0-.45,1.54,1.54,0,0,0-1.52-1.22c-1.09,0-1.74,1-1.74,2.24s.57,2.15,1.71,2.15a1.59,1.59,0,0,0,1.55-1.26,1.77,1.77,0,0,0,0-.46Z"/><path class="cls-5" d="M486.11,325.51l.77,2.95c.17.65.33,1.25.43,1.85h0c.13-.59.32-1.21.51-1.83l.95-3h.89l.9,2.91c.22.69.38,1.3.52,1.89h0a17.66,17.66,0,0,1,.44-1.88l.83-2.92h1l-1.88,5.81h-1l-.88-2.77c-.21-.65-.37-1.23-.52-1.91h0c-.15.65-.32,1.29-.53,1.92l-.93,2.76h-1l-1.76-5.81Z"/><path class="cls-5" d="M495.7,323.88a.63.63,0,0,1-.59.65H495a.62.62,0,0,1-.64-.62v0a.65.65,0,0,1,.64-.66h0a.63.63,0,0,1,.65.61Zm-1.17,7.44v-5.81h1v5.81Z"/><path class="cls-5" d="M498.6,323.85v1.66h1.52v.81H498.6v3.13c0,.72.21,1.12.8,1.12a2.12,2.12,0,0,0,.61-.07v.79a2.51,2.51,0,0,1-.94.15,1.46,1.46,0,0,1-1.14-.45,2.09,2.09,0,0,1-.41-1.51v-3.16h-.9v-.81h.9v-1.39Z"/><path class="cls-5" d="M501.31,322.8h1.05v3.62h0a1.93,1.93,0,0,1,.76-.74,2.14,2.14,0,0,1,1.08-.3c.78,0,2,.48,2,2.48v3.46h-1.06V328c0-.93-.35-1.72-1.34-1.72a1.51,1.51,0,0,0-1.42,1.05,1.26,1.26,0,0,0-.07.51v3.5h-1.05Z"/><path class="cls-5" d="M433.14,345.45a5,5,0,0,1-2.13.39,3.78,3.78,0,0,1-4-3.54,3.37,3.37,0,0,1,0-.55,4,4,0,0,1,3.73-4.25h.5a4.53,4.53,0,0,1,1.92.36l-.26.85a3.84,3.84,0,0,0-1.63-.33,3,3,0,0,0-3.17,2.83,2.83,2.83,0,0,0,0,.5,2.94,2.94,0,0,0,2.6,3.24,2.79,2.79,0,0,0,.5,0,4.2,4.2,0,0,0,1.71-.33Z"/><path class="cls-5" d="M439.54,342.77a2.84,2.84,0,0,1-2.59,3.07h-.3a2.75,2.75,0,0,1-2.79-2.73,2.44,2.44,0,0,1,0-.27,2.83,2.83,0,0,1,2.57-3.07h.31a2.75,2.75,0,0,1,2.8,2.7C439.55,342.57,439.55,342.67,439.54,342.77Zm-4.61.06c0,1.27.74,2.23,1.77,2.23s1.76-.95,1.76-2.26c0-1-.49-2.23-1.74-2.23s-1.8,1.15-1.8,2.26Z"/><path class="cls-5" d="M441.21,339.91l.77,2.95c.17.65.32,1.25.43,1.85h0c.13-.59.32-1.21.51-1.83l1-3h.89l.9,2.91c.21.69.38,1.3.51,1.89h0a15.51,15.51,0,0,1,.44-1.88l.83-2.92h1l-1.87,5.81h-1l-.89-2.77c-.2-.65-.37-1.23-.51-1.91h0a18.13,18.13,0,0,1-.52,1.92l-.94,2.76h-1L440,339.88Z"/><path class="cls-5" d="M454.76,342.77a2.84,2.84,0,0,1-2.59,3.07h-.3a2.76,2.76,0,0,1-2.8-2.72,2.62,2.62,0,0,1,0-.28,2.83,2.83,0,0,1,2.57-3.07H452a2.76,2.76,0,0,1,2.81,2.69C454.77,342.56,454.77,342.67,454.76,342.77Zm-4.61.06c0,1.27.73,2.23,1.76,2.23s1.77-.95,1.77-2.26c0-1-.5-2.23-1.74-2.23s-1.79,1.15-1.79,2.26Z"/><path class="cls-5" d="M456.09,341.72v-1.81H457v1.14h0a1.73,1.73,0,0,1,1.61-1.27.76.76,0,0,1,.3,0v1h-.36a1.48,1.48,0,0,0-1.42,1.35,4,4,0,0,0,0,.49v3.1h-1Z"/><path class="cls-5" d="M461.11,342.58h0a6.55,6.55,0,0,1,.52-.66l1.7-2h1.27l-2.24,2.39,2.55,3.42h-1.28l-2-2.78-.54.6v2.18h-1V337.2h1Z"/><path class="cls-5" d="M468.13,344.45A3.81,3.81,0,0,0,470,345c1.06,0,1.69-.56,1.69-1.38s-.43-1.18-1.52-1.6c-1.32-.47-2.14-1.15-2.14-2.29a2.31,2.31,0,0,1,2.44-2.21h.17a3.61,3.61,0,0,1,1.79.4l-.29.85a3.27,3.27,0,0,0-1.53-.38c-1.11,0-1.52.66-1.52,1.21,0,.75.49,1.12,1.6,1.56,1.37.52,2.07,1.18,2.07,2.37s-.93,2.33-2.84,2.33a4.12,4.12,0,0,1-2.06-.52Z"/><path class="cls-5" d="M474.15,341.81c0-.75,0-1.35,0-1.9h1v1h0a2.27,2.27,0,0,1,2.06-1.13c1.41,0,2.46,1.19,2.46,3,0,2.09-1.27,3.12-2.64,3.12a2,2,0,0,1-1.78-.91h0v3.15h-1Zm1,1.54a2.2,2.2,0,0,0,.05.44,1.62,1.62,0,0,0,1.62,1.21c1.12,0,1.77-.91,1.77-2.24,0-1.16-.61-2.16-1.73-2.16a1.67,1.67,0,0,0-1.59,1.31,1.26,1.26,0,0,0-.08.43Z"/><path class="cls-5" d="M484.19,345.72l-.08-.73h0a2.19,2.19,0,0,1-1.77.86,1.66,1.66,0,0,1-1.78-1.54v-.13c0-1.4,1.25-2.17,3.49-2.16v-.12a1.2,1.2,0,0,0-1-1.34h-.3a2.85,2.85,0,0,0-1.51.43l-.24-.69a3.54,3.54,0,0,1,1.91-.52c1.77,0,2.21,1.21,2.21,2.38v2.17a8.05,8.05,0,0,0,.09,1.39Zm-.15-3c-1.16,0-2.46.18-2.46,1.3a.93.93,0,0,0,.85,1h.15a1.45,1.45,0,0,0,1.41-1,1.86,1.86,0,0,0,.06-.34Z"/><path class="cls-5" d="M490.92,345.5a3.87,3.87,0,0,1-1.67.34,2.76,2.76,0,0,1-2.9-2.62,2.44,2.44,0,0,1,0-.38,3,3,0,0,1,2.9-3.09h.22a3.67,3.67,0,0,1,1.46.3l-.24.82a2.38,2.38,0,0,0-1.22-.28,2,2,0,0,0-2,2,1.48,1.48,0,0,0,0,.21A2,2,0,0,0,489.3,345h.18a3.08,3.08,0,0,0,1.3-.29Z"/><path class="cls-5" d="M492.65,343a1.86,1.86,0,0,0,1.71,2h.29a3.72,3.72,0,0,0,1.61-.3l.18.76a4.57,4.57,0,0,1-1.93.36,2.69,2.69,0,0,1-2.86-2.51,2,2,0,0,1,0-.42c0-1.75,1-3.13,2.72-3.13a2.47,2.47,0,0,1,2.41,2.52c0,.08,0,.15,0,.22a4,4,0,0,1,0,.49Zm3.1-.76a1.52,1.52,0,0,0-1.28-1.7h-.18a1.73,1.73,0,0,0-1.62,1.71Z"/><polyline class="cls-7" points="329.94 253.48 414.46 253.48 399.17 248.35"/></g></svg>