<svg xmlns="http://www.w3.org/2000/svg" viewBox="0 0 564.13 534.89"><defs><style>.cls-1,.cls-4{fill:#fff;}.cls-1,.cls-2,.cls-4,.cls-5{stroke:#211915;stroke-miterlimit:10;}.cls-2,.cls-3{fill:#211915;}.cls-2,.cls-4,.cls-5{stroke-width:0.5px;}.cls-5{fill:none;}</style></defs><title>Example - Enteties</title><g id="Setas"><rect class="cls-1" x="52.07" y="347.9" width="54.55" height="33.85"/><rect class="cls-1" x="20.1" y="407.6" width="65.2" height="49.65"/><rect class="cls-1" x="94.98" y="457.4" width="89.64" height="68.26"/><line class="cls-2" x1="135.19" y1="428.18" x2="135.19" y2="436.67"/><line class="cls-2" x1="135.19" y1="438.43" x2="135.19" y2="440.88"/><line class="cls-2" x1="135.19" y1="443.38" x2="135.19" y2="446.52"/><line class="cls-2" x1="135.19" y1="448.41" x2="135.19" y2="450.85"/><line class="cls-2" x1="135.19" y1="453.36" x2="135.19" y2="456.49"/><line class="cls-2" x1="133.17" y1="376.65" x2="133.17" y2="379.1"/><line class="cls-2" x1="133.17" y1="381.6" x2="133.17" y2="384.74"/><line class="cls-2" x1="133.17" y1="386.63" x2="133.17" y2="389.07"/><line class="cls-2" x1="133.17" y1="391.58" x2="133.17" y2="394.71"/><line class="cls-2" x1="99.56" y1="320.49" x2="99.56" y2="322.93"/><line class="cls-2" x1="99.56" y1="325.44" x2="99.56" y2="328.57"/><line class="cls-2" x1="99.56" y1="330.47" x2="99.56" y2="332.91"/><line class="cls-2" x1="99.56" y1="335.79" x2="99.56" y2="347.9"/><path class="cls-3" d="M68.9,361.57H65.45v3.2H69.3v1h-5v-8.88H69.1v1H65.45v2.81H68.9Z"/><path class="cls-3" d="M70.75,361.08c0-.66,0-1.2-.06-1.73h1l.07,1.06h0a2.35,2.35,0,0,1,2.11-1.2c.88,0,2.25.53,2.25,2.71v3.81H75v-3.68c0-1-.38-1.88-1.47-1.88A1.64,1.64,0,0,0,72,361.35a1.53,1.53,0,0,0-.08.54v3.84H70.75Z"/><path class="cls-3" d="M79.4,357.52v1.83h1.66v.89H79.4v3.43c0,.79.22,1.24.87,1.24a2.58,2.58,0,0,0,.67-.08l0,.87a2.87,2.87,0,0,1-1,.16,1.6,1.6,0,0,1-1.25-.49,2.36,2.36,0,0,1-.44-1.66v-3.47h-1v-.89h1v-1.52Z"/><path class="cls-3" d="M83.65,357.56a.72.72,0,0,1-1.43,0,.7.7,0,0,1,.72-.72A.69.69,0,0,1,83.65,357.56Zm-1.29,8.17v-6.38h1.16v6.38Z"/><path class="cls-3" d="M86.84,357.52v1.83H88.5v.89H86.84v3.43c0,.79.22,1.24.87,1.24a2.58,2.58,0,0,0,.67-.08l.05.87a2.87,2.87,0,0,1-1,.16,1.6,1.6,0,0,1-1.25-.49,2.36,2.36,0,0,1-.44-1.66v-3.47h-1v-.89h1v-1.52Z"/><path class="cls-3" d="M90.34,359.35l1.4,3.77c.14.42.3.92.4,1.3h0c.12-.38.25-.87.41-1.33l1.26-3.74h1.23l-1.74,4.55c-.83,2.18-1.4,3.3-2.19,4a3.18,3.18,0,0,1-1.42.75l-.29-1a3,3,0,0,0,1-.56,3.46,3.46,0,0,0,1-1.29,1,1,0,0,0,.09-.28.78.78,0,0,0-.08-.3l-2.35-5.88Z"/><path class="cls-3" d="M33.47,432.13a5.68,5.68,0,0,1-2.34.42,4.15,4.15,0,0,1-4.39-4.49,4.42,4.42,0,0,1,4.64-4.66,4.68,4.68,0,0,1,2.1.4l-.27.93a4.22,4.22,0,0,0-1.79-.37A3.31,3.31,0,0,0,28,428a3.22,3.22,0,0,0,3.41,3.57,4.48,4.48,0,0,0,1.87-.37Z"/><path class="cls-3" d="M40.49,429.18a3.12,3.12,0,0,1-3.17,3.39,3,3,0,0,1-3.06-3.28,3.12,3.12,0,0,1,3.16-3.39A3,3,0,0,1,40.49,429.18Zm-5.06.07c0,1.4.8,2.45,1.94,2.45s1.93-1,1.93-2.48c0-1.08-.54-2.45-1.91-2.45S35.43,428,35.43,429.25Z"/><path class="cls-3" d="M42,427.77c0-.65,0-1.19-.05-1.72h1l.05,1h0a2.2,2.2,0,0,1,2-1.18,1.9,1.9,0,0,1,1.81,1.28h0a2.68,2.68,0,0,1,.72-.83,2.16,2.16,0,0,1,1.4-.45c.85,0,2.1.56,2.1,2.77v3.75H49.92v-3.61c0-1.22-.45-2-1.39-2a1.51,1.51,0,0,0-1.37,1.06,1.91,1.91,0,0,0-.09.58v3.93H45.94V428.6c0-1-.45-1.75-1.33-1.75A1.59,1.59,0,0,0,43.17,428a1.75,1.75,0,0,0-.09.57v3.84H42Z"/><path class="cls-3" d="M52.93,428.13c0-.82,0-1.47,0-2.08h1l0,1.09h0a2.51,2.51,0,0,1,2.26-1.24c1.54,0,2.7,1.31,2.7,3.24,0,2.3-1.39,3.43-2.9,3.43a2.24,2.24,0,0,1-2-1h0V435H52.93Zm1.15,1.7a2.26,2.26,0,0,0,.05.47,1.79,1.79,0,0,0,1.74,1.36c1.22,0,1.93-1,1.93-2.46,0-1.28-.67-2.37-1.89-2.37a1.84,1.84,0,0,0-1.75,1.43,1.93,1.93,0,0,0-.08.48Z"/><path class="cls-3" d="M64,432.42l-.09-.8h0a2.38,2.38,0,0,1-2,.95,1.82,1.82,0,0,1-1.95-1.83c0-1.54,1.37-2.39,3.83-2.37v-.13a1.31,1.31,0,0,0-1.44-1.48,3.13,3.13,0,0,0-1.66.47l-.27-.76a4,4,0,0,1,2.1-.57c2,0,2.42,1.33,2.42,2.61v2.39a9.93,9.93,0,0,0,.1,1.52Zm-.17-3.25c-1.26,0-2.7.2-2.7,1.44a1,1,0,0,0,1.09,1.1,1.59,1.59,0,0,0,1.54-1.06,1.27,1.27,0,0,0,.07-.37Z"/><path class="cls-3" d="M66.77,427.77c0-.65,0-1.19,0-1.72h1l.07,1.05h0a2.34,2.34,0,0,1,2.1-1.2c.88,0,2.25.53,2.25,2.72v3.8H71v-3.67c0-1-.39-1.88-1.48-1.88A1.64,1.64,0,0,0,68,428.05a1.5,1.5,0,0,0-.08.54v3.83H66.77Z"/><path class="cls-3" d="M74.33,426.05l1.39,3.77c.15.42.31.92.41,1.3h0c.12-.38.25-.87.41-1.33l1.26-3.74h1.22l-1.73,4.54c-.83,2.19-1.4,3.31-2.19,4a3.13,3.13,0,0,1-1.42.75l-.29-1a3,3,0,0,0,1-.57,3.57,3.57,0,0,0,1-1.29.92.92,0,0,0,.09-.27,1.15,1.15,0,0,0-.08-.31l-2.36-5.87Z"/><path class="cls-3" d="M31.07,444.06H27.62v3.2h3.85v1h-5v-8.87h4.79v1H27.62v2.8h3.45Z"/><path class="cls-3" d="M32.92,443.58c0-.66,0-1.2-.06-1.73h1l0,1h0a2.19,2.19,0,0,1,2-1.17A1.89,1.89,0,0,1,37.78,443h0a2.8,2.8,0,0,1,.71-.83,2.2,2.2,0,0,1,1.41-.44c.84,0,2.1.55,2.1,2.76v3.75H40.88v-3.6c0-1.23-.44-2-1.38-2a1.5,1.5,0,0,0-1.37,1.06,2,2,0,0,0-.09.58v3.93H36.91v-3.81c0-1-.45-1.76-1.33-1.76a1.59,1.59,0,0,0-1.44,1.16,1.75,1.75,0,0,0-.09.57v3.84H32.92Z"/><path class="cls-3" d="M43.9,443.93c0-.82,0-1.47,0-2.08h1l0,1.09h0a2.53,2.53,0,0,1,2.27-1.23c1.54,0,2.7,1.3,2.7,3.23,0,2.3-1.4,3.43-2.9,3.43a2.24,2.24,0,0,1-2-1h0v3.46H43.9Zm1.14,1.7a2.23,2.23,0,0,0,.06.47,1.77,1.77,0,0,0,1.73,1.36c1.23,0,1.94-1,1.94-2.46,0-1.28-.67-2.37-1.9-2.37a1.85,1.85,0,0,0-1.75,1.43,1.93,1.93,0,0,0-.08.48Z"/><path class="cls-3" d="M51.39,438.87h1.16v9.35H51.39Z"/><path class="cls-3" d="M60.26,445a3.12,3.12,0,0,1-3.17,3.39A3,3,0,0,1,54,445.09a3.11,3.11,0,0,1,3.16-3.38A3,3,0,0,1,60.26,445Zm-5,.07c0,1.4.8,2.45,1.93,2.45s1.94-1,1.94-2.48c0-1.08-.54-2.45-1.91-2.45S55.21,443.84,55.21,445.05Z"/><path class="cls-3" d="M62.06,441.85l1.39,3.77c.15.42.3.92.41,1.3h0c.11-.38.25-.87.4-1.33l1.27-3.74h1.22L65,446.39c-.83,2.19-1.39,3.31-2.18,4a3.13,3.13,0,0,1-1.42.75l-.29-1a3,3,0,0,0,1-.57,3.37,3.37,0,0,0,1-1.29.76.76,0,0,0,.1-.27,1.15,1.15,0,0,0-.08-.31l-2.36-5.87Z"/><path class="cls-3" d="M68.35,445.25a2,2,0,0,0,2.18,2.21,4.15,4.15,0,0,0,1.77-.33l.2.83a5.24,5.24,0,0,1-2.12.4,3,3,0,0,1-3.14-3.22c0-1.92,1.14-3.43,3-3.43a2.7,2.7,0,0,1,2.64,3,5.28,5.28,0,0,1,0,.54Zm3.4-.83a1.65,1.65,0,0,0-1.61-1.88,1.91,1.91,0,0,0-1.78,1.88Z"/><path class="cls-3" d="M75,445.25a2,2,0,0,0,2.18,2.21,4.15,4.15,0,0,0,1.77-.33l.19.83a5.16,5.16,0,0,1-2.12.4,3,3,0,0,1-3.13-3.22c0-1.92,1.13-3.43,3-3.43,2.08,0,2.63,1.83,2.63,3a3.41,3.41,0,0,1,0,.54Zm3.39-.83a1.64,1.64,0,0,0-1.6-1.88A1.91,1.91,0,0,0,75,444.42Z"/><path class="cls-3" d="M120.56,492.48a5.73,5.73,0,0,1-2.35.42,4.14,4.14,0,0,1-4.38-4.49,4.41,4.41,0,0,1,4.63-4.66,4.74,4.74,0,0,1,2.11.39l-.27.94a4.09,4.09,0,0,0-1.8-.37c-2.08,0-3.46,1.33-3.46,3.66a3.23,3.23,0,0,0,3.41,3.57,4.64,4.64,0,0,0,1.87-.37Z"/><path class="cls-3" d="M127.58,489.53a3.12,3.12,0,0,1-3.18,3.38,3,3,0,0,1-3.05-3.28,3.11,3.11,0,0,1,3.16-3.38A3,3,0,0,1,127.58,489.53Zm-5.06.06c0,1.4.8,2.45,1.94,2.45s1.93-1,1.93-2.47c0-1.08-.54-2.45-1.91-2.45S122.52,488.38,122.52,489.59Z"/><path class="cls-3" d="M129,488.12c0-.66,0-1.2-.06-1.73h1l.05,1h0a2.19,2.19,0,0,1,2-1.17,1.89,1.89,0,0,1,1.81,1.27h0a2.63,2.63,0,0,1,.71-.82,2.2,2.2,0,0,1,1.41-.45c.85,0,2.1.55,2.1,2.76v3.76H137v-3.61c0-1.23-.44-2-1.38-2a1.49,1.49,0,0,0-1.37,1.05,2,2,0,0,0-.09.58v3.94H133V489c0-1-.45-1.75-1.33-1.75a1.58,1.58,0,0,0-1.44,1.15,1.79,1.79,0,0,0-.09.57v3.85H129Z"/><path class="cls-3" d="M140,488.47c0-.81,0-1.47-.05-2.08h1l.05,1.1h0a2.49,2.49,0,0,1,2.26-1.24c1.54,0,2.7,1.3,2.7,3.24,0,2.29-1.4,3.42-2.9,3.42a2.24,2.24,0,0,1-2-1h0v3.46H140Zm1.14,1.7a2.42,2.42,0,0,0,.06.48A1.79,1.79,0,0,0,143,492c1.22,0,1.93-1,1.93-2.46,0-1.28-.67-2.37-1.89-2.37a1.87,1.87,0,0,0-1.76,1.43,1.93,1.93,0,0,0-.08.48Z"/><path class="cls-3" d="M151,492.77,151,492h0a2.38,2.38,0,0,1-1.95,1,1.82,1.82,0,0,1-2-1.83c0-1.54,1.37-2.38,3.83-2.37v-.13a1.31,1.31,0,0,0-1.45-1.48,3.19,3.19,0,0,0-1.66.48l-.26-.77a4,4,0,0,1,2.1-.56c1.94,0,2.42,1.33,2.42,2.6v2.39a9,9,0,0,0,.1,1.53Zm-.17-3.26c-1.27,0-2.7.2-2.7,1.44a1,1,0,0,0,1.09,1.1A1.58,1.58,0,0,0,150.8,491a1.21,1.21,0,0,0,.07-.37Z"/><path class="cls-3" d="M153.86,488.12c0-.66,0-1.2-.06-1.73h1l.07,1.06h0a2.35,2.35,0,0,1,2.11-1.2c.88,0,2.25.52,2.25,2.71v3.81h-1.16v-3.68c0-1-.38-1.88-1.47-1.88a1.64,1.64,0,0,0-1.55,1.18,1.53,1.53,0,0,0-.08.54v3.84h-1.16Z"/><path class="cls-3" d="M161.42,486.39l1.39,3.77c.15.42.3.92.41,1.3h0c.11-.38.25-.87.4-1.33l1.27-3.74h1.22l-1.74,4.55c-.82,2.18-1.39,3.3-2.18,4a3.17,3.17,0,0,1-1.42.76l-.29-1a3,3,0,0,0,1-.57,3.48,3.48,0,0,0,1-1.29.84.84,0,0,0,.09-.27,1,1,0,0,0-.08-.3l-2.36-5.88Z"/><rect class="cls-1" x="112.96" y="394.99" width="44.45" height="33.85"/><path class="cls-3" d="M126.38,412.86a5.7,5.7,0,0,1-2.35.43,4.14,4.14,0,0,1-4.38-4.49,4.42,4.42,0,0,1,4.63-4.67,4.7,4.7,0,0,1,2.11.4l-.28.93a4.15,4.15,0,0,0-1.79-.37c-2.08,0-3.46,1.33-3.46,3.67a3.22,3.22,0,0,0,3.41,3.56,4.65,4.65,0,0,0,1.87-.36Z"/><path class="cls-3" d="M127.77,403.8h1.16v9.35h-1.16Z"/><path class="cls-3" d="M132.17,405a.72.72,0,0,1-1.44,0,.72.72,0,0,1,.73-.73A.69.69,0,0,1,132.17,405Zm-1.29,8.16v-6.37H132v6.37Z"/><path class="cls-3" d="M134.61,410.18a2,2,0,0,0,2.18,2.21,4.15,4.15,0,0,0,1.77-.33l.19.83a5.2,5.2,0,0,1-2.12.4,3,3,0,0,1-3.13-3.22c0-1.92,1.13-3.44,3-3.44,2.08,0,2.63,1.84,2.63,3a3.41,3.41,0,0,1,0,.54Zm3.39-.83a1.64,1.64,0,0,0-1.6-1.88,1.91,1.91,0,0,0-1.78,1.88Z"/><path class="cls-3" d="M140.56,408.51c0-.66,0-1.2-.06-1.73h1l.07,1.05h0a2.37,2.37,0,0,1,2.11-1.2c.88,0,2.25.53,2.25,2.72v3.8h-1.16v-3.67c0-1-.38-1.88-1.47-1.88a1.65,1.65,0,0,0-1.56,1.18,1.77,1.77,0,0,0-.07.54v3.83h-1.16Z"/><path class="cls-3" d="M149.21,405v1.83h1.66v.88h-1.66v3.44c0,.79.22,1.24.87,1.24a2.58,2.58,0,0,0,.67-.08l.05.87a2.87,2.87,0,0,1-1,.16,1.63,1.63,0,0,1-1.25-.49,2.36,2.36,0,0,1-.45-1.66v-3.48h-1v-.88h1v-1.53Z"/><rect class="cls-1" x="56.44" y="281.33" width="60.5" height="37.9"/><path class="cls-3" d="M61.51,296.83v8.88H60.36v-8.88Z"/><path class="cls-3" d="M63.6,301.06c0-.66,0-1.2-.05-1.73h1l.06,1.06h0a2.34,2.34,0,0,1,2.11-1.2c.88,0,2.25.53,2.25,2.71v3.81H67.87V302c0-1-.38-1.88-1.47-1.88a1.65,1.65,0,0,0-1.56,1.19,1.71,1.71,0,0,0-.08.54v3.83H63.6Z"/><path class="cls-3" d="M76.42,296.36v7.7c0,.57,0,1.21,0,1.65h-1l-.05-1.11h0a2.36,2.36,0,0,1-2.17,1.25c-1.54,0-2.73-1.3-2.73-3.24,0-2.12,1.3-3.42,2.86-3.42a2.14,2.14,0,0,1,1.92,1h0v-3.8Zm-1.16,5.57a2.05,2.05,0,0,0-.06-.49,1.69,1.69,0,0,0-1.67-1.34c-1.2,0-1.91,1-1.91,2.46s.63,2.36,1.89,2.36a1.74,1.74,0,0,0,1.69-1.39,1.9,1.9,0,0,0,.06-.5Z"/><path class="cls-3" d="M79.63,297.54a.72.72,0,0,1-1.44,0,.71.71,0,0,1,.73-.72A.69.69,0,0,1,79.63,297.54Zm-1.29,8.17v-6.38H79.5v6.38Z"/><path class="cls-3" d="M81.87,299.33l1.25,3.59a15.83,15.83,0,0,1,.51,1.63h0c.15-.53.33-1.05.54-1.63l1.24-3.59h1.21l-2.5,6.38H83.05l-2.42-6.38Z"/><path class="cls-3" d="M89,297.54a.67.67,0,0,1-.74.71.68.68,0,0,1-.69-.71.7.7,0,0,1,.72-.72A.68.68,0,0,1,89,297.54Zm-1.29,8.17v-6.38h1.16v6.38Z"/><path class="cls-3" d="M96.34,296.36v7.7c0,.57,0,1.21,0,1.65h-1l0-1.11h0a2.35,2.35,0,0,1-2.17,1.25c-1.54,0-2.73-1.3-2.73-3.24,0-2.12,1.31-3.42,2.86-3.42a2.14,2.14,0,0,1,1.92,1h0v-3.8Zm-1.16,5.57a2,2,0,0,0-.05-.49,1.71,1.71,0,0,0-1.68-1.34c-1.2,0-1.91,1-1.91,2.46s.64,2.36,1.89,2.36a1.75,1.75,0,0,0,1.7-1.39,1.93,1.93,0,0,0,.05-.5Z"/><path class="cls-3" d="M103.59,304c0,.66,0,1.24,0,1.74h-1l-.07-1h0a2.42,2.42,0,0,1-2.11,1.18c-1,0-2.2-.55-2.2-2.79v-3.73h1.16v3.53c0,1.21.37,2,1.42,2a1.68,1.68,0,0,0,1.53-1.05,1.84,1.84,0,0,0,.1-.6v-3.91h1.16Z"/><path class="cls-3" d="M109,305.71l-.09-.81h0a2.37,2.37,0,0,1-2,1A1.82,1.82,0,0,1,105,304c0-1.54,1.37-2.38,3.84-2.37v-.13a1.31,1.31,0,0,0-1.45-1.47,3.16,3.16,0,0,0-1.66.47l-.27-.76a3.93,3.93,0,0,1,2.1-.57c2,0,2.42,1.33,2.42,2.61v2.38a8.94,8.94,0,0,0,.11,1.53Zm-.17-3.26c-1.26,0-2.7.2-2.7,1.44a1,1,0,0,0,1.1,1.11,1.59,1.59,0,0,0,1.54-1.07,1.19,1.19,0,0,0,.06-.37Z"/><path class="cls-3" d="M111.86,296.36H113v9.35h-1.16Z"/><line class="cls-4" x1="162.34" y1="357.08" x2="162.34" y2="35.35"/><line class="cls-4" x1="106.55" y1="357.08" x2="162.34" y2="357.08"/><polyline class="cls-5" points="99.56 190.88 99.56 16.84 99.56 279.57"/><polyline class="cls-2" points="72.24 382.69 72.36 398.9 72.42 407.16"/><polyline class="cls-2" points="66.42 407.2 72.36 398.9 66.42 407.2"/><line class="cls-2" x1="72.36" y1="398.9" x2="77.4" y2="406.82"/><polyline class="cls-5" points="524.86 200.27 133.15 206.34 133.19 293.7 116.98 293.7"/><polyline class="cls-2" points="133.17 376.65 110.14 376.65 106.62 376.65"/><line class="cls-2" x1="135.6" y1="313.94" x2="133.16" y2="313.94"/><line class="cls-2" x1="130.65" y1="313.94" x2="127.52" y2="313.94"/><line class="cls-2" x1="125.62" y1="313.94" x2="123.18" y2="313.94"/><line class="cls-2" x1="120.67" y1="313.94" x2="117.54" y2="313.94"/><polyline class="cls-2" points="54.5 474.98 54.5 464.76 54.5 456.49"/><polyline class="cls-2" points="60.5 456.49 54.5 464.76 60.5 456.49"/><line class="cls-2" x1="54.5" y1="464.76" x2="49.52" y2="456.8"/><line class="cls-2" x1="94.98" y1="474.98" x2="54.5" y2="474.98"/><polyline class="cls-5" points="157.02 416.25 165.28 416.25 219.61 416.25 219.11 284.27 524.86 279.57"/><polyline class="cls-5" points="143.11 394.81 143.11 314.04 136.61 314.04"/></g></svg>